<svg font-family="Electrolize" font-size="14" height="5168" width="624" xmlns="http://www.w3.org/2000/svg">
<defs>
<marker id="triangle" markerHeight="10" markerUnits="strokeWidth" markerWidth="10" orient="auto" refX="0" refY="5" viewBox="0 0 14 14">
<path d="M 0 0 L 10 5 L 0 10 z"/>
</marker>
</defs>
<style>

    /* <![CDATA[ */
    line, path {
      stroke: black;
      stroke-width: 1;
    }
 /* ]]> */
    
</style>
<path d=" M 4 56 L 4 112 M 4 56 L 56 56 M 8 56 L 56 56 M 60 56 L 60 80 M 60 56 L 56 56 M 92 56 L 92 112 M 92 56 L 136 56 M 96 56 L 136 56 M 140 56 L 140 80 M 140 56 L 136 56 M 172 56 L 172 80 M 172 56 L 216 56 M 176 56 L 216 56 M 220 56 L 220 112 M 220 56 L 216 56 M 252 56 L 252 80 M 252 56 L 296 56 M 256 56 L 296 56 M 300 56 L 300 112 M 300 56 L 296 56 M 4 64 L 4 112 M 60 64 L 60 80 M 92 64 L 92 112 M 140 64 L 140 80 M 172 64 L 172 80 M 220 64 L 220 112 M 252 64 L 252 80 M 300 64 L 300 112 M 60 80 L 60 112 M 140 80 L 140 112 M 140 88 L 168 88 M 144 88 L 168 88 M 172 80 L 172 112 M 172 88 L 168 88 M 232 88 L 248 88 M 252 80 L 252 112 M 252 88 L 248 88 M 60 96 L 60 112 M 140 96 L 140 112 M 172 96 L 172 112 M 252 96 L 252 112 M 4 120 L 4 112 M 4 120 L 56 120 M 8 120 L 56 120 M 60 120 L 60 112 M 60 120 L 56 120 M 92 120 L 92 112 M 92 120 L 136 120 M 96 120 L 136 120 M 140 120 L 140 112 M 140 120 L 136 120 M 172 120 L 172 112 M 172 120 L 192 120 M 176 120 L 192 120 L 216 120 M 200 120 L 216 120 M 220 120 L 220 112 M 220 120 L 216 120 M 252 120 L 252 112 M 252 120 L 296 120 M 256 120 L 296 120 M 300 120 L 300 112 M 300 120 L 296 120 M 116 144 L 116 160 M 4 172 L 4 192 M 8 168 A 4 4 0 0 0 4 172 M 8 168 L 112 168 M 116 168 L 116 160 M 112 168 L 304 168 M 120 168 L 304 168 M 308 172 L 308 192 M 308 172 A 4 4 0 0 0 304 168 M 4 176 L 4 192 M 308 176 L 308 192 M 4 192 L 4 196 A 4 4 0 0 0 8 200 L 304 200 M 308 192 L 308 196 M 304 200 A 4 4 0 0 0 308 196 M 192 256 L 288 256 M 24 272 L 26 268 M 32 264 A 8 8 0 0 0 26 268 M 32 264 L 144 264 M 152 272 L 150 268 A 8 8 0 0 0 144 264 M 192 256 L 208 288 M 288 256 L 304 288 M 16 288 L 24 272 M 152 272 L 160 288 M 344 288 L 424 288 M 16 288 L 14 292 M 16 304 L 14 300 M 14 292 A 8 8 0 0 0 14 300 M 160 288 L 162 292 M 160 304 L 162 300 A 8 8 0 0 0 162 292 M 208 288 L 210 292 M 208 304 L 210 300 A 8 8 0 0 0 210 292 M 304 288 L 306 292 M 304 304 L 306 300 A 8 8 0 0 0 306 292 M 344 288 L 352 304 M 424 288 L 432 304 M 16 304 L 24 320 M 152 320 L 160 304 M 24 320 L 26 324 A 8 8 0 0 0 32 328 L 144 328 M 150 324 L 160 304 M 144 328 A 8 8 0 0 0 150 324 M 192 336 L 208 304 M 208 336 L 192 336 M 208 336 L 288 336 L 304 304 M 336 336 L 352 304 M 352 336 L 336 336 M 352 336 L 416 336 L 432 304 M 32 384 L 176 384 M 32 384 L 48 416 M 40 400 L 184 400 M 176 384 L 192 416 M 48 416 L 50 420 M 48 432 L 50 428 A 8 8 0 0 0 50 420 M 192 416 L 194 420 M 192 432 L 194 428 A 8 8 0 0 0 194 420 M 56 448 L 40 448 M 56 448 L 184 448 M 32 464 L 48 432 M 48 464 L 32 464 M 48 464 L 176 464 L 192 432 M 112 496 L 136 544 M 192 528 L 194 524 M 200 520 A 8 8 0 0 0 194 524 M 200 520 L 216 520 A 8 8 0 0 0 222 516 M 184 544 L 192 528 M 112 552 L 136 552 M 128 576 L 136 560 M 184 560 L 200 592 M 96 592 L 98 588 M 104 584 A 8 8 0 0 0 98 588 M 104 584 L 120 584 M 126 580 L 136 560 M 120 584 A 8 8 0 0 0 126 580 M 200 592 L 224 592 M 88 608 L 96 592 M 112 664 L 136 664 M 168 664 L 192 664 M 216 664 L 240 664 M 272 664 L 296 664 M 344 664 L 368 664 M 400 664 L 424 664 M 112 680 L 136 680 M 168 680 L 192 680 M 216 680 L 240 680 M 272 680 L 296 680 M 344 680 L 368 680 M 400 680 L 424 680 M 228 688 L 228 816 M 108 732 L 108 752 M 112 728 A 4 4 0 0 0 108 732 M 112 728 L 208 728 M 212 732 L 212 752 M 212 732 A 4 4 0 0 0 208 728 M 244 732 L 244 752 M 248 728 A 4 4 0 0 0 244 732 M 248 728 L 336 728 M 340 732 L 340 752 M 340 732 A 4 4 0 0 0 336 728 M 380 732 L 380 752 M 384 728 A 4 4 0 0 0 380 732 M 384 728 L 424 728 M 428 732 L 428 752 M 428 732 A 4 4 0 0 0 424 728 M 108 736 L 108 752 M 212 736 L 212 752 M 244 736 L 244 752 M 340 736 L 340 752 M 380 736 L 380 752 M 428 736 L 428 752 M 108 752 L 108 756 A 4 4 0 0 0 112 760 L 208 760 M 212 752 L 212 756 M 208 760 A 4 4 0 0 0 212 756 M 244 752 L 244 756 A 4 4 0 0 0 248 760 L 336 760 M 340 752 L 340 756 M 336 760 A 4 4 0 0 0 340 756 M 380 752 L 380 756 A 4 4 0 0 0 384 760 L 424 760 M 428 752 L 428 756 M 424 760 A 4 4 0 0 0 428 756 M 140 812 L 140 832 M 144 808 A 4 4 0 0 0 140 812 M 144 808 L 176 808 M 180 812 L 180 832 M 180 812 A 4 4 0 0 0 176 808 M 324 812 L 324 832 M 328 808 A 4 4 0 0 0 324 812 M 328 808 L 400 808 M 404 812 L 404 832 M 404 812 A 4 4 0 0 0 400 808 M 140 816 L 140 832 M 180 816 L 180 832 M 192 824 L 224 824 M 228 816 L 228 820 M 224 824 A 4 4 0 0 0 228 820 M 324 816 L 324 832 M 404 816 L 404 832 M 140 832 L 140 836 A 4 4 0 0 0 144 840 L 176 840 M 180 832 L 180 836 M 176 840 A 4 4 0 0 0 180 836 M 324 832 L 324 836 A 4 4 0 0 0 328 840 L 400 840 M 404 832 L 404 836 M 400 840 A 4 4 0 0 0 404 836 M 108 892 L 108 912 M 112 888 A 4 4 0 0 0 108 892 M 112 888 L 424 888 M 428 892 L 428 912 M 428 892 A 4 4 0 0 0 424 888 M 108 896 L 108 912 M 428 896 L 428 912 M 108 912 L 108 916 A 4 4 0 0 0 112 920 L 424 920 M 428 912 L 428 916 M 424 920 A 4 4 0 0 0 428 916 M 32 976 L 20 976 M 32 976 L 56 976 M 20 976 L 20 1072 M 40 992 L 28 992 M 40 992 L 60 992 M 68 976 L 68 1072 M 28 992 L 28 1024 M 60 992 L 60 1024 M 40 1024 L 28 1024 M 40 1024 L 60 1024 M 72 1032 L 536 1032 M 540 1036 A 4 4 0 0 0 536 1032 M 20 1072 L 20 1076 A 4 4 0 0 0 24 1080 L 64 1080 M 68 1072 L 68 1076 M 64 1080 A 4 4 0 0 0 68 1076 M 28 1132 L 28 1152 M 32 1128 A 4 4 0 0 0 28 1132 M 32 1128 L 184 1128 M 188 1132 L 188 1152 M 188 1132 A 4 4 0 0 0 184 1128 M 212 1132 L 212 1184 M 216 1128 A 4 4 0 0 0 212 1132 M 216 1128 L 432 1128 M 436 1132 L 436 1232 M 436 1132 A 4 4 0 0 0 432 1128 M 460 1132 L 460 1168 M 464 1128 A 4 4 0 0 0 460 1132 M 464 1128 L 616 1128 M 620 1132 L 620 1168 M 620 1132 A 4 4 0 0 0 616 1128 M 28 1136 L 28 1152 M 188 1136 L 188 1152 M 212 1136 L 212 1184 M 436 1136 L 436 1232 M 460 1136 L 460 1168 M 620 1136 L 620 1168 M 28 1152 L 28 1156 A 4 4 0 0 0 32 1160 L 184 1160 M 188 1152 L 188 1156 M 184 1160 A 4 4 0 0 0 188 1156 M 216 1160 L 432 1160 M 108 1168 L 108 1184 M 292 1180 L 292 1200 M 296 1176 A 4 4 0 0 0 292 1180 M 296 1176 L 336 1176 M 340 1180 L 340 1200 M 340 1180 A 4 4 0 0 0 336 1176 M 460 1168 L 460 1172 A 4 4 0 0 0 464 1176 L 616 1176 M 620 1168 L 620 1172 M 616 1176 A 4 4 0 0 0 620 1172 M 108 1184 L 108 1188 A 4 4 0 0 0 112 1192 L 208 1192 M 212 1184 L 212 1264 M 292 1184 L 292 1200 M 340 1184 L 340 1200 M 548 1184 L 548 1232 M 212 1200 L 212 1264 M 292 1200 L 292 1204 A 4 4 0 0 0 296 1208 L 336 1208 M 340 1200 L 340 1204 M 336 1208 A 4 4 0 0 0 340 1204 M 248 1232 L 250 1228 M 256 1224 A 8 8 0 0 0 250 1228 M 256 1224 L 400 1224 M 400 1232 L 402 1228 A 4 4 0 0 0 400 1224 M 240 1248 L 248 1232 M 392 1248 L 400 1232 M 408 1240 L 432 1240 M 436 1232 L 436 1264 M 432 1240 L 544 1240 M 440 1240 L 544 1240 M 548 1232 L 548 1236 M 544 1240 A 4 4 0 0 0 548 1236 M 238 1252 L 248 1232 M 238 1252 A 4 4 0 0 0 240 1256 L 384 1256 M 390 1252 L 400 1232 M 384 1256 A 8 8 0 0 0 390 1252 M 436 1248 L 436 1264 M 212 1264 L 212 1268 A 4 4 0 0 0 216 1272 L 432 1272 M 436 1264 L 436 1268 M 432 1272 A 4 4 0 0 0 436 1268 M 72 1312 L 70 1308 M 72 1304 A 4 4 0 0 0 70 1308 M 72 1304 L 184 1304 M 192 1312 L 190 1308 A 8 8 0 0 0 184 1304 M 72 1312 L 80 1328 M 192 1312 L 200 1328 M 80 1328 L 82 1332 A 8 8 0 0 0 88 1336 L 200 1336 M 200 1328 L 202 1332 M 200 1336 A 4 4 0 0 0 202 1332 M 320 1376 L 322 1372 M 328 1368 A 8 8 0 0 0 322 1372 M 520 1376 L 528 1376 M 312 1392 L 320 1376 M 304 1408 L 320 1376 M 310 1400 A 8 8 0 0 0 306 1404 M 520 1408 L 528 1408 M 128 1416 L 184 1416 M 192 1424 L 190 1420 A 8 8 0 0 0 184 1416 M 376 1408 L 384 1424 M 192 1424 L 240 1520 M 384 1424 L 400 1456 M 386 1428 A 8 8 0 0 0 390 1432 M 392 1440 L 400 1456 M 96 1456 L 128 1520 M 400 1456 L 402 1460 A 8 8 0 0 0 408 1464 M 264 1488 L 304 1408 M 256 1504 L 304 1408 M 262 1496 A 8 8 0 0 0 258 1500 M 528 1504 L 536 1504 M 248 1520 L 256 1504 M 128 1520 L 130 1524 A 8 8 0 0 0 136 1528 L 184 1528 M 184 1552 L 192 1536 M 208 1536 L 288 1696 M 224 1536 L 280 1648 M 240 1536 L 264 1584 M 184 1552 L 182 1556 M 180 1568 L 180 1564 M 182 1556 A 16 16 0 0 0 180 1564 M 180 1568 L 180 1584 L 180 1616 M 176 1600 L 178 1596 A 16 16 0 0 0 180 1588 M 264 1584 L 266 1588 A 8 8 0 0 0 272 1592 L 296 1592 M 168 1616 L 176 1600 M 180 1600 L 180 1616 M 312 1600 L 320 1616 M 180 1616 L 180 1648 M 176 1632 L 178 1628 A 16 16 0 0 0 180 1620 M 320 1616 L 322 1620 A 8 8 0 0 0 328 1624 L 360 1624 M 168 1648 L 176 1632 M 180 1632 L 180 1648 L 180 1680 M 176 1664 L 178 1660 A 16 16 0 0 0 180 1652 M 280 1648 L 282 1652 A 8 8 0 0 0 288 1656 L 296 1656 M 168 1680 L 176 1664 M 180 1664 L 180 1680 L 180 1684 M 176 1696 L 178 1692 A 16 16 0 0 0 180 1684 M 168 1712 L 176 1696 M 288 1696 L 290 1700 A 8 8 0 0 0 296 1704 L 320 1704 M 184 1744 L 216 1808 M 136 1808 L 168 1744 M 36 1840 L 36 1904 M 36 1912 L 36 1904 M 56 2272 L 64 2288 M 68 2272 L 68 2288 M 56 2320 L 64 2304 M 56 2368 L 64 2384 M 68 2368 L 68 2384 M 56 2392 L 64 2392 M 56 2416 L 64 2400 M 56 2448 L 64 2464 M 68 2448 L 68 2464 M 72 2464 L 80 2448 M 56 2472 L 64 2472 M 68 2464 L 68 2496 M 64 2472 L 80 2472 M 64 2464 L 80 2496 M 64 2480 L 80 2448 M 72 2472 L 80 2472 M 56 2496 L 64 2480 M 68 2480 L 68 2496 M 72 2480 L 80 2496 M 68 2512 L 68 2528 M 96 2512 L 112 2544 M 56 2536 L 64 2536 M 68 2528 L 68 2560 M 64 2536 L 80 2536 M 72 2536 L 80 2536 M 96 2544 L 112 2512 M 68 2544 L 68 2560 M 68 2576 L 68 2592 M 124 2576 L 124 2592 M 164 2576 L 164 2592 M 220 2576 L 220 2592 M 68 2600 L 68 2592 M 68 2600 L 88 2600 M 72 2600 L 88 2600 M 104 2600 L 120 2600 M 124 2600 L 124 2592 M 124 2600 L 120 2600 M 164 2592 L 164 2624 M 164 2600 L 184 2600 M 168 2600 L 184 2600 M 200 2600 L 216 2600 M 220 2592 L 220 2624 M 220 2600 L 216 2600 M 252 2600 L 252 2624 M 252 2600 L 272 2600 M 256 2600 L 272 2600 M 288 2600 L 304 2600 M 308 2600 L 308 2624 M 308 2600 L 304 2600 M 164 2608 L 164 2624 M 220 2608 L 220 2624 M 252 2608 L 252 2624 M 308 2608 L 308 2624 M 172 2640 L 172 2656 M 212 2640 L 212 2656 M 236 2640 L 236 2656 M 284 2640 L 284 2656 M 108 2668 L 108 2688 M 112 2664 A 4 4 0 0 0 108 2668 M 112 2664 L 120 2664 M 128 2664 L 136 2664 M 140 2668 L 140 2688 M 140 2668 A 4 4 0 0 0 136 2664 M 172 2656 L 172 2660 A 4 4 0 0 0 176 2664 L 184 2664 M 200 2664 L 208 2664 M 212 2656 L 212 2660 M 208 2664 A 4 4 0 0 0 212 2660 M 236 2656 L 236 2660 A 4 4 0 0 0 240 2664 L 248 2664 M 272 2664 L 280 2664 M 284 2656 L 284 2660 M 280 2664 A 4 4 0 0 0 284 2660 M 108 2672 L 108 2688 M 140 2672 L 140 2688 M 72 2712 L 80 2712 M 104 2712 L 112 2712 M 140 2716 L 140 2736 M 144 2712 A 4 4 0 0 0 140 2716 M 144 2712 L 152 2712 M 156 2716 L 156 2736 M 156 2716 A 4 4 0 0 0 152 2712 M 72 2728 L 80 2728 M 104 2728 L 112 2728 M 140 2720 L 140 2736 M 156 2720 L 156 2736 M 180 2720 L 180 2736 M 196 2720 L 196 2736 M 180 2736 L 180 2740 A 4 4 0 0 0 184 2744 L 192 2744 M 196 2736 L 196 2740 M 192 2744 A 4 4 0 0 0 196 2740 M 48 2768 L 56 2784 M 108 2768 L 108 2784 M 144 2784 L 152 2768 M 172 2768 L 172 2784 M 56 2784 L 58 2788 M 60 2796 L 60 2816 M 60 2796 A 16 16 0 0 0 58 2788 M 108 2784 L 108 2788 M 104 2800 L 106 2796 A 16 16 0 0 0 108 2788 M 144 2784 L 142 2788 M 140 2800 L 140 2796 M 142 2788 A 16 16 0 0 0 140 2796 M 172 2784 L 172 2788 M 174 2796 L 184 2816 M 172 2788 A 16 16 0 0 0 174 2796 M 60 2800 L 60 2816 M 96 2816 L 104 2800 M 140 2800 L 140 2816 M 176 2800 L 184 2816 M 64 2832 L 72 2848 M 104 2848 L 112 2832 M 72 2848 L 74 2852 M 72 2864 L 74 2860 A 8 8 0 0 0 74 2852 M 104 2848 L 102 2852 M 104 2864 L 102 2860 M 102 2852 A 8 8 0 0 0 102 2860 M 64 2880 L 72 2864 M 104 2864 L 112 2880 M 48 2928 L 56 2912 M 60 2912 L 60 2928 M 100 2912 L 100 2928 M 104 2912 L 112 2928 M 48 2960 L 56 2976 M 60 2960 L 60 2976 M 92 2960 L 92 2976 M 96 2976 L 104 2960 M 56 3008 L 64 3024 M 56 3040 L 64 3024 M 56 3072 L 64 3056 M 56 3072 L 64 3088 M 56 3136 L 64 3120 M 112 3120 L 120 3136 M 48 3152 L 64 3120 M 54 3144 L 72 3144 M 54 3144 A 8 8 0 0 0 50 3148 M 56 3144 L 72 3144 M 104 3144 L 120 3144 M 120 3136 L 136 3168 M 122 3144 L 120 3144 M 126 3148 A 8 8 0 0 0 122 3144 M 40 3168 L 48 3152 M 128 3152 L 136 3168 M 56 3200 L 64 3184 M 88 3184 L 96 3200 M 32 3208 L 48 3208 M 48 3216 L 64 3184 M 50 3208 L 48 3208 M 50 3208 A 8 8 0 0 0 54 3204 M 96 3200 L 112 3232 M 102 3208 L 120 3208 M 98 3204 A 8 8 0 0 0 102 3208 M 104 3208 L 120 3208 M 40 3232 L 48 3216 M 104 3216 L 112 3232 M 184 3248 L 192 3264 M 264 3264 L 272 3248 M 56 3272 L 72 3272 M 72 3280 L 74 3276 A 4 4 0 0 0 72 3272 M 80 3272 L 96 3272 M 112 3272 L 128 3272 M 136 3280 L 134 3276 M 136 3272 A 4 4 0 0 0 134 3276 M 136 3272 L 152 3272 M 176 3272 L 192 3272 M 192 3264 L 194 3268 M 192 3272 A 4 4 0 0 0 194 3268 M 200 3272 L 216 3272 M 240 3272 L 256 3272 M 262 3268 L 272 3248 M 256 3272 A 8 8 0 0 0 262 3268 M 264 3272 L 280 3272 M 64 3296 L 72 3280 M 136 3280 L 144 3296 M 68 3328 L 68 3344 M 100 3328 L 100 3344 M 68 3344 L 68 3376 M 64 3360 L 66 3356 A 16 16 0 0 0 68 3348 M 100 3344 L 100 3376 M 104 3360 L 102 3356 M 100 3348 A 16 16 0 0 0 102 3356 M 56 3376 L 64 3360 M 68 3360 L 68 3376 M 100 3360 L 100 3376 M 104 3360 L 112 3376 M 68 3392 L 68 3408 L 68 3412 M 70 3420 L 80 3440 M 68 3412 A 16 16 0 0 0 70 3420 M 56 3440 L 64 3424 M 72 3424 L 80 3440 M 56 3456 L 64 3472 M 68 3456 L 68 3472 M 72 3472 L 80 3456 M 68 3472 L 68 3504 M 64 3472 L 80 3504 M 64 3488 L 80 3456 M 56 3504 L 64 3488 M 68 3488 L 68 3504 M 72 3488 L 80 3504 M 56 3536 L 64 3552 M 68 3536 L 68 3552 M 72 3552 L 80 3536 M 48 3560 L 64 3560 M 68 3552 L 68 3584 M 64 3560 L 88 3560 M 64 3552 L 80 3584 M 64 3568 L 80 3536 M 72 3560 L 88 3560 M 56 3584 L 64 3568 M 68 3568 L 68 3584 M 72 3568 L 80 3584 M 56 3600 L 64 3616 M 68 3600 L 68 3616 M 72 3616 L 80 3600 M 48 3624 L 64 3624 M 68 3616 L 68 3648 M 64 3624 L 88 3624 M 64 3616 L 80 3648 M 64 3632 L 80 3600 M 72 3624 L 88 3624 M 56 3648 L 64 3632 M 68 3632 L 68 3648 M 72 3632 L 80 3648 M 68 3664 L 68 3680 M 72 3680 L 80 3664 M 96 3664 L 104 3680 M 108 3664 L 108 3680 M 72 3680 L 70 3684 M 68 3696 L 68 3692 M 70 3684 A 16 16 0 0 0 68 3692 M 104 3680 L 106 3684 M 108 3692 L 108 3712 M 108 3692 A 16 16 0 0 0 106 3684 M 68 3696 L 68 3712 M 108 3696 L 108 3712 M 56 3752 L 64 3752 M 64 3760 L 66 3756 A 4 4 0 0 0 64 3752 M 88 3752 L 96 3752 M 104 3760 L 102 3756 A 8 8 0 0 0 96 3752 M 56 3776 L 64 3760 M 104 3760 L 112 3776 M 64 3808 L 66 3804 M 72 3800 A 8 8 0 0 0 66 3804 M 72 3800 L 80 3800 M 104 3808 L 102 3804 M 104 3800 A 4 4 0 0 0 102 3804 M 104 3800 L 112 3800 M 56 3824 L 64 3808 M 104 3808 L 112 3824 M 56 3872 L 64 3856 M 88 3872 L 96 3856 M 136 3856 L 144 3872 M 176 3856 L 184 3872 M 54 3876 L 64 3856 M 54 3876 A 4 4 0 0 0 56 3880 L 64 3880 M 86 3876 L 96 3856 M 86 3876 A 4 4 0 0 0 88 3880 L 144 3880 M 144 3872 L 146 3876 M 144 3880 A 4 4 0 0 0 146 3876 M 176 3880 L 184 3880 M 184 3872 L 186 3876 M 184 3880 A 4 4 0 0 0 186 3876 M 64 3928 L 72 3928 M 64 3960 L 72 3960 M 64 4072 L 112 4072 M 64 4104 L 112 4104 M 64 4144 L 128 4144 M 40 4192 L 64 4144 M 56 4192 L 40 4192 M 56 4192 L 104 4192 L 128 4144 M 64 4240 L 128 4240 M 64 4240 L 88 4288 M 128 4240 L 152 4288 M 88 4288 L 152 4288 M 64 4320 L 52 4320 M 64 4320 L 124 4320 M 52 4320 L 52 4336 M 64 4336 L 52 4336 M 64 4336 L 124 4336 M 124 4320 L 124 4336 M 64 4384 L 52 4384 M 64 4384 L 124 4384 M 52 4384 L 52 4416 M 124 4384 L 124 4416 M 64 4416 L 52 4416 M 64 4416 L 124 4416 M 56 4440 L 64 4440 M 56 4456 L 64 4456 M 64 4496 L 128 4496 M 64 4496 L 72 4512 L 136 4512 M 128 4496 L 136 4512 M 64 4528 L 88 4576 M 40 4576 L 64 4528 M 56 4576 L 40 4576 M 56 4576 L 88 4576 M 64 4592 L 88 4640 M 40 4640 L 64 4592 M 38 4644 L 64 4592 M 38 4644 A 4 4 0 0 0 40 4648 L 88 4648 M 88 4640 L 90 4644 M 88 4648 A 4 4 0 0 0 90 4644 M 56 4688 L 80 4688 M 48 4704 L 56 4688 M 80 4688 L 88 4704 M 48 4704 L 56 4720 L 80 4720 L 88 4704 M 48 4752 L 96 4752 L 112 4784 M 32 4784 L 48 4752 M 32 4784 L 48 4816 L 96 4816 L 112 4784 M 68 4856 L 68 4912 M 68 4856 L 144 4856 M 72 4856 L 144 4856 M 148 4856 L 148 4912 M 148 4856 L 144 4856 M 68 4864 L 68 4912 M 148 4864 L 148 4912 M 348 4872 L 348 4928 M 348 4872 L 464 4872 M 352 4872 L 464 4872 M 468 4872 L 468 4928 M 468 4872 L 464 4872 M 152 4888 L 168 4888 M 172 4888 L 172 4944 M 172 4888 L 168 4888 M 348 4880 L 348 4928 M 468 4880 L 468 4928 M 172 4896 L 172 4944 M 316 4904 L 316 4960 M 68 4920 L 68 4912 M 68 4920 L 144 4920 M 72 4920 L 144 4920 M 148 4920 L 148 4912 M 148 4920 L 144 4920 M 204 4920 L 204 5040 M 204 4920 L 288 4920 M 208 4920 L 288 4920 M 292 4920 L 292 5040 M 292 4920 L 288 4920 M 316 4912 L 316 4960 M 368 4928 L 376 4912 M 400 4928 L 408 4912 M 204 4928 L 204 5040 M 292 4928 L 292 5040 M 348 4936 L 348 4928 M 348 4936 L 464 4936 M 352 4936 L 464 4936 M 468 4936 L 468 4928 M 468 4936 L 464 4936 M 68 4952 L 68 5008 M 68 4952 L 144 4952 M 72 4952 L 144 4952 M 148 4952 L 148 5008 M 148 4952 L 144 4952 M 172 4952 L 172 4944 M 68 4960 L 68 5008 M 148 4960 L 148 5008 M 296 4968 L 312 4968 M 316 4968 L 316 4960 M 316 4968 L 312 4968 M 232 4984 L 240 4984 M 296 5000 L 312 5000 M 316 5000 L 316 5056 M 316 5000 L 312 5000 M 68 5016 L 68 5008 M 68 5016 L 144 5016 M 72 5016 L 144 5016 M 148 5016 L 148 5008 M 148 5016 L 144 5016 M 172 5016 L 172 5072 M 316 5008 L 316 5056 M 172 5024 L 172 5072 M 348 5032 L 348 5088 M 348 5032 L 464 5032 M 352 5032 L 464 5032 M 468 5032 L 468 5088 M 468 5032 L 464 5032 M 68 5048 L 68 5104 M 68 5048 L 144 5048 M 72 5048 L 144 5048 M 148 5048 L 148 5104 M 148 5048 L 144 5048 M 204 5048 L 204 5040 M 204 5048 L 288 5048 M 208 5048 L 288 5048 M 292 5048 L 292 5040 M 292 5048 L 288 5048 M 348 5040 L 348 5088 M 468 5040 L 468 5088 M 68 5056 L 68 5104 M 148 5056 L 148 5104 M 316 5064 L 316 5056 M 152 5080 L 168 5080 M 172 5080 L 172 5072 M 172 5080 L 168 5080 M 368 5088 L 376 5072 M 400 5088 L 408 5072 M 348 5096 L 348 5088 M 348 5096 L 464 5096 M 352 5096 L 464 5096 M 468 5096 L 468 5088 M 468 5096 L 464 5096 M 68 5112 L 68 5104 M 68 5112 L 144 5112 M 72 5112 L 144 5112 M 148 5112 L 148 5104 M 148 5112 L 144 5112" fill="none"/>
<path d=" M 36 1952 L 36 2016 M 8 2024 L 32 2024 M 32 2112 L 272 2112 M 32 2144 L 56 2144" fill="none"/>
<line marker-end="url(#triangle)" x1="60" x2="84" y1="88" y2="88"/>
<line marker-end="url(#triangle)" x1="64" x2="84" y1="88" y2="88"/>
<line marker-end="url(#triangle)" x1="232" x2="228" y1="88" y2="88"/>
<line marker-end="url(#triangle)" x1="196" x2="196" y1="120" y2="160"/>
<line marker-end="url(#triangle)" x1="116" x2="116" y1="144" y2="128"/>
<line marker-end="url(#triangle)" x1="196" x2="196" y1="128" y2="160"/>
<line marker-end="url(#triangle)" x1="112" x2="108" y1="496" y2="488"/>
<line marker-end="url(#triangle)" x1="224" x2="236" y1="512" y2="488"/>
<line marker-end="url(#triangle)" x1="222" x2="236" y1="516" y2="488"/>
<line marker-end="url(#triangle)" x1="112" x2="108" y1="552" y2="552"/>
<line marker-end="url(#triangle)" x1="184" x2="220" y1="552" y2="552"/>
<line marker-end="url(#triangle)" x1="224" x2="236" y1="592" y2="616"/>
<line marker-end="url(#triangle)" x1="88" x2="84" y1="608" y2="616"/>
<line marker-end="url(#triangle)" x1="124" x2="124" y1="688" y2="720"/>
<line marker-end="url(#triangle)" x1="180" x2="180" y1="688" y2="720"/>
<line marker-end="url(#triangle)" x1="284" x2="284" y1="688" y2="720"/>
<line marker-end="url(#triangle)" x1="356" x2="356" y1="688" y2="800"/>
<line marker-end="url(#triangle)" x1="412" x2="412" y1="688" y2="720"/>
<line marker-end="url(#triangle)" x1="164" x2="164" y1="768" y2="800"/>
<line marker-end="url(#triangle)" x1="284" x2="284" y1="768" y2="880"/>
<line marker-end="url(#triangle)" x1="192" x2="188" y1="824" y2="824"/>
<line marker-end="url(#triangle)" x1="164" x2="164" y1="848" y2="880"/>
<line marker-end="url(#triangle)" x1="364" x2="364" y1="848" y2="880"/>
<line marker-end="url(#triangle)" x1="540" x2="540" y1="1036" y2="1120"/>
<line marker-end="url(#triangle)" x1="108" x2="108" y1="1040" y2="1120"/>
<line marker-end="url(#triangle)" x1="324" x2="324" y1="1040" y2="1120"/>
<line marker-end="url(#triangle)" x1="540" x2="540" y1="1040" y2="1120"/>
<line marker-end="url(#triangle)" x1="208" x2="284" y1="1192" y2="1192"/>
<line marker-end="url(#triangle)" x1="216" x2="284" y1="1192" y2="1192"/>
<line marker-end="url(#triangle)" x1="408" x2="404" y1="1240" y2="1240"/>
<line marker-end="url(#triangle)" x1="328" x2="348" y1="1368" y2="1368"/>
<line marker-end="url(#triangle)" x1="310" x2="348" y1="1400" y2="1400"/>
<line marker-end="url(#triangle)" x1="312" x2="348" y1="1400" y2="1400"/>
<line marker-end="url(#triangle)" x1="390" x2="420" y1="1432" y2="1432"/>
<line marker-end="url(#triangle)" x1="392" x2="420" y1="1432" y2="1432"/>
<line marker-end="url(#triangle)" x1="408" x2="428" y1="1464" y2="1464"/>
<line marker-end="url(#triangle)" x1="262" x2="356" y1="1496" y2="1496"/>
<line marker-end="url(#triangle)" x1="264" x2="356" y1="1496" y2="1496"/>
<line marker-end="url(#triangle)" x1="168" x2="164" y1="1712" y2="1720"/>
<line marker-end="url(#triangle)" x1="36" x2="36" y1="1840" y2="1824"/>
<line marker-end="url(#triangle)" x1="36" x2="276" y1="1912" y2="1912"/>
<line marker-end="url(#triangle)" x1="40" x2="276" y1="1912" y2="1912"/>
<line marker-end="url(#triangle)" stroke-dasharray="3 3" x1="36" x2="36" y1="1952" y2="1936"/>
<line marker-end="url(#triangle)" stroke-dasharray="3 3" x1="8" x2="4" y1="2024" y2="2024"/>
<line marker-end="url(#triangle)" stroke-dasharray="3 3" x1="36" x2="36" y1="2016" y2="2080"/>
<line marker-end="url(#triangle)" stroke-dasharray="3 3" x1="32" x2="284" y1="2024" y2="2024"/>
<line marker-end="url(#triangle)" stroke-dasharray="3 3" x1="40" x2="284" y1="2024" y2="2024"/>
<line marker-end="url(#triangle)" stroke-dasharray="3 3" x1="36" x2="36" y1="2032" y2="2080"/>
<line marker-end="url(#triangle)" x1="56" x2="52" y1="2272" y2="2264"/>
<line marker-end="url(#triangle)" x1="68" x2="68" y1="2272" y2="2256"/>
<line marker-end="url(#triangle)" x1="72" x2="84" y1="2288" y2="2264"/>
<line marker-end="url(#triangle)" x1="68" x2="68" y1="2288" y2="2336"/>
<line marker-end="url(#triangle)" x1="64" x2="84" y1="2288" y2="2328"/>
<line marker-end="url(#triangle)" x1="64" x2="84" y1="2304" y2="2264"/>
<line marker-end="url(#triangle)" x1="68" x2="68" y1="2304" y2="2336"/>
<line marker-end="url(#triangle)" x1="72" x2="84" y1="2304" y2="2328"/>
<line marker-end="url(#triangle)" x1="56" x2="52" y1="2320" y2="2328"/>
<line marker-end="url(#triangle)" x1="56" x2="52" y1="2368" y2="2360"/>
<line marker-end="url(#triangle)" x1="68" x2="68" y1="2368" y2="2352"/>
<line marker-end="url(#triangle)" x1="72" x2="84" y1="2384" y2="2360"/>
<line marker-end="url(#triangle)" x1="56" x2="52" y1="2392" y2="2392"/>
<line marker-end="url(#triangle)" x1="68" x2="68" y1="2384" y2="2432"/>
<line marker-end="url(#triangle)" x1="64" x2="84" y1="2392" y2="2392"/>
<line marker-end="url(#triangle)" x1="64" x2="84" y1="2384" y2="2424"/>
<line marker-end="url(#triangle)" x1="64" x2="84" y1="2400" y2="2360"/>
<line marker-end="url(#triangle)" x1="72" x2="84" y1="2392" y2="2392"/>
<line marker-end="url(#triangle)" x1="68" x2="68" y1="2400" y2="2432"/>
<line marker-end="url(#triangle)" x1="72" x2="84" y1="2400" y2="2424"/>
<line marker-end="url(#triangle)" x1="56" x2="52" y1="2416" y2="2424"/>
<line marker-end="url(#triangle)" x1="316" x2="340" y1="4904" y2="4904"/>
<line marker-end="url(#triangle)" x1="320" x2="340" y1="4904" y2="4904"/>
<line marker-end="url(#triangle)" x1="172" x2="196" y1="4952" y2="4952"/>
<line marker-end="url(#triangle)" x1="176" x2="196" y1="4952" y2="4952"/>
<line marker-end="url(#triangle)" x1="152" x2="196" y1="4984" y2="4984"/>
<line marker-end="url(#triangle)" x1="172" x2="196" y1="5016" y2="5016"/>
<line marker-end="url(#triangle)" x1="176" x2="196" y1="5016" y2="5016"/>
<line marker-end="url(#triangle)" x1="316" x2="340" y1="5064" y2="5064"/>
<line marker-end="url(#triangle)" x1="320" x2="340" y1="5064" y2="5064"/>
<text x="18" y="92">
Foo
</text>
<text x="106" y="92">
Bar
</text>
<text x="186" y="92">
Baz
</text>
<text x="266" y="92">
Moo
</text>
<text x="18" y="188">
Hello here and there and everywhere
</text>
<text x="34" y="284">
a
</text>
<text x="50" y="284">
==
</text>
<text x="74" y="284">
b
</text>
<text x="50" y="300">
&amp;
</text>
<text x="58" y="300">
&amp;
</text>
<text x="226" y="300">
process
</text>
<text x="34" y="316">
&apos;
</text>
<text x="42" y="316">
string&apos;
</text>
<text x="106" y="316">
ne
</text>
<text x="130" y="316">
&apos;
</text>
<text x="138" y="316">
&apos;
</text>
<text x="362" y="316">
process
</text>
<text x="66" y="428">
another process
</text>
<text x="18" y="492">
User code
</text>
<text x="250" y="492">
OS code
</text>
<text x="18" y="556">
User code
</text>
<text x="146" y="556">
Mode
</text>
<text x="234" y="556">
OS code
</text>
<text x="58" y="636">
User code
</text>
<text x="226" y="636">
OS code
</text>
<text x="106" y="668">
.
</text>
<text x="138" y="668">
.
</text>
<text x="162" y="668">
.
</text>
<text x="194" y="668">
.
</text>
<text x="210" y="668">
.
</text>
<text x="242" y="668">
.
</text>
<text x="266" y="668">
.
</text>
<text x="298" y="668">
.
</text>
<text x="338" y="668">
.
</text>
<text x="370" y="668">
.
</text>
<text x="394" y="668">
.
</text>
<text x="426" y="668">
.
</text>
<text x="34" y="684">
OS API
</text>
<text x="106" y="684">
&apos;
</text>
<text x="138" y="684">
&apos;
</text>
<text x="162" y="684">
&apos;
</text>
<text x="194" y="684">
&apos;
</text>
<text x="210" y="684">
&apos;
</text>
<text x="242" y="684">
&apos;
</text>
<text x="266" y="684">
&apos;
</text>
<text x="298" y="684">
&apos;
</text>
<text x="338" y="684">
&apos;
</text>
<text x="370" y="684">
&apos;
</text>
<text x="394" y="684">
&apos;
</text>
<text x="426" y="684">
&apos;
</text>
<text x="122" y="748">
Filesystem
</text>
<text x="258" y="748">
Scheduler
</text>
<text x="394" y="748">
MMU
</text>
<text x="154" y="828">
IO
</text>
<text x="338" y="828">
Network
</text>
<text x="258" y="908">
HAL
</text>
<text x="58" y="972">
[]
</text>
<text x="90" y="1004">
device
</text>
<text x="90" y="1020">
loads
</text>
<text x="34" y="1036">
ooo
</text>
<text x="34" y="1052">
ooo
</text>
<text x="34" y="1068">
ooo
</text>
<text x="42" y="1148">
Loadable module C
</text>
<text x="258" y="1148">
Loadable module A
</text>
<text x="474" y="1148">
Loadable module B
</text>
<text x="490" y="1164">
(instrumented)
</text>
<text x="306" y="1196">
A.o
</text>
<text x="138" y="1212">
calls
</text>
<text x="258" y="1244">
A.instrumented.o
</text>
<text x="474" y="1260">
calls
</text>
<text x="362" y="1372">
Base::Class::Derived
</text>
<text x="530" y="1372">
A
</text>
<text x="362" y="1404">
Base::Class::Derived
</text>
<text x="530" y="1404">
B
</text>
<text x="50" y="1420">
Something
</text>
<text x="434" y="1436">
Base::Class::Derived
</text>
<text x="50" y="1452">
Something::else
</text>
<text x="442" y="1468">
Base::Class::Derived
</text>
<text x="370" y="1500">
Base::Class::Derived
</text>
<text x="538" y="1500">
C
</text>
<text x="194" y="1532">
Base::Class
</text>
<text x="306" y="1596">
The::Latest
</text>
<text x="10" y="1628">
With::Some::fantasy
</text>
<text x="370" y="1628">
The::Latest::Greatest
</text>
<text x="74" y="1660">
More::Stuff
</text>
<text x="306" y="1660">
I::Am::Running::Out::Of::Ideas
</text>
<text x="74" y="1692">
More::Stuff
</text>
<text x="330" y="1708">
Last::One
</text>
<text x="58" y="1724">
More::Stuff
</text>
<text x="18" y="1820">
Safety
</text>
<text x="226" y="1852">
*Rust
</text>
<text x="130" y="1868">
*Java
</text>
<text x="50" y="1884">
*Python
</text>
<text x="234" y="1900">
*C++
</text>
<text x="290" y="1916">
Control
</text>
<text x="34" y="2156">
..
</text>
<text x="18" y="2188">
this is a sentence
</text>
<text x="18" y="2204">
separated
</text>
<text x="106" y="2204">
words
</text>
<text x="162" y="2204">
of nill
</text>
<text x="18" y="2236">
TODO:
</text>
<text x="58" y="2332">
 
</text>
<text x="74" y="2332">
 
</text>
<text x="58" y="2428">
 
</text>
<text x="74" y="2428">
 
</text>
<text x="66" y="2716">
.
</text>
<text x="114" y="2716">
.
</text>
<text x="66" y="2732">
&apos;
</text>
<text x="114" y="2732">
&apos;
</text>
<text x="58" y="2908">
.
</text>
<text x="98" y="2908">
.
</text>
<text x="58" y="2988">
&apos;
</text>
<text x="90" y="2988">
&apos;
</text>
<text x="58" y="3932">
.
</text>
<text x="74" y="3932">
.
</text>
<text x="50" y="3948">
(
</text>
<text x="82" y="3948">
)
</text>
<text x="58" y="3964">
&apos;
</text>
<text x="74" y="3964">
&apos;
</text>
<text x="58" y="3996">
..
</text>
<text x="50" y="4012">
(
</text>
<text x="74" y="4012">
)
</text>
<text x="58" y="4028">
&apos;
</text>
<text x="66" y="4028">
&apos;
</text>
<text x="58" y="4076">
.
</text>
<text x="114" y="4076">
.
</text>
<text x="50" y="4092">
(
</text>
<text x="122" y="4092">
)
</text>
<text x="58" y="4108">
&apos;
</text>
<text x="114" y="4108">
&apos;
</text>
<text x="50" y="4444">
.
</text>
<text x="66" y="4444">
.
</text>
<text x="50" y="4460">
&apos;
</text>
<text x="66" y="4460">
&apos;
</text>
<text x="98" y="4892">
NFS
</text>
<text x="378" y="4908">
CacheFS
</text>
<text x="378" y="4924">
dev
</text>
<text x="410" y="4924">
hda5
</text>
<text x="98" y="4988">
AFS
</text>
<text x="218" y="4988">
FS
</text>
<text x="242" y="4988">
Cache
</text>
<text x="370" y="5068">
CacheFiles
</text>
<text x="90" y="5084">
ISOFS
</text>
<text x="378" y="5084">
var
</text>
<text x="410" y="5084">
cache
</text>
</svg>