<svg class="bob" font-family="arial" font-size="14" height="1632" width="584" xmlns="http://www.w3.org/2000/svg">
<defs>
<marker id="triangle" markerHeight="10" markerUnits="strokeWidth" markerWidth="10" orient="auto" refX="15" refY="10" viewBox="0 0 50 20">
<path d="M 0 0 L 30 10 L 0 20 z"/>
</marker>
</defs>
<style>

    line, path {
      stroke: black;
      stroke-width: 2;
      stroke-opacity: 1;
      fill-opacity: 1;
      stroke-linecap: round;
      stroke-linejoin: miter;
    }
    circle {
      stroke: black;
      stroke-width: 2;
      stroke-opacity: 1;
      fill-opacity: 1;
      stroke-linecap: round;
      stroke-linejoin: miter;
    }
    circle.solid {
      fill:black;
    }
    circle.open {
      fill:transparent;
    }
    tspan.head{
        fill: none;
        stroke: none;
    }
    
</style>
<path d=" M 64 24 L 72 24 M 64 24 L 72 24 M 192 32 L 180 32 M 192 32 L 212 32 M 192 32 L 212 32 M 200 32 L 212 32 M 36 40 L 40 40 M 36 40 L 36 48 M 40 40 L 48 40 M 40 40 L 48 40 L 56 40 M 48 40 L 56 40 L 64 40 M 56 40 L 64 40 L 72 40 M 64 40 L 72 40 L 80 40 M 72 40 L 80 40 L 88 40 M 80 40 L 88 40 L 96 40 M 88 40 L 96 40 L 104 40 M 96 40 L 104 40 M 108 44 L 108 48 M 112 40 L 120 40 M 112 40 L 120 40 L 128 40 M 120 40 L 128 40 L 136 40 M 128 40 L 136 40 L 144 40 M 136 40 L 144 40 L 152 40 M 144 40 L 152 40 L 160 40 M 152 40 L 160 40 M 164 44 L 164 48 M 168 40 L 180 40 M 180 32 L 180 48 M 180 32 L 180 48 M 192 48 L 180 48 M 192 48 L 212 48 M 192 48 L 212 48 M 200 48 L 212 48 M 212 32 L 212 48 M 212 32 L 212 48 M 224 40 L 212 40 M 228 44 L 228 48 M 232 40 L 240 40 M 232 40 L 240 40 L 248 40 M 240 40 L 248 40 M 252 44 L 252 48 M 256 40 L 264 40 M 256 40 L 264 40 L 272 40 M 264 40 L 272 40 L 280 40 M 272 40 L 280 40 L 288 40 M 280 40 L 288 40 L 296 40 M 288 40 L 296 40 L 304 40 M 296 40 L 304 40 L 312 40 M 304 40 L 312 40 L 320 40 M 312 40 L 320 40 L 328 40 M 320 40 L 328 40 M 332 44 L 332 48 M 336 40 L 344 40 M 336 40 L 344 40 L 352 40 M 344 40 L 352 40 L 360 40 M 352 40 L 360 40 L 368 40 M 360 40 L 368 40 M 372 44 L 372 48 M 376 40 L 384 40 M 376 40 L 384 40 L 392 40 M 384 40 L 392 40 L 400 40 M 392 40 L 400 40 L 408 40 M 400 40 L 408 40 L 416 40 M 408 40 L 416 40 L 424 40 M 416 40 L 424 40 L 432 40 M 424 40 L 432 40 M 436 44 L 436 48 M 36 48 L 36 64 M 36 48 L 36 64 M 108 48 L 108 64 M 108 48 L 108 64 M 164 48 L 164 64 M 164 48 L 164 64 M 228 48 L 228 64 M 228 48 L 228 64 M 252 48 L 252 64 M 252 48 L 252 64 M 332 48 L 332 64 M 332 48 L 332 64 M 372 48 L 372 64 M 372 48 L 372 64 M 436 48 L 436 64 M 436 48 L 436 64 M 16 72 L 24 72 M 16 72 L 24 72 L 32 72 M 24 72 L 32 72 M 24 68 L 32 68 M 24 68 L 32 68 M 32 72 L 40 72 M 32 72 L 40 72 M 32 68 L 40 68 M 32 68 L 40 68 M 40 72 L 48 72 M 40 72 L 48 72 M 40 68 L 48 68 M 40 68 L 48 68 M 48 72 L 56 72 M 48 72 L 56 72 M 96 80 L 108 80 M 108 64 L 108 80 M 108 64 L 108 80 M 120 80 L 108 80 M 164 64 L 164 80 M 164 64 L 164 80 M 228 64 L 228 80 M 228 64 L 228 80 M 248 72 A 4 4 0 0 0 244 76 L 244 80 M 252 72 L 252 64 M 252 72 L 248 72 M 252 72 L 256 72 M 260 76 A 4 4 0 0 0 256 72 M 260 76 L 260 80 M 332 64 L 332 80 M 332 64 L 332 80 M 372 64 L 372 80 M 372 64 L 372 80 M 436 64 L 436 80 M 436 64 L 436 80 M 16 88 L 24 88 M 16 88 L 24 88 L 32 88 M 24 88 L 32 88 M 24 84 L 32 84 M 24 84 L 32 84 M 32 88 L 40 88 M 32 88 L 40 88 M 32 84 L 40 84 M 32 84 L 40 84 M 40 88 L 48 88 M 40 88 L 48 88 M 40 84 L 48 84 M 40 84 L 48 84 M 48 88 L 56 88 M 48 88 L 56 88 M 104 88 A 4 4 0 0 0 100 92 M 104 88 L 112 88 M 104 88 L 112 88 M 116 92 A 4 4 0 0 0 112 88 M 164 80 L 164 96 M 164 80 L 164 96 M 228 80 L 228 96 M 228 80 L 228 96 M 244 80 L 244 96 M 244 80 L 244 96 M 260 80 L 260 96 M 260 80 L 260 96 M 332 80 L 332 96 M 332 80 L 332 96 M 372 80 L 372 96 M 372 80 L 372 96 M 436 80 L 436 96 M 436 80 L 436 96 M 16 104 L 24 104 M 16 104 L 24 104 L 32 104 M 24 104 L 32 104 M 24 100 L 32 100 M 24 100 L 32 100 M 32 104 L 40 104 M 32 104 L 40 104 M 32 100 L 40 100 M 32 100 L 40 100 M 40 104 L 48 104 M 40 104 L 48 104 M 40 100 L 48 100 M 40 100 L 48 100 M 48 104 L 56 104 M 48 104 L 56 104 M 108 96 L 108 112 M 108 96 L 108 112 M 164 96 L 164 112 M 164 96 L 164 112 M 228 96 L 228 112 M 228 96 L 228 112 M 244 96 L 244 112 M 244 96 L 244 112 M 260 96 L 260 112 M 260 96 L 260 112 M 332 96 L 332 112 M 332 96 L 332 112 M 372 96 L 372 112 M 372 96 L 372 112 M 436 96 L 436 112 M 436 96 L 436 112 M 16 120 L 24 120 M 16 120 L 24 120 M 36 112 L 36 128 M 36 112 L 36 128 M 108 112 L 108 128 M 108 112 L 108 128 M 164 116 L 164 112 M 164 116 A 4 4 0 0 0 168 120 L 176 120 M 168 120 L 176 120 L 184 120 M 176 120 L 184 120 M 188 124 A 4 4 0 0 0 184 120 M 188 124 L 188 128 M 228 112 L 228 128 M 228 112 L 228 128 M 244 116 L 244 112 M 244 116 A 4 4 0 0 0 248 120 M 252 120 L 248 120 M 252 120 L 256 120 M 252 120 L 252 128 M 260 116 L 260 112 M 256 120 A 4 4 0 0 0 260 116 M 328 120 A 4 4 0 0 0 324 124 L 324 128 M 332 120 L 332 112 M 332 120 L 328 120 M 332 120 L 336 120 M 340 124 A 4 4 0 0 0 336 120 M 340 124 L 340 128 M 372 112 L 372 128 M 372 112 L 372 128 M 436 112 L 436 128 M 436 112 L 436 128 M 36 136 L 36 128 M 36 136 L 40 136 L 48 136 M 40 136 L 48 136 L 56 136 M 48 136 L 56 136 L 64 136 M 56 136 L 64 136 L 72 136 M 64 136 L 72 136 L 80 136 M 72 136 L 80 136 L 88 136 M 80 136 L 88 136 L 96 136 M 88 136 L 96 136 L 104 136 M 96 136 L 104 136 M 108 132 L 108 128 M 108 140 L 108 144 M 188 128 L 188 144 M 188 128 L 188 144 M 228 128 L 228 144 M 228 128 L 228 144 M 252 128 L 252 144 M 252 128 L 252 144 M 324 128 L 324 144 M 324 128 L 324 144 M 340 128 L 340 144 M 340 128 L 340 144 M 372 128 L 372 144 M 372 128 L 372 144 M 436 128 L 436 144 M 436 128 L 436 144 M 80 160 L 88 160 M 80 160 L 88 160 L 108 160 M 88 160 L 108 160 M 96 160 L 108 160 M 108 144 L 108 160 M 108 144 L 108 160 M 120 160 L 108 160 M 120 160 L 128 160 M 120 160 L 128 160 L 136 160 M 128 160 L 136 160 M 176 152 A 4 4 0 0 0 172 156 L 172 160 M 176 152 L 184 152 M 176 152 L 184 152 M 188 152 L 188 144 M 188 152 L 184 152 M 188 152 L 192 152 L 200 152 M 192 152 L 200 152 L 208 152 M 200 152 L 208 152 L 216 152 M 208 152 L 216 152 L 224 152 M 216 152 L 224 152 M 228 152 L 228 144 M 228 152 L 224 152 M 228 152 L 232 152 L 240 152 M 232 152 L 240 152 L 248 152 M 240 152 L 248 152 M 252 152 L 252 144 M 252 152 L 248 152 M 252 152 L 256 152 L 264 152 M 256 152 L 264 152 L 272 152 M 264 152 L 272 152 M 276 156 A 4 4 0 0 0 272 152 M 276 156 L 276 160 M 324 144 L 324 160 M 324 144 L 324 160 M 340 144 L 340 160 M 340 144 L 340 160 M 372 144 L 372 160 M 372 144 L 372 160 M 436 144 L 436 160 M 436 144 L 436 160 M 88 168 L 96 168 M 88 168 L 96 168 L 104 168 M 96 168 L 104 168 M 96 172 L 104 172 M 96 168 L 104 168 M 96 168 L 104 168 M 96 172 L 104 172 M 96 168 L 104 168 M 96 168 L 104 168 M 96 172 L 104 172 M 96 168 L 104 168 M 96 168 L 104 168 M 96 172 L 104 172 M 104 168 L 112 168 M 104 168 L 112 168 M 104 172 L 112 172 M 104 168 L 112 168 M 104 168 L 112 168 M 104 172 L 112 172 M 104 168 L 112 168 M 104 168 L 112 168 M 104 172 L 112 172 M 104 168 L 112 168 M 104 168 L 112 168 M 104 172 L 112 172 M 112 168 L 120 168 M 112 168 L 120 168 M 112 172 L 120 172 M 112 168 L 120 168 M 112 168 L 120 168 M 112 172 L 120 172 M 112 168 L 120 168 M 112 168 L 120 168 M 112 172 L 120 172 M 112 168 L 120 168 M 112 168 L 120 168 M 112 172 L 120 172 M 120 168 L 128 168 M 120 168 L 128 168 M 172 160 L 172 176 M 172 160 L 172 176 M 276 160 L 276 176 M 276 160 L 276 176 M 324 164 L 324 160 M 324 164 A 4 4 0 0 0 328 168 M 332 168 L 328 168 M 332 168 L 336 168 M 332 168 L 332 176 M 340 164 L 340 160 M 336 168 A 4 4 0 0 0 340 164 M 372 160 L 372 168 L 368 176 M 436 160 L 436 176 M 436 160 L 436 176 M 104 184 L 112 184 M 104 184 L 112 184 M 172 176 L 172 192 M 172 176 L 172 192 M 276 176 L 276 192 M 276 176 L 276 192 M 332 176 L 332 192 M 332 176 L 332 192 M 356 176 L 356 192 M 356 176 L 356 192 M 360 192 L 368 176 L 360 192 M 436 176 L 436 192 M 436 176 L 436 192 M 172 192 L 172 208 M 172 192 L 172 208 M 276 192 L 276 208 M 276 192 L 276 208 M 288 200 L 276 200 M 288 200 L 296 200 M 288 200 L 296 200 L 304 200 M 296 200 L 304 200 L 312 200 M 304 200 L 312 200 L 320 200 M 312 200 L 320 200 L 328 200 M 320 200 L 328 200 M 332 196 L 332 192 M 332 204 L 332 208 M 336 200 L 344 200 M 336 200 L 344 200 L 352 200 M 344 200 L 352 200 M 356 200 L 356 192 M 356 200 L 352 200 M 356 200 L 356 208 M 356 200 L 360 192 M 436 192 L 436 208 M 436 192 L 436 208 M 172 208 L 172 224 M 172 208 L 172 224 M 276 208 L 276 224 M 276 208 L 276 224 M 332 208 L 332 224 M 332 208 L 332 224 M 356 208 L 356 224 M 356 208 L 356 224 M 436 208 L 436 224 M 436 208 L 436 224 M 172 224 L 172 240 M 172 224 L 172 240 M 276 224 L 276 240 M 276 224 L 276 240 M 328 232 A 4 4 0 0 0 324 236 L 324 240 M 332 232 L 332 224 M 332 232 L 328 232 M 332 232 L 336 232 M 340 236 A 4 4 0 0 0 336 232 M 340 236 L 340 240 M 372 240 L 372 216 M 436 224 L 436 240 M 436 224 L 436 240 M 172 240 L 172 256 M 172 240 L 172 256 M 276 240 L 276 256 M 276 240 L 276 256 M 324 240 L 324 256 M 324 240 L 324 256 M 340 240 L 340 256 M 340 240 L 340 256 M 372 244 L 372 240 M 372 252 L 372 256 M 376 248 L 384 248 M 376 248 L 384 248 L 392 248 M 384 248 L 392 248 L 412 248 M 392 248 L 412 248 M 400 248 L 412 248 M 412 240 L 412 256 M 412 240 L 412 256 M 420 240 L 420 256 M 420 240 L 420 256 M 432 248 L 420 248 M 436 248 L 436 240 M 436 248 L 432 248 M 172 256 L 172 272 M 172 256 L 172 272 M 276 256 L 276 272 M 276 256 L 276 272 M 324 256 L 324 272 M 324 256 L 324 272 M 340 256 L 340 272 M 340 256 L 340 272 M 372 256 L 372 272 M 372 256 L 372 272 M 412 256 L 412 272 M 412 256 L 412 272 M 420 264 L 420 256 M 420 264 L 424 264 M 420 264 L 420 272 M 172 272 L 172 288 M 172 272 L 172 288 M 276 272 L 276 288 M 276 272 L 276 288 M 324 276 L 324 272 M 324 276 A 4 4 0 0 0 328 280 M 332 280 L 328 280 M 332 280 L 336 280 M 332 280 L 332 288 M 340 276 L 340 272 M 336 280 A 4 4 0 0 0 340 276 M 372 272 L 372 288 M 372 272 L 372 288 M 412 272 L 412 288 M 412 272 L 412 288 M 420 272 L 420 288 M 420 272 L 420 288 M 432 280 L 420 280 M 436 280 L 432 280 M 436 280 L 436 288 M 172 288 L 172 304 M 172 288 L 172 304 M 276 288 L 276 304 M 276 288 L 276 304 M 332 288 L 332 304 M 332 288 L 332 304 M 372 288 L 372 304 M 372 288 L 372 304 M 436 288 L 436 304 M 436 288 L 436 304 M 536 296 L 544 296 M 536 296 L 544 296 M 172 304 L 172 320 M 172 304 L 172 320 M 276 304 L 276 320 M 276 304 L 276 320 M 332 308 L 332 304 M 332 308 A 4 4 0 0 0 336 312 L 344 312 M 336 312 L 344 312 L 352 312 M 344 312 L 352 312 L 360 312 M 352 312 L 360 312 L 368 312 M 360 312 L 368 312 M 372 308 L 372 304 M 368 312 A 4 4 0 0 0 372 308 M 436 308 L 436 304 M 436 316 L 436 320 M 440 312 L 460 312 M 440 312 L 460 312 M 448 312 L 460 312 M 460 304 L 460 320 M 460 304 L 460 320 M 472 312 L 480 312 M 472 312 L 480 312 M 484 316 L 484 320 M 488 312 L 496 312 M 488 312 L 496 312 L 504 312 M 496 312 L 504 312 L 512 312 M 504 312 L 512 312 L 520 312 M 512 312 L 520 312 M 524 316 L 524 320 M 528 312 L 548 312 M 528 312 L 548 312 M 536 312 L 548 312 M 172 320 L 172 336 M 172 320 L 172 336 M 276 328 L 276 320 M 276 328 L 280 328 M 276 328 L 276 336 M 280 328 L 288 328 M 280 328 L 288 328 L 296 328 M 288 328 L 296 328 M 300 328 L 296 328 M 300 328 L 300 336 M 436 320 L 436 336 M 436 320 L 436 336 M 484 320 L 484 336 M 484 320 L 484 336 M 524 320 L 524 336 M 524 320 L 524 336 M 172 336 L 172 352 M 172 336 L 172 352 M 276 336 L 276 352 M 276 336 L 276 352 M 300 336 L 300 352 M 300 336 L 300 352 M 444 336 L 444 352 M 444 336 L 444 352 M 484 336 L 484 352 M 484 336 L 484 352 M 524 336 L 524 352 M 524 336 L 524 352 M 172 352 L 172 368 M 172 352 L 172 368 M 276 352 L 276 368 M 276 352 L 276 368 M 300 352 L 300 368 M 300 352 L 300 368 M 444 352 L 444 368 M 444 352 L 444 368 M 484 352 L 484 368 M 484 352 L 484 368 M 512 368 L 524 368 M 524 352 L 524 368 M 524 352 L 524 368 M 536 368 L 524 368 M 172 368 L 172 384 M 172 368 L 172 384 M 276 368 L 276 384 M 276 368 L 276 384 M 300 368 L 300 384 M 300 368 L 300 384 M 444 368 L 444 384 M 444 368 L 444 384 M 484 368 L 484 384 M 484 368 L 484 384 M 520 376 A 4 4 0 0 0 516 380 M 520 376 L 528 376 M 520 376 L 528 376 M 532 380 A 4 4 0 0 0 528 376 M 172 384 L 172 400 M 172 384 L 172 400 M 276 384 L 276 400 M 276 384 L 276 400 M 288 392 L 276 392 M 288 392 L 296 392 M 288 392 L 296 392 M 300 400 A 10 10 0 0 0 300 384 M 296 392 L 304 392 L 312 392 M 304 392 L 312 392 L 320 392 M 312 392 L 320 392 L 340 392 M 320 392 L 340 392 M 328 392 L 340 392 M 340 384 L 340 400 M 340 384 L 340 400 M 352 384 A 16 16 0 0 0 352 400 M 352 384 A 16 16 0 0 0 352 400 M 352 392 L 360 392 M 352 392 L 360 392 L 368 392 M 360 392 L 368 392 M 372 396 A 4 4 0 0 0 368 392 M 372 396 L 372 400 M 436 384 L 436 400 M 436 384 L 436 400 M 484 384 L 484 400 M 484 384 L 484 400 M 524 384 L 524 400 M 524 384 L 524 400 M 172 404 L 172 400 M 172 404 A 4 4 0 0 0 176 408 L 184 408 M 176 408 L 184 408 L 192 408 M 184 408 L 192 408 L 200 408 M 192 408 L 200 408 L 208 408 M 200 408 L 208 408 L 216 408 M 208 408 L 216 408 M 220 408 L 216 408 M 220 408 L 224 408 M 220 408 L 220 416 M 224 408 L 232 408 M 224 408 L 232 408 L 240 408 M 232 408 L 240 408 L 248 408 M 240 408 L 248 408 L 256 408 M 248 408 L 256 408 M 260 408 L 256 408 M 260 408 L 264 408 M 260 408 L 260 416 M 264 408 L 272 408 M 264 408 L 272 408 M 276 404 L 276 400 M 272 408 A 4 4 0 0 0 276 404 M 300 400 L 300 416 M 300 400 L 300 416 M 372 400 L 372 416 M 372 400 L 372 416 M 484 400 L 484 416 M 484 400 L 484 416 M 524 400 L 524 416 M 524 400 L 524 416 M 220 416 L 220 432 M 220 416 L 220 432 M 260 416 L 260 432 M 260 416 L 260 432 M 300 416 L 300 432 M 300 416 L 300 432 M 372 416 L 372 432 M 372 416 L 372 432 M 484 416 L 484 432 M 484 416 L 484 432 M 524 416 L 524 432 M 524 416 L 524 432 M 220 432 L 220 448 M 220 432 L 220 448 M 260 432 L 260 448 M 260 432 L 260 448 M 272 448 L 260 448 M 272 448 L 280 448 M 272 448 L 280 448 L 288 448 M 280 448 L 288 448 L 292 448 M 308 448 A 10 10 0 0 0 292 448 M 308 448 L 312 448 M 300 432 L 300 448 M 312 448 L 320 448 M 312 448 L 320 448 L 328 448 M 320 448 L 328 448 L 336 448 M 328 448 L 336 448 L 344 448 M 336 448 L 344 448 L 352 448 M 344 448 L 352 448 L 372 448 M 352 448 L 372 448 M 360 448 L 372 448 M 372 432 L 372 448 M 372 432 L 372 448 M 384 448 L 372 448 M 384 448 L 392 448 M 384 448 L 392 448 L 400 448 M 392 448 L 400 448 L 408 448 M 400 448 L 408 448 L 416 448 M 408 448 L 416 448 L 424 448 M 416 448 L 424 448 L 432 448 M 424 448 L 432 448 L 440 448 M 432 448 L 440 448 L 448 448 M 440 448 L 448 448 L 456 448 M 448 448 L 456 448 L 464 448 M 456 448 L 464 448 L 472 448 M 464 448 L 472 448 L 484 448 M 472 448 L 484 448 M 484 432 L 484 448 M 484 432 L 484 448 M 524 432 L 524 448 M 524 432 L 524 448 M 220 448 L 220 464 M 220 448 L 220 464 M 300 448 L 300 464 M 300 448 L 300 464 M 448 464 L 436 464 M 448 464 L 468 464 M 448 464 L 468 464 M 456 464 L 468 464 M 484 448 L 484 464 M 484 448 L 484 464 M 524 448 L 524 464 M 524 448 L 524 464 M 220 472 L 220 464 M 220 472 L 224 472 L 232 472 M 224 472 L 232 472 L 240 472 M 232 472 L 240 472 L 248 472 M 240 472 L 248 472 L 256 472 M 248 472 L 256 472 L 264 472 M 256 472 L 264 472 L 272 472 M 264 472 L 272 472 L 280 472 M 272 472 L 280 472 L 288 472 M 280 472 L 288 472 L 296 472 M 288 472 L 296 472 M 300 464 A 10 10 0 0 0 300 480 M 296 472 L 304 472 L 312 472 M 304 472 L 312 472 L 320 472 M 312 472 L 320 472 L 328 472 M 320 472 L 328 472 L 336 472 M 328 472 L 336 472 L 344 472 M 336 472 L 344 472 L 352 472 M 344 472 L 352 472 L 360 472 M 352 472 L 360 472 L 368 472 M 360 472 L 368 472 L 376 472 M 368 472 L 376 472 L 384 472 M 376 472 L 384 472 L 392 472 M 384 472 L 392 472 L 400 472 M 392 472 L 400 472 L 408 472 M 400 472 L 408 472 M 412 476 L 412 480 M 416 472 L 436 472 M 416 472 L 436 472 M 424 472 L 436 472 M 436 464 L 436 480 M 436 464 L 436 480 M 448 480 L 436 480 M 448 480 L 468 480 M 448 480 L 468 480 M 456 480 L 468 480 M 468 464 L 468 480 M 468 464 L 468 480 M 480 472 L 468 472 M 484 472 L 484 464 M 484 472 L 480 472 M 524 464 L 524 480 M 524 464 L 524 480 M 300 480 L 300 496 M 300 480 L 300 496 M 412 480 L 412 496 M 412 480 L 412 496 M 524 480 L 524 496 M 524 480 L 524 496 M 300 504 L 300 496 M 300 504 L 304 504 L 312 504 M 304 504 L 312 504 L 320 504 M 312 504 L 320 504 L 328 504 M 320 504 L 328 504 L 336 504 M 328 504 L 336 504 L 344 504 M 336 504 L 344 504 M 348 504 L 344 504 M 348 504 L 348 512 M 408 504 A 4 4 0 0 0 404 508 L 404 512 M 412 504 L 412 496 M 412 504 L 408 504 M 412 504 L 416 504 M 420 508 A 4 4 0 0 0 416 504 M 420 508 L 420 512 M 524 496 L 524 512 M 524 496 L 524 512 M 348 512 L 348 528 M 348 512 L 348 528 M 404 512 L 404 528 M 404 512 L 404 528 M 420 512 L 420 528 M 420 512 L 420 528 M 524 512 L 524 528 M 524 512 L 524 528 M 348 528 L 348 544 M 348 528 L 348 544 M 404 528 L 404 544 M 404 528 L 404 544 M 420 528 L 420 544 M 420 528 L 420 544 M 524 528 L 524 544 M 524 528 L 524 544 M 348 544 L 348 560 M 348 544 L 348 560 M 404 548 L 404 544 M 404 548 A 4 4 0 0 0 408 552 M 412 552 L 408 552 M 412 552 L 416 552 M 412 552 L 412 560 M 420 548 L 420 544 M 416 552 A 4 4 0 0 0 420 548 M 524 544 L 524 560 M 524 544 L 524 560 M 348 560 L 348 576 M 348 560 L 348 576 M 412 560 L 412 576 M 412 560 L 412 576 M 524 560 L 524 576 M 524 560 L 524 576 M 348 584 L 348 576 M 348 584 L 352 584 L 360 584 M 352 584 L 360 584 L 368 584 M 360 584 L 368 584 L 376 584 M 368 584 L 376 584 L 384 584 M 376 584 L 384 584 L 392 584 M 384 584 L 392 584 L 400 584 M 392 584 L 400 584 L 408 584 M 400 584 L 408 584 M 412 584 L 412 576 M 412 584 L 412 592 M 412 584 L 408 584 M 412 584 L 416 584 L 424 584 M 416 584 L 424 584 L 432 584 M 424 584 L 432 584 L 440 584 M 432 584 L 440 584 L 448 584 M 440 584 L 448 584 L 456 584 M 448 584 L 456 584 L 464 584 M 456 584 L 464 584 L 472 584 M 464 584 L 472 584 L 480 584 M 472 584 L 480 584 L 488 584 M 480 584 L 488 584 L 496 584 M 488 584 L 496 584 L 504 584 M 496 584 L 504 584 L 512 584 M 504 584 L 512 584 L 520 584 M 512 584 L 520 584 M 524 580 L 524 576 M 520 584 A 4 4 0 0 0 524 580 M 384 608 L 392 608 M 384 608 L 392 608 L 412 608 M 392 608 L 412 608 M 400 608 L 412 608 M 412 592 L 412 608 M 412 592 L 412 608 M 424 608 L 412 608 M 424 608 L 432 608 M 424 608 L 432 608 L 440 608 M 432 608 L 440 608 M 392 616 L 400 616 M 392 616 L 400 616 L 408 616 M 400 616 L 408 616 M 400 620 L 408 620 M 400 616 L 408 616 M 400 616 L 408 616 M 400 620 L 408 620 M 400 616 L 408 616 M 400 616 L 408 616 M 400 620 L 408 620 M 400 616 L 408 616 M 400 616 L 408 616 M 400 620 L 408 620 M 408 616 L 416 616 M 408 616 L 416 616 M 408 620 L 416 620 M 408 616 L 416 616 M 408 616 L 416 616 M 408 620 L 416 620 M 408 616 L 416 616 M 408 616 L 416 616 M 408 620 L 416 620 M 408 616 L 416 616 M 408 616 L 416 616 M 408 620 L 416 620 M 416 616 L 424 616 M 416 616 L 424 616 M 416 620 L 424 620 M 416 616 L 424 616 M 416 616 L 424 616 M 416 620 L 424 620 M 416 616 L 424 616 M 416 616 L 424 616 M 416 620 L 424 620 M 416 616 L 424 616 M 416 616 L 424 616 M 416 620 L 424 620 M 424 616 L 432 616 M 424 616 L 432 616 M 408 632 L 416 632 M 408 632 L 416 632 M 76 672 L 76 688 M 76 672 L 76 688 M 80 688 L 88 672 L 80 688 M 136 688 L 128 672 L 136 688 M 140 672 L 140 688 M 140 672 L 140 688 M 40 696 L 48 696 M 40 696 L 48 696 L 56 696 M 48 696 L 56 696 L 64 696 M 56 696 L 64 696 L 72 696 M 64 696 L 72 696 M 76 696 L 76 688 M 76 696 L 72 696 M 76 696 L 76 704 M 76 696 L 80 688 M 140 696 L 140 688 M 140 696 L 144 696 M 140 696 L 140 704 M 140 696 L 136 688 M 144 696 L 152 696 M 144 696 L 152 696 L 160 696 M 152 696 L 160 696 L 168 696 M 160 696 L 168 696 L 176 696 M 168 696 L 176 696 M 76 704 L 76 720 M 76 704 L 76 720 M 140 704 L 140 720 M 140 704 L 140 720 M 92 720 L 92 744 M 92 736 L 92 712 M 124 720 L 124 744 M 124 736 L 124 712 M 76 736 L 76 760 M 140 736 L 140 760 M 24 760 L 32 760 M 24 760 L 32 760 L 40 760 M 32 760 L 40 760 L 48 760 M 40 760 L 48 760 L 56 760 M 48 760 L 56 760 L 76 760 M 56 760 L 76 760 M 64 760 L 76 760 M 152 760 L 140 760 M 152 760 L 160 760 M 152 760 L 160 760 L 168 760 M 160 760 L 168 760 L 176 760 M 168 760 L 176 760 M 76 784 L 76 760 M 88 784 L 76 760 M 128 784 L 140 760 M 140 784 L 140 760 M 92 800 L 92 792 L 88 784 M 124 800 L 124 792 L 140 760 M 92 800 L 92 824 M 124 800 L 124 824 M 76 816 L 76 832 M 76 816 L 76 832 M 140 816 L 140 832 M 140 816 L 140 832 M 32 840 L 40 840 M 32 840 L 40 840 L 48 840 M 40 840 L 48 840 L 56 840 M 48 840 L 56 840 L 64 840 M 56 840 L 64 840 L 72 840 M 64 840 L 72 840 M 76 840 L 76 832 M 76 840 L 72 840 M 76 840 L 76 848 M 76 840 L 80 848 M 140 840 L 140 832 M 140 840 L 144 840 M 140 840 L 140 848 M 140 840 L 136 848 M 144 840 L 152 840 M 144 840 L 152 840 L 160 840 M 152 840 L 160 840 L 168 840 M 160 840 L 168 840 L 176 840 M 168 840 L 176 840 M 76 848 L 76 864 M 76 848 L 76 864 M 88 864 L 80 848 L 88 864 M 128 864 L 136 848 L 128 864 M 140 848 L 140 864 M 140 848 L 140 864 M 92 880 L 92 872 L 88 864 M 124 880 L 124 872 L 128 864 M 92 880 L 92 888 L 88 896 M 124 880 L 124 888 L 140 920 M 76 896 L 76 920 M 88 896 L 76 920 M 128 896 L 140 920 M 140 896 L 140 920 M 24 920 L 32 920 M 24 920 L 32 920 L 40 920 M 32 920 L 40 920 L 48 920 M 40 920 L 48 920 L 56 920 M 48 920 L 56 920 L 76 920 M 56 920 L 76 920 M 64 920 L 76 920 M 152 920 L 140 920 M 152 920 L 160 920 M 152 920 L 160 920 L 168 920 M 160 920 L 168 920 L 176 920 M 168 920 L 176 920 M 76 944 L 76 920 M 140 944 L 140 920 M 92 960 L 92 936 M 124 960 L 124 936 M 92 960 L 92 976 M 92 960 L 92 976 M 124 960 L 124 976 M 124 960 L 124 976 M 76 1008 L 76 1024 M 76 1008 L 76 1024 M 80 1024 L 88 1008 L 80 1024 M 136 1024 L 128 1008 L 136 1024 M 140 1008 L 140 1024 M 140 1008 L 140 1024 M 40 1032 L 48 1032 M 40 1032 L 48 1032 L 56 1032 M 48 1032 L 56 1032 L 64 1032 M 56 1032 L 64 1032 L 72 1032 M 64 1032 L 72 1032 M 76 1032 L 76 1024 M 76 1032 L 72 1032 M 76 1032 L 76 1040 M 76 1032 L 80 1024 M 140 1032 L 140 1024 M 140 1032 L 144 1032 M 140 1032 L 140 1040 M 140 1032 L 136 1024 M 144 1032 L 152 1032 M 144 1032 L 152 1032 L 160 1032 M 152 1032 L 160 1032 L 168 1032 M 160 1032 L 168 1032 L 176 1032 M 168 1032 L 176 1032 M 76 1040 L 76 1056 M 76 1040 L 76 1056 M 140 1040 L 140 1056 M 140 1040 L 140 1056 M 92 1072 L 92 1048 M 124 1072 L 124 1048 M 76 1072 L 76 1096 M 92 1080 L 92 1072 M 124 1080 L 124 1072 M 140 1072 L 140 1096 M 24 1096 L 32 1096 M 24 1096 L 32 1096 L 40 1096 M 32 1096 L 40 1096 L 48 1096 M 40 1096 L 48 1096 L 56 1096 M 48 1096 L 56 1096 L 76 1096 M 56 1096 L 76 1096 M 64 1096 L 76 1096 M 152 1096 L 140 1096 M 152 1096 L 160 1096 M 152 1096 L 160 1096 L 168 1096 M 160 1096 L 168 1096 L 176 1096 M 168 1096 L 176 1096 M 76 1120 L 76 1096 M 88 1120 L 76 1096 M 128 1120 L 140 1096 M 140 1120 L 140 1096 M 92 1136 L 92 1128 L 88 1120 M 124 1136 L 124 1128 L 140 1096 M 92 1136 L 92 1160 M 124 1136 L 124 1160 M 76 1152 L 76 1168 M 76 1152 L 76 1168 M 140 1152 L 140 1168 M 140 1152 L 140 1168 M 32 1176 L 40 1176 M 32 1176 L 40 1176 L 48 1176 M 40 1176 L 48 1176 L 56 1176 M 48 1176 L 56 1176 L 64 1176 M 56 1176 L 64 1176 L 72 1176 M 64 1176 L 72 1176 M 76 1176 L 76 1168 M 76 1176 L 72 1176 M 76 1176 L 76 1184 M 76 1176 L 80 1184 M 140 1176 L 140 1168 M 140 1176 L 144 1176 M 140 1176 L 140 1184 M 140 1176 L 136 1184 M 144 1176 L 152 1176 M 144 1176 L 152 1176 L 160 1176 M 152 1176 L 160 1176 L 168 1176 M 160 1176 L 168 1176 L 176 1176 M 168 1176 L 176 1176 M 76 1184 L 76 1200 M 76 1184 L 76 1200 M 88 1200 L 80 1184 L 88 1200 M 128 1200 L 136 1184 L 128 1200 M 140 1184 L 140 1200 M 140 1184 L 140 1200 M 92 1216 L 92 1208 L 88 1200 M 124 1216 L 124 1208 L 128 1200 M 92 1216 L 92 1224 L 88 1232 M 124 1216 L 124 1224 L 140 1256 M 76 1232 L 76 1256 M 88 1232 L 76 1256 M 128 1232 L 140 1256 M 140 1232 L 140 1256 M 24 1256 L 32 1256 M 24 1256 L 32 1256 L 40 1256 M 32 1256 L 40 1256 L 48 1256 M 40 1256 L 48 1256 L 56 1256 M 48 1256 L 56 1256 L 76 1256 M 56 1256 L 76 1256 M 64 1256 L 76 1256 M 152 1256 L 140 1256 M 152 1256 L 160 1256 M 152 1256 L 160 1256 L 168 1256 M 160 1256 L 168 1256 L 176 1256 M 168 1256 L 176 1256 M 76 1280 L 76 1256 M 92 1272 L 92 1280 M 124 1272 L 124 1280 M 140 1280 L 140 1256 M 92 1280 L 92 1296 M 92 1280 L 92 1296 M 124 1280 L 124 1296 M 124 1280 L 124 1296 M 92 1296 L 92 1312 M 92 1296 L 92 1312 M 124 1296 L 124 1312 M 124 1296 L 124 1312 M 68 1352 L 72 1352 M 68 1352 L 68 1360 M 72 1352 L 80 1352 M 72 1352 L 80 1352 L 88 1352 M 80 1352 L 88 1352 L 96 1352 M 88 1352 L 96 1352 M 100 1352 L 96 1352 M 100 1352 L 100 1360 M 68 1360 L 68 1376 M 68 1360 L 68 1376 M 100 1360 L 100 1376 M 100 1360 L 100 1376 M 112 1368 L 120 1368 M 112 1368 L 120 1368 L 140 1368 M 120 1368 L 140 1368 M 128 1368 L 140 1368 M 192 1368 L 180 1368 M 192 1368 L 200 1368 M 192 1368 L 200 1368 L 208 1368 M 200 1368 L 208 1368 M 212 1368 L 208 1368 M 212 1368 L 212 1376 M 68 1376 L 68 1392 M 68 1376 L 68 1392 M 100 1376 L 100 1392 M 100 1376 L 100 1392 M 112 1384 L 120 1384 M 112 1384 L 120 1384 L 140 1384 M 120 1384 L 140 1384 M 128 1384 L 140 1384 M 192 1384 L 180 1384 M 192 1384 L 212 1384 M 192 1384 L 212 1384 M 200 1384 L 212 1384 M 212 1376 L 212 1392 M 212 1376 L 212 1392 M 68 1392 L 68 1408 M 68 1392 L 68 1408 M 100 1392 L 100 1408 M 100 1392 L 100 1408 M 112 1400 L 120 1400 M 112 1400 L 120 1400 L 140 1400 M 120 1400 L 140 1400 M 128 1400 L 140 1400 M 192 1400 L 180 1400 M 192 1400 L 212 1400 M 192 1400 L 212 1400 M 200 1400 L 212 1400 M 212 1392 L 212 1408 M 212 1392 L 212 1408 M 68 1408 L 68 1424 M 68 1408 L 68 1424 M 100 1408 L 100 1424 M 100 1408 L 100 1424 M 112 1416 L 120 1416 M 112 1416 L 120 1416 L 140 1416 M 120 1416 L 140 1416 M 128 1416 L 140 1416 M 184 1416 L 172 1416 M 184 1416 L 192 1416 M 184 1416 L 192 1416 L 212 1416 M 192 1416 L 212 1416 M 200 1416 L 212 1416 M 212 1408 L 212 1424 M 212 1408 L 212 1424 M 68 1424 L 68 1440 M 68 1424 L 68 1440 M 100 1424 L 100 1440 M 100 1424 L 100 1440 M 112 1432 L 120 1432 M 112 1432 L 120 1432 L 140 1432 M 120 1432 L 140 1432 M 128 1432 L 140 1432 M 184 1432 L 172 1432 M 184 1432 L 192 1432 M 184 1432 L 192 1432 L 212 1432 M 192 1432 L 212 1432 M 200 1432 L 212 1432 M 212 1424 L 212 1440 M 212 1424 L 212 1440 M 68 1440 L 68 1456 M 68 1440 L 68 1456 M 100 1440 L 100 1456 M 100 1440 L 100 1456 M 112 1448 L 120 1448 M 112 1448 L 120 1448 L 140 1448 M 120 1448 L 140 1448 M 128 1448 L 140 1448 M 184 1448 L 172 1448 M 184 1448 L 192 1448 M 184 1448 L 192 1448 L 200 1448 M 192 1448 L 200 1448 L 208 1448 M 200 1448 L 208 1448 M 212 1448 L 212 1440 M 212 1448 L 208 1448 M 212 1448 L 216 1448 M 212 1448 L 212 1456 M 216 1448 L 224 1448 M 216 1448 L 224 1448 L 232 1448 M 224 1448 L 232 1448 L 240 1448 M 232 1448 L 240 1448 L 248 1448 M 240 1448 L 248 1448 L 256 1448 M 248 1448 L 256 1448 M 260 1448 L 256 1448 M 260 1448 L 264 1448 M 260 1448 L 260 1456 M 264 1448 L 272 1448 M 264 1448 L 272 1448 L 280 1448 M 272 1448 L 280 1448 L 288 1448 M 280 1448 L 288 1448 L 296 1448 M 288 1448 L 296 1448 M 352 1448 L 360 1448 M 352 1448 L 360 1448 L 368 1448 M 360 1448 L 368 1448 M 372 1452 L 372 1456 M 376 1448 L 384 1448 M 376 1448 L 384 1448 L 392 1448 M 384 1448 L 392 1448 L 400 1448 M 392 1448 L 400 1448 M 404 1448 L 400 1448 M 404 1448 L 408 1448 M 404 1448 L 404 1456 M 408 1448 L 416 1448 M 408 1448 L 416 1448 M 68 1456 L 68 1472 M 68 1456 L 68 1472 M 100 1456 L 100 1472 M 100 1456 L 100 1472 M 112 1464 L 120 1464 M 112 1464 L 120 1464 L 140 1464 M 120 1464 L 140 1464 M 128 1464 L 140 1464 M 184 1464 L 172 1464 M 184 1464 L 192 1464 M 184 1464 L 192 1464 L 212 1464 M 192 1464 L 212 1464 M 200 1464 L 212 1464 M 212 1456 L 212 1472 M 212 1456 L 212 1472 M 260 1456 L 260 1472 M 260 1456 L 260 1472 M 372 1456 L 372 1472 M 372 1456 L 372 1472 M 404 1456 L 404 1472 M 404 1456 L 404 1472 M 68 1472 L 68 1488 M 68 1472 L 68 1488 M 100 1472 L 100 1488 M 100 1472 L 100 1488 M 112 1480 L 120 1480 M 112 1480 L 120 1480 L 140 1480 M 120 1480 L 140 1480 M 128 1480 L 140 1480 M 176 1480 L 164 1480 M 176 1480 L 184 1480 M 176 1480 L 184 1480 L 192 1480 M 184 1480 L 192 1480 L 200 1480 M 192 1480 L 200 1480 L 208 1480 M 200 1480 L 208 1480 M 212 1480 L 212 1472 M 212 1480 L 208 1480 M 360 1488 L 348 1488 M 360 1488 L 364 1488 M 380 1488 A 10 10 0 0 0 364 1488 M 380 1488 L 384 1488 M 372 1472 L 372 1488 M 384 1488 L 404 1488 M 384 1488 L 404 1488 M 392 1488 L 404 1488 M 404 1472 L 404 1488 M 404 1472 L 404 1488 M 68 1488 L 68 1504 M 68 1488 L 68 1504 M 100 1488 L 100 1504 M 100 1488 L 100 1504 M 260 1488 L 260 1504 M 260 1488 L 260 1504 M 348 1488 L 348 1504 M 348 1488 L 348 1504 M 372 1488 L 372 1504 M 372 1488 L 372 1504 M 68 1504 L 68 1520 M 68 1504 L 68 1520 M 100 1504 L 100 1520 M 100 1504 L 100 1520 M 112 1512 L 120 1512 M 112 1512 L 120 1512 L 128 1512 M 120 1512 L 128 1512 L 136 1512 M 128 1512 L 136 1512 L 144 1512 M 136 1512 L 144 1512 L 152 1512 M 144 1512 L 152 1512 L 160 1512 M 152 1512 L 160 1512 L 168 1512 M 160 1512 L 168 1512 L 176 1512 M 168 1512 L 176 1512 L 184 1512 M 176 1512 L 184 1512 L 192 1512 M 184 1512 L 192 1512 L 200 1512 M 192 1512 L 200 1512 L 208 1512 M 200 1512 L 208 1512 L 216 1512 M 208 1512 L 216 1512 L 224 1512 M 216 1512 L 224 1512 L 232 1512 M 224 1512 L 232 1512 L 240 1512 M 232 1512 L 240 1512 L 248 1512 M 240 1512 L 248 1512 L 256 1512 M 248 1512 L 256 1512 M 260 1512 L 260 1504 M 260 1512 L 256 1512 M 260 1512 L 264 1512 M 260 1512 L 260 1520 M 264 1512 L 272 1512 M 264 1512 L 272 1512 L 280 1512 M 272 1512 L 280 1512 L 288 1512 M 280 1512 L 288 1512 L 296 1512 M 288 1512 L 296 1512 L 304 1512 M 296 1512 L 304 1512 L 312 1512 M 304 1512 L 312 1512 L 320 1512 M 312 1512 L 320 1512 L 328 1512 M 320 1512 L 328 1512 L 336 1512 M 328 1512 L 336 1512 L 344 1512 M 336 1512 L 344 1512 M 348 1504 A 10 10 0 0 0 348 1520 M 344 1512 L 352 1512 L 360 1512 M 352 1512 L 360 1512 L 368 1512 M 360 1512 L 368 1512 M 372 1520 A 10 10 0 0 0 372 1504 M 368 1512 L 376 1512 L 384 1512 M 376 1512 L 384 1512 L 392 1512 M 384 1512 L 392 1512 L 400 1512 M 392 1512 L 400 1512 L 408 1512 M 400 1512 L 408 1512 M 412 1512 L 408 1512 M 412 1512 L 412 1520 M 68 1528 L 68 1520 M 68 1528 L 72 1528 L 80 1528 M 72 1528 L 80 1528 L 88 1528 M 80 1528 L 88 1528 L 96 1528 M 88 1528 L 96 1528 M 100 1528 L 100 1520 M 100 1528 L 96 1528 M 260 1520 L 260 1536 M 260 1520 L 260 1536 M 348 1520 L 348 1536 M 348 1520 L 348 1536 M 372 1520 L 372 1536 M 372 1520 L 372 1536 M 412 1520 L 412 1536 M 412 1520 L 412 1536 M 248 1544 L 256 1544 M 248 1544 L 256 1544 M 264 1544 L 272 1544 M 264 1544 L 272 1544 M 348 1536 L 348 1552 M 348 1536 L 348 1552 M 372 1536 L 372 1552 M 372 1536 L 372 1552 M 400 1544 L 408 1544 M 400 1544 L 408 1544 M 400 1540 L 408 1540 M 400 1540 L 408 1540 M 408 1544 L 416 1544 M 408 1544 L 416 1544 M 408 1540 L 416 1540 M 408 1540 L 416 1540 M 416 1544 L 424 1544 M 416 1544 L 424 1544 M 416 1540 L 424 1540 M 416 1540 L 424 1540 M 260 1552 L 260 1568 M 260 1552 L 260 1568 M 372 1552 L 372 1568 M 372 1552 L 372 1568" fill="none"/>
<path d="" fill="none" stroke-dasharray="3 3"/>
<line marker-end="url(#triangle)" x1="356" x2="368" y1="200" y2="212"/>
<line marker-end="url(#triangle)" x1="424" x2="436" y1="264" y2="264"/>
<line marker-end="url(#triangle)" x1="424" x2="436" y1="264" y2="264"/>
<line marker-end="url(#triangle)" x1="432" x2="436" y1="264" y2="264"/>
<line marker-end="url(#triangle)" x1="472" x2="468" y1="312" y2="312"/>
<line marker-end="url(#triangle)" x1="76" x2="88" y1="696" y2="708"/>
<line marker-end="url(#triangle)" x1="140" x2="128" y1="696" y2="708"/>
<line marker-end="url(#triangle)" x1="92" x2="80" y1="744" y2="756"/>
<line marker-end="url(#triangle)" x1="124" x2="136" y1="744" y2="756"/>
<line marker-end="url(#triangle)" x1="76" x2="88" y1="840" y2="828"/>
<line marker-end="url(#triangle)" x1="140" x2="128" y1="840" y2="828"/>
<line marker-end="url(#triangle)" x1="92" x2="80" y1="936" y2="924"/>
<line marker-end="url(#triangle)" x1="124" x2="136" y1="936" y2="924"/>
<line marker-end="url(#triangle)" x1="76" x2="88" y1="1032" y2="1044"/>
<line marker-end="url(#triangle)" x1="140" x2="128" y1="1032" y2="1044"/>
<line marker-end="url(#triangle)" x1="92" x2="80" y1="1080" y2="1092"/>
<line marker-end="url(#triangle)" x1="124" x2="136" y1="1080" y2="1092"/>
<line marker-end="url(#triangle)" x1="76" x2="88" y1="1176" y2="1164"/>
<line marker-end="url(#triangle)" x1="140" x2="128" y1="1176" y2="1164"/>
<line marker-end="url(#triangle)" x1="92" x2="80" y1="1272" y2="1260"/>
<line marker-end="url(#triangle)" x1="124" x2="136" y1="1272" y2="1260"/>
<line marker-end="url(#triangle)" x1="416" x2="428" y1="1448" y2="1448"/>
<line marker-end="url(#triangle)" x1="416" x2="428" y1="1448" y2="1448"/>
<line marker-end="url(#triangle)" x1="424" x2="428" y1="1448" y2="1448"/>
<text x="41" y="28">
+10
</text>
<text x="73" y="28">
15V
</text>
<text x="209" y="28">
0,047R
</text>
<text x="17" y="60">
+
</text>
<text x="273" y="92">
2k2
</text>
<text x="81" y="108">
470
</text>
<text x="121" y="108">
+
</text>
<text x="89" y="124">
uF
</text>
<text x="193" y="140">
6
</text>
<text x="233" y="140">
7
</text>
<text x="257" y="140">
8
</text>
<text x="297" y="140">
1k
</text>
<text x="281" y="188">
1
</text>
<text x="385" y="188">
BC
</text>
<text x="97" y="204">
GND
</text>
<text x="385" y="204">
547
</text>
<text x="289" y="252">
220R
</text>
<text x="457" y="252">
IRF9Z34
</text>
<text x="193" y="284">
MC34063
</text>
<text x="457" y="300">
BYV29
</text>
<text x="545" y="300">
12V6
</text>
<text x="281" y="316">
2
</text>
<text x="545" y="316">
X
</text>
<text x="561" y="316">
OUT
</text>
<text x="433" y="348">
C
</text>
<text x="385" y="364">
30uH
</text>
<text x="433" y="364">
C
</text>
<text x="545" y="364">
470
</text>
<text x="281" y="380">
3
</text>
<text x="337" y="380">
1nF
</text>
<text x="433" y="380">
C
</text>
<text x="553" y="380">
uF
</text>
<text x="537" y="396">
+
</text>
<text x="425" y="412">
GND
</text>
<text x="209" y="428">
5
</text>
<text x="249" y="428">
4
</text>
<text x="473" y="492">
1k0
</text>
<text x="433" y="524">
5k6
</text>
<text x="465" y="524">
+
</text>
<text x="481" y="524">
3k3
</text>
<text x="433" y="540">
in
</text>
<text x="457" y="540">
Serie
</text>
<text x="401" y="652">
GND
</text>
<text x="81" y="1372">
2
</text>
<text x="137" y="1372">
&lt;
</text>
<text x="145" y="1372">
640k&gt;
</text>
<text x="81" y="1388">
3
</text>
<text x="137" y="1388">
&lt;
</text>
<text x="145" y="1388">
320k&gt;
</text>
<text x="81" y="1404">
4
</text>
<text x="137" y="1404">
&lt;
</text>
<text x="145" y="1404">
160k&gt;
</text>
<text x="81" y="1420">
5
</text>
<text x="137" y="1420">
&lt;
</text>
<text x="145" y="1420">
80k&gt;
</text>
<text x="81" y="1436">
6
</text>
<text x="137" y="1436">
&lt;
</text>
<text x="145" y="1436">
40k&gt;
</text>
<text x="81" y="1452">
7
</text>
<text x="137" y="1452">
&lt;
</text>
<text x="145" y="1452">
20k&gt;
</text>
<text x="305" y="1452">
10
</text>
<text x="329" y="1452">
uF
</text>
<text x="441" y="1452">
Out
</text>
<text x="81" y="1468">
8
</text>
<text x="137" y="1468">
&lt;
</text>
<text x="145" y="1468">
10k&gt;
</text>
<text x="81" y="1484">
9
</text>
<text x="137" y="1484">
&lt;
</text>
<text x="145" y="1484">
5k&gt;
</text>
<text x="241" y="1484">
&lt;
</text>
<text x="249" y="1484">
390&gt;
</text>
<text x="81" y="1516">
25
</text>
<text x="257" y="1548">
~
</text>
<text x="393" y="1564">
Ground
</text>
<circle class="open" cx="108" cy="40" r="4"/>
<circle class="open" cx="108" cy="40" r="4"/>
<circle class="open" cx="108" cy="40" r="4"/>
<circle class="open" cx="164" cy="40" r="4"/>
<circle class="open" cx="164" cy="40" r="4"/>
<circle class="open" cx="164" cy="40" r="4"/>
<circle class="open" cx="228" cy="40" r="4"/>
<circle class="open" cx="228" cy="40" r="4"/>
<circle class="open" cx="228" cy="40" r="4"/>
<circle class="open" cx="252" cy="40" r="4"/>
<circle class="open" cx="252" cy="40" r="4"/>
<circle class="open" cx="252" cy="40" r="4"/>
<circle class="open" cx="332" cy="40" r="4"/>
<circle class="open" cx="332" cy="40" r="4"/>
<circle class="open" cx="332" cy="40" r="4"/>
<circle class="open" cx="372" cy="40" r="4"/>
<circle class="open" cx="372" cy="40" r="4"/>
<circle class="open" cx="372" cy="40" r="4"/>
<circle class="open" cx="436" cy="40" r="4"/>
<circle class="open" cx="436" cy="40" r="4"/>
<circle class="open" cx="108" cy="136" r="4"/>
<circle class="open" cx="108" cy="136" r="4"/>
<circle class="open" cx="108" cy="136" r="4"/>
<circle class="open" cx="332" cy="200" r="4"/>
<circle class="open" cx="332" cy="200" r="4"/>
<circle class="open" cx="332" cy="200" r="4"/>
<circle class="open" cx="332" cy="200" r="4"/>
<circle class="open" cx="372" cy="248" r="4"/>
<circle class="open" cx="372" cy="248" r="4"/>
<circle class="open" cx="372" cy="248" r="4"/>
<circle class="open" cx="436" cy="312" r="4"/>
<circle class="open" cx="436" cy="312" r="4"/>
<circle class="open" cx="436" cy="312" r="4"/>
<circle class="open" cx="484" cy="312" r="4"/>
<circle class="open" cx="484" cy="312" r="4"/>
<circle class="open" cx="484" cy="312" r="4"/>
<circle class="open" cx="524" cy="312" r="4"/>
<circle class="open" cx="524" cy="312" r="4"/>
<circle class="open" cx="524" cy="312" r="4"/>
<circle class="open" cx="412" cy="472" r="4"/>
<circle class="open" cx="412" cy="472" r="4"/>
<circle class="open" cx="412" cy="472" r="4"/>
<circle class="solid" cx="412" cy="584" r="4"/>
<circle class="solid" cx="412" cy="584" r="4"/>
<circle class="solid" cx="412" cy="584" r="4"/>
<circle class="solid" cx="412" cy="584" r="4"/>
<circle class="open" cx="372" cy="1448" r="4"/>
<circle class="open" cx="372" cy="1448" r="4"/>
<circle class="open" cx="372" cy="1448" r="4"/>
</svg>