<svg font-family="arial" font-size="14" height="2384" width="920" xmlns="http://www.w3.org/2000/svg">
<defs>
<marker id="triangle" markerHeight="10" markerUnits="strokeWidth" markerWidth="10" orient="auto" refX="15" refY="10" viewBox="0 0 50 20">
<path d="M 0 0 L 30 10 L 0 20 z"/>
</marker>
</defs>
<style>

    line, path {
      stroke: black;
      stroke-width: 2;
      stroke-opacity: 1;
      fill-opacity: 1;
      stroke-linecap: round;
      stroke-linejoin: miter;
    }
    circle {
      stroke: black;
      stroke-width: 2;
      stroke-opacity: 1;
      fill-opacity: 1;
      stroke-linecap: round;
      stroke-linejoin: miter;
      fill:white;
    }
    tspan.head{
        fill: none;
        stroke: none;
    }
    
</style>
<path d=" M 68 44 L 64 48 M 68 44 L 96 72 M 284 44 L 280 48 M 284 44 L 312 72 M 56 56 L 48 64 M 64 48 L 56 56 M 72 48 L 96 72 M 272 56 L 264 64 M 280 48 L 272 56 M 288 48 L 312 72 M 368 56 L 360 64 M 372 52 L 368 56 M 372 52 L 392 72 M 376 56 L 392 72 M 36 76 L 40 72 M 36 76 L 64 104 M 48 64 L 40 72 M 100 76 L 96 72 M 100 76 L 96 80 M 252 76 L 256 72 M 252 76 L 280 104 M 264 64 L 256 72 M 316 76 L 312 72 M 316 76 L 312 80 M 348 76 L 352 72 M 348 76 L 368 96 M 360 64 L 352 72 M 396 76 L 392 72 M 396 76 L 392 80 M 40 80 L 64 104 M 88 88 L 80 96 M 96 80 L 88 88 M 256 80 L 280 104 M 304 88 L 296 96 M 312 80 L 304 88 M 352 80 L 368 96 M 384 88 L 376 96 M 392 80 L 384 88 M 64 104 L 68 108 L 72 104 M 80 96 L 72 104 M 280 104 L 284 108 L 288 104 M 296 96 L 288 104 M 368 96 L 372 100 L 376 96 M 412 152 L 412 192 M 412 152 L 456 152 M 416 152 L 456 152 M 460 152 L 460 192 M 456 152 L 512 152 M 464 152 L 512 152 M 516 152 L 516 192 M 516 152 L 512 152 M 360 176 L 362 172 M 368 168 A 8 8 0 0 0 362 172 M 412 160 L 412 192 M 424 168 L 412 168 M 424 168 L 460 168 M 460 160 L 460 192 M 472 168 L 460 168 M 472 168 L 516 168 M 516 160 L 516 192 M 424 184 L 412 184 M 424 184 L 460 184 M 472 184 L 460 184 M 472 184 L 516 184 M 412 200 L 412 192 M 412 200 L 456 200 M 416 200 L 456 200 M 460 200 L 460 192 M 456 200 L 512 200 M 464 200 L 512 200 M 516 200 L 516 192 M 516 200 L 512 200 M 488 216 A 4 4 0 0 0 484 220 M 488 216 L 504 216 M 508 220 L 508 336 M 508 220 A 4 4 0 0 0 504 216 M 508 224 L 508 336 M 20 268 L 20 288 M 24 264 A 4 4 0 0 0 20 268 M 24 264 L 80 264 M 84 268 L 84 288 M 84 268 A 4 4 0 0 0 80 264 M 416 264 A 4 4 0 0 0 412 268 L 412 272 M 424 264 A 16 16 0 0 0 416 264 M 428 268 A 4 4 0 0 0 424 264 M 428 268 L 428 272 M 448 264 A 4 4 0 0 0 444 268 L 444 272 M 456 264 A 16 16 0 0 0 448 264 M 460 268 A 4 4 0 0 0 456 264 M 460 268 L 460 272 M 480 264 A 4 4 0 0 0 476 268 L 476 272 M 488 264 A 16 16 0 0 0 480 264 M 492 268 A 4 4 0 0 0 488 264 M 492 268 L 492 272 M 20 272 L 20 288 M 84 272 L 84 288 M 96 280 L 84 280 M 104 288 L 102 284 A 8 8 0 0 0 96 280 M 380 284 L 380 320 M 384 280 A 4 4 0 0 0 380 284 M 412 276 A 4 4 0 0 0 416 280 M 412 272 L 412 276 M 416 280 L 424 280 A 4 4 0 0 0 428 276 M 428 272 L 428 276 M 444 276 A 4 4 0 0 0 448 280 M 444 272 L 444 276 M 448 280 L 456 280 A 4 4 0 0 0 460 276 M 460 272 L 460 276 M 476 276 A 4 4 0 0 0 480 280 M 476 272 L 476 276 M 480 280 L 488 280 A 4 4 0 0 0 492 276 M 492 272 L 492 276 M 20 288 L 20 292 A 4 4 0 0 0 24 296 L 80 296 M 84 288 L 84 292 M 80 296 A 4 4 0 0 0 84 292 M 104 288 L 128 336 M 312 304 L 314 300 M 320 296 A 8 8 0 0 0 314 300 M 380 288 L 380 320 M 452 288 L 452 304 M 472 304 L 480 288 M 448 320 L 452 312 L 464 336 M 452 304 L 452 312 M 4 332 L 4 352 M 8 328 A 4 4 0 0 0 4 332 M 8 328 L 104 328 M 108 332 L 108 352 M 108 332 A 4 4 0 0 0 104 328 M 380 332 L 380 320 M 380 332 A 4 4 0 0 0 384 336 L 440 336 L 448 320 M 456 320 L 464 336 L 508 336 M 4 336 L 4 352 M 108 336 L 108 352 M 120 344 L 108 344 M 120 344 L 128 344 M 130 344 L 128 344 M 134 348 A 8 8 0 0 0 130 344 M 440 336 L 448 352 M 456 352 L 464 336 M 4 352 L 4 356 A 4 4 0 0 0 8 360 L 104 360 M 108 352 L 108 356 M 104 360 A 4 4 0 0 0 108 356 M 448 352 L 452 360 L 464 336 M 452 368 L 452 360 M 504 368 L 536 368 M 160 384 L 216 384 M 256 384 L 360 176 M 452 368 L 452 372 A 4 4 0 0 0 456 376 M 496 384 L 504 368 M 512 384 L 496 384 M 512 384 L 528 384 L 536 368 M 4 396 L 4 416 M 8 392 A 4 4 0 0 0 4 396 M 8 392 L 72 392 M 76 396 L 76 416 M 76 396 A 4 4 0 0 0 72 392 M 216 384 L 232 416 M 224 392 L 248 392 M 254 388 L 360 176 M 248 392 A 8 8 0 0 0 254 388 M 264 400 L 312 304 M 4 400 L 4 416 M 76 400 L 76 416 M 88 408 L 76 408 M 144 416 L 160 384 M 232 408 L 256 408 L 272 408 M 262 404 L 312 304 M 256 408 A 8 8 0 0 0 262 404 M 264 408 L 272 408 M 280 416 L 278 412 A 8 8 0 0 0 272 408 M 4 416 L 4 420 A 4 4 0 0 0 8 424 L 72 424 M 76 416 L 76 420 M 72 424 A 4 4 0 0 0 76 420 M 120 432 L 122 428 M 128 424 A 8 8 0 0 0 122 428 M 144 416 L 160 448 M 232 424 L 264 424 M 272 432 L 270 428 A 8 8 0 0 0 264 424 M 280 416 L 296 448 M 400 432 L 402 428 M 406 428 L 416 448 M 406 428 A 3 3 0 0 0 402 428 M 432 416 L 448 448 M 456 432 L 458 428 M 464 424 A 8 8 0 0 0 458 428 M 472 424 A 16 16 0 0 0 464 424 M 480 432 L 478 428 A 8 8 0 0 0 472 424 M 128 448 L 130 444 M 136 440 A 8 8 0 0 0 130 444 M 160 448 L 216 448 L 232 416 M 224 440 L 232 440 M 240 448 L 238 444 A 8 8 0 0 0 232 440 M 272 432 L 328 544 M 380 432 L 380 448 M 392 448 L 380 448 M 392 448 L 400 432 M 408 432 L 416 448 L 432 416 M 448 448 L 456 432 M 480 432 L 488 448 M 4 460 L 4 480 M 8 456 A 4 4 0 0 0 4 460 M 8 456 L 72 456 M 76 460 L 76 480 M 76 460 A 4 4 0 0 0 72 456 M 104 464 L 120 432 M 176 456 L 168 464 M 184 448 L 176 456 M 184 448 L 296 560 M 240 448 L 336 640 M 296 448 L 298 452 A 8 8 0 0 0 304 456 M 380 456 L 380 448 M 4 464 L 4 480 M 76 464 L 76 480 M 88 472 L 76 472 M 88 472 L 96 472 M 102 468 L 120 432 M 96 472 A 8 8 0 0 0 102 468 M 160 472 L 152 480 M 168 464 L 160 472 M 4 480 L 4 484 A 4 4 0 0 0 8 488 L 72 488 M 76 480 L 76 484 M 72 488 A 4 4 0 0 0 76 484 M 144 488 L 136 496 M 152 480 L 144 488 M 380 488 L 380 624 M 380 488 L 480 488 M 384 488 L 480 488 M 484 488 L 484 512 M 484 488 L 480 488 M 96 512 L 128 448 M 128 504 L 120 512 M 136 496 L 128 504 M 380 496 L 380 624 M 416 504 A 16 16 0 0 0 406 512 M 416 504 L 456 504 M 466 512 A 16 16 0 0 0 456 504 M 484 496 L 484 512 M 28 524 L 28 544 M 32 520 A 4 4 0 0 0 28 524 M 32 520 L 112 520 M 116 524 L 116 544 M 116 524 A 4 4 0 0 0 112 520 M 124 516 L 120 520 M 124 516 L 216 608 M 128 520 L 216 608 M 406 512 A 16 16 0 0 0 406 528 M 466 528 A 16 16 0 0 0 466 512 M 484 512 L 484 640 M 484 520 L 584 520 M 488 520 L 584 520 M 588 520 L 588 640 M 588 520 L 584 520 M 28 528 L 28 544 M 116 528 L 116 544 M 406 528 A 16 16 0 0 0 416 536 L 424 536 M 424 544 L 426 540 A 4 4 0 0 0 424 536 M 448 536 L 440 544 M 448 536 L 456 536 A 16 16 0 0 0 466 528 M 484 528 L 484 640 M 512 536 A 16 16 0 0 0 502 544 M 512 536 L 552 536 M 562 544 A 16 16 0 0 0 552 536 M 588 528 L 588 640 M 28 544 L 28 548 A 4 4 0 0 0 32 552 L 112 552 M 116 544 L 116 548 M 112 552 A 4 4 0 0 0 116 548 M 280 552 L 272 560 M 328 544 L 330 548 A 8 8 0 0 0 336 552 M 432 552 L 424 560 M 440 544 L 432 552 M 502 544 A 16 16 0 0 0 502 560 M 562 560 A 16 16 0 0 0 562 544 M 264 568 L 256 576 M 272 560 L 264 568 M 408 576 L 424 544 M 424 560 L 408 576 M 502 560 A 16 16 0 0 0 512 568 L 520 568 L 560 608 M 544 576 L 542 572 M 544 568 A 4 4 0 0 0 542 572 M 544 568 L 552 568 A 16 16 0 0 0 562 560 M 248 584 L 240 592 M 256 576 L 248 584 M 544 576 L 560 608 M 232 600 L 224 608 M 240 592 L 232 600 M 216 608 L 220 612 L 224 608 M 144 632 L 136 640 M 148 628 L 144 632 M 148 628 L 168 648 M 152 632 L 168 648 M 380 632 L 380 624 M 380 632 L 484 632 M 384 632 L 484 632 M 124 652 L 128 648 M 124 652 L 144 672 M 136 640 L 128 648 M 172 652 L 168 648 M 172 652 L 168 656 M 336 640 L 338 644 A 8 8 0 0 0 344 648 L 360 648 M 368 656 L 366 652 A 8 8 0 0 0 360 648 M 484 648 L 484 640 M 484 648 L 584 648 M 488 648 L 584 648 M 588 648 L 588 640 M 588 648 L 584 648 M 128 656 L 144 672 M 160 664 L 152 672 M 168 656 L 160 664 M 144 672 L 148 676 L 152 672 M 480 680 A 16 16 0 0 0 470 688 M 480 680 L 488 680 M 536 680 L 544 680 M 554 688 A 16 16 0 0 0 544 680 M 352 704 L 376 704 M 392 704 L 404 704 M 456 696 A 16 16 0 0 0 446 704 M 456 696 L 464 696 M 560 696 L 568 696 M 578 704 A 16 16 0 0 0 568 696 M 352 720 L 376 720 M 388 704 L 388 736 M 404 704 L 404 736 M 446 704 A 16 16 0 0 0 446 720 M 632 720 L 712 720 M 344 736 L 352 720 M 368 736 L 376 720 M 392 736 L 404 736 M 446 720 A 16 16 0 0 0 456 728 L 464 728 M 568 728 L 576 728 M 632 736 L 640 736 M 664 736 L 680 736 M 470 736 A 16 16 0 0 0 480 744 L 488 744 M 528 744 L 536 744 M 536 752 L 544 768 M 600 768 L 588 768 M 600 768 L 628 768 M 656 768 L 644 768 M 656 768 L 668 768 M 544 768 L 546 772 A 8 8 0 0 0 552 776 M 588 768 L 588 800 M 628 768 L 628 800 M 644 768 L 644 816 M 668 768 L 668 816 M 600 800 L 588 800 M 600 800 L 628 800 M 584 816 L 592 800 M 616 816 L 624 800 M 656 816 L 644 816 M 656 816 L 668 816 M 4 824 L 4 880 M 4 824 L 56 824 M 8 824 L 56 824 M 60 824 L 60 848 M 60 824 L 56 824 M 92 824 L 92 880 M 92 824 L 136 824 M 96 824 L 136 824 M 140 824 L 140 848 M 140 824 L 136 824 M 172 824 L 172 848 M 172 824 L 216 824 M 176 824 L 216 824 M 220 824 L 220 880 M 220 824 L 216 824 M 252 824 L 252 848 M 252 824 L 296 824 M 256 824 L 296 824 M 300 824 L 300 880 M 300 824 L 296 824 M 4 832 L 4 880 M 60 832 L 60 848 M 92 832 L 92 880 M 140 832 L 140 848 M 172 832 L 172 848 M 220 832 L 220 880 M 252 832 L 252 848 M 300 832 L 300 880 M 60 848 L 60 880 M 140 848 L 140 880 M 140 856 L 168 856 M 144 856 L 168 856 M 172 848 L 172 880 M 172 856 L 168 856 M 232 856 L 248 856 M 252 848 L 252 880 M 252 856 L 248 856 M 60 864 L 60 880 M 140 864 L 140 880 M 172 864 L 172 880 M 252 864 L 252 880 M 4 888 L 4 880 M 4 888 L 56 888 M 8 888 L 56 888 M 60 888 L 60 880 M 60 888 L 56 888 M 92 888 L 92 880 M 92 888 L 136 888 M 96 888 L 136 888 M 140 888 L 140 880 M 140 888 L 136 888 M 172 888 L 172 880 M 172 888 L 192 888 M 176 888 L 192 888 L 216 888 M 200 888 L 216 888 M 220 888 L 220 880 M 220 888 L 216 888 M 252 888 L 252 880 M 252 888 L 296 888 M 256 888 L 296 888 M 300 888 L 300 880 M 300 888 L 296 888 M 116 912 L 116 928 M 4 940 L 4 960 M 8 936 A 4 4 0 0 0 4 940 M 8 936 L 112 936 M 116 936 L 116 928 M 112 936 L 304 936 M 120 936 L 304 936 M 308 940 L 308 960 M 308 940 A 4 4 0 0 0 304 936 M 4 944 L 4 960 M 308 944 L 308 960 M 4 960 L 4 964 A 4 4 0 0 0 8 968 L 304 968 M 308 960 L 308 964 M 304 968 A 4 4 0 0 0 308 964 M 192 992 L 288 992 M 24 1008 L 26 1004 M 32 1000 A 8 8 0 0 0 26 1004 M 32 1000 L 144 1000 M 152 1008 L 150 1004 A 8 8 0 0 0 144 1000 M 192 992 L 208 1024 M 288 992 L 304 1024 M 16 1024 L 24 1008 M 152 1008 L 160 1024 M 344 1024 L 424 1024 M 16 1024 L 14 1028 M 16 1040 L 14 1036 M 14 1028 A 8 8 0 0 0 14 1036 M 160 1024 L 162 1028 M 160 1040 L 162 1036 A 8 8 0 0 0 162 1028 M 208 1024 L 210 1028 M 208 1040 L 210 1036 A 8 8 0 0 0 210 1028 M 304 1024 L 306 1028 M 304 1040 L 306 1036 A 8 8 0 0 0 306 1028 M 344 1024 L 352 1040 M 424 1024 L 432 1040 M 16 1040 L 24 1056 M 152 1056 L 160 1040 M 24 1056 L 26 1060 A 8 8 0 0 0 32 1064 L 144 1064 M 150 1060 L 160 1040 M 144 1064 A 8 8 0 0 0 150 1060 M 192 1072 L 208 1040 M 208 1072 L 192 1072 M 208 1072 L 288 1072 L 304 1040 M 336 1072 L 352 1040 M 352 1072 L 336 1072 M 352 1072 L 416 1072 L 432 1040 M 32 1088 L 176 1088 M 32 1088 L 48 1120 M 40 1104 L 184 1104 M 176 1088 L 192 1120 M 48 1120 L 50 1124 M 48 1136 L 50 1132 A 8 8 0 0 0 50 1124 M 192 1120 L 194 1124 M 192 1136 L 194 1132 A 8 8 0 0 0 194 1124 M 56 1152 L 40 1152 M 56 1152 L 184 1152 M 32 1168 L 48 1136 M 48 1168 L 32 1168 M 48 1168 L 176 1168 L 192 1136 M 112 1184 L 136 1232 M 192 1216 L 194 1212 M 200 1208 A 8 8 0 0 0 194 1212 M 200 1208 L 216 1208 A 8 8 0 0 0 222 1204 M 184 1232 L 192 1216 M 112 1240 L 136 1240 M 128 1264 L 136 1248 M 184 1248 L 200 1280 M 96 1280 L 98 1276 M 104 1272 A 8 8 0 0 0 98 1276 M 104 1272 L 120 1272 M 126 1268 L 136 1248 M 120 1272 A 8 8 0 0 0 126 1268 M 200 1280 L 224 1280 M 88 1296 L 96 1280 M 112 1336 A 4 4 0 0 0 108 1340 L 108 1344 M 112 1336 L 136 1336 M 140 1340 A 4 4 0 0 0 136 1336 M 140 1340 L 140 1344 M 168 1336 A 4 4 0 0 0 164 1340 L 164 1344 M 168 1336 L 192 1336 M 196 1340 A 4 4 0 0 0 192 1336 M 196 1340 L 196 1344 M 216 1336 A 4 4 0 0 0 212 1340 L 212 1344 M 216 1336 L 240 1336 M 244 1340 A 4 4 0 0 0 240 1336 M 244 1340 L 244 1344 M 272 1336 A 4 4 0 0 0 268 1340 L 268 1344 M 272 1336 L 296 1336 M 300 1340 A 4 4 0 0 0 296 1336 M 300 1340 L 300 1344 M 344 1336 A 4 4 0 0 0 340 1340 L 340 1344 M 344 1336 L 368 1336 M 372 1340 A 4 4 0 0 0 368 1336 M 372 1340 L 372 1344 M 400 1336 A 4 4 0 0 0 396 1340 L 396 1344 M 400 1336 L 424 1336 M 428 1340 A 4 4 0 0 0 424 1336 M 428 1340 L 428 1344 M 108 1348 A 4 4 0 0 0 112 1352 M 108 1344 L 108 1348 M 112 1352 L 136 1352 A 4 4 0 0 0 140 1348 M 140 1344 L 140 1348 M 164 1348 A 4 4 0 0 0 168 1352 M 164 1344 L 164 1348 M 168 1352 L 192 1352 A 4 4 0 0 0 196 1348 M 196 1344 L 196 1348 M 212 1348 A 4 4 0 0 0 216 1352 M 212 1344 L 212 1348 M 216 1352 L 240 1352 A 4 4 0 0 0 244 1348 M 244 1344 L 244 1348 M 268 1348 A 4 4 0 0 0 272 1352 M 268 1344 L 268 1348 M 272 1352 L 296 1352 A 4 4 0 0 0 300 1348 M 300 1344 L 300 1348 M 340 1348 A 4 4 0 0 0 344 1352 M 340 1344 L 340 1348 M 344 1352 L 368 1352 A 4 4 0 0 0 372 1348 M 372 1344 L 372 1348 M 396 1348 A 4 4 0 0 0 400 1352 M 396 1344 L 396 1348 M 400 1352 L 424 1352 A 4 4 0 0 0 428 1348 M 428 1344 L 428 1348 M 228 1360 L 228 1488 M 108 1404 L 108 1424 M 112 1400 A 4 4 0 0 0 108 1404 M 112 1400 L 208 1400 M 212 1404 L 212 1424 M 212 1404 A 4 4 0 0 0 208 1400 M 244 1404 L 244 1424 M 248 1400 A 4 4 0 0 0 244 1404 M 248 1400 L 336 1400 M 340 1404 L 340 1424 M 340 1404 A 4 4 0 0 0 336 1400 M 380 1404 L 380 1424 M 384 1400 A 4 4 0 0 0 380 1404 M 384 1400 L 424 1400 M 428 1404 L 428 1424 M 428 1404 A 4 4 0 0 0 424 1400 M 108 1408 L 108 1424 M 212 1408 L 212 1424 M 244 1408 L 244 1424 M 340 1408 L 340 1424 M 380 1408 L 380 1424 M 428 1408 L 428 1424 M 108 1424 L 108 1428 A 4 4 0 0 0 112 1432 L 208 1432 M 212 1424 L 212 1428 M 208 1432 A 4 4 0 0 0 212 1428 M 244 1424 L 244 1428 A 4 4 0 0 0 248 1432 L 336 1432 M 340 1424 L 340 1428 M 336 1432 A 4 4 0 0 0 340 1428 M 380 1424 L 380 1428 A 4 4 0 0 0 384 1432 L 424 1432 M 428 1424 L 428 1428 M 424 1432 A 4 4 0 0 0 428 1428 M 140 1484 L 140 1504 M 144 1480 A 4 4 0 0 0 140 1484 M 144 1480 L 176 1480 M 180 1484 L 180 1504 M 180 1484 A 4 4 0 0 0 176 1480 M 324 1484 L 324 1504 M 328 1480 A 4 4 0 0 0 324 1484 M 328 1480 L 400 1480 M 404 1484 L 404 1504 M 404 1484 A 4 4 0 0 0 400 1480 M 140 1488 L 140 1504 M 180 1488 L 180 1504 M 192 1496 L 224 1496 M 228 1488 L 228 1492 M 224 1496 A 4 4 0 0 0 228 1492 M 324 1488 L 324 1504 M 404 1488 L 404 1504 M 140 1504 L 140 1508 A 4 4 0 0 0 144 1512 L 176 1512 M 180 1504 L 180 1508 M 176 1512 A 4 4 0 0 0 180 1508 M 324 1504 L 324 1508 A 4 4 0 0 0 328 1512 L 400 1512 M 404 1504 L 404 1508 M 400 1512 A 4 4 0 0 0 404 1508 M 108 1564 L 108 1584 M 112 1560 A 4 4 0 0 0 108 1564 M 112 1560 L 424 1560 M 428 1564 L 428 1584 M 428 1564 A 4 4 0 0 0 424 1560 M 108 1568 L 108 1584 M 428 1568 L 428 1584 M 108 1584 L 108 1588 A 4 4 0 0 0 112 1592 L 424 1592 M 428 1584 L 428 1588 M 424 1592 A 4 4 0 0 0 428 1588 M 32 1632 L 20 1632 M 32 1632 L 56 1632 M 20 1632 L 20 1728 M 40 1648 L 28 1648 M 40 1648 L 60 1648 M 68 1632 L 68 1728 M 28 1648 L 28 1680 M 60 1648 L 60 1680 M 40 1680 L 28 1680 M 40 1680 L 60 1680 M 80 1688 L 68 1688 M 80 1688 L 536 1688 M 540 1692 A 4 4 0 0 0 536 1688 M 20 1728 L 20 1732 A 4 4 0 0 0 24 1736 L 64 1736 M 68 1728 L 68 1732 M 64 1736 A 4 4 0 0 0 68 1732 M 28 1788 L 28 1808 M 32 1784 A 4 4 0 0 0 28 1788 M 32 1784 L 184 1784 M 188 1788 L 188 1808 M 188 1788 A 4 4 0 0 0 184 1784 M 212 1788 L 212 1840 M 216 1784 A 4 4 0 0 0 212 1788 M 216 1784 L 432 1784 M 436 1788 L 436 1888 M 436 1788 A 4 4 0 0 0 432 1784 M 460 1788 L 460 1824 M 464 1784 A 4 4 0 0 0 460 1788 M 464 1784 L 616 1784 M 620 1788 L 620 1824 M 620 1788 A 4 4 0 0 0 616 1784 M 28 1792 L 28 1808 M 188 1792 L 188 1808 M 212 1792 L 212 1840 M 436 1792 L 436 1888 M 460 1792 L 460 1824 M 620 1792 L 620 1824 M 28 1808 L 28 1812 A 4 4 0 0 0 32 1816 L 184 1816 M 188 1808 L 188 1812 M 184 1816 A 4 4 0 0 0 188 1812 M 224 1816 L 212 1816 M 224 1816 L 436 1816 M 108 1824 L 108 1840 M 292 1836 L 292 1856 M 296 1832 A 4 4 0 0 0 292 1836 M 296 1832 L 336 1832 M 340 1836 L 340 1856 M 340 1836 A 4 4 0 0 0 336 1832 M 460 1824 L 460 1828 A 4 4 0 0 0 464 1832 L 616 1832 M 620 1824 L 620 1828 M 616 1832 A 4 4 0 0 0 620 1828 M 108 1840 L 108 1844 A 4 4 0 0 0 112 1848 L 208 1848 M 212 1840 L 212 1920 M 292 1840 L 292 1856 M 340 1840 L 340 1856 M 548 1840 L 548 1888 M 212 1856 L 212 1920 M 292 1856 L 292 1860 A 4 4 0 0 0 296 1864 L 336 1864 M 340 1856 L 340 1860 M 336 1864 A 4 4 0 0 0 340 1860 M 248 1888 L 250 1884 M 256 1880 A 8 8 0 0 0 250 1884 M 256 1880 L 400 1880 M 400 1888 L 402 1884 A 4 4 0 0 0 400 1880 M 240 1904 L 248 1888 M 392 1904 L 400 1888 M 408 1896 L 432 1896 M 436 1888 L 436 1920 M 432 1896 L 544 1896 M 440 1896 L 544 1896 M 548 1888 L 548 1892 M 544 1896 A 4 4 0 0 0 548 1892 M 238 1908 L 248 1888 M 238 1908 A 4 4 0 0 0 240 1912 L 384 1912 M 390 1908 L 400 1888 M 384 1912 A 8 8 0 0 0 390 1908 M 436 1904 L 436 1920 M 212 1920 L 212 1924 A 4 4 0 0 0 216 1928 L 432 1928 M 436 1920 L 436 1924 M 432 1928 A 4 4 0 0 0 436 1924 M 72 1952 L 70 1948 M 72 1944 A 4 4 0 0 0 70 1948 M 72 1944 L 184 1944 M 192 1952 L 190 1948 A 8 8 0 0 0 184 1944 M 72 1952 L 80 1968 M 192 1952 L 200 1968 M 80 1968 L 82 1972 A 8 8 0 0 0 88 1976 L 200 1976 M 200 1968 L 202 1972 M 200 1976 A 4 4 0 0 0 202 1972 M 320 2000 L 322 1996 M 328 1992 A 8 8 0 0 0 322 1996 M 312 2016 L 320 2000 M 304 2032 L 320 2000 M 310 2024 A 8 8 0 0 0 306 2028 M 128 2040 L 184 2040 M 192 2048 L 190 2044 A 8 8 0 0 0 184 2040 M 376 2032 L 384 2048 M 192 2048 L 240 2144 M 384 2048 L 400 2080 M 386 2052 A 8 8 0 0 0 390 2056 M 392 2064 L 400 2080 M 96 2080 L 128 2144 M 400 2080 L 402 2084 A 8 8 0 0 0 408 2088 M 264 2112 L 304 2032 M 256 2128 L 304 2032 M 262 2120 A 8 8 0 0 0 258 2124 M 248 2144 L 256 2128 M 128 2144 L 130 2148 A 8 8 0 0 0 136 2152 L 184 2152 M 184 2176 L 192 2160 M 208 2160 L 288 2320 M 224 2160 L 280 2272 M 240 2160 L 264 2208 M 184 2176 L 182 2180 M 180 2192 L 180 2188 M 182 2180 A 16 16 0 0 0 180 2188 M 180 2192 L 180 2208 L 180 2240 M 176 2224 L 178 2220 A 16 16 0 0 0 180 2212 M 264 2208 L 266 2212 A 8 8 0 0 0 272 2216 L 296 2216 M 168 2240 L 176 2224 M 180 2224 L 180 2240 M 312 2224 L 320 2240 M 180 2240 L 180 2272 M 176 2256 L 178 2252 A 16 16 0 0 0 180 2244 M 320 2240 L 322 2244 A 8 8 0 0 0 328 2248 L 360 2248 M 168 2272 L 176 2256 M 180 2256 L 180 2272 L 180 2304 M 176 2288 L 178 2284 A 16 16 0 0 0 180 2276 M 280 2272 L 282 2276 A 8 8 0 0 0 288 2280 L 296 2280 M 168 2304 L 176 2288 M 180 2288 L 180 2304 L 180 2308 M 176 2320 L 178 2316 A 16 16 0 0 0 180 2308 M 168 2336 L 176 2320 M 288 2320 L 290 2324 A 8 8 0 0 0 296 2328 L 320 2328" fill="none"/>
<path d=" M 640 736 L 664 736 M 680 736 L 704 736" fill="none" stroke-dasharray="3 3"/>
<line marker-end="url(#triangle)" x1="368" x2="396" y1="168" y2="168"/>
<line marker-end="url(#triangle)" x1="484" x2="484" y1="220" y2="256"/>
<line marker-end="url(#triangle)" x1="484" x2="484" y1="224" y2="256"/>
<line marker-end="url(#triangle)" x1="384" x2="404" y1="280" y2="280"/>
<line marker-end="url(#triangle)" x1="320" x2="364" y1="296" y2="296"/>
<line marker-end="url(#triangle)" x1="424" x2="436" y1="288" y2="312"/>
<line marker-end="url(#triangle)" x1="472" x2="468" y1="304" y2="312"/>
<line marker-end="url(#triangle)" x1="128" x2="148" y1="336" y2="376"/>
<line marker-end="url(#triangle)" x1="136" x2="148" y1="352" y2="376"/>
<line marker-end="url(#triangle)" x1="456" x2="484" y1="376" y2="376"/>
<line marker-end="url(#triangle)" x1="88" x2="140" y1="408" y2="408"/>
<line marker-end="url(#triangle)" x1="128" x2="140" y1="424" y2="424"/>
<line marker-end="url(#triangle)" x1="380" x2="380" y1="432" y2="416"/>
<line marker-end="url(#triangle)" x1="136" x2="148" y1="440" y2="440"/>
<line marker-end="url(#triangle)" x1="304" x2="364" y1="456" y2="456"/>
<line marker-end="url(#triangle)" x1="380" x2="492" y1="456" y2="456"/>
<line marker-end="url(#triangle)" x1="384" x2="492" y1="456" y2="456"/>
<line marker-end="url(#triangle)" x1="336" x2="364" y1="552" y2="552"/>
<line marker-end="url(#triangle)" x1="368" x2="380" y1="656" y2="680"/>
<line marker-end="url(#triangle)" x1="416" x2="436" y1="712" y2="712"/>
<line marker-end="url(#triangle)" x1="592" x2="620" y1="728" y2="728"/>
<line marker-end="url(#triangle)" x1="552" x2="580" y1="776" y2="776"/>
<line marker-end="url(#triangle)" x1="60" x2="84" y1="856" y2="856"/>
<line marker-end="url(#triangle)" x1="64" x2="84" y1="856" y2="856"/>
<line marker-end="url(#triangle)" x1="232" x2="228" y1="856" y2="856"/>
<line marker-end="url(#triangle)" x1="196" x2="196" y1="888" y2="928"/>
<line marker-end="url(#triangle)" x1="116" x2="116" y1="912" y2="896"/>
<line marker-end="url(#triangle)" x1="196" x2="196" y1="896" y2="928"/>
<line marker-end="url(#triangle)" x1="112" x2="108" y1="1184" y2="1176"/>
<line marker-end="url(#triangle)" x1="224" x2="236" y1="1200" y2="1176"/>
<line marker-end="url(#triangle)" x1="222" x2="236" y1="1204" y2="1176"/>
<line marker-end="url(#triangle)" x1="112" x2="108" y1="1240" y2="1240"/>
<line marker-end="url(#triangle)" x1="184" x2="220" y1="1240" y2="1240"/>
<line marker-end="url(#triangle)" x1="224" x2="236" y1="1280" y2="1304"/>
<line marker-end="url(#triangle)" x1="88" x2="84" y1="1296" y2="1304"/>
<line marker-end="url(#triangle)" x1="124" x2="124" y1="1360" y2="1392"/>
<line marker-end="url(#triangle)" x1="180" x2="180" y1="1360" y2="1392"/>
<line marker-end="url(#triangle)" x1="284" x2="284" y1="1360" y2="1392"/>
<line marker-end="url(#triangle)" x1="356" x2="356" y1="1360" y2="1472"/>
<line marker-end="url(#triangle)" x1="412" x2="412" y1="1360" y2="1392"/>
<line marker-end="url(#triangle)" x1="164" x2="164" y1="1440" y2="1472"/>
<line marker-end="url(#triangle)" x1="284" x2="284" y1="1440" y2="1552"/>
<line marker-end="url(#triangle)" x1="192" x2="188" y1="1496" y2="1496"/>
<line marker-end="url(#triangle)" x1="164" x2="164" y1="1520" y2="1552"/>
<line marker-end="url(#triangle)" x1="364" x2="364" y1="1520" y2="1552"/>
<line marker-end="url(#triangle)" x1="540" x2="540" y1="1692" y2="1776"/>
<line marker-end="url(#triangle)" x1="108" x2="108" y1="1696" y2="1776"/>
<line marker-end="url(#triangle)" x1="324" x2="324" y1="1696" y2="1776"/>
<line marker-end="url(#triangle)" x1="540" x2="540" y1="1696" y2="1776"/>
<line marker-end="url(#triangle)" x1="208" x2="284" y1="1848" y2="1848"/>
<line marker-end="url(#triangle)" x1="216" x2="284" y1="1848" y2="1848"/>
<line marker-end="url(#triangle)" x1="408" x2="404" y1="1896" y2="1896"/>
<line marker-end="url(#triangle)" x1="328" x2="348" y1="1992" y2="1992"/>
<line marker-end="url(#triangle)" x1="310" x2="348" y1="2024" y2="2024"/>
<line marker-end="url(#triangle)" x1="312" x2="348" y1="2024" y2="2024"/>
<line marker-end="url(#triangle)" x1="390" x2="420" y1="2056" y2="2056"/>
<line marker-end="url(#triangle)" x1="392" x2="420" y1="2056" y2="2056"/>
<line marker-end="url(#triangle)" x1="408" x2="428" y1="2088" y2="2088"/>
<line marker-end="url(#triangle)" x1="262" x2="356" y1="2120" y2="2120"/>
<line marker-end="url(#triangle)" x1="264" x2="356" y1="2120" y2="2120"/>
<line marker-end="url(#triangle)" x1="168" x2="164" y1="2336" y2="2344"/>
<text x="122" y="76">
tilted square
</text>
<text x="34" y="284">
Table
</text>
<text x="18" y="348">
Flowcharts
</text>
<text x="18" y="412">
Graphs
</text>
<text x="162" y="412">
Sponge
</text>
<text x="170" y="428">
down
</text>
<text x="18" y="476">
Comics
</text>
<text x="42" y="540">
Diagrams
</text>
<text x="394" y="604">
٩(̾●̃ ̾•̾)
</text>
<text x="442" y="604">
۶
</text>
<text x="514" y="636">
(,⊙–⊙,)७
</text>
<text x="490" y="684">
,(
</text>
<text x="522" y="684">
),
</text>
<text x="466" y="700">
(
</text>
<text x="554" y="700">
)
</text>
<text x="346" y="716">
[
</text>
<text x="378" y="716">
]
</text>
<text x="394" y="716">
=
</text>
<text x="578" y="716">
)
</text>
<text x="354" y="732">
::
</text>
<text x="466" y="732">
(
</text>
<text x="554" y="732">
).
</text>
<text x="578" y="732">
&apos;
</text>
<text x="626" y="732">
[
</text>
<text x="706" y="732">
°]
</text>
<text x="490" y="748">
.(
</text>
<text x="514" y="748">
).
</text>
<text x="538" y="748">
&apos;
</text>
<text x="650" y="780">
==
</text>
<text x="594" y="812">
:::
</text>
<text x="18" y="860">
Foo
</text>
<text x="106" y="860">
Bar
</text>
<text x="186" y="860">
Baz
</text>
<text x="266" y="860">
Moo
</text>
<text x="18" y="956">
Hello here and there and everywhere
</text>
<text x="34" y="1020">
a
</text>
<text x="50" y="1020">
==
</text>
<text x="74" y="1020">
b
</text>
<text x="50" y="1036">
&amp;
</text>
<text x="58" y="1036">
&amp;
</text>
<text x="226" y="1036">
process
</text>
<text x="34" y="1052">
&apos;
</text>
<text x="42" y="1052">
string&apos;
</text>
<text x="106" y="1052">
ne
</text>
<text x="130" y="1052">
&apos;
</text>
<text x="138" y="1052">
&apos;
</text>
<text x="362" y="1052">
process
</text>
<text x="66" y="1132">
another process
</text>
<text x="18" y="1180">
User code
</text>
<text x="250" y="1180">
OS code
</text>
<text x="18" y="1244">
User code
</text>
<text x="146" y="1244">
Mode
</text>
<text x="234" y="1244">
OS code
</text>
<text x="58" y="1324">
User code
</text>
<text x="226" y="1324">
OS code
</text>
<text x="34" y="1356">
OS API
</text>
<text x="122" y="1420">
Filesystem
</text>
<text x="258" y="1420">
Scheduler
</text>
<text x="394" y="1420">
MMU
</text>
<text x="154" y="1500">
IO
</text>
<text x="338" y="1500">
Network
</text>
<text x="258" y="1580">
HAL
</text>
<text x="58" y="1628">
[]
</text>
<text x="90" y="1660">
device
</text>
<text x="90" y="1676">
loads
</text>
<text x="34" y="1692">
ooo
</text>
<text x="34" y="1708">
ooo
</text>
<text x="34" y="1724">
ooo
</text>
<text x="42" y="1804">
Loadable module C
</text>
<text x="258" y="1804">
Loadable module A
</text>
<text x="474" y="1804">
Loadable module B
</text>
<text x="490" y="1820">
(instrumented)
</text>
<text x="306" y="1852">
A.o
</text>
<text x="138" y="1868">
calls
</text>
<text x="258" y="1900">
A.instrumented.o
</text>
<text x="474" y="1916">
calls
</text>
<text x="362" y="1996">
Base::Class::Derived_A
</text>
<text x="362" y="2028">
Base::Class::Derived_B
</text>
<text x="50" y="2044">
Something
</text>
<text x="434" y="2060">
Base::Class::Derived
</text>
<text x="50" y="2076">
Something::else
</text>
<text x="442" y="2092">
Base::Class::Derived
</text>
<text x="370" y="2124">
Base::Class::Derived_C
</text>
<text x="194" y="2156">
Base::Class
</text>
<text x="306" y="2220">
The::Latest
</text>
<text x="10" y="2252">
With::Some::fantasy
</text>
<text x="370" y="2252">
The::Latest::Greatest
</text>
<text x="74" y="2284">
More::Stuff
</text>
<text x="306" y="2284">
I::Am::Running::Out::Of::Ideas
</text>
<text x="74" y="2316">
More::Stuff
</text>
<text x="330" y="2332">
Last::One
</text>
<text x="58" y="2348">
More::Stuff
</text>
</svg>