<svg font-family="arial" font-size="14" height="1584" width="656" xmlns="http://www.w3.org/2000/svg">
<defs>
<marker id="triangle" markerHeight="10" markerUnits="strokeWidth" markerWidth="10" orient="auto" refX="15" refY="10" viewBox="0 0 50 20">
<path d="M 0 0 L 30 10 L 0 20 z"/>
</marker>
</defs>
<style>

    line, path {
      stroke: black;
      stroke-width: 2;
      stroke-opacity: 1;
      fill-opacity: 1;
      stroke-linecap: round;
      stroke-linejoin: miter;
    }
    circle {
      stroke: black;
      stroke-width: 2;
      stroke-opacity: 1;
      fill-opacity: 1;
      stroke-linecap: round;
      stroke-linejoin: miter;
      fill:white;
    }
    tspan.head{
        fill: none;
        stroke: none;
    }
    
</style>
<path d=" M 4 24 L 4 80 M 4 24 L 56 24 M 8 24 L 56 24 M 60 24 L 60 48 M 60 24 L 56 24 M 92 24 L 92 80 M 92 24 L 136 24 M 96 24 L 136 24 M 140 24 L 140 48 M 140 24 L 136 24 M 172 24 L 172 48 M 172 24 L 216 24 M 176 24 L 216 24 M 220 24 L 220 80 M 220 24 L 216 24 M 252 24 L 252 48 M 252 24 L 296 24 M 256 24 L 296 24 M 300 24 L 300 80 M 300 24 L 296 24 M 4 32 L 4 80 M 60 32 L 60 48 M 92 32 L 92 80 M 140 32 L 140 48 M 172 32 L 172 48 M 220 32 L 220 80 M 252 32 L 252 48 M 300 32 L 300 80 M 60 48 L 60 80 M 140 48 L 140 80 M 140 56 L 168 56 M 144 56 L 168 56 M 172 48 L 172 80 M 172 56 L 168 56 M 232 56 L 248 56 M 252 48 L 252 80 M 252 56 L 248 56 M 60 64 L 60 80 M 140 64 L 140 80 M 172 64 L 172 80 M 252 64 L 252 80 M 4 88 L 4 80 M 4 88 L 56 88 M 8 88 L 56 88 M 60 88 L 60 80 M 60 88 L 56 88 M 92 88 L 92 80 M 92 88 L 136 88 M 96 88 L 136 88 M 140 88 L 140 80 M 140 88 L 136 88 M 172 88 L 172 80 M 172 88 L 192 88 M 176 88 L 192 88 L 216 88 M 200 88 L 216 88 M 220 88 L 220 80 M 220 88 L 216 88 M 252 88 L 252 80 M 252 88 L 296 88 M 256 88 L 296 88 M 300 88 L 300 80 M 300 88 L 296 88 M 116 112 L 116 128 M 4 140 L 4 160 M 8 136 A 4 4 0 0 0 4 140 M 8 136 L 112 136 M 116 136 L 116 128 M 112 136 L 304 136 M 120 136 L 304 136 M 308 140 L 308 160 M 308 140 A 4 4 0 0 0 304 136 M 4 144 L 4 160 M 308 144 L 308 160 M 4 160 L 4 164 A 4 4 0 0 0 8 168 L 304 168 M 308 160 L 308 164 M 304 168 A 4 4 0 0 0 308 164 M 192 192 L 288 192 M 24 208 L 26 204 M 32 200 A 8 8 0 0 0 26 204 M 32 200 L 144 200 M 152 208 L 150 204 A 8 8 0 0 0 144 200 M 192 192 L 208 224 M 288 192 L 304 224 M 16 224 L 24 208 M 152 208 L 160 224 M 344 224 L 424 224 M 16 224 L 14 228 M 16 240 L 14 236 M 14 228 A 8 8 0 0 0 14 236 M 160 224 L 162 228 M 160 240 L 162 236 A 8 8 0 0 0 162 228 M 208 224 L 210 228 M 208 240 L 210 236 A 8 8 0 0 0 210 228 M 304 224 L 306 228 M 304 240 L 306 236 A 8 8 0 0 0 306 228 M 344 224 L 352 240 M 424 224 L 432 240 M 16 240 L 24 256 M 152 256 L 160 240 M 24 256 L 26 260 A 8 8 0 0 0 32 264 L 144 264 M 150 260 L 160 240 M 144 264 A 8 8 0 0 0 150 260 M 192 272 L 208 240 M 208 272 L 192 272 M 208 272 L 288 272 L 304 240 M 336 272 L 352 240 M 352 272 L 336 272 M 352 272 L 416 272 L 432 240 M 32 288 L 176 288 M 32 288 L 48 320 M 40 304 L 184 304 M 176 288 L 192 320 M 48 320 L 50 324 M 48 336 L 50 332 A 8 8 0 0 0 50 324 M 192 320 L 194 324 M 192 336 L 194 332 A 8 8 0 0 0 194 324 M 56 352 L 40 352 M 56 352 L 184 352 M 32 368 L 48 336 M 48 368 L 32 368 M 48 368 L 176 368 L 192 336 M 112 384 L 136 432 M 192 416 L 194 412 M 200 408 A 8 8 0 0 0 194 412 M 200 408 L 216 408 A 8 8 0 0 0 222 404 M 184 432 L 192 416 M 112 440 L 136 440 M 128 464 L 136 448 M 184 448 L 200 480 M 96 480 L 98 476 M 104 472 A 8 8 0 0 0 98 476 M 104 472 L 120 472 M 126 468 L 136 448 M 120 472 A 8 8 0 0 0 126 468 M 200 480 L 224 480 M 88 496 L 96 480 M 112 536 A 4 4 0 0 0 108 540 L 108 544 M 112 536 L 136 536 M 140 540 A 4 4 0 0 0 136 536 M 140 540 L 140 544 M 168 536 A 4 4 0 0 0 164 540 L 164 544 M 168 536 L 192 536 M 196 540 A 4 4 0 0 0 192 536 M 196 540 L 196 544 M 216 536 A 4 4 0 0 0 212 540 L 212 544 M 216 536 L 240 536 M 244 540 A 4 4 0 0 0 240 536 M 244 540 L 244 544 M 272 536 A 4 4 0 0 0 268 540 L 268 544 M 272 536 L 296 536 M 300 540 A 4 4 0 0 0 296 536 M 300 540 L 300 544 M 344 536 A 4 4 0 0 0 340 540 L 340 544 M 344 536 L 368 536 M 372 540 A 4 4 0 0 0 368 536 M 372 540 L 372 544 M 400 536 A 4 4 0 0 0 396 540 L 396 544 M 400 536 L 424 536 M 428 540 A 4 4 0 0 0 424 536 M 428 540 L 428 544 M 108 548 A 4 4 0 0 0 112 552 M 108 544 L 108 548 M 112 552 L 136 552 A 4 4 0 0 0 140 548 M 140 544 L 140 548 M 164 548 A 4 4 0 0 0 168 552 M 164 544 L 164 548 M 168 552 L 192 552 A 4 4 0 0 0 196 548 M 196 544 L 196 548 M 212 548 A 4 4 0 0 0 216 552 M 212 544 L 212 548 M 216 552 L 240 552 A 4 4 0 0 0 244 548 M 244 544 L 244 548 M 268 548 A 4 4 0 0 0 272 552 M 268 544 L 268 548 M 272 552 L 296 552 A 4 4 0 0 0 300 548 M 300 544 L 300 548 M 340 548 A 4 4 0 0 0 344 552 M 340 544 L 340 548 M 344 552 L 368 552 A 4 4 0 0 0 372 548 M 372 544 L 372 548 M 396 548 A 4 4 0 0 0 400 552 M 396 544 L 396 548 M 400 552 L 424 552 A 4 4 0 0 0 428 548 M 428 544 L 428 548 M 228 560 L 228 688 M 108 604 L 108 624 M 112 600 A 4 4 0 0 0 108 604 M 112 600 L 208 600 M 212 604 L 212 624 M 212 604 A 4 4 0 0 0 208 600 M 244 604 L 244 624 M 248 600 A 4 4 0 0 0 244 604 M 248 600 L 336 600 M 340 604 L 340 624 M 340 604 A 4 4 0 0 0 336 600 M 380 604 L 380 624 M 384 600 A 4 4 0 0 0 380 604 M 384 600 L 424 600 M 428 604 L 428 624 M 428 604 A 4 4 0 0 0 424 600 M 108 608 L 108 624 M 212 608 L 212 624 M 244 608 L 244 624 M 340 608 L 340 624 M 380 608 L 380 624 M 428 608 L 428 624 M 108 624 L 108 628 A 4 4 0 0 0 112 632 L 208 632 M 212 624 L 212 628 M 208 632 A 4 4 0 0 0 212 628 M 244 624 L 244 628 A 4 4 0 0 0 248 632 L 336 632 M 340 624 L 340 628 M 336 632 A 4 4 0 0 0 340 628 M 380 624 L 380 628 A 4 4 0 0 0 384 632 L 424 632 M 428 624 L 428 628 M 424 632 A 4 4 0 0 0 428 628 M 140 684 L 140 704 M 144 680 A 4 4 0 0 0 140 684 M 144 680 L 176 680 M 180 684 L 180 704 M 180 684 A 4 4 0 0 0 176 680 M 324 684 L 324 704 M 328 680 A 4 4 0 0 0 324 684 M 328 680 L 400 680 M 404 684 L 404 704 M 404 684 A 4 4 0 0 0 400 680 M 140 688 L 140 704 M 180 688 L 180 704 M 192 696 L 224 696 M 228 688 L 228 692 M 224 696 A 4 4 0 0 0 228 692 M 324 688 L 324 704 M 404 688 L 404 704 M 140 704 L 140 708 A 4 4 0 0 0 144 712 L 176 712 M 180 704 L 180 708 M 176 712 A 4 4 0 0 0 180 708 M 324 704 L 324 708 A 4 4 0 0 0 328 712 L 400 712 M 404 704 L 404 708 M 400 712 A 4 4 0 0 0 404 708 M 108 764 L 108 784 M 112 760 A 4 4 0 0 0 108 764 M 112 760 L 424 760 M 428 764 L 428 784 M 428 764 A 4 4 0 0 0 424 760 M 108 768 L 108 784 M 428 768 L 428 784 M 108 784 L 108 788 A 4 4 0 0 0 112 792 L 424 792 M 428 784 L 428 788 M 424 792 A 4 4 0 0 0 428 788 M 32 832 L 20 832 M 32 832 L 56 832 M 20 832 L 20 928 M 40 848 L 28 848 M 40 848 L 60 848 M 68 832 L 68 928 M 28 848 L 28 880 M 60 848 L 60 880 M 40 880 L 28 880 M 40 880 L 60 880 M 80 888 L 68 888 M 80 888 L 536 888 M 540 892 A 4 4 0 0 0 536 888 M 20 928 L 20 932 A 4 4 0 0 0 24 936 L 64 936 M 68 928 L 68 932 M 64 936 A 4 4 0 0 0 68 932 M 28 988 L 28 1008 M 32 984 A 4 4 0 0 0 28 988 M 32 984 L 184 984 M 188 988 L 188 1008 M 188 988 A 4 4 0 0 0 184 984 M 212 988 L 212 1040 M 216 984 A 4 4 0 0 0 212 988 M 216 984 L 432 984 M 436 988 L 436 1088 M 436 988 A 4 4 0 0 0 432 984 M 460 988 L 460 1024 M 464 984 A 4 4 0 0 0 460 988 M 464 984 L 616 984 M 620 988 L 620 1024 M 620 988 A 4 4 0 0 0 616 984 M 28 992 L 28 1008 M 188 992 L 188 1008 M 212 992 L 212 1040 M 436 992 L 436 1088 M 460 992 L 460 1024 M 620 992 L 620 1024 M 28 1008 L 28 1012 A 4 4 0 0 0 32 1016 L 184 1016 M 188 1008 L 188 1012 M 184 1016 A 4 4 0 0 0 188 1012 M 224 1016 L 212 1016 M 224 1016 L 436 1016 M 108 1024 L 108 1040 M 292 1036 L 292 1056 M 296 1032 A 4 4 0 0 0 292 1036 M 296 1032 L 336 1032 M 340 1036 L 340 1056 M 340 1036 A 4 4 0 0 0 336 1032 M 460 1024 L 460 1028 A 4 4 0 0 0 464 1032 L 616 1032 M 620 1024 L 620 1028 M 616 1032 A 4 4 0 0 0 620 1028 M 108 1040 L 108 1044 A 4 4 0 0 0 112 1048 L 208 1048 M 212 1040 L 212 1120 M 292 1040 L 292 1056 M 340 1040 L 340 1056 M 548 1040 L 548 1088 M 212 1056 L 212 1120 M 292 1056 L 292 1060 A 4 4 0 0 0 296 1064 L 336 1064 M 340 1056 L 340 1060 M 336 1064 A 4 4 0 0 0 340 1060 M 248 1088 L 250 1084 M 256 1080 A 8 8 0 0 0 250 1084 M 256 1080 L 400 1080 M 400 1088 L 402 1084 A 4 4 0 0 0 400 1080 M 240 1104 L 248 1088 M 392 1104 L 400 1088 M 408 1096 L 432 1096 M 436 1088 L 436 1120 M 432 1096 L 544 1096 M 440 1096 L 544 1096 M 548 1088 L 548 1092 M 544 1096 A 4 4 0 0 0 548 1092 M 238 1108 L 248 1088 M 238 1108 A 4 4 0 0 0 240 1112 L 384 1112 M 390 1108 L 400 1088 M 384 1112 A 8 8 0 0 0 390 1108 M 436 1104 L 436 1120 M 212 1120 L 212 1124 A 4 4 0 0 0 216 1128 L 432 1128 M 436 1120 L 436 1124 M 432 1128 A 4 4 0 0 0 436 1124 M 72 1152 L 70 1148 M 72 1144 A 4 4 0 0 0 70 1148 M 72 1144 L 184 1144 M 192 1152 L 190 1148 A 8 8 0 0 0 184 1144 M 72 1152 L 80 1168 M 192 1152 L 200 1168 M 80 1168 L 82 1172 A 8 8 0 0 0 88 1176 L 200 1176 M 200 1168 L 202 1172 M 200 1176 A 4 4 0 0 0 202 1172 M 320 1200 L 322 1196 M 328 1192 A 8 8 0 0 0 322 1196 M 312 1216 L 320 1200 M 304 1232 L 320 1200 M 310 1224 A 8 8 0 0 0 306 1228 M 128 1240 L 184 1240 M 192 1248 L 190 1244 A 8 8 0 0 0 184 1240 M 376 1232 L 384 1248 M 192 1248 L 240 1344 M 384 1248 L 400 1280 M 386 1252 A 8 8 0 0 0 390 1256 M 392 1264 L 400 1280 M 96 1280 L 128 1344 M 400 1280 L 402 1284 A 8 8 0 0 0 408 1288 M 264 1312 L 304 1232 M 256 1328 L 304 1232 M 262 1320 A 8 8 0 0 0 258 1324 M 248 1344 L 256 1328 M 128 1344 L 130 1348 A 8 8 0 0 0 136 1352 L 184 1352 M 184 1376 L 192 1360 M 208 1360 L 288 1520 M 224 1360 L 280 1472 M 240 1360 L 264 1408 M 184 1376 L 182 1380 M 180 1392 L 180 1388 M 182 1380 A 16 16 0 0 0 180 1388 M 180 1392 L 180 1408 L 180 1440 M 176 1424 L 178 1420 A 16 16 0 0 0 180 1412 M 264 1408 L 266 1412 A 8 8 0 0 0 272 1416 L 296 1416 M 168 1440 L 176 1424 M 180 1424 L 180 1440 M 312 1424 L 320 1440 M 180 1440 L 180 1472 M 176 1456 L 178 1452 A 16 16 0 0 0 180 1444 M 320 1440 L 322 1444 A 8 8 0 0 0 328 1448 L 360 1448 M 168 1472 L 176 1456 M 180 1456 L 180 1472 L 180 1504 M 176 1488 L 178 1484 A 16 16 0 0 0 180 1476 M 280 1472 L 282 1476 A 8 8 0 0 0 288 1480 L 296 1480 M 168 1504 L 176 1488 M 180 1488 L 180 1504 L 180 1508 M 176 1520 L 178 1516 A 16 16 0 0 0 180 1508 M 168 1536 L 176 1520 M 288 1520 L 290 1524 A 8 8 0 0 0 296 1528 L 320 1528" fill="none"/>
<path d="" fill="none" stroke-dasharray="3 3"/>
<line marker-end="url(#triangle)" x1="60" x2="84" y1="56" y2="56"/>
<line marker-end="url(#triangle)" x1="64" x2="84" y1="56" y2="56"/>
<line marker-end="url(#triangle)" x1="232" x2="228" y1="56" y2="56"/>
<line marker-end="url(#triangle)" x1="196" x2="196" y1="88" y2="128"/>
<line marker-end="url(#triangle)" x1="116" x2="116" y1="112" y2="96"/>
<line marker-end="url(#triangle)" x1="196" x2="196" y1="96" y2="128"/>
<line marker-end="url(#triangle)" x1="112" x2="108" y1="384" y2="376"/>
<line marker-end="url(#triangle)" x1="224" x2="236" y1="400" y2="376"/>
<line marker-end="url(#triangle)" x1="222" x2="236" y1="404" y2="376"/>
<line marker-end="url(#triangle)" x1="112" x2="108" y1="440" y2="440"/>
<line marker-end="url(#triangle)" x1="184" x2="220" y1="440" y2="440"/>
<line marker-end="url(#triangle)" x1="224" x2="236" y1="480" y2="504"/>
<line marker-end="url(#triangle)" x1="88" x2="84" y1="496" y2="504"/>
<line marker-end="url(#triangle)" x1="124" x2="124" y1="560" y2="592"/>
<line marker-end="url(#triangle)" x1="180" x2="180" y1="560" y2="592"/>
<line marker-end="url(#triangle)" x1="284" x2="284" y1="560" y2="592"/>
<line marker-end="url(#triangle)" x1="356" x2="356" y1="560" y2="672"/>
<line marker-end="url(#triangle)" x1="412" x2="412" y1="560" y2="592"/>
<line marker-end="url(#triangle)" x1="164" x2="164" y1="640" y2="672"/>
<line marker-end="url(#triangle)" x1="284" x2="284" y1="640" y2="752"/>
<line marker-end="url(#triangle)" x1="192" x2="188" y1="696" y2="696"/>
<line marker-end="url(#triangle)" x1="164" x2="164" y1="720" y2="752"/>
<line marker-end="url(#triangle)" x1="364" x2="364" y1="720" y2="752"/>
<line marker-end="url(#triangle)" x1="540" x2="540" y1="892" y2="976"/>
<line marker-end="url(#triangle)" x1="108" x2="108" y1="896" y2="976"/>
<line marker-end="url(#triangle)" x1="324" x2="324" y1="896" y2="976"/>
<line marker-end="url(#triangle)" x1="540" x2="540" y1="896" y2="976"/>
<line marker-end="url(#triangle)" x1="208" x2="284" y1="1048" y2="1048"/>
<line marker-end="url(#triangle)" x1="216" x2="284" y1="1048" y2="1048"/>
<line marker-end="url(#triangle)" x1="408" x2="404" y1="1096" y2="1096"/>
<line marker-end="url(#triangle)" x1="328" x2="348" y1="1192" y2="1192"/>
<line marker-end="url(#triangle)" x1="310" x2="348" y1="1224" y2="1224"/>
<line marker-end="url(#triangle)" x1="312" x2="348" y1="1224" y2="1224"/>
<line marker-end="url(#triangle)" x1="390" x2="420" y1="1256" y2="1256"/>
<line marker-end="url(#triangle)" x1="392" x2="420" y1="1256" y2="1256"/>
<line marker-end="url(#triangle)" x1="408" x2="428" y1="1288" y2="1288"/>
<line marker-end="url(#triangle)" x1="262" x2="356" y1="1320" y2="1320"/>
<line marker-end="url(#triangle)" x1="264" x2="356" y1="1320" y2="1320"/>
<line marker-end="url(#triangle)" x1="168" x2="164" y1="1536" y2="1544"/>
<text x="18" y="60">
Foo
</text>
<text x="106" y="60">
Bar
</text>
<text x="186" y="60">
Baz
</text>
<text x="266" y="60">
Moo
</text>
<text x="18" y="156">
Hello here and there and everywhere
</text>
<text x="34" y="220">
a
</text>
<text x="50" y="220">
==
</text>
<text x="74" y="220">
b
</text>
<text x="50" y="236">
&amp;
</text>
<text x="58" y="236">
&amp;
</text>
<text x="226" y="236">
process
</text>
<text x="34" y="252">
&apos;
</text>
<text x="42" y="252">
string&apos;
</text>
<text x="106" y="252">
ne
</text>
<text x="130" y="252">
&apos;
</text>
<text x="138" y="252">
&apos;
</text>
<text x="362" y="252">
process
</text>
<text x="66" y="332">
another process
</text>
<text x="18" y="380">
User code
</text>
<text x="250" y="380">
OS code
</text>
<text x="18" y="444">
User code
</text>
<text x="146" y="444">
Mode
</text>
<text x="234" y="444">
OS code
</text>
<text x="58" y="524">
User code
</text>
<text x="226" y="524">
OS code
</text>
<text x="34" y="556">
OS API
</text>
<text x="122" y="620">
Filesystem
</text>
<text x="258" y="620">
Scheduler
</text>
<text x="394" y="620">
MMU
</text>
<text x="154" y="700">
IO
</text>
<text x="338" y="700">
Network
</text>
<text x="258" y="780">
HAL
</text>
<text x="58" y="828">
[]
</text>
<text x="90" y="860">
device
</text>
<text x="90" y="876">
loads
</text>
<text x="34" y="892">
ooo
</text>
<text x="34" y="908">
ooo
</text>
<text x="34" y="924">
ooo
</text>
<text x="42" y="1004">
Loadable module C
</text>
<text x="258" y="1004">
Loadable module A
</text>
<text x="474" y="1004">
Loadable module B
</text>
<text x="490" y="1020">
(instrumented)
</text>
<text x="306" y="1052">
A.o
</text>
<text x="138" y="1068">
calls
</text>
<text x="258" y="1100">
A.instrumented.o
</text>
<text x="474" y="1116">
calls
</text>
<text x="362" y="1196">
Base::Class::Derived_A
</text>
<text x="362" y="1228">
Base::Class::Derived_B
</text>
<text x="50" y="1244">
Something
</text>
<text x="434" y="1260">
Base::Class::Derived
</text>
<text x="50" y="1276">
Something::else
</text>
<text x="442" y="1292">
Base::Class::Derived
</text>
<text x="370" y="1324">
Base::Class::Derived_C
</text>
<text x="194" y="1356">
Base::Class
</text>
<text x="306" y="1420">
The::Latest
</text>
<text x="10" y="1452">
With::Some::fantasy
</text>
<text x="370" y="1452">
The::Latest::Greatest
</text>
<text x="74" y="1484">
More::Stuff
</text>
<text x="306" y="1484">
I::Am::Running::Out::Of::Ideas
</text>
<text x="74" y="1516">
More::Stuff
</text>
<text x="330" y="1532">
Last::One
</text>
<text x="58" y="1548">
More::Stuff
</text>
</svg>