<svg font-family="arial" font-size="14" height="2432" width="920" xmlns="http://www.w3.org/2000/svg">
<defs>
<marker id="triangle" markerHeight="10" markerUnits="strokeWidth" markerWidth="10" orient="auto" refX="15" refY="10" viewBox="0 0 50 20">
<path d="M 0 0 L 30 10 L 0 20 z"/>
</marker>
</defs>
<style>

    line, path {
      stroke: black;
      stroke-width: 2;
      stroke-opacity: 1;
      fill-opacity: 1;
      stroke-linecap: round;
      stroke-linejoin: miter;
    }
    circle {
      stroke: black;
      stroke-width: 2;
      stroke-opacity: 1;
      fill-opacity: 1;
      stroke-linecap: round;
      stroke-linejoin: miter;
      fill:white;
    }
    tspan.head{
        fill: none;
        stroke: none;
    }
    
</style>
<path d=" M 52 32 L 52 40 M 84 32 L 84 40 M 108 32 L 108 56 M 124 32 L 124 56 M 172 40 L 176 32 M 184 32 L 188 40 M 224 32 L 212 56 M 240 32 L 252 56 M 64 64 L 52 40 M 72 64 L 84 40 M 108 56 L 112 64 M 124 56 L 120 64 M 172 40 L 172 64 M 188 40 L 188 64 M 212 56 L 212 64 M 252 56 L 252 64 M 68 92 L 64 96 M 68 92 L 96 120 M 284 92 L 280 96 M 284 92 L 312 120 M 56 104 L 48 112 M 64 96 L 56 104 M 72 96 L 96 120 M 272 104 L 264 112 M 280 96 L 272 104 M 288 96 L 312 120 M 368 104 L 360 112 M 372 100 L 368 104 M 372 100 L 392 120 M 376 104 L 392 120 M 36 124 L 40 120 M 36 124 L 64 152 M 48 112 L 40 120 M 100 124 L 96 120 M 100 124 L 96 128 M 252 124 L 256 120 M 252 124 L 280 152 M 264 112 L 256 120 M 316 124 L 312 120 M 316 124 L 312 128 M 348 124 L 352 120 M 348 124 L 368 144 M 360 112 L 352 120 M 396 124 L 392 120 M 396 124 L 392 128 M 40 128 L 64 152 M 88 136 L 80 144 M 96 128 L 88 136 M 256 128 L 280 152 M 304 136 L 296 144 M 312 128 L 304 136 M 352 128 L 368 144 M 384 136 L 376 144 M 392 128 L 384 136 M 64 152 L 68 156 L 72 152 M 80 144 L 72 152 M 280 152 L 284 156 L 288 152 M 296 144 L 288 152 M 368 144 L 372 148 L 376 144 M 412 200 L 412 240 M 412 200 L 456 200 M 416 200 L 456 200 M 460 200 L 460 240 M 456 200 L 512 200 M 464 200 L 512 200 M 516 200 L 516 240 M 516 200 L 512 200 M 360 224 L 362 220 M 368 216 A 8 8 0 0 0 362 220 M 412 208 L 412 240 M 424 216 L 412 216 M 424 216 L 460 216 M 460 208 L 460 240 M 472 216 L 460 216 M 472 216 L 516 216 M 516 208 L 516 240 M 424 232 L 412 232 M 424 232 L 460 232 M 472 232 L 460 232 M 472 232 L 516 232 M 412 248 L 412 240 M 412 248 L 456 248 M 416 248 L 456 248 M 460 248 L 460 240 M 456 248 L 512 248 M 464 248 L 512 248 M 516 248 L 516 240 M 516 248 L 512 248 M 488 264 A 4 4 0 0 0 484 268 M 488 264 L 504 264 M 508 268 L 508 384 M 508 268 A 4 4 0 0 0 504 264 M 508 272 L 508 384 M 20 316 L 20 336 M 24 312 A 4 4 0 0 0 20 316 M 24 312 L 80 312 M 84 316 L 84 336 M 84 316 A 4 4 0 0 0 80 312 M 416 312 A 4 4 0 0 0 412 316 L 412 320 M 424 312 A 16 16 0 0 0 416 312 M 428 316 A 4 4 0 0 0 424 312 M 428 316 L 428 320 M 448 312 A 4 4 0 0 0 444 316 L 444 320 M 456 312 A 16 16 0 0 0 448 312 M 460 316 A 4 4 0 0 0 456 312 M 460 316 L 460 320 M 480 312 A 4 4 0 0 0 476 316 L 476 320 M 488 312 A 16 16 0 0 0 480 312 M 492 316 A 4 4 0 0 0 488 312 M 492 316 L 492 320 M 20 320 L 20 336 M 84 320 L 84 336 M 96 328 L 84 328 M 104 336 L 102 332 A 8 8 0 0 0 96 328 M 380 332 L 380 368 M 384 328 A 4 4 0 0 0 380 332 M 412 324 A 4 4 0 0 0 416 328 M 412 320 L 412 324 M 416 328 L 424 328 A 4 4 0 0 0 428 324 M 428 320 L 428 324 M 444 324 A 4 4 0 0 0 448 328 M 444 320 L 444 324 M 448 328 L 456 328 A 4 4 0 0 0 460 324 M 460 320 L 460 324 M 476 324 A 4 4 0 0 0 480 328 M 476 320 L 476 324 M 480 328 L 488 328 A 4 4 0 0 0 492 324 M 492 320 L 492 324 M 20 336 L 20 340 A 4 4 0 0 0 24 344 L 80 344 M 84 336 L 84 340 M 80 344 A 4 4 0 0 0 84 340 M 104 336 L 128 384 M 312 352 L 314 348 M 320 344 A 8 8 0 0 0 314 348 M 380 336 L 380 368 M 452 336 L 452 352 M 472 352 L 480 336 M 448 368 L 452 360 L 456 368 M 452 352 L 452 360 M 4 380 L 4 400 M 8 376 A 4 4 0 0 0 4 380 M 8 376 L 104 376 M 108 380 L 108 400 M 108 380 A 4 4 0 0 0 104 376 M 380 380 L 380 368 M 380 380 A 4 4 0 0 0 384 384 L 440 384 L 452 360 M 464 384 L 452 360 M 464 384 L 508 384 M 4 384 L 4 400 M 108 384 L 108 400 M 120 392 L 108 392 M 120 392 L 128 392 M 130 392 L 128 392 M 134 396 A 8 8 0 0 0 130 392 M 440 384 L 452 408 M 464 384 L 452 408 M 4 400 L 4 404 A 4 4 0 0 0 8 408 L 104 408 M 108 400 L 108 404 M 104 408 A 4 4 0 0 0 108 404 M 448 400 L 452 408 L 456 400 M 452 416 L 452 408 M 504 416 L 536 416 M 160 432 L 216 432 M 256 432 L 360 224 M 452 416 L 452 420 A 4 4 0 0 0 456 424 M 496 432 L 504 416 M 512 432 L 496 432 M 512 432 L 528 432 L 536 416 M 4 444 L 4 464 M 8 440 A 4 4 0 0 0 4 444 M 8 440 L 72 440 M 76 444 L 76 464 M 76 444 A 4 4 0 0 0 72 440 M 216 432 L 232 464 M 224 440 L 248 440 M 254 436 L 360 224 M 248 440 A 8 8 0 0 0 254 436 M 264 448 L 312 352 M 4 448 L 4 464 M 76 448 L 76 464 M 88 456 L 76 456 M 144 464 L 160 432 M 232 456 L 256 456 L 272 456 M 262 452 L 312 352 M 256 456 A 8 8 0 0 0 262 452 M 264 456 L 272 456 M 280 464 L 278 460 A 8 8 0 0 0 272 456 M 4 464 L 4 468 A 4 4 0 0 0 8 472 L 72 472 M 76 464 L 76 468 M 72 472 A 4 4 0 0 0 76 468 M 120 480 L 122 476 M 128 472 A 8 8 0 0 0 122 476 M 144 464 L 160 496 M 232 472 L 264 472 M 272 480 L 270 476 A 8 8 0 0 0 264 472 M 280 464 L 296 496 M 400 480 L 402 476 M 406 476 L 416 496 M 406 476 A 3 3 0 0 0 402 476 M 432 464 L 448 496 M 456 480 L 458 476 M 464 472 A 8 8 0 0 0 458 476 M 472 472 A 16 16 0 0 0 464 472 M 480 480 L 478 476 A 8 8 0 0 0 472 472 M 128 496 L 130 492 M 136 488 A 8 8 0 0 0 130 492 M 160 496 L 216 496 L 232 464 M 224 488 L 232 488 M 240 496 L 238 492 A 8 8 0 0 0 232 488 M 272 480 L 328 592 M 380 480 L 380 496 M 392 496 L 380 496 M 392 496 L 400 480 M 408 480 L 416 496 L 432 464 M 448 496 L 456 480 M 480 480 L 488 496 M 4 508 L 4 528 M 8 504 A 4 4 0 0 0 4 508 M 8 504 L 72 504 M 76 508 L 76 528 M 76 508 A 4 4 0 0 0 72 504 M 104 512 L 120 480 M 240 496 L 336 688 M 296 496 L 298 500 A 8 8 0 0 0 304 504 M 380 504 L 380 496 M 4 512 L 4 528 M 76 512 L 76 528 M 88 520 L 76 520 M 88 520 L 96 520 M 102 516 L 120 480 M 96 520 A 8 8 0 0 0 102 516 M 4 528 L 4 532 A 4 4 0 0 0 8 536 L 72 536 M 76 528 L 76 532 M 72 536 A 4 4 0 0 0 76 532 M 184 536 L 176 544 M 188 532 L 184 536 M 188 532 L 208 552 M 192 536 L 208 552 M 380 536 L 380 672 M 380 536 L 480 536 M 384 536 L 480 536 M 484 536 L 484 560 M 484 536 L 480 536 M 96 560 L 128 496 M 164 556 L 168 552 M 164 556 L 184 576 M 176 544 L 168 552 M 212 556 L 208 552 M 212 556 L 208 560 M 380 544 L 380 672 M 416 552 A 16 16 0 0 0 406 560 M 416 552 L 456 552 M 466 560 A 16 16 0 0 0 456 552 M 484 544 L 484 560 M 28 572 L 28 592 M 32 568 A 4 4 0 0 0 28 572 M 32 568 L 112 568 M 116 572 L 116 592 M 116 572 A 4 4 0 0 0 112 568 M 168 560 L 184 576 M 200 568 L 192 576 M 208 560 L 200 568 M 406 560 A 16 16 0 0 0 406 576 M 466 576 A 16 16 0 0 0 466 560 M 484 560 L 484 688 M 484 568 L 584 568 M 488 568 L 584 568 M 588 568 L 588 688 M 588 568 L 584 568 M 28 576 L 28 592 M 116 576 L 116 592 M 184 576 L 188 580 L 192 576 M 406 576 A 16 16 0 0 0 416 584 L 424 584 M 424 592 L 426 588 A 4 4 0 0 0 424 584 M 448 584 L 440 592 M 448 584 L 456 584 A 16 16 0 0 0 466 576 M 484 576 L 484 688 M 512 584 A 16 16 0 0 0 502 592 M 512 584 L 552 584 M 562 592 A 16 16 0 0 0 552 584 M 588 576 L 588 688 M 28 592 L 28 596 A 4 4 0 0 0 32 600 L 112 600 M 116 592 L 116 596 M 112 600 A 4 4 0 0 0 116 596 M 328 592 L 330 596 A 8 8 0 0 0 336 600 M 432 600 L 424 608 M 440 592 L 432 600 M 502 592 A 16 16 0 0 0 502 608 M 562 608 A 16 16 0 0 0 562 592 M 408 624 L 424 592 M 424 608 L 408 624 M 502 608 A 16 16 0 0 0 512 616 L 520 616 L 560 656 M 544 624 L 542 620 M 544 616 A 4 4 0 0 0 542 620 M 544 616 L 552 616 A 16 16 0 0 0 562 608 M 544 624 L 560 656 M 144 680 L 136 688 M 148 676 L 144 680 M 148 676 L 168 696 M 152 680 L 168 696 M 380 680 L 380 672 M 380 680 L 484 680 M 384 680 L 484 680 M 124 700 L 128 696 M 124 700 L 144 720 M 136 688 L 128 696 M 172 700 L 168 696 M 172 700 L 168 704 M 336 688 L 338 692 A 8 8 0 0 0 344 696 L 360 696 M 368 704 L 366 700 A 8 8 0 0 0 360 696 M 484 696 L 484 688 M 484 696 L 584 696 M 488 696 L 584 696 M 588 696 L 588 688 M 588 696 L 584 696 M 128 704 L 144 720 M 160 712 L 152 720 M 168 704 L 160 712 M 144 720 L 148 724 L 152 720 M 480 728 A 16 16 0 0 0 470 736 M 480 728 L 488 728 M 536 728 L 544 728 M 554 736 A 16 16 0 0 0 544 728 M 352 752 L 376 752 M 392 752 L 404 752 M 456 744 A 16 16 0 0 0 446 752 M 456 744 L 464 744 M 560 744 L 568 744 M 578 752 A 16 16 0 0 0 568 744 M 352 768 L 376 768 M 388 752 L 388 784 M 404 752 L 404 784 M 446 752 A 16 16 0 0 0 446 768 M 632 768 L 712 768 M 344 784 L 352 768 M 368 784 L 376 768 M 392 784 L 404 784 M 446 768 A 16 16 0 0 0 456 776 L 464 776 M 568 776 L 576 776 M 632 784 L 640 784 M 664 784 L 680 784 M 470 784 A 16 16 0 0 0 480 792 L 488 792 M 528 792 L 536 792 M 536 800 L 544 816 M 600 816 L 588 816 M 600 816 L 628 816 M 656 816 L 644 816 M 656 816 L 668 816 M 544 816 L 546 820 A 8 8 0 0 0 552 824 M 588 816 L 588 856 M 628 816 L 628 840 M 644 816 L 644 864 M 668 816 L 668 864 M 600 848 L 588 848 M 600 848 L 628 848 M 588 856 L 584 864 M 616 864 L 628 840 M 656 864 L 644 864 M 656 864 L 668 864 M 4 872 L 4 928 M 4 872 L 56 872 M 8 872 L 56 872 M 60 872 L 60 896 M 60 872 L 56 872 M 92 872 L 92 928 M 92 872 L 136 872 M 96 872 L 136 872 M 140 872 L 140 896 M 140 872 L 136 872 M 172 872 L 172 896 M 172 872 L 216 872 M 176 872 L 216 872 M 220 872 L 220 928 M 220 872 L 216 872 M 252 872 L 252 896 M 252 872 L 296 872 M 256 872 L 296 872 M 300 872 L 300 928 M 300 872 L 296 872 M 4 880 L 4 928 M 60 880 L 60 896 M 92 880 L 92 928 M 140 880 L 140 896 M 172 880 L 172 896 M 220 880 L 220 928 M 252 880 L 252 896 M 300 880 L 300 928 M 60 896 L 60 928 M 140 896 L 140 928 M 140 904 L 168 904 M 144 904 L 168 904 M 172 896 L 172 928 M 172 904 L 168 904 M 232 904 L 248 904 M 252 896 L 252 928 M 252 904 L 248 904 M 60 912 L 60 928 M 140 912 L 140 928 M 172 912 L 172 928 M 252 912 L 252 928 M 4 936 L 4 928 M 4 936 L 56 936 M 8 936 L 56 936 M 60 936 L 60 928 M 60 936 L 56 936 M 92 936 L 92 928 M 92 936 L 136 936 M 96 936 L 136 936 M 140 936 L 140 928 M 140 936 L 136 936 M 172 936 L 172 928 M 172 936 L 192 936 M 176 936 L 192 936 L 216 936 M 200 936 L 216 936 M 220 936 L 220 928 M 220 936 L 216 936 M 252 936 L 252 928 M 252 936 L 296 936 M 256 936 L 296 936 M 300 936 L 300 928 M 300 936 L 296 936 M 116 960 L 116 976 M 4 988 L 4 1008 M 8 984 A 4 4 0 0 0 4 988 M 8 984 L 112 984 M 116 984 L 116 976 M 112 984 L 304 984 M 120 984 L 304 984 M 308 988 L 308 1008 M 308 988 A 4 4 0 0 0 304 984 M 4 992 L 4 1008 M 308 992 L 308 1008 M 4 1008 L 4 1012 A 4 4 0 0 0 8 1016 L 304 1016 M 308 1008 L 308 1012 M 304 1016 A 4 4 0 0 0 308 1012 M 192 1040 L 288 1040 M 24 1056 L 26 1052 M 32 1048 A 8 8 0 0 0 26 1052 M 32 1048 L 144 1048 M 152 1056 L 150 1052 A 8 8 0 0 0 144 1048 M 192 1040 L 208 1072 M 288 1040 L 304 1072 M 16 1072 L 24 1056 M 152 1056 L 160 1072 M 344 1072 L 424 1072 M 16 1072 L 14 1076 M 16 1088 L 14 1084 M 14 1076 A 8 8 0 0 0 14 1084 M 160 1072 L 162 1076 M 160 1088 L 162 1084 A 8 8 0 0 0 162 1076 M 208 1072 L 210 1076 M 208 1088 L 210 1084 A 8 8 0 0 0 210 1076 M 304 1072 L 306 1076 M 304 1088 L 306 1084 A 8 8 0 0 0 306 1076 M 344 1072 L 352 1088 M 424 1072 L 432 1088 M 16 1088 L 24 1104 M 152 1104 L 160 1088 M 24 1104 L 26 1108 A 8 8 0 0 0 32 1112 L 144 1112 M 150 1108 L 160 1088 M 144 1112 A 8 8 0 0 0 150 1108 M 192 1120 L 208 1088 M 208 1120 L 192 1120 M 208 1120 L 288 1120 L 304 1088 M 336 1120 L 352 1088 M 352 1120 L 336 1120 M 352 1120 L 416 1120 L 432 1088 M 32 1136 L 176 1136 M 32 1136 L 48 1168 M 40 1152 L 184 1152 M 176 1136 L 192 1168 M 48 1168 L 50 1172 M 48 1184 L 50 1180 A 8 8 0 0 0 50 1172 M 192 1168 L 194 1172 M 192 1184 L 194 1180 A 8 8 0 0 0 194 1172 M 56 1200 L 40 1200 M 56 1200 L 184 1200 M 32 1216 L 48 1184 M 48 1216 L 32 1216 M 48 1216 L 176 1216 L 192 1184 M 112 1232 L 136 1280 M 192 1264 L 194 1260 M 200 1256 A 8 8 0 0 0 194 1260 M 200 1256 L 216 1256 A 8 8 0 0 0 222 1252 M 184 1280 L 192 1264 M 112 1288 L 136 1288 M 128 1312 L 136 1296 M 184 1296 L 200 1328 M 96 1328 L 98 1324 M 104 1320 A 8 8 0 0 0 98 1324 M 104 1320 L 120 1320 M 126 1316 L 136 1296 M 120 1320 A 8 8 0 0 0 126 1316 M 200 1328 L 224 1328 M 88 1344 L 96 1328 M 112 1384 A 4 4 0 0 0 108 1388 L 108 1392 M 112 1384 L 136 1384 M 140 1388 A 4 4 0 0 0 136 1384 M 140 1388 L 140 1392 M 168 1384 A 4 4 0 0 0 164 1388 L 164 1392 M 168 1384 L 192 1384 M 196 1388 A 4 4 0 0 0 192 1384 M 196 1388 L 196 1392 M 216 1384 A 4 4 0 0 0 212 1388 L 212 1392 M 216 1384 L 240 1384 M 244 1388 A 4 4 0 0 0 240 1384 M 244 1388 L 244 1392 M 272 1384 A 4 4 0 0 0 268 1388 L 268 1392 M 272 1384 L 296 1384 M 300 1388 A 4 4 0 0 0 296 1384 M 300 1388 L 300 1392 M 344 1384 A 4 4 0 0 0 340 1388 L 340 1392 M 344 1384 L 368 1384 M 372 1388 A 4 4 0 0 0 368 1384 M 372 1388 L 372 1392 M 400 1384 A 4 4 0 0 0 396 1388 L 396 1392 M 400 1384 L 424 1384 M 428 1388 A 4 4 0 0 0 424 1384 M 428 1388 L 428 1392 M 108 1396 A 4 4 0 0 0 112 1400 M 108 1392 L 108 1396 M 112 1400 L 136 1400 A 4 4 0 0 0 140 1396 M 140 1392 L 140 1396 M 164 1396 A 4 4 0 0 0 168 1400 M 164 1392 L 164 1396 M 168 1400 L 192 1400 A 4 4 0 0 0 196 1396 M 196 1392 L 196 1396 M 212 1396 A 4 4 0 0 0 216 1400 M 212 1392 L 212 1396 M 216 1400 L 240 1400 A 4 4 0 0 0 244 1396 M 244 1392 L 244 1396 M 268 1396 A 4 4 0 0 0 272 1400 M 268 1392 L 268 1396 M 272 1400 L 296 1400 A 4 4 0 0 0 300 1396 M 300 1392 L 300 1396 M 340 1396 A 4 4 0 0 0 344 1400 M 340 1392 L 340 1396 M 344 1400 L 368 1400 A 4 4 0 0 0 372 1396 M 372 1392 L 372 1396 M 396 1396 A 4 4 0 0 0 400 1400 M 396 1392 L 396 1396 M 400 1400 L 424 1400 A 4 4 0 0 0 428 1396 M 428 1392 L 428 1396 M 228 1408 L 228 1536 M 108 1452 L 108 1472 M 112 1448 A 4 4 0 0 0 108 1452 M 112 1448 L 208 1448 M 212 1452 L 212 1472 M 212 1452 A 4 4 0 0 0 208 1448 M 244 1452 L 244 1472 M 248 1448 A 4 4 0 0 0 244 1452 M 248 1448 L 336 1448 M 340 1452 L 340 1472 M 340 1452 A 4 4 0 0 0 336 1448 M 380 1452 L 380 1472 M 384 1448 A 4 4 0 0 0 380 1452 M 384 1448 L 424 1448 M 428 1452 L 428 1472 M 428 1452 A 4 4 0 0 0 424 1448 M 108 1456 L 108 1472 M 212 1456 L 212 1472 M 244 1456 L 244 1472 M 340 1456 L 340 1472 M 380 1456 L 380 1472 M 428 1456 L 428 1472 M 108 1472 L 108 1476 A 4 4 0 0 0 112 1480 L 208 1480 M 212 1472 L 212 1476 M 208 1480 A 4 4 0 0 0 212 1476 M 244 1472 L 244 1476 A 4 4 0 0 0 248 1480 L 336 1480 M 340 1472 L 340 1476 M 336 1480 A 4 4 0 0 0 340 1476 M 380 1472 L 380 1476 A 4 4 0 0 0 384 1480 L 424 1480 M 428 1472 L 428 1476 M 424 1480 A 4 4 0 0 0 428 1476 M 140 1532 L 140 1552 M 144 1528 A 4 4 0 0 0 140 1532 M 144 1528 L 176 1528 M 180 1532 L 180 1552 M 180 1532 A 4 4 0 0 0 176 1528 M 324 1532 L 324 1552 M 328 1528 A 4 4 0 0 0 324 1532 M 328 1528 L 400 1528 M 404 1532 L 404 1552 M 404 1532 A 4 4 0 0 0 400 1528 M 140 1536 L 140 1552 M 180 1536 L 180 1552 M 192 1544 L 224 1544 M 228 1536 L 228 1540 M 224 1544 A 4 4 0 0 0 228 1540 M 324 1536 L 324 1552 M 404 1536 L 404 1552 M 140 1552 L 140 1556 A 4 4 0 0 0 144 1560 L 176 1560 M 180 1552 L 180 1556 M 176 1560 A 4 4 0 0 0 180 1556 M 324 1552 L 324 1556 A 4 4 0 0 0 328 1560 L 400 1560 M 404 1552 L 404 1556 M 400 1560 A 4 4 0 0 0 404 1556 M 108 1612 L 108 1632 M 112 1608 A 4 4 0 0 0 108 1612 M 112 1608 L 424 1608 M 428 1612 L 428 1632 M 428 1612 A 4 4 0 0 0 424 1608 M 108 1616 L 108 1632 M 428 1616 L 428 1632 M 108 1632 L 108 1636 A 4 4 0 0 0 112 1640 L 424 1640 M 428 1632 L 428 1636 M 424 1640 A 4 4 0 0 0 428 1636 M 32 1680 L 20 1680 M 32 1680 L 56 1680 M 20 1680 L 20 1776 M 40 1696 L 28 1696 M 40 1696 L 60 1696 M 68 1680 L 68 1776 M 28 1696 L 28 1728 M 60 1696 L 60 1728 M 40 1728 L 28 1728 M 40 1728 L 60 1728 M 80 1736 L 68 1736 M 80 1736 L 536 1736 M 540 1740 A 4 4 0 0 0 536 1736 M 20 1776 L 20 1780 A 4 4 0 0 0 24 1784 L 64 1784 M 68 1776 L 68 1780 M 64 1784 A 4 4 0 0 0 68 1780 M 28 1836 L 28 1856 M 32 1832 A 4 4 0 0 0 28 1836 M 32 1832 L 184 1832 M 188 1836 L 188 1856 M 188 1836 A 4 4 0 0 0 184 1832 M 212 1836 L 212 1888 M 216 1832 A 4 4 0 0 0 212 1836 M 216 1832 L 432 1832 M 436 1836 L 436 1936 M 436 1836 A 4 4 0 0 0 432 1832 M 460 1836 L 460 1872 M 464 1832 A 4 4 0 0 0 460 1836 M 464 1832 L 616 1832 M 620 1836 L 620 1872 M 620 1836 A 4 4 0 0 0 616 1832 M 28 1840 L 28 1856 M 188 1840 L 188 1856 M 212 1840 L 212 1888 M 436 1840 L 436 1936 M 460 1840 L 460 1872 M 620 1840 L 620 1872 M 28 1856 L 28 1860 A 4 4 0 0 0 32 1864 L 184 1864 M 188 1856 L 188 1860 M 184 1864 A 4 4 0 0 0 188 1860 M 224 1864 L 212 1864 M 224 1864 L 436 1864 M 108 1872 L 108 1888 M 292 1884 L 292 1904 M 296 1880 A 4 4 0 0 0 292 1884 M 296 1880 L 336 1880 M 340 1884 L 340 1904 M 340 1884 A 4 4 0 0 0 336 1880 M 460 1872 L 460 1876 A 4 4 0 0 0 464 1880 L 616 1880 M 620 1872 L 620 1876 M 616 1880 A 4 4 0 0 0 620 1876 M 108 1888 L 108 1892 A 4 4 0 0 0 112 1896 L 208 1896 M 212 1888 L 212 1968 M 292 1888 L 292 1904 M 340 1888 L 340 1904 M 548 1888 L 548 1936 M 212 1904 L 212 1968 M 292 1904 L 292 1908 A 4 4 0 0 0 296 1912 L 336 1912 M 340 1904 L 340 1908 M 336 1912 A 4 4 0 0 0 340 1908 M 248 1936 L 250 1932 M 256 1928 A 8 8 0 0 0 250 1932 M 256 1928 L 400 1928 M 400 1936 L 402 1932 A 4 4 0 0 0 400 1928 M 240 1952 L 248 1936 M 392 1952 L 400 1936 M 408 1944 L 432 1944 M 436 1936 L 436 1968 M 432 1944 L 544 1944 M 440 1944 L 544 1944 M 548 1936 L 548 1940 M 544 1944 A 4 4 0 0 0 548 1940 M 238 1956 L 248 1936 M 238 1956 A 4 4 0 0 0 240 1960 L 384 1960 M 390 1956 L 400 1936 M 384 1960 A 8 8 0 0 0 390 1956 M 436 1952 L 436 1968 M 212 1968 L 212 1972 A 4 4 0 0 0 216 1976 L 432 1976 M 436 1968 L 436 1972 M 432 1976 A 4 4 0 0 0 436 1972 M 72 2000 L 70 1996 M 72 1992 A 4 4 0 0 0 70 1996 M 72 1992 L 184 1992 M 192 2000 L 190 1996 A 8 8 0 0 0 184 1992 M 72 2000 L 80 2016 M 192 2000 L 200 2016 M 80 2016 L 82 2020 A 8 8 0 0 0 88 2024 L 200 2024 M 200 2016 L 202 2020 M 200 2024 A 4 4 0 0 0 202 2020 M 320 2048 L 322 2044 M 328 2040 A 8 8 0 0 0 322 2044 M 312 2064 L 320 2048 M 304 2080 L 320 2048 M 310 2072 A 8 8 0 0 0 306 2076 M 128 2088 L 184 2088 M 192 2096 L 190 2092 A 8 8 0 0 0 184 2088 M 376 2080 L 384 2096 M 192 2096 L 240 2192 M 384 2096 L 400 2128 M 386 2100 A 8 8 0 0 0 390 2104 M 392 2112 L 400 2128 M 96 2128 L 128 2192 M 400 2128 L 402 2132 A 8 8 0 0 0 408 2136 M 264 2160 L 304 2080 M 256 2176 L 304 2080 M 262 2168 A 8 8 0 0 0 258 2172 M 248 2192 L 256 2176 M 128 2192 L 130 2196 A 8 8 0 0 0 136 2200 L 184 2200 M 184 2224 L 192 2208 M 208 2208 L 288 2368 M 224 2208 L 280 2320 M 240 2208 L 264 2256 M 184 2224 L 182 2228 M 180 2240 L 180 2236 M 182 2228 A 16 16 0 0 0 180 2236 M 180 2240 L 180 2256 L 180 2288 M 176 2272 L 178 2268 A 16 16 0 0 0 180 2260 M 264 2256 L 266 2260 A 8 8 0 0 0 272 2264 L 296 2264 M 168 2288 L 176 2272 M 180 2272 L 180 2288 M 312 2272 L 320 2288 M 180 2288 L 180 2320 M 176 2304 L 178 2300 A 16 16 0 0 0 180 2292 M 320 2288 L 322 2292 A 8 8 0 0 0 328 2296 L 360 2296 M 168 2320 L 176 2304 M 180 2304 L 180 2320 L 180 2352 M 176 2336 L 178 2332 A 16 16 0 0 0 180 2324 M 280 2320 L 282 2324 A 8 8 0 0 0 288 2328 L 296 2328 M 168 2352 L 176 2336 M 180 2336 L 180 2352 L 180 2356 M 176 2368 L 178 2364 A 16 16 0 0 0 180 2356 M 168 2384 L 176 2368 M 288 2368 L 290 2372 A 8 8 0 0 0 296 2376 L 320 2376" fill="none"/>
<path d=" M 640 784 L 664 784 M 680 784 L 704 784" fill="none" stroke-dasharray="3 3"/>
<line marker-end="url(#triangle)" x1="368" x2="396" y1="216" y2="216"/>
<line marker-end="url(#triangle)" x1="484" x2="484" y1="268" y2="304"/>
<line marker-end="url(#triangle)" x1="484" x2="484" y1="272" y2="304"/>
<line marker-end="url(#triangle)" x1="384" x2="404" y1="328" y2="328"/>
<line marker-end="url(#triangle)" x1="320" x2="364" y1="344" y2="344"/>
<line marker-end="url(#triangle)" x1="424" x2="436" y1="336" y2="360"/>
<line marker-end="url(#triangle)" x1="472" x2="468" y1="352" y2="360"/>
<line marker-end="url(#triangle)" x1="128" x2="148" y1="384" y2="424"/>
<line marker-end="url(#triangle)" x1="136" x2="148" y1="400" y2="424"/>
<line marker-end="url(#triangle)" x1="456" x2="484" y1="424" y2="424"/>
<line marker-end="url(#triangle)" x1="88" x2="140" y1="456" y2="456"/>
<line marker-end="url(#triangle)" x1="128" x2="140" y1="472" y2="472"/>
<line marker-end="url(#triangle)" x1="380" x2="380" y1="480" y2="464"/>
<line marker-end="url(#triangle)" x1="136" x2="148" y1="488" y2="488"/>
<line marker-end="url(#triangle)" x1="304" x2="364" y1="504" y2="504"/>
<line marker-end="url(#triangle)" x1="380" x2="492" y1="504" y2="504"/>
<line marker-end="url(#triangle)" x1="384" x2="492" y1="504" y2="504"/>
<line marker-end="url(#triangle)" x1="336" x2="364" y1="600" y2="600"/>
<line marker-end="url(#triangle)" x1="368" x2="380" y1="704" y2="728"/>
<line marker-end="url(#triangle)" x1="416" x2="436" y1="760" y2="760"/>
<line marker-end="url(#triangle)" x1="592" x2="620" y1="776" y2="776"/>
<line marker-end="url(#triangle)" x1="552" x2="580" y1="824" y2="824"/>
<line marker-end="url(#triangle)" x1="60" x2="84" y1="904" y2="904"/>
<line marker-end="url(#triangle)" x1="64" x2="84" y1="904" y2="904"/>
<line marker-end="url(#triangle)" x1="232" x2="228" y1="904" y2="904"/>
<line marker-end="url(#triangle)" x1="196" x2="196" y1="936" y2="976"/>
<line marker-end="url(#triangle)" x1="116" x2="116" y1="960" y2="944"/>
<line marker-end="url(#triangle)" x1="196" x2="196" y1="944" y2="976"/>
<line marker-end="url(#triangle)" x1="112" x2="108" y1="1232" y2="1224"/>
<line marker-end="url(#triangle)" x1="224" x2="236" y1="1248" y2="1224"/>
<line marker-end="url(#triangle)" x1="222" x2="236" y1="1252" y2="1224"/>
<line marker-end="url(#triangle)" x1="112" x2="108" y1="1288" y2="1288"/>
<line marker-end="url(#triangle)" x1="184" x2="220" y1="1288" y2="1288"/>
<line marker-end="url(#triangle)" x1="224" x2="236" y1="1328" y2="1352"/>
<line marker-end="url(#triangle)" x1="88" x2="84" y1="1344" y2="1352"/>
<line marker-end="url(#triangle)" x1="124" x2="124" y1="1408" y2="1440"/>
<line marker-end="url(#triangle)" x1="180" x2="180" y1="1408" y2="1440"/>
<line marker-end="url(#triangle)" x1="284" x2="284" y1="1408" y2="1440"/>
<line marker-end="url(#triangle)" x1="356" x2="356" y1="1408" y2="1520"/>
<line marker-end="url(#triangle)" x1="412" x2="412" y1="1408" y2="1440"/>
<line marker-end="url(#triangle)" x1="164" x2="164" y1="1488" y2="1520"/>
<line marker-end="url(#triangle)" x1="284" x2="284" y1="1488" y2="1600"/>
<line marker-end="url(#triangle)" x1="192" x2="188" y1="1544" y2="1544"/>
<line marker-end="url(#triangle)" x1="164" x2="164" y1="1568" y2="1600"/>
<line marker-end="url(#triangle)" x1="364" x2="364" y1="1568" y2="1600"/>
<line marker-end="url(#triangle)" x1="540" x2="540" y1="1740" y2="1824"/>
<line marker-end="url(#triangle)" x1="108" x2="108" y1="1744" y2="1824"/>
<line marker-end="url(#triangle)" x1="324" x2="324" y1="1744" y2="1824"/>
<line marker-end="url(#triangle)" x1="540" x2="540" y1="1744" y2="1824"/>
<line marker-end="url(#triangle)" x1="208" x2="284" y1="1896" y2="1896"/>
<line marker-end="url(#triangle)" x1="216" x2="284" y1="1896" y2="1896"/>
<line marker-end="url(#triangle)" x1="408" x2="404" y1="1944" y2="1944"/>
<line marker-end="url(#triangle)" x1="328" x2="348" y1="2040" y2="2040"/>
<line marker-end="url(#triangle)" x1="310" x2="348" y1="2072" y2="2072"/>
<line marker-end="url(#triangle)" x1="312" x2="348" y1="2072" y2="2072"/>
<line marker-end="url(#triangle)" x1="390" x2="420" y1="2104" y2="2104"/>
<line marker-end="url(#triangle)" x1="392" x2="420" y1="2104" y2="2104"/>
<line marker-end="url(#triangle)" x1="408" x2="428" y1="2136" y2="2136"/>
<line marker-end="url(#triangle)" x1="262" x2="356" y1="2168" y2="2168"/>
<line marker-end="url(#triangle)" x1="264" x2="356" y1="2168" y2="2168"/>
<line marker-end="url(#triangle)" x1="168" x2="164" y1="2384" y2="2392"/>
<text x="122" y="124">
tilted square
</text>
<text x="34" y="332">
Table
</text>
<text x="18" y="396">
Flowcharts
</text>
<text x="18" y="460">
Graphs
</text>
<text x="162" y="460">
Sponge
</text>
<text x="170" y="476">
down
</text>
<text x="18" y="524">
Comics
</text>
<text x="42" y="588">
Diagrams
</text>
<text x="394" y="652">
٩(̾●̃ ̾•̾)
</text>
<text x="442" y="652">
۶
</text>
<text x="514" y="684">
(,⊙–⊙,)७
</text>
<text x="490" y="732">
,(
</text>
<text x="522" y="732">
),
</text>
<text x="466" y="748">
(
</text>
<text x="554" y="748">
)
</text>
<text x="346" y="764">
[
</text>
<text x="378" y="764">
]
</text>
<text x="394" y="764">
=
</text>
<text x="578" y="764">
)
</text>
<text x="354" y="780">
::
</text>
<text x="466" y="780">
(
</text>
<text x="554" y="780">
).
</text>
<text x="578" y="780">
&apos;
</text>
<text x="626" y="780">
[
</text>
<text x="706" y="780">
°]
</text>
<text x="490" y="796">
.(
</text>
<text x="514" y="796">
).
</text>
<text x="538" y="796">
&apos;
</text>
<text x="650" y="828">
==
</text>
<text x="594" y="860">
:::
</text>
<text x="18" y="908">
Foo
</text>
<text x="106" y="908">
Bar
</text>
<text x="186" y="908">
Baz
</text>
<text x="266" y="908">
Moo
</text>
<text x="18" y="1004">
Hello here and there and everywhere
</text>
<text x="34" y="1068">
a
</text>
<text x="50" y="1068">
==
</text>
<text x="74" y="1068">
b
</text>
<text x="50" y="1084">
&amp;
</text>
<text x="58" y="1084">
&amp;
</text>
<text x="226" y="1084">
process
</text>
<text x="34" y="1100">
&apos;
</text>
<text x="42" y="1100">
string&apos;
</text>
<text x="106" y="1100">
ne
</text>
<text x="130" y="1100">
&apos;
</text>
<text x="138" y="1100">
&apos;
</text>
<text x="362" y="1100">
process
</text>
<text x="66" y="1180">
another process
</text>
<text x="18" y="1228">
User code
</text>
<text x="250" y="1228">
OS code
</text>
<text x="18" y="1292">
User code
</text>
<text x="146" y="1292">
Mode
</text>
<text x="234" y="1292">
OS code
</text>
<text x="58" y="1372">
User code
</text>
<text x="226" y="1372">
OS code
</text>
<text x="34" y="1404">
OS API
</text>
<text x="122" y="1468">
Filesystem
</text>
<text x="258" y="1468">
Scheduler
</text>
<text x="394" y="1468">
MMU
</text>
<text x="154" y="1548">
IO
</text>
<text x="338" y="1548">
Network
</text>
<text x="258" y="1628">
HAL
</text>
<text x="58" y="1676">
[]
</text>
<text x="90" y="1708">
device
</text>
<text x="90" y="1724">
loads
</text>
<text x="34" y="1740">
ooo
</text>
<text x="34" y="1756">
ooo
</text>
<text x="34" y="1772">
ooo
</text>
<text x="42" y="1852">
Loadable module C
</text>
<text x="258" y="1852">
Loadable module A
</text>
<text x="474" y="1852">
Loadable module B
</text>
<text x="490" y="1868">
(instrumented)
</text>
<text x="306" y="1900">
A.o
</text>
<text x="138" y="1916">
calls
</text>
<text x="258" y="1948">
A.instrumented.o
</text>
<text x="474" y="1964">
calls
</text>
<text x="362" y="2044">
Base::Class::Derived_A
</text>
<text x="362" y="2076">
Base::Class::Derived_B
</text>
<text x="50" y="2092">
Something
</text>
<text x="434" y="2108">
Base::Class::Derived
</text>
<text x="50" y="2124">
Something::else
</text>
<text x="442" y="2140">
Base::Class::Derived
</text>
<text x="370" y="2172">
Base::Class::Derived_C
</text>
<text x="194" y="2204">
Base::Class
</text>
<text x="306" y="2268">
The::Latest
</text>
<text x="10" y="2300">
With::Some::fantasy
</text>
<text x="370" y="2300">
The::Latest::Greatest
</text>
<text x="74" y="2332">
More::Stuff
</text>
<text x="306" y="2332">
I::Am::Running::Out::Of::Ideas
</text>
<text x="74" y="2364">
More::Stuff
</text>
<text x="330" y="2380">
Last::One
</text>
<text x="58" y="2396">
More::Stuff
</text>
</svg>