<svg font-family="Electrolize,Titillium Web, Trebuchet MS, Arial" font-size="14" height="1776" width="624" xmlns="http://www.w3.org/2000/svg" xmlns:xlink="http://www.w3.org/1999/xlink"><marker id="a" markerHeight="10" markerUnits="strokeWidth" markerWidth="10" orient="auto" refX="0" refY="5" viewBox="0 0 40 40"><path d="m0 0 10 5-10 5z" stroke="#000" stroke-linecap="round" stroke-width="2"/></marker><g stroke="#000" stroke-linecap="round" stroke-width="2"><path d="m4 56v56m0-56h52m-48 0h48m4 0v24m0-24h-4m36 0v56m0-56h44m-40 0h40m4 0v24m0-24h-4m36 0v24m0-24h44m-40 0h40m4 0v56m0-56h-4m36 0v24m0-24h44m-40 0h40m4 0v56m0-56h-4m-292 8v48m56-48v16m32-16v48m48-48v16m32-16v16m48-16v48m32-48v16m48-16v48m-240-32v32m80-32v32m0-24h28m-24 0h24m4-8v32m0-24h-4m64 0h16m4-8v32m0-24h-4m-188 8v16m80-16v16m32-16v16m80-16v16m-248 8v-8m0 8h52m-48 0h48m4 0v-8m0 8h-4m36 0v-8m0 8h44m-40 0h40m4 0v-8m0 8h-4m36 0v-8m0 8h20m-16 0h16 24m-16 0h16m4 0v-8m0 8h-4m36 0v-8m0 8h44m-40 0h40m4 0v-8m0 8h-4m-180 24v16m-112 12v20m4-24a4 4 0 0 0 -4 4m4-4h104m4 0v-8m-4 8h192m-184 0h184m4 4v20m0-20a4 4 0 0 0 -4-4m-300 8v16m304-16v16m-304 0v4a4 4 0 0 0 4 4h296m4-8v4m-4 4a4 4 0 0 0 4-4m-116 60h96m-264 16 2-4m6-4a8 8 0 0 0 -6 4m6-4h112m8 8-2-4a8 8 0 0 0 -6-4m48-8 16 32m80-32 16 32m-288 0 8-16m128 0 8 16m184 0h80m-408 0-2 4m2 12-2-4m0-8a8 8 0 0 0 0 8m146-12 2 4m-2 12 2-4a8 8 0 0 0 0-8m46-4 2 4m-2 12 2-4a8 8 0 0 0 0-8m94-4 2 4m-2 12 2-4a8 8 0 0 0 0-8m38-4 8 16m72-16 8 16m-416 0 8 16m128 0 8-16m-136 16 2 4a8 8 0 0 0 6 4h112m6-4 10-20m-16 24a8 8 0 0 0 6-4m42 12 16-32m0 32h-16m16 0h80l16-32m32 32 16-32m0 32h-16m16 0h64l16-32m-400 80h144m-144 0 16 32m-8-16h144m-8-16 16 32m-144 0 2 4m-2 12 2-4a8 8 0 0 0 0-8m142-4 2 4m-2 12 2-4a8 8 0 0 0 0-8m-138 28h-16m16 0h128m-152 16 16-32m0 32h-16m16 0h128l16-32m-80 64 24 48m56-16 2-4m6-4a8 8 0 0 0 -6 4m6-4h16a8 8 0 0 0 6-4m-38 28 8-16m-80 24h24m-8 24 8-16m48 0 16 32m-104 0 2-4m6-4a8 8 0 0 0 -6 4m6-4h16m6-4 10-20m-16 24a8 8 0 0 0 6-4m74 12h24m-136 16 8-16m16 72a4 4 0 0 0 -4 4v4m4-8h24m4 4a4 4 0 0 0 -4-4m4 4v4m28-8a4 4 0 0 0 -4 4v4m4-8h24m4 4a4 4 0 0 0 -4-4m4 4v4m20-8a4 4 0 0 0 -4 4v4m4-8h24m4 4a4 4 0 0 0 -4-4m4 4v4m28-8a4 4 0 0 0 -4 4v4m4-8h24m4 4a4 4 0 0 0 -4-4m4 4v4m44-8a4 4 0 0 0 -4 4v4m4-8h24m4 4a4 4 0 0 0 -4-4m4 4v4m28-8a4 4 0 0 0 -4 4v4m4-8h24m4 4a4 4 0 0 0 -4-4m4 4v4m-320 4a4 4 0 0 0 4 4m-4-8v4m4 4h24a4 4 0 0 0 4-4m0-4v4m24 0a4 4 0 0 0 4 4m-4-8v4m4 4h24a4 4 0 0 0 4-4m0-4v4m16 0a4 4 0 0 0 4 4m-4-8v4m4 4h24a4 4 0 0 0 4-4m0-4v4m24 0a4 4 0 0 0 4 4m-4-8v4m4 4h24a4 4 0 0 0 4-4m0-4v4m40 0a4 4 0 0 0 4 4m-4-8v4m4 4h24a4 4 0 0 0 4-4m0-4v4m24 0a4 4 0 0 0 4 4m-4-8v4m4 4h24a4 4 0 0 0 4-4m0-4v4m-200 12v128m-120-84v20m4-24a4 4 0 0 0 -4 4m4-4h96m4 4v20m0-20a4 4 0 0 0 -4-4m36 4v20m4-24a4 4 0 0 0 -4 4m4-4h88m4 4v20m0-20a4 4 0 0 0 -4-4m44 4v20m4-24a4 4 0 0 0 -4 4m4-4h40m4 4v20m0-20a4 4 0 0 0 -4-4m-316 8v16m104-16v16m32-16v16m96-16v16m40-16v16m48-16v16m-320 0v4a4 4 0 0 0 4 4h96m4-8v4m-4 4a4 4 0 0 0 4-4m32-4v4a4 4 0 0 0 4 4h88m4-8v4m-4 4a4 4 0 0 0 4-4m40-4v4a4 4 0 0 0 4 4h40m4-8v4m-4 4a4 4 0 0 0 4-4m-288 56v20m4-24a4 4 0 0 0 -4 4m4-4h32m4 4v20m0-20a4 4 0 0 0 -4-4m148 4v20m4-24a4 4 0 0 0 -4 4m4-4h72m4 4v20m0-20a4 4 0 0 0 -4-4m-260 8v16m40-16v16m12-8h32m4-8v4m-4 4a4 4 0 0 0 4-4m96-4v16m80-16v16m-264 0v4a4 4 0 0 0 4 4h32m4-8v4m-4 4a4 4 0 0 0 4-4m144-4v4a4 4 0 0 0 4 4h72m4-8v4m-4 4a4 4 0 0 0 4-4m-296 56v20m4-24a4 4 0 0 0 -4 4m4-4h312m4 4v20m0-20a4 4 0 0 0 -4-4m-316 8v16m320-16v16m-320 0v4a4 4 0 0 0 4 4h312m4-8v4m-4 4a4 4 0 0 0 4-4m-396 60h-12m12 0h24m-36 0v96m20-80h-12m12 0h20m8-16v96m-40-80v32m32-32v32m-20 0h-12m12 0h20m12 8h464m4 4a4 4 0 0 0 -4-4m-516 40v4a4 4 0 0 0 4 4h40m4-8v4m-4 4a4 4 0 0 0 4-4m-40 56v20m4-24a4 4 0 0 0 -4 4m4-4h152m4 4v20m0-20a4 4 0 0 0 -4-4m28 4v52m4-56a4 4 0 0 0 -4 4m4-4h216m4 4v100m0-100a4 4 0 0 0 -4-4m28 4v36m4-40a4 4 0 0 0 -4 4m4-4h152m4 4v36m0-36a4 4 0 0 0 -4-4m-588 8v16m160-16v16m24-16v48m224-48v96m24-96v32m160-32v32m-592-16v4a4 4 0 0 0 4 4h152m4-8v4m-4 4a4 4 0 0 0 4-4m28 4h216m-324 8v16m184-4v20m4-24a4 4 0 0 0 -4 4m4-4h40m4 4v20m0-20a4 4 0 0 0 -4-4m124-8v4a4 4 0 0 0 4 4h152m4-8v4m-4 4a4 4 0 0 0 4-4m-512 12v4a4 4 0 0 0 4 4h96m4-8v80m80-80v16m48-16v16m208-16v48m-336-32v64m80-64v4a4 4 0 0 0 4 4h40m4-8v4m-4 4a4 4 0 0 0 4-4m-92 28 2-4m6-4a8 8 0 0 0 -6 4m6-4h144m0 8 2-4a4 4 0 0 0 -2-4m-160 24 8-16m144 16 8-16m8 8h24m4-8v32m-4-24h112m-104 0h104m4-8v4m-4 4a4 4 0 0 0 4-4m-310 16 10-20m-10 20a4 4 0 0 0 2 4h144m6-4 10-20m-16 24a8 8 0 0 0 6-4m46-4v16m-224 0v4a4 4 0 0 0 4 4h216m4-8v4m-4 4a4 4 0 0 0 4-4m-364 44-2-4m2-4a4 4 0 0 0 -2 4m2-4h112m8 8-2-4a8 8 0 0 0 -6-4m-112 8 8 16m112-16 8 16m-120 0 2 4a8 8 0 0 0 6 4h112m0-8 2 4m-2 4a4 4 0 0 0 2-4m118 44 2-4m6-4a8 8 0 0 0 -6 4m-10 20 8-16m-16 32 16-32m-10 24a8 8 0 0 0 -4 4m-178 12h56m8 8-2-4a8 8 0 0 0 -6-4m192-8 8 16m-192 0 48 96m144-96 16 32m-14-28a8 8 0 0 0 4 4m2 8 8 16m-304 0 32 64m272-64 2 4a8 8 0 0 0 6 4m-144 24 40-80m-48 96 48-96m-42 88a8 8 0 0 0 -4 4m-10 20 8-16m-128 16 2 4a8 8 0 0 0 6 4h48m0 24 8-16m16 0 80 160m-64-160 56 112m-40-112 24 48m-80-32-2 4m-2 12v-4m2-8a16 16 0 0 0 -2 8m0 4v16 32m-4-16 2-4a16 16 0 0 0 2-8m84-4 2 4a8 8 0 0 0 6 4h24m-128 24 8-16m4 0v16m132-16 8 16m-140 0v32m-4-16 2-4a16 16 0 0 0 2-8m140-4 2 4a8 8 0 0 0 6 4h32m-192 24 8-16m4 0v16 32m-4-16 2-4a16 16 0 0 0 2-8m100-4 2 4a8 8 0 0 0 6 4h8m-128 24 8-16m4 0v16 4m-4 12 2-4a16 16 0 0 0 2-8m-12 28 8-16m112 0 2 4a8 8 0 0 0 6 4h24" fill="none"/><path d="m60 88h24" marker-end="url(#a)"/><path d="m64 88h20" marker-end="url(#a)"/><path d="m232 88h-4" marker-end="url(#a)"/><path d="m196 120v40" marker-end="url(#a)"/><path d="m116 144v-16" marker-end="url(#a)"/><path d="m196 128v32" marker-end="url(#a)"/><path d="m112 496-4-8" marker-end="url(#a)"/><path d="m224 512 12-24" marker-end="url(#a)"/><path d="m222 516 14-28" marker-end="url(#a)"/><path d="m112 552h-4" marker-end="url(#a)"/><path d="m184 552h36" marker-end="url(#a)"/><path d="m224 592 12 24" marker-end="url(#a)"/><path d="m88 608-4 8" marker-end="url(#a)"/><path d="m124 688v32" marker-end="url(#a)"/><path d="m180 688v32" marker-end="url(#a)"/><path d="m284 688v32" marker-end="url(#a)"/><path d="m356 688v112" marker-end="url(#a)"/><path d="m412 688v32" marker-end="url(#a)"/><path d="m164 768v32" marker-end="url(#a)"/><path d="m284 768v112" marker-end="url(#a)"/><path d="m192 824h-4" marker-end="url(#a)"/><path d="m164 848v32" marker-end="url(#a)"/><path d="m364 848v32" marker-end="url(#a)"/><path d="m540 1036v84" marker-end="url(#a)"/><path d="m108 1040v80" marker-end="url(#a)"/><path d="m324 1040v80" marker-end="url(#a)"/><path d="m540 1040v80" marker-end="url(#a)"/><path d="m208 1192h76" marker-end="url(#a)"/><path d="m216 1192h68" marker-end="url(#a)"/><path d="m408 1240h-4" marker-end="url(#a)"/><path d="m328 1368h20" marker-end="url(#a)"/><path d="m310 1400h38" marker-end="url(#a)"/><path d="m312 1400h36" marker-end="url(#a)"/><path d="m390 1432h30" marker-end="url(#a)"/><path d="m392 1432h28" marker-end="url(#a)"/><path d="m408 1464h20" marker-end="url(#a)"/><path d="m262 1496h94" marker-end="url(#a)"/><path d="m264 1496h92" marker-end="url(#a)"/><path d="m168 1712-4 8" marker-end="url(#a)"/></g><text x="18" y="92">Foo</text><text x="106" y="92">Bar</text><text x="186" y="92">Baz</text><text x="266" y="92">Moo</text><text x="18" y="188">Hello here and there and everywhere</text><text x="34" y="284">a</text><text x="50" y="284">==</text><text x="74" y="284">b</text><text x="50" y="300">&amp;</text><text x="58" y="300">&amp;</text><text x="226" y="300">process</text><text x="34" y="316">&apos;</text><text x="42" y="316">string&apos;</text><text x="106" y="316">ne</text><text x="130" y="316">&apos;</text><text x="138" y="316">&apos;</text><text x="362" y="316">process</text><text x="66" y="428">another process</text><text x="18" y="492">User code</text><text x="250" y="492">OS code</text><text x="18" y="556">User code</text><text x="146" y="556">Mode</text><text x="234" y="556">OS code</text><text x="58" y="636">User code</text><text x="226" y="636">OS code</text><text x="34" y="684">OS API</text><text x="122" y="748">Filesystem</text><text x="258" y="748">Scheduler</text><text x="394" y="748">MMU</text><text x="154" y="828">IO</text><text x="338" y="828">Network</text><text x="258" y="908">HAL</text><text x="58" y="972">[]</text><text x="90" y="1004">device</text><text x="90" y="1020">loads</text><text x="34" y="1036">ooo</text><text x="34" y="1052">ooo</text><text x="34" y="1068">ooo</text><text x="42" y="1148">Loadable module C</text><text x="258" y="1148">Loadable module A</text><text x="474" y="1148">Loadable module B</text><text x="490" y="1164">(instrumented)</text><text x="306" y="1196">A.o</text><text x="138" y="1212">calls</text><text x="258" y="1244">A.instrumented.o</text><text x="474" y="1260">calls</text><text x="362" y="1372">Base::Class::Derived_A</text><text x="362" y="1404">Base::Class::Derived_B</text><text x="50" y="1420">Something</text><text x="434" y="1436">Base::Class::Derived</text><text x="50" y="1452">Something::else</text><text x="442" y="1468">Base::Class::Derived</text><text x="370" y="1500">Base::Class::Derived_C</text><text x="194" y="1532">Base::Class</text><text x="306" y="1596">The::Latest</text><text x="10" y="1628">With::Some::fantasy</text><text x="370" y="1628">The::Latest::Greatest</text><text x="74" y="1660">More::Stuff</text><text x="306" y="1660">I::Am::Running::Out::Of::Ideas</text><text x="74" y="1692">More::Stuff</text><text x="330" y="1708">Last::One</text><text x="58" y="1724">More::Stuff</text></svg>