<svg font-family="Electrolize,Titillium Web, Trebuchet MS, Arial" font-size="14" height="1776" width="624" xmlns="http://www.w3.org/2000/svg">
<defs>
<marker id="triangle" markerHeight="10" markerUnits="strokeWidth" markerWidth="10" orient="auto" refX="0" refY="5" viewBox="0 0 40 40">
<path d="M 0 0 L 10 5 L 0 10 z"/>
</marker>
</defs>
<style>

     <![CDATA[ 
    line, path {
      stroke: black;
      stroke-width: 2;
      stroke-opacity: 1;
      fill-opacity: 1;
      stroke-linecap: round;
      stroke-linejoin: miter;
    }
     ]]> 
    
</style>
<path d=" M 4 56 L 4 112 M 4 56 L 56 56 M 8 56 L 56 56 M 60 56 L 60 80 M 60 56 L 56 56 M 92 56 L 92 112 M 92 56 L 136 56 M 96 56 L 136 56 M 140 56 L 140 80 M 140 56 L 136 56 M 172 56 L 172 80 M 172 56 L 216 56 M 176 56 L 216 56 M 220 56 L 220 112 M 220 56 L 216 56 M 252 56 L 252 80 M 252 56 L 296 56 M 256 56 L 296 56 M 300 56 L 300 112 M 300 56 L 296 56 M 4 64 L 4 112 M 60 64 L 60 80 M 92 64 L 92 112 M 140 64 L 140 80 M 172 64 L 172 80 M 220 64 L 220 112 M 252 64 L 252 80 M 300 64 L 300 112 M 60 80 L 60 112 M 140 80 L 140 112 M 140 88 L 168 88 M 144 88 L 168 88 M 172 80 L 172 112 M 172 88 L 168 88 M 232 88 L 248 88 M 252 80 L 252 112 M 252 88 L 248 88 M 60 96 L 60 112 M 140 96 L 140 112 M 172 96 L 172 112 M 252 96 L 252 112 M 4 120 L 4 112 M 4 120 L 56 120 M 8 120 L 56 120 M 60 120 L 60 112 M 60 120 L 56 120 M 92 120 L 92 112 M 92 120 L 136 120 M 96 120 L 136 120 M 140 120 L 140 112 M 140 120 L 136 120 M 172 120 L 172 112 M 172 120 L 192 120 M 176 120 L 192 120 L 216 120 M 200 120 L 216 120 M 220 120 L 220 112 M 220 120 L 216 120 M 252 120 L 252 112 M 252 120 L 296 120 M 256 120 L 296 120 M 300 120 L 300 112 M 300 120 L 296 120 M 116 144 L 116 160 M 4 172 L 4 192 M 8 168 A 4 4 0 0 0 4 172 M 8 168 L 112 168 M 116 168 L 116 160 M 112 168 L 304 168 M 120 168 L 304 168 M 308 172 L 308 192 M 308 172 A 4 4 0 0 0 304 168 M 4 176 L 4 192 M 308 176 L 308 192 M 4 192 L 4 196 A 4 4 0 0 0 8 200 L 304 200 M 308 192 L 308 196 M 304 200 A 4 4 0 0 0 308 196 M 192 256 L 288 256 M 24 272 L 26 268 M 32 264 A 8 8 0 0 0 26 268 M 32 264 L 144 264 M 152 272 L 150 268 A 8 8 0 0 0 144 264 M 192 256 L 208 288 M 288 256 L 304 288 M 16 288 L 24 272 M 152 272 L 160 288 M 344 288 L 424 288 M 16 288 L 14 292 M 16 304 L 14 300 M 14 292 A 8 8 0 0 0 14 300 M 160 288 L 162 292 M 160 304 L 162 300 A 8 8 0 0 0 162 292 M 208 288 L 210 292 M 208 304 L 210 300 A 8 8 0 0 0 210 292 M 304 288 L 306 292 M 304 304 L 306 300 A 8 8 0 0 0 306 292 M 344 288 L 352 304 M 424 288 L 432 304 M 16 304 L 24 320 M 152 320 L 160 304 M 24 320 L 26 324 A 8 8 0 0 0 32 328 L 144 328 M 150 324 L 160 304 M 144 328 A 8 8 0 0 0 150 324 M 192 336 L 208 304 M 208 336 L 192 336 M 208 336 L 288 336 L 304 304 M 336 336 L 352 304 M 352 336 L 336 336 M 352 336 L 416 336 L 432 304 M 32 384 L 176 384 M 32 384 L 48 416 M 40 400 L 184 400 M 176 384 L 192 416 M 48 416 L 50 420 M 48 432 L 50 428 A 8 8 0 0 0 50 420 M 192 416 L 194 420 M 192 432 L 194 428 A 8 8 0 0 0 194 420 M 56 448 L 40 448 M 56 448 L 184 448 M 32 464 L 48 432 M 48 464 L 32 464 M 48 464 L 176 464 L 192 432 M 112 496 L 136 544 M 192 528 L 194 524 M 200 520 A 8 8 0 0 0 194 524 M 200 520 L 216 520 A 8 8 0 0 0 222 516 M 184 544 L 192 528 M 112 552 L 136 552 M 128 576 L 136 560 M 184 560 L 200 592 M 96 592 L 98 588 M 104 584 A 8 8 0 0 0 98 588 M 104 584 L 120 584 M 126 580 L 136 560 M 120 584 A 8 8 0 0 0 126 580 M 200 592 L 224 592 M 88 608 L 96 592 M 112 664 A 4 4 0 0 0 108 668 L 108 672 M 112 664 L 136 664 M 140 668 A 4 4 0 0 0 136 664 M 140 668 L 140 672 M 168 664 A 4 4 0 0 0 164 668 L 164 672 M 168 664 L 192 664 M 196 668 A 4 4 0 0 0 192 664 M 196 668 L 196 672 M 216 664 A 4 4 0 0 0 212 668 L 212 672 M 216 664 L 240 664 M 244 668 A 4 4 0 0 0 240 664 M 244 668 L 244 672 M 272 664 A 4 4 0 0 0 268 668 L 268 672 M 272 664 L 296 664 M 300 668 A 4 4 0 0 0 296 664 M 300 668 L 300 672 M 344 664 A 4 4 0 0 0 340 668 L 340 672 M 344 664 L 368 664 M 372 668 A 4 4 0 0 0 368 664 M 372 668 L 372 672 M 400 664 A 4 4 0 0 0 396 668 L 396 672 M 400 664 L 424 664 M 428 668 A 4 4 0 0 0 424 664 M 428 668 L 428 672 M 108 676 A 4 4 0 0 0 112 680 M 108 672 L 108 676 M 112 680 L 136 680 A 4 4 0 0 0 140 676 M 140 672 L 140 676 M 164 676 A 4 4 0 0 0 168 680 M 164 672 L 164 676 M 168 680 L 192 680 A 4 4 0 0 0 196 676 M 196 672 L 196 676 M 212 676 A 4 4 0 0 0 216 680 M 212 672 L 212 676 M 216 680 L 240 680 A 4 4 0 0 0 244 676 M 244 672 L 244 676 M 268 676 A 4 4 0 0 0 272 680 M 268 672 L 268 676 M 272 680 L 296 680 A 4 4 0 0 0 300 676 M 300 672 L 300 676 M 340 676 A 4 4 0 0 0 344 680 M 340 672 L 340 676 M 344 680 L 368 680 A 4 4 0 0 0 372 676 M 372 672 L 372 676 M 396 676 A 4 4 0 0 0 400 680 M 396 672 L 396 676 M 400 680 L 424 680 A 4 4 0 0 0 428 676 M 428 672 L 428 676 M 228 688 L 228 816 M 108 732 L 108 752 M 112 728 A 4 4 0 0 0 108 732 M 112 728 L 208 728 M 212 732 L 212 752 M 212 732 A 4 4 0 0 0 208 728 M 244 732 L 244 752 M 248 728 A 4 4 0 0 0 244 732 M 248 728 L 336 728 M 340 732 L 340 752 M 340 732 A 4 4 0 0 0 336 728 M 380 732 L 380 752 M 384 728 A 4 4 0 0 0 380 732 M 384 728 L 424 728 M 428 732 L 428 752 M 428 732 A 4 4 0 0 0 424 728 M 108 736 L 108 752 M 212 736 L 212 752 M 244 736 L 244 752 M 340 736 L 340 752 M 380 736 L 380 752 M 428 736 L 428 752 M 108 752 L 108 756 A 4 4 0 0 0 112 760 L 208 760 M 212 752 L 212 756 M 208 760 A 4 4 0 0 0 212 756 M 244 752 L 244 756 A 4 4 0 0 0 248 760 L 336 760 M 340 752 L 340 756 M 336 760 A 4 4 0 0 0 340 756 M 380 752 L 380 756 A 4 4 0 0 0 384 760 L 424 760 M 428 752 L 428 756 M 424 760 A 4 4 0 0 0 428 756 M 140 812 L 140 832 M 144 808 A 4 4 0 0 0 140 812 M 144 808 L 176 808 M 180 812 L 180 832 M 180 812 A 4 4 0 0 0 176 808 M 324 812 L 324 832 M 328 808 A 4 4 0 0 0 324 812 M 328 808 L 400 808 M 404 812 L 404 832 M 404 812 A 4 4 0 0 0 400 808 M 140 816 L 140 832 M 180 816 L 180 832 M 192 824 L 224 824 M 228 816 L 228 820 M 224 824 A 4 4 0 0 0 228 820 M 324 816 L 324 832 M 404 816 L 404 832 M 140 832 L 140 836 A 4 4 0 0 0 144 840 L 176 840 M 180 832 L 180 836 M 176 840 A 4 4 0 0 0 180 836 M 324 832 L 324 836 A 4 4 0 0 0 328 840 L 400 840 M 404 832 L 404 836 M 400 840 A 4 4 0 0 0 404 836 M 108 892 L 108 912 M 112 888 A 4 4 0 0 0 108 892 M 112 888 L 424 888 M 428 892 L 428 912 M 428 892 A 4 4 0 0 0 424 888 M 108 896 L 108 912 M 428 896 L 428 912 M 108 912 L 108 916 A 4 4 0 0 0 112 920 L 424 920 M 428 912 L 428 916 M 424 920 A 4 4 0 0 0 428 916 M 32 976 L 20 976 M 32 976 L 56 976 M 20 976 L 20 1072 M 40 992 L 28 992 M 40 992 L 60 992 M 68 976 L 68 1072 M 28 992 L 28 1024 M 60 992 L 60 1024 M 40 1024 L 28 1024 M 40 1024 L 60 1024 M 72 1032 L 536 1032 M 540 1036 A 4 4 0 0 0 536 1032 M 20 1072 L 20 1076 A 4 4 0 0 0 24 1080 L 64 1080 M 68 1072 L 68 1076 M 64 1080 A 4 4 0 0 0 68 1076 M 28 1132 L 28 1152 M 32 1128 A 4 4 0 0 0 28 1132 M 32 1128 L 184 1128 M 188 1132 L 188 1152 M 188 1132 A 4 4 0 0 0 184 1128 M 212 1132 L 212 1184 M 216 1128 A 4 4 0 0 0 212 1132 M 216 1128 L 432 1128 M 436 1132 L 436 1232 M 436 1132 A 4 4 0 0 0 432 1128 M 460 1132 L 460 1168 M 464 1128 A 4 4 0 0 0 460 1132 M 464 1128 L 616 1128 M 620 1132 L 620 1168 M 620 1132 A 4 4 0 0 0 616 1128 M 28 1136 L 28 1152 M 188 1136 L 188 1152 M 212 1136 L 212 1184 M 436 1136 L 436 1232 M 460 1136 L 460 1168 M 620 1136 L 620 1168 M 28 1152 L 28 1156 A 4 4 0 0 0 32 1160 L 184 1160 M 188 1152 L 188 1156 M 184 1160 A 4 4 0 0 0 188 1156 M 216 1160 L 432 1160 M 108 1168 L 108 1184 M 292 1180 L 292 1200 M 296 1176 A 4 4 0 0 0 292 1180 M 296 1176 L 336 1176 M 340 1180 L 340 1200 M 340 1180 A 4 4 0 0 0 336 1176 M 460 1168 L 460 1172 A 4 4 0 0 0 464 1176 L 616 1176 M 620 1168 L 620 1172 M 616 1176 A 4 4 0 0 0 620 1172 M 108 1184 L 108 1188 A 4 4 0 0 0 112 1192 L 208 1192 M 212 1184 L 212 1264 M 292 1184 L 292 1200 M 340 1184 L 340 1200 M 548 1184 L 548 1232 M 212 1200 L 212 1264 M 292 1200 L 292 1204 A 4 4 0 0 0 296 1208 L 336 1208 M 340 1200 L 340 1204 M 336 1208 A 4 4 0 0 0 340 1204 M 248 1232 L 250 1228 M 256 1224 A 8 8 0 0 0 250 1228 M 256 1224 L 400 1224 M 400 1232 L 402 1228 A 4 4 0 0 0 400 1224 M 240 1248 L 248 1232 M 392 1248 L 400 1232 M 408 1240 L 432 1240 M 436 1232 L 436 1264 M 432 1240 L 544 1240 M 440 1240 L 544 1240 M 548 1232 L 548 1236 M 544 1240 A 4 4 0 0 0 548 1236 M 238 1252 L 248 1232 M 238 1252 A 4 4 0 0 0 240 1256 L 384 1256 M 390 1252 L 400 1232 M 384 1256 A 8 8 0 0 0 390 1252 M 436 1248 L 436 1264 M 212 1264 L 212 1268 A 4 4 0 0 0 216 1272 L 432 1272 M 436 1264 L 436 1268 M 432 1272 A 4 4 0 0 0 436 1268 M 72 1312 L 70 1308 M 72 1304 A 4 4 0 0 0 70 1308 M 72 1304 L 184 1304 M 192 1312 L 190 1308 A 8 8 0 0 0 184 1304 M 72 1312 L 80 1328 M 192 1312 L 200 1328 M 80 1328 L 82 1332 A 8 8 0 0 0 88 1336 L 200 1336 M 200 1328 L 202 1332 M 200 1336 A 4 4 0 0 0 202 1332 M 320 1376 L 322 1372 M 328 1368 A 8 8 0 0 0 322 1372 M 312 1392 L 320 1376 M 304 1408 L 320 1376 M 310 1400 A 8 8 0 0 0 306 1404 M 128 1416 L 184 1416 M 192 1424 L 190 1420 A 8 8 0 0 0 184 1416 M 376 1408 L 384 1424 M 192 1424 L 240 1520 M 384 1424 L 400 1456 M 386 1428 A 8 8 0 0 0 390 1432 M 392 1440 L 400 1456 M 96 1456 L 128 1520 M 400 1456 L 402 1460 A 8 8 0 0 0 408 1464 M 264 1488 L 304 1408 M 256 1504 L 304 1408 M 262 1496 A 8 8 0 0 0 258 1500 M 248 1520 L 256 1504 M 128 1520 L 130 1524 A 8 8 0 0 0 136 1528 L 184 1528 M 184 1552 L 192 1536 M 208 1536 L 288 1696 M 224 1536 L 280 1648 M 240 1536 L 264 1584 M 184 1552 L 182 1556 M 180 1568 L 180 1564 M 182 1556 A 16 16 0 0 0 180 1564 M 180 1568 L 180 1584 L 180 1616 M 176 1600 L 178 1596 A 16 16 0 0 0 180 1588 M 264 1584 L 266 1588 A 8 8 0 0 0 272 1592 L 296 1592 M 168 1616 L 176 1600 M 180 1600 L 180 1616 M 312 1600 L 320 1616 M 180 1616 L 180 1648 M 176 1632 L 178 1628 A 16 16 0 0 0 180 1620 M 320 1616 L 322 1620 A 8 8 0 0 0 328 1624 L 360 1624 M 168 1648 L 176 1632 M 180 1632 L 180 1648 L 180 1680 M 176 1664 L 178 1660 A 16 16 0 0 0 180 1652 M 280 1648 L 282 1652 A 8 8 0 0 0 288 1656 L 296 1656 M 168 1680 L 176 1664 M 180 1664 L 180 1680 L 180 1684 M 176 1696 L 178 1692 A 16 16 0 0 0 180 1684 M 168 1712 L 176 1696 M 288 1696 L 290 1700 A 8 8 0 0 0 296 1704 L 320 1704" fill="none"/>
<path d="" fill="none" stroke-dasharray="3 3"/>
<line marker-end="url(#triangle)" x1="60" x2="84" y1="88" y2="88"/>
<line marker-end="url(#triangle)" x1="64" x2="84" y1="88" y2="88"/>
<line marker-end="url(#triangle)" x1="232" x2="228" y1="88" y2="88"/>
<line marker-end="url(#triangle)" x1="196" x2="196" y1="120" y2="160"/>
<line marker-end="url(#triangle)" x1="116" x2="116" y1="144" y2="128"/>
<line marker-end="url(#triangle)" x1="196" x2="196" y1="128" y2="160"/>
<line marker-end="url(#triangle)" x1="112" x2="108" y1="496" y2="488"/>
<line marker-end="url(#triangle)" x1="224" x2="236" y1="512" y2="488"/>
<line marker-end="url(#triangle)" x1="222" x2="236" y1="516" y2="488"/>
<line marker-end="url(#triangle)" x1="112" x2="108" y1="552" y2="552"/>
<line marker-end="url(#triangle)" x1="184" x2="220" y1="552" y2="552"/>
<line marker-end="url(#triangle)" x1="224" x2="236" y1="592" y2="616"/>
<line marker-end="url(#triangle)" x1="88" x2="84" y1="608" y2="616"/>
<line marker-end="url(#triangle)" x1="124" x2="124" y1="688" y2="720"/>
<line marker-end="url(#triangle)" x1="180" x2="180" y1="688" y2="720"/>
<line marker-end="url(#triangle)" x1="284" x2="284" y1="688" y2="720"/>
<line marker-end="url(#triangle)" x1="356" x2="356" y1="688" y2="800"/>
<line marker-end="url(#triangle)" x1="412" x2="412" y1="688" y2="720"/>
<line marker-end="url(#triangle)" x1="164" x2="164" y1="768" y2="800"/>
<line marker-end="url(#triangle)" x1="284" x2="284" y1="768" y2="880"/>
<line marker-end="url(#triangle)" x1="192" x2="188" y1="824" y2="824"/>
<line marker-end="url(#triangle)" x1="164" x2="164" y1="848" y2="880"/>
<line marker-end="url(#triangle)" x1="364" x2="364" y1="848" y2="880"/>
<line marker-end="url(#triangle)" x1="540" x2="540" y1="1036" y2="1120"/>
<line marker-end="url(#triangle)" x1="108" x2="108" y1="1040" y2="1120"/>
<line marker-end="url(#triangle)" x1="324" x2="324" y1="1040" y2="1120"/>
<line marker-end="url(#triangle)" x1="540" x2="540" y1="1040" y2="1120"/>
<line marker-end="url(#triangle)" x1="208" x2="284" y1="1192" y2="1192"/>
<line marker-end="url(#triangle)" x1="216" x2="284" y1="1192" y2="1192"/>
<line marker-end="url(#triangle)" x1="408" x2="404" y1="1240" y2="1240"/>
<line marker-end="url(#triangle)" x1="328" x2="348" y1="1368" y2="1368"/>
<line marker-end="url(#triangle)" x1="310" x2="348" y1="1400" y2="1400"/>
<line marker-end="url(#triangle)" x1="312" x2="348" y1="1400" y2="1400"/>
<line marker-end="url(#triangle)" x1="390" x2="420" y1="1432" y2="1432"/>
<line marker-end="url(#triangle)" x1="392" x2="420" y1="1432" y2="1432"/>
<line marker-end="url(#triangle)" x1="408" x2="428" y1="1464" y2="1464"/>
<line marker-end="url(#triangle)" x1="262" x2="356" y1="1496" y2="1496"/>
<line marker-end="url(#triangle)" x1="264" x2="356" y1="1496" y2="1496"/>
<line marker-end="url(#triangle)" x1="168" x2="164" y1="1712" y2="1720"/>
<text x="18" y="92">
Foo
</text>
<text x="106" y="92">
Bar
</text>
<text x="186" y="92">
Baz
</text>
<text x="266" y="92">
Moo
</text>
<text x="18" y="188">
Hello here and there and everywhere
</text>
<text x="34" y="284">
a
</text>
<text x="50" y="284">
==
</text>
<text x="74" y="284">
b
</text>
<text x="50" y="300">
&amp;
</text>
<text x="58" y="300">
&amp;
</text>
<text x="226" y="300">
process
</text>
<text x="34" y="316">
&apos;
</text>
<text x="42" y="316">
string&apos;
</text>
<text x="106" y="316">
ne
</text>
<text x="130" y="316">
&apos;
</text>
<text x="138" y="316">
&apos;
</text>
<text x="362" y="316">
process
</text>
<text x="66" y="428">
another process
</text>
<text x="18" y="492">
User code
</text>
<text x="250" y="492">
OS code
</text>
<text x="18" y="556">
User code
</text>
<text x="146" y="556">
Mode
</text>
<text x="234" y="556">
OS code
</text>
<text x="58" y="636">
User code
</text>
<text x="226" y="636">
OS code
</text>
<text x="34" y="684">
OS API
</text>
<text x="122" y="748">
Filesystem
</text>
<text x="258" y="748">
Scheduler
</text>
<text x="394" y="748">
MMU
</text>
<text x="154" y="828">
IO
</text>
<text x="338" y="828">
Network
</text>
<text x="258" y="908">
HAL
</text>
<text x="58" y="972">
[]
</text>
<text x="90" y="1004">
device
</text>
<text x="90" y="1020">
loads
</text>
<text x="34" y="1036">
ooo
</text>
<text x="34" y="1052">
ooo
</text>
<text x="34" y="1068">
ooo
</text>
<text x="42" y="1148">
Loadable module C
</text>
<text x="258" y="1148">
Loadable module A
</text>
<text x="474" y="1148">
Loadable module B
</text>
<text x="490" y="1164">
(instrumented)
</text>
<text x="306" y="1196">
A.o
</text>
<text x="138" y="1212">
calls
</text>
<text x="258" y="1244">
A.instrumented.o
</text>
<text x="474" y="1260">
calls
</text>
<text x="362" y="1372">
Base::Class::Derived_A
</text>
<text x="362" y="1404">
Base::Class::Derived_B
</text>
<text x="50" y="1420">
Something
</text>
<text x="434" y="1436">
Base::Class::Derived
</text>
<text x="50" y="1452">
Something::else
</text>
<text x="442" y="1468">
Base::Class::Derived
</text>
<text x="370" y="1500">
Base::Class::Derived_C
</text>
<text x="194" y="1532">
Base::Class
</text>
<text x="306" y="1596">
The::Latest
</text>
<text x="10" y="1628">
With::Some::fantasy
</text>
<text x="370" y="1628">
The::Latest::Greatest
</text>
<text x="74" y="1660">
More::Stuff
</text>
<text x="306" y="1660">
I::Am::Running::Out::Of::Ideas
</text>
<text x="74" y="1692">
More::Stuff
</text>
<text x="330" y="1708">
Last::One
</text>
<text x="58" y="1724">
More::Stuff
</text>
</svg>