<svg font-family="arial" font-size="14" height="1760" width="624" xmlns="http://www.w3.org/2000/svg">
<defs>
<marker id="triangle" markerHeight="10" markerUnits="strokeWidth" markerWidth="10" orient="auto" refX="15" refY="10" viewBox="0 0 50 20">
<path d="M 0 0 L 30 10 L 0 20 z"/>
</marker>
</defs>
<style>

    line, path {
      stroke: black;
      stroke-width: 2;
      stroke-opacity: 1;
      fill-opacity: 1;
      stroke-linecap: round;
      stroke-linejoin: miter;
    }
    circle {
      stroke: black;
      stroke-width: 2;
      stroke-opacity: 1;
      fill-opacity: 1;
      stroke-linecap: round;
      stroke-linejoin: miter;
      fill:white;
    }
    circle.solid {
      fill:black;
    }
    circle.open {
      fill:white;
    }
    tspan.head{
        fill: none;
        stroke: none;
    }
    
</style>
<path d=" M 4 56 L 4 112 M 4 56 L 8 56 M 12 56 L 8 56 M 12 56 L 16 56 M 8 56 L 16 56 M 8 56 L 16 56 M 20 56 L 16 56 M 20 56 L 24 56 M 16 56 L 24 56 M 16 56 L 24 56 M 28 56 L 24 56 M 28 56 L 32 56 M 24 56 L 32 56 M 24 56 L 32 56 M 36 56 L 32 56 M 36 56 L 40 56 M 32 56 L 40 56 M 32 56 L 40 56 M 44 56 L 40 56 M 44 56 L 48 56 M 40 56 L 48 56 M 40 56 L 48 56 M 52 56 L 48 56 M 52 56 L 56 56 M 48 56 L 56 56 M 48 56 L 56 56 M 60 56 L 60 80 M 60 56 L 56 56 M 92 56 L 92 112 M 92 56 L 96 56 M 100 56 L 96 56 M 100 56 L 104 56 M 96 56 L 104 56 M 96 56 L 104 56 M 108 56 L 104 56 M 108 56 L 112 56 M 104 56 L 112 56 M 104 56 L 112 56 M 116 56 L 112 56 M 116 56 L 120 56 M 112 56 L 120 56 M 112 56 L 120 56 M 124 56 L 120 56 M 124 56 L 128 56 M 120 56 L 128 56 M 120 56 L 128 56 M 132 56 L 128 56 M 132 56 L 136 56 M 128 56 L 136 56 M 128 56 L 136 56 M 140 56 L 140 80 M 140 56 L 136 56 M 172 56 L 172 80 M 172 56 L 176 56 M 180 56 L 176 56 M 180 56 L 184 56 M 176 56 L 184 56 M 176 56 L 184 56 M 188 56 L 184 56 M 188 56 L 192 56 M 184 56 L 192 56 M 184 56 L 192 56 M 196 56 L 192 56 M 196 56 L 200 56 M 192 56 L 200 56 M 192 56 L 200 56 M 204 56 L 200 56 M 204 56 L 208 56 M 200 56 L 208 56 M 200 56 L 208 56 M 212 56 L 208 56 M 212 56 L 216 56 M 208 56 L 216 56 M 208 56 L 216 56 M 220 56 L 220 112 M 220 56 L 216 56 M 252 56 L 252 80 M 252 56 L 256 56 M 260 56 L 256 56 M 260 56 L 264 56 M 256 56 L 264 56 M 256 56 L 264 56 M 268 56 L 264 56 M 268 56 L 272 56 M 264 56 L 272 56 M 264 56 L 272 56 M 276 56 L 272 56 M 276 56 L 280 56 M 272 56 L 280 56 M 272 56 L 280 56 M 284 56 L 280 56 M 284 56 L 288 56 M 280 56 L 288 56 M 280 56 L 288 56 M 292 56 L 288 56 M 292 56 L 296 56 M 288 56 L 296 56 M 288 56 L 296 56 M 300 56 L 300 112 M 300 56 L 296 56 M 4 64 L 4 112 M 60 64 L 60 80 M 92 64 L 92 112 M 140 64 L 140 80 M 172 64 L 172 80 M 220 64 L 220 112 M 252 64 L 252 80 M 300 64 L 300 112 M 60 80 L 60 88 L 60 112 M 60 88 L 64 88 M 68 88 L 64 88 M 68 88 L 72 88 M 64 88 L 72 88 M 64 88 L 72 88 M 76 88 L 72 88 M 140 80 L 140 88 L 140 112 M 140 88 L 144 88 M 148 88 L 144 88 M 148 88 L 152 88 M 144 88 L 152 88 M 144 88 L 152 88 M 156 88 L 152 88 M 156 88 L 160 88 M 152 88 L 160 88 M 152 88 L 160 88 M 164 88 L 160 88 M 164 88 L 168 88 M 160 88 L 168 88 M 160 88 L 168 88 M 172 80 L 172 88 L 172 112 M 172 88 L 168 88 M 236 88 L 240 88 M 232 88 L 240 88 M 232 88 L 240 88 M 244 88 L 240 88 M 244 88 L 248 88 M 240 88 L 248 88 M 240 88 L 248 88 M 252 80 L 252 88 L 252 112 M 252 88 L 248 88 M 60 96 L 60 112 M 140 96 L 140 112 M 172 96 L 172 112 M 252 96 L 252 112 M 4 112 L 4 120 L 8 120 M 12 120 L 8 120 M 12 120 L 16 120 M 8 120 L 16 120 M 8 120 L 16 120 M 20 120 L 16 120 M 20 120 L 24 120 M 16 120 L 24 120 M 16 120 L 24 120 M 28 120 L 24 120 M 28 120 L 32 120 M 24 120 L 32 120 M 24 120 L 32 120 M 36 120 L 32 120 M 36 120 L 40 120 M 32 120 L 40 120 M 32 120 L 40 120 M 44 120 L 40 120 M 44 120 L 48 120 M 40 120 L 48 120 M 40 120 L 48 120 M 52 120 L 48 120 M 52 120 L 56 120 M 48 120 L 56 120 M 48 120 L 56 120 M 60 112 L 60 120 L 56 120 M 92 112 L 92 120 L 96 120 M 100 120 L 96 120 M 100 120 L 104 120 M 96 120 L 104 120 M 96 120 L 104 120 M 108 120 L 104 120 M 108 120 L 112 120 M 104 120 L 112 120 M 104 120 L 112 120 M 116 120 L 112 120 M 116 120 L 120 120 M 112 120 L 120 120 M 112 120 L 120 120 M 124 120 L 120 120 M 124 120 L 128 120 M 120 120 L 128 120 M 120 120 L 128 120 M 132 120 L 128 120 M 132 120 L 136 120 M 128 120 L 136 120 M 128 120 L 136 120 M 140 112 L 140 120 L 136 120 M 172 112 L 172 120 L 176 120 M 180 120 L 176 120 M 180 120 L 184 120 M 176 120 L 184 120 M 176 120 L 184 120 M 188 120 L 184 120 M 188 120 L 192 120 M 184 120 L 192 120 M 184 120 L 192 120 M 196 120 L 192 120 M 196 120 L 200 120 M 204 120 L 200 120 M 204 120 L 208 120 M 200 120 L 208 120 M 200 120 L 208 120 M 212 120 L 208 120 M 212 120 L 216 120 M 208 120 L 216 120 M 208 120 L 216 120 M 220 112 L 220 120 L 216 120 M 252 112 L 252 120 L 256 120 M 260 120 L 256 120 M 260 120 L 264 120 M 256 120 L 264 120 M 256 120 L 264 120 M 268 120 L 264 120 M 268 120 L 272 120 M 264 120 L 272 120 M 264 120 L 272 120 M 276 120 L 272 120 M 276 120 L 280 120 M 272 120 L 280 120 M 272 120 L 280 120 M 284 120 L 280 120 M 284 120 L 288 120 M 280 120 L 288 120 M 280 120 L 288 120 M 292 120 L 288 120 M 292 120 L 296 120 M 288 120 L 296 120 M 288 120 L 296 120 M 300 112 L 300 120 L 296 120 M 116 144 L 116 160 M 4 172 L 4 192 M 8 168 A 4 4 0 0 0 4 172 L 4 192 M 12 168 L 8 168 M 12 168 L 16 168 M 8 168 L 16 168 M 8 168 L 16 168 M 20 168 L 16 168 M 20 168 L 24 168 M 16 168 L 24 168 M 16 168 L 24 168 M 28 168 L 24 168 M 28 168 L 32 168 M 24 168 L 32 168 M 24 168 L 32 168 M 36 168 L 32 168 M 36 168 L 40 168 M 32 168 L 40 168 M 32 168 L 40 168 M 44 168 L 40 168 M 44 168 L 48 168 M 40 168 L 48 168 M 40 168 L 48 168 M 52 168 L 48 168 M 52 168 L 56 168 M 48 168 L 56 168 M 48 168 L 56 168 M 60 168 L 56 168 M 60 168 L 64 168 M 56 168 L 64 168 M 56 168 L 64 168 M 68 168 L 64 168 M 68 168 L 72 168 M 64 168 L 72 168 M 64 168 L 72 168 M 76 168 L 72 168 M 76 168 L 80 168 M 72 168 L 80 168 M 72 168 L 80 168 M 84 168 L 80 168 M 84 168 L 88 168 M 80 168 L 88 168 M 80 168 L 88 168 M 92 168 L 88 168 M 92 168 L 96 168 M 88 168 L 96 168 M 88 168 L 96 168 M 100 168 L 96 168 M 100 168 L 104 168 M 96 168 L 104 168 M 96 168 L 104 168 M 108 168 L 104 168 M 108 168 L 112 168 M 104 168 L 112 168 M 104 168 L 112 168 M 116 160 L 116 168 L 112 168 M 116 168 L 120 168 M 124 168 L 120 168 M 124 168 L 128 168 M 120 168 L 128 168 M 120 168 L 128 168 M 132 168 L 128 168 M 132 168 L 136 168 M 128 168 L 136 168 M 128 168 L 136 168 M 140 168 L 136 168 M 140 168 L 144 168 M 136 168 L 144 168 M 136 168 L 144 168 M 148 168 L 144 168 M 148 168 L 152 168 M 144 168 L 152 168 M 144 168 L 152 168 M 156 168 L 152 168 M 156 168 L 160 168 M 152 168 L 160 168 M 152 168 L 160 168 M 164 168 L 160 168 M 164 168 L 168 168 M 160 168 L 168 168 M 160 168 L 168 168 M 172 168 L 168 168 M 172 168 L 176 168 M 168 168 L 176 168 M 168 168 L 176 168 M 180 168 L 176 168 M 180 168 L 184 168 M 176 168 L 184 168 M 176 168 L 184 168 M 188 168 L 184 168 M 188 168 L 192 168 M 184 168 L 192 168 M 184 168 L 192 168 M 196 168 L 192 168 M 196 168 L 200 168 M 192 168 L 200 168 M 192 168 L 200 168 M 204 168 L 200 168 M 204 168 L 208 168 M 200 168 L 208 168 M 200 168 L 208 168 M 212 168 L 208 168 M 212 168 L 216 168 M 208 168 L 216 168 M 208 168 L 216 168 M 220 168 L 216 168 M 220 168 L 224 168 M 216 168 L 224 168 M 216 168 L 224 168 M 228 168 L 224 168 M 228 168 L 232 168 M 224 168 L 232 168 M 224 168 L 232 168 M 236 168 L 232 168 M 236 168 L 240 168 M 232 168 L 240 168 M 232 168 L 240 168 M 244 168 L 240 168 M 244 168 L 248 168 M 240 168 L 248 168 M 240 168 L 248 168 M 252 168 L 248 168 M 252 168 L 256 168 M 248 168 L 256 168 M 248 168 L 256 168 M 260 168 L 256 168 M 260 168 L 264 168 M 256 168 L 264 168 M 256 168 L 264 168 M 268 168 L 264 168 M 268 168 L 272 168 M 264 168 L 272 168 M 264 168 L 272 168 M 276 168 L 272 168 M 276 168 L 280 168 M 272 168 L 280 168 M 272 168 L 280 168 M 284 168 L 280 168 M 284 168 L 288 168 M 280 168 L 288 168 M 280 168 L 288 168 M 292 168 L 288 168 M 292 168 L 296 168 M 288 168 L 296 168 M 288 168 L 296 168 M 300 168 L 296 168 M 300 168 L 304 168 M 296 168 L 304 168 M 296 168 L 304 168 M 308 172 L 308 192 M 308 172 L 308 192 M 308 172 A 4 4 0 0 0 304 168 M 4 176 L 4 192 M 308 176 L 308 192 M 4 192 L 4 196 A 4 4 0 0 0 8 200 M 4 196 L 4 192 M 12 200 L 8 200 M 12 200 L 16 200 M 8 200 L 16 200 M 8 200 L 16 200 M 20 200 L 16 200 M 20 200 L 24 200 M 16 200 L 24 200 M 16 200 L 24 200 M 28 200 L 24 200 M 28 200 L 32 200 M 24 200 L 32 200 M 24 200 L 32 200 M 36 200 L 32 200 M 36 200 L 40 200 M 32 200 L 40 200 M 32 200 L 40 200 M 44 200 L 40 200 M 44 200 L 48 200 M 40 200 L 48 200 M 40 200 L 48 200 M 52 200 L 48 200 M 52 200 L 56 200 M 48 200 L 56 200 M 48 200 L 56 200 M 60 200 L 56 200 M 60 200 L 64 200 M 56 200 L 64 200 M 56 200 L 64 200 M 68 200 L 64 200 M 68 200 L 72 200 M 64 200 L 72 200 M 64 200 L 72 200 M 76 200 L 72 200 M 76 200 L 80 200 M 72 200 L 80 200 M 72 200 L 80 200 M 84 200 L 80 200 M 84 200 L 88 200 M 80 200 L 88 200 M 80 200 L 88 200 M 92 200 L 88 200 M 92 200 L 96 200 M 88 200 L 96 200 M 88 200 L 96 200 M 100 200 L 96 200 M 100 200 L 104 200 M 96 200 L 104 200 M 96 200 L 104 200 M 108 200 L 104 200 M 108 200 L 112 200 M 104 200 L 112 200 M 104 200 L 112 200 M 116 200 L 112 200 M 116 200 L 120 200 M 112 200 L 120 200 M 112 200 L 120 200 M 124 200 L 120 200 M 124 200 L 128 200 M 120 200 L 128 200 M 120 200 L 128 200 M 132 200 L 128 200 M 132 200 L 136 200 M 128 200 L 136 200 M 128 200 L 136 200 M 140 200 L 136 200 M 140 200 L 144 200 M 136 200 L 144 200 M 136 200 L 144 200 M 148 200 L 144 200 M 148 200 L 152 200 M 144 200 L 152 200 M 144 200 L 152 200 M 156 200 L 152 200 M 156 200 L 160 200 M 152 200 L 160 200 M 152 200 L 160 200 M 164 200 L 160 200 M 164 200 L 168 200 M 160 200 L 168 200 M 160 200 L 168 200 M 172 200 L 168 200 M 172 200 L 176 200 M 168 200 L 176 200 M 168 200 L 176 200 M 180 200 L 176 200 M 180 200 L 184 200 M 176 200 L 184 200 M 176 200 L 184 200 M 188 200 L 184 200 M 188 200 L 192 200 M 184 200 L 192 200 M 184 200 L 192 200 M 196 200 L 192 200 M 196 200 L 200 200 M 192 200 L 200 200 M 192 200 L 200 200 M 204 200 L 200 200 M 204 200 L 208 200 M 200 200 L 208 200 M 200 200 L 208 200 M 212 200 L 208 200 M 212 200 L 216 200 M 208 200 L 216 200 M 208 200 L 216 200 M 220 200 L 216 200 M 220 200 L 224 200 M 216 200 L 224 200 M 216 200 L 224 200 M 228 200 L 224 200 M 228 200 L 232 200 M 224 200 L 232 200 M 224 200 L 232 200 M 236 200 L 232 200 M 236 200 L 240 200 M 232 200 L 240 200 M 232 200 L 240 200 M 244 200 L 240 200 M 244 200 L 248 200 M 240 200 L 248 200 M 240 200 L 248 200 M 252 200 L 248 200 M 252 200 L 256 200 M 248 200 L 256 200 M 248 200 L 256 200 M 260 200 L 256 200 M 260 200 L 264 200 M 256 200 L 264 200 M 256 200 L 264 200 M 268 200 L 264 200 M 268 200 L 272 200 M 264 200 L 272 200 M 264 200 L 272 200 M 276 200 L 272 200 M 276 200 L 280 200 M 272 200 L 280 200 M 272 200 L 280 200 M 284 200 L 280 200 M 284 200 L 288 200 M 280 200 L 288 200 M 280 200 L 288 200 M 292 200 L 288 200 M 292 200 L 296 200 M 288 200 L 296 200 M 288 200 L 296 200 M 300 200 L 296 200 M 300 200 L 304 200 M 296 200 L 304 200 M 296 200 L 304 200 M 308 192 L 308 196 L 308 192 M 304 200 A 4 4 0 0 0 308 196 M 192 256 L 288 256 M 32 264 A 8 8 0 0 0 26 268 L 24 272 M 36 264 L 32 264 M 36 264 L 40 264 M 32 264 L 40 264 M 32 264 L 40 264 M 44 264 L 40 264 M 44 264 L 48 264 M 40 264 L 48 264 M 40 264 L 48 264 M 52 264 L 48 264 M 52 264 L 56 264 M 48 264 L 56 264 M 48 264 L 56 264 M 60 264 L 56 264 M 60 264 L 64 264 M 56 264 L 64 264 M 56 264 L 64 264 M 68 264 L 64 264 M 68 264 L 72 264 M 64 264 L 72 264 M 64 264 L 72 264 M 76 264 L 72 264 M 76 264 L 80 264 M 72 264 L 80 264 M 72 264 L 80 264 M 84 264 L 80 264 M 84 264 L 88 264 M 80 264 L 88 264 M 80 264 L 88 264 M 92 264 L 88 264 M 92 264 L 96 264 M 88 264 L 96 264 M 88 264 L 96 264 M 100 264 L 96 264 M 100 264 L 104 264 M 96 264 L 104 264 M 96 264 L 104 264 M 108 264 L 104 264 M 108 264 L 112 264 M 104 264 L 112 264 M 104 264 L 112 264 M 116 264 L 112 264 M 116 264 L 120 264 M 112 264 L 120 264 M 112 264 L 120 264 M 124 264 L 120 264 M 124 264 L 128 264 M 120 264 L 128 264 M 120 264 L 128 264 M 132 264 L 128 264 M 132 264 L 136 264 M 128 264 L 136 264 M 128 264 L 136 264 M 140 264 L 136 264 M 140 264 L 144 264 M 136 264 L 144 264 M 136 264 L 144 264 M 150 268 A 8 8 0 0 0 144 264 M 150 268 L 160 288 M 192 256 L 208 288 M 288 256 L 304 288 M 24 272 L 16 288 M 48 276 L 56 276 M 48 284 L 56 284 M 56 276 L 64 276 M 56 284 L 64 284 M 152 272 L 160 288 M 344 288 L 424 288 M 16 288 A 16 16 0 0 0 16 304 M 160 304 A 16 16 0 0 0 160 288 M 208 304 A 16 16 0 0 0 208 288 M 304 304 A 16 16 0 0 0 304 288 M 344 288 L 352 304 M 424 288 L 432 304 M 16 304 L 24 320 M 160 304 L 152 320 M 208 304 L 200 320 M 304 304 L 296 320 M 352 304 L 344 320 M 432 304 L 424 320 M 24 320 L 26 324 A 8 8 0 0 0 32 328 M 36 328 L 32 328 M 36 328 L 40 328 M 32 328 L 40 328 M 32 328 L 40 328 M 44 328 L 40 328 M 44 328 L 48 328 M 40 328 L 48 328 M 40 328 L 48 328 M 52 328 L 48 328 M 52 328 L 56 328 M 48 328 L 56 328 M 48 328 L 56 328 M 60 328 L 56 328 M 60 328 L 64 328 M 56 328 L 64 328 M 56 328 L 64 328 M 68 328 L 64 328 M 68 328 L 72 328 M 64 328 L 72 328 M 64 328 L 72 328 M 76 328 L 72 328 M 76 328 L 80 328 M 72 328 L 80 328 M 72 328 L 80 328 M 84 328 L 80 328 M 84 328 L 88 328 M 80 328 L 88 328 M 80 328 L 88 328 M 92 328 L 88 328 M 92 328 L 96 328 M 88 328 L 96 328 M 88 328 L 96 328 M 100 328 L 96 328 M 100 328 L 104 328 M 96 328 L 104 328 M 96 328 L 104 328 M 108 328 L 104 328 M 108 328 L 112 328 M 104 328 L 112 328 M 104 328 L 112 328 M 116 328 L 112 328 M 116 328 L 120 328 M 112 328 L 120 328 M 112 328 L 120 328 M 124 328 L 120 328 M 124 328 L 128 328 M 120 328 L 128 328 M 120 328 L 128 328 M 132 328 L 128 328 M 132 328 L 136 328 M 128 328 L 136 328 M 128 328 L 136 328 M 140 328 L 136 328 M 140 328 L 144 328 M 136 328 L 144 328 M 136 328 L 144 328 A 8 8 0 0 0 150 324 L 152 320 M 192 336 L 288 336 M 200 320 L 192 336 M 200 336 L 288 336 M 296 320 L 288 336 M 336 336 L 416 336 M 344 320 L 336 336 M 344 336 L 416 336 M 424 320 L 416 336 M 32 384 L 176 384 M 32 384 L 48 416 M 40 400 L 176 400 L 184 400 M 176 384 L 192 416 M 184 400 L 192 416 M 48 432 L 50 428 A 8 8 0 0 0 50 420 L 48 416 M 192 432 L 194 428 A 8 8 0 0 0 194 420 L 192 416 M 40 448 L 184 448 M 48 432 L 40 448 M 48 448 L 184 448 M 192 432 L 184 448 M 32 464 L 176 464 M 40 448 L 32 464 M 40 464 L 176 464 M 184 448 L 176 464 M 112 496 L 136 544 M 232 496 L 224 512 M 200 520 A 8 8 0 0 0 194 524 L 192 528 M 204 520 L 200 520 M 204 520 L 208 520 M 200 520 L 208 520 M 200 520 L 208 520 M 212 520 L 208 520 M 212 520 L 216 520 M 208 520 L 216 520 M 208 520 L 216 520 A 8 8 0 0 0 222 516 L 224 512 M 192 528 L 184 544 M 116 552 L 120 552 M 112 552 L 120 552 M 112 552 L 120 552 M 124 552 L 120 552 M 124 552 L 128 552 M 120 552 L 128 552 M 120 552 L 128 552 M 132 552 L 128 552 L 136 552 M 128 552 L 136 552 M 188 552 L 192 552 M 184 552 L 192 552 M 184 552 L 192 552 M 196 552 L 192 552 M 196 552 L 200 552 M 192 552 L 200 552 M 192 552 L 200 552 M 204 552 L 200 552 M 204 552 L 208 552 M 200 552 L 208 552 M 200 552 L 208 552 M 212 552 L 208 552 M 136 560 L 128 576 M 184 560 L 200 592 M 104 584 A 8 8 0 0 0 98 588 L 96 592 M 108 584 L 104 584 M 108 584 L 112 584 M 104 584 L 112 584 M 104 584 L 112 584 M 116 584 L 112 584 M 116 584 L 120 584 M 112 584 L 120 584 M 112 584 L 120 584 A 8 8 0 0 0 126 580 L 128 576 M 200 592 L 224 592 M 96 592 L 88 608 M 108 668 L 108 672 M 112 664 A 4 4 0 0 0 108 668 M 116 664 L 112 664 M 116 664 L 120 664 M 112 664 L 120 664 M 112 664 L 120 664 M 124 664 L 120 664 M 124 664 L 128 664 M 120 664 L 128 664 M 120 664 L 128 664 M 132 664 L 128 664 M 132 664 L 136 664 M 128 664 L 136 664 M 128 664 L 136 664 M 140 668 L 140 672 M 140 668 A 4 4 0 0 0 136 664 M 164 668 L 164 672 M 168 664 A 4 4 0 0 0 164 668 M 172 664 L 168 664 M 172 664 L 176 664 M 168 664 L 176 664 M 168 664 L 176 664 M 180 664 L 176 664 M 180 664 L 184 664 M 176 664 L 184 664 M 176 664 L 184 664 M 188 664 L 184 664 M 188 664 L 192 664 M 184 664 L 192 664 M 184 664 L 192 664 M 196 668 L 196 672 M 196 668 A 4 4 0 0 0 192 664 M 212 668 L 212 672 M 216 664 A 4 4 0 0 0 212 668 M 220 664 L 216 664 M 220 664 L 224 664 M 216 664 L 224 664 M 216 664 L 224 664 M 228 664 L 224 664 M 228 664 L 232 664 M 224 664 L 232 664 M 224 664 L 232 664 M 236 664 L 232 664 M 236 664 L 240 664 M 232 664 L 240 664 M 232 664 L 240 664 M 244 668 L 244 672 M 244 668 A 4 4 0 0 0 240 664 M 268 668 L 268 672 M 272 664 A 4 4 0 0 0 268 668 M 276 664 L 272 664 M 276 664 L 280 664 M 272 664 L 280 664 M 272 664 L 280 664 M 284 664 L 280 664 M 284 664 L 288 664 M 280 664 L 288 664 M 280 664 L 288 664 M 292 664 L 288 664 M 292 664 L 296 664 M 288 664 L 296 664 M 288 664 L 296 664 M 300 668 L 300 672 M 300 668 A 4 4 0 0 0 296 664 M 340 668 L 340 672 M 344 664 A 4 4 0 0 0 340 668 M 348 664 L 344 664 M 348 664 L 352 664 M 344 664 L 352 664 M 344 664 L 352 664 M 356 664 L 352 664 M 356 664 L 360 664 M 352 664 L 360 664 M 352 664 L 360 664 M 364 664 L 360 664 M 364 664 L 368 664 M 360 664 L 368 664 M 360 664 L 368 664 M 372 668 L 372 672 M 372 668 A 4 4 0 0 0 368 664 M 396 668 L 396 672 M 400 664 A 4 4 0 0 0 396 668 M 404 664 L 400 664 M 404 664 L 408 664 M 400 664 L 408 664 M 400 664 L 408 664 M 412 664 L 408 664 M 412 664 L 416 664 M 408 664 L 416 664 M 408 664 L 416 664 M 420 664 L 416 664 M 420 664 L 424 664 M 416 664 L 424 664 M 416 664 L 424 664 M 428 668 L 428 672 M 428 668 A 4 4 0 0 0 424 664 M 108 672 L 108 676 A 4 4 0 0 0 112 680 M 108 676 L 108 672 M 116 680 L 112 680 M 116 680 L 120 680 M 112 680 L 120 680 M 112 680 L 120 680 M 124 680 L 120 680 M 124 680 L 128 680 M 120 680 L 128 680 M 120 680 L 128 680 M 132 680 L 128 680 M 132 680 L 136 680 M 128 680 L 136 680 M 128 680 L 136 680 M 140 672 L 140 676 L 140 672 M 136 680 A 4 4 0 0 0 140 676 M 164 672 L 164 676 A 4 4 0 0 0 168 680 M 164 676 L 164 672 M 172 680 L 168 680 M 172 680 L 176 680 M 168 680 L 176 680 M 168 680 L 176 680 M 180 680 L 176 680 M 180 680 L 184 680 M 176 680 L 184 680 M 176 680 L 184 680 M 188 680 L 184 680 M 188 680 L 192 680 M 184 680 L 192 680 M 184 680 L 192 680 M 196 672 L 196 676 L 196 672 M 192 680 A 4 4 0 0 0 196 676 M 212 672 L 212 676 A 4 4 0 0 0 216 680 M 212 676 L 212 672 M 220 680 L 216 680 M 220 680 L 224 680 M 216 680 L 224 680 M 216 680 L 224 680 M 228 680 L 224 680 M 228 680 L 232 680 M 224 680 L 232 680 M 224 680 L 232 680 M 236 680 L 232 680 M 236 680 L 240 680 M 232 680 L 240 680 M 232 680 L 240 680 M 244 672 L 244 676 L 244 672 M 240 680 A 4 4 0 0 0 244 676 M 268 672 L 268 676 A 4 4 0 0 0 272 680 M 268 676 L 268 672 M 276 680 L 272 680 M 276 680 L 280 680 M 272 680 L 280 680 M 272 680 L 280 680 M 284 680 L 280 680 M 284 680 L 288 680 M 280 680 L 288 680 M 280 680 L 288 680 M 292 680 L 288 680 M 292 680 L 296 680 M 288 680 L 296 680 M 288 680 L 296 680 M 300 672 L 300 676 L 300 672 M 296 680 A 4 4 0 0 0 300 676 M 340 672 L 340 676 A 4 4 0 0 0 344 680 M 340 676 L 340 672 M 348 680 L 344 680 M 348 680 L 352 680 M 344 680 L 352 680 M 344 680 L 352 680 M 356 680 L 352 680 M 356 680 L 360 680 M 352 680 L 360 680 M 352 680 L 360 680 M 364 680 L 360 680 M 364 680 L 368 680 M 360 680 L 368 680 M 360 680 L 368 680 M 372 672 L 372 676 L 372 672 M 368 680 A 4 4 0 0 0 372 676 M 396 672 L 396 676 A 4 4 0 0 0 400 680 M 396 676 L 396 672 M 404 680 L 400 680 M 404 680 L 408 680 M 400 680 L 408 680 M 400 680 L 408 680 M 412 680 L 408 680 M 412 680 L 416 680 M 408 680 L 416 680 M 408 680 L 416 680 M 420 680 L 416 680 M 420 680 L 424 680 M 416 680 L 424 680 M 416 680 L 424 680 M 428 672 L 428 676 L 428 672 M 424 680 A 4 4 0 0 0 428 676 M 228 688 L 228 816 M 108 732 L 108 752 M 112 728 A 4 4 0 0 0 108 732 L 108 752 M 116 728 L 112 728 M 116 728 L 120 728 M 112 728 L 120 728 M 112 728 L 120 728 M 124 728 L 120 728 M 124 728 L 128 728 M 120 728 L 128 728 M 120 728 L 128 728 M 132 728 L 128 728 M 132 728 L 136 728 M 128 728 L 136 728 M 128 728 L 136 728 M 140 728 L 136 728 M 140 728 L 144 728 M 136 728 L 144 728 M 136 728 L 144 728 M 148 728 L 144 728 M 148 728 L 152 728 M 144 728 L 152 728 M 144 728 L 152 728 M 156 728 L 152 728 M 156 728 L 160 728 M 152 728 L 160 728 M 152 728 L 160 728 M 164 728 L 160 728 M 164 728 L 168 728 M 160 728 L 168 728 M 160 728 L 168 728 M 172 728 L 168 728 M 172 728 L 176 728 M 168 728 L 176 728 M 168 728 L 176 728 M 180 728 L 176 728 M 180 728 L 184 728 M 176 728 L 184 728 M 176 728 L 184 728 M 188 728 L 184 728 M 188 728 L 192 728 M 184 728 L 192 728 M 184 728 L 192 728 M 196 728 L 192 728 M 196 728 L 200 728 M 192 728 L 200 728 M 192 728 L 200 728 M 204 728 L 200 728 M 204 728 L 208 728 M 200 728 L 208 728 M 200 728 L 208 728 M 212 732 L 212 752 M 212 732 L 212 752 M 212 732 A 4 4 0 0 0 208 728 M 244 732 L 244 752 M 248 728 A 4 4 0 0 0 244 732 L 244 752 M 252 728 L 248 728 M 252 728 L 256 728 M 248 728 L 256 728 M 248 728 L 256 728 M 260 728 L 256 728 M 260 728 L 264 728 M 256 728 L 264 728 M 256 728 L 264 728 M 268 728 L 264 728 M 268 728 L 272 728 M 264 728 L 272 728 M 264 728 L 272 728 M 276 728 L 272 728 M 276 728 L 280 728 M 272 728 L 280 728 M 272 728 L 280 728 M 284 728 L 280 728 M 284 728 L 288 728 M 280 728 L 288 728 M 280 728 L 288 728 M 292 728 L 288 728 M 292 728 L 296 728 M 288 728 L 296 728 M 288 728 L 296 728 M 300 728 L 296 728 M 300 728 L 304 728 M 296 728 L 304 728 M 296 728 L 304 728 M 308 728 L 304 728 M 308 728 L 312 728 M 304 728 L 312 728 M 304 728 L 312 728 M 316 728 L 312 728 M 316 728 L 320 728 M 312 728 L 320 728 M 312 728 L 320 728 M 324 728 L 320 728 M 324 728 L 328 728 M 320 728 L 328 728 M 320 728 L 328 728 M 332 728 L 328 728 M 332 728 L 336 728 M 328 728 L 336 728 M 328 728 L 336 728 M 340 732 L 340 752 M 340 732 L 340 752 M 340 732 A 4 4 0 0 0 336 728 M 380 732 L 380 752 M 384 728 A 4 4 0 0 0 380 732 L 380 752 M 388 728 L 384 728 M 388 728 L 392 728 M 384 728 L 392 728 M 384 728 L 392 728 M 396 728 L 392 728 M 396 728 L 400 728 M 392 728 L 400 728 M 392 728 L 400 728 M 404 728 L 400 728 M 404 728 L 408 728 M 400 728 L 408 728 M 400 728 L 408 728 M 412 728 L 408 728 M 412 728 L 416 728 M 408 728 L 416 728 M 408 728 L 416 728 M 420 728 L 416 728 M 420 728 L 424 728 M 416 728 L 424 728 M 416 728 L 424 728 M 428 732 L 428 752 M 428 732 L 428 752 M 428 732 A 4 4 0 0 0 424 728 M 108 736 L 108 752 M 212 736 L 212 752 M 244 736 L 244 752 M 340 736 L 340 752 M 380 736 L 380 752 M 428 736 L 428 752 M 108 752 L 108 756 A 4 4 0 0 0 112 760 M 108 756 L 108 752 M 116 760 L 112 760 M 116 760 L 120 760 M 112 760 L 120 760 M 112 760 L 120 760 M 124 760 L 120 760 M 124 760 L 128 760 M 120 760 L 128 760 M 120 760 L 128 760 M 132 760 L 128 760 M 132 760 L 136 760 M 128 760 L 136 760 M 128 760 L 136 760 M 140 760 L 136 760 M 140 760 L 144 760 M 136 760 L 144 760 M 136 760 L 144 760 M 148 760 L 144 760 M 148 760 L 152 760 M 144 760 L 152 760 M 144 760 L 152 760 M 156 760 L 152 760 M 156 760 L 160 760 M 152 760 L 160 760 M 152 760 L 160 760 M 164 760 L 160 760 M 164 760 L 168 760 M 160 760 L 168 760 M 160 760 L 168 760 M 172 760 L 168 760 M 172 760 L 176 760 M 168 760 L 176 760 M 168 760 L 176 760 M 180 760 L 176 760 M 180 760 L 184 760 M 176 760 L 184 760 M 176 760 L 184 760 M 188 760 L 184 760 M 188 760 L 192 760 M 184 760 L 192 760 M 184 760 L 192 760 M 196 760 L 192 760 M 196 760 L 200 760 M 192 760 L 200 760 M 192 760 L 200 760 M 204 760 L 200 760 M 204 760 L 208 760 M 200 760 L 208 760 M 200 760 L 208 760 M 212 752 L 212 756 L 212 752 M 208 760 A 4 4 0 0 0 212 756 M 244 752 L 244 756 A 4 4 0 0 0 248 760 M 244 756 L 244 752 M 252 760 L 248 760 M 252 760 L 256 760 M 248 760 L 256 760 M 248 760 L 256 760 M 260 760 L 256 760 M 260 760 L 264 760 M 256 760 L 264 760 M 256 760 L 264 760 M 268 760 L 264 760 M 268 760 L 272 760 M 264 760 L 272 760 M 264 760 L 272 760 M 276 760 L 272 760 M 276 760 L 280 760 M 272 760 L 280 760 M 272 760 L 280 760 M 284 760 L 280 760 M 284 760 L 288 760 M 280 760 L 288 760 M 280 760 L 288 760 M 292 760 L 288 760 M 292 760 L 296 760 M 288 760 L 296 760 M 288 760 L 296 760 M 300 760 L 296 760 M 300 760 L 304 760 M 296 760 L 304 760 M 296 760 L 304 760 M 308 760 L 304 760 M 308 760 L 312 760 M 304 760 L 312 760 M 304 760 L 312 760 M 316 760 L 312 760 M 316 760 L 320 760 M 312 760 L 320 760 M 312 760 L 320 760 M 324 760 L 320 760 M 324 760 L 328 760 M 320 760 L 328 760 M 320 760 L 328 760 M 332 760 L 328 760 M 332 760 L 336 760 M 328 760 L 336 760 M 328 760 L 336 760 M 340 752 L 340 756 L 340 752 M 336 760 A 4 4 0 0 0 340 756 M 380 752 L 380 756 A 4 4 0 0 0 384 760 M 380 756 L 380 752 M 388 760 L 384 760 M 388 760 L 392 760 M 384 760 L 392 760 M 384 760 L 392 760 M 396 760 L 392 760 M 396 760 L 400 760 M 392 760 L 400 760 M 392 760 L 400 760 M 404 760 L 400 760 M 404 760 L 408 760 M 400 760 L 408 760 M 400 760 L 408 760 M 412 760 L 408 760 M 412 760 L 416 760 M 408 760 L 416 760 M 408 760 L 416 760 M 420 760 L 416 760 M 420 760 L 424 760 M 416 760 L 424 760 M 416 760 L 424 760 M 428 752 L 428 756 L 428 752 M 424 760 A 4 4 0 0 0 428 756 M 140 812 L 140 832 M 144 808 A 4 4 0 0 0 140 812 L 140 832 M 148 808 L 144 808 M 148 808 L 152 808 M 144 808 L 152 808 M 144 808 L 152 808 M 156 808 L 152 808 M 156 808 L 160 808 M 152 808 L 160 808 M 152 808 L 160 808 M 164 808 L 160 808 M 164 808 L 168 808 M 160 808 L 168 808 M 160 808 L 168 808 M 172 808 L 168 808 M 172 808 L 176 808 M 168 808 L 176 808 M 168 808 L 176 808 M 180 812 L 180 832 M 180 812 L 180 832 M 180 812 A 4 4 0 0 0 176 808 M 324 812 L 324 832 M 328 808 A 4 4 0 0 0 324 812 L 324 832 M 332 808 L 328 808 M 332 808 L 336 808 M 328 808 L 336 808 M 328 808 L 336 808 M 340 808 L 336 808 M 340 808 L 344 808 M 336 808 L 344 808 M 336 808 L 344 808 M 348 808 L 344 808 M 348 808 L 352 808 M 344 808 L 352 808 M 344 808 L 352 808 M 356 808 L 352 808 M 356 808 L 360 808 M 352 808 L 360 808 M 352 808 L 360 808 M 364 808 L 360 808 M 364 808 L 368 808 M 360 808 L 368 808 M 360 808 L 368 808 M 372 808 L 368 808 M 372 808 L 376 808 M 368 808 L 376 808 M 368 808 L 376 808 M 380 808 L 376 808 M 380 808 L 384 808 M 376 808 L 384 808 M 376 808 L 384 808 M 388 808 L 384 808 M 388 808 L 392 808 M 384 808 L 392 808 M 384 808 L 392 808 M 396 808 L 392 808 M 396 808 L 400 808 M 392 808 L 400 808 M 392 808 L 400 808 M 404 812 L 404 832 M 404 812 L 404 832 M 404 812 A 4 4 0 0 0 400 808 M 140 816 L 140 832 M 180 816 L 180 832 M 196 824 L 200 824 M 192 824 L 200 824 M 192 824 L 200 824 M 204 824 L 200 824 M 204 824 L 208 824 M 200 824 L 208 824 M 200 824 L 208 824 M 212 824 L 208 824 M 212 824 L 216 824 M 208 824 L 216 824 M 208 824 L 216 824 M 220 824 L 216 824 M 220 824 L 224 824 M 216 824 L 224 824 M 216 824 L 224 824 M 228 816 L 228 820 L 228 816 M 224 824 A 4 4 0 0 0 228 820 M 324 816 L 324 832 M 404 816 L 404 832 M 140 832 L 140 836 A 4 4 0 0 0 144 840 M 140 836 L 140 832 M 148 840 L 144 840 M 148 840 L 152 840 M 144 840 L 152 840 M 144 840 L 152 840 M 156 840 L 152 840 M 156 840 L 160 840 M 152 840 L 160 840 M 152 840 L 160 840 M 164 840 L 160 840 M 164 840 L 168 840 M 160 840 L 168 840 M 160 840 L 168 840 M 172 840 L 168 840 M 172 840 L 176 840 M 168 840 L 176 840 M 168 840 L 176 840 M 180 832 L 180 836 L 180 832 M 176 840 A 4 4 0 0 0 180 836 M 324 832 L 324 836 A 4 4 0 0 0 328 840 M 324 836 L 324 832 M 332 840 L 328 840 M 332 840 L 336 840 M 328 840 L 336 840 M 328 840 L 336 840 M 340 840 L 336 840 M 340 840 L 344 840 M 336 840 L 344 840 M 336 840 L 344 840 M 348 840 L 344 840 M 348 840 L 352 840 M 344 840 L 352 840 M 344 840 L 352 840 M 356 840 L 352 840 M 356 840 L 360 840 M 352 840 L 360 840 M 352 840 L 360 840 M 364 840 L 360 840 M 364 840 L 368 840 M 360 840 L 368 840 M 360 840 L 368 840 M 372 840 L 368 840 M 372 840 L 376 840 M 368 840 L 376 840 M 368 840 L 376 840 M 380 840 L 376 840 M 380 840 L 384 840 M 376 840 L 384 840 M 376 840 L 384 840 M 388 840 L 384 840 M 388 840 L 392 840 M 384 840 L 392 840 M 384 840 L 392 840 M 396 840 L 392 840 M 396 840 L 400 840 M 392 840 L 400 840 M 392 840 L 400 840 M 404 832 L 404 836 L 404 832 M 400 840 A 4 4 0 0 0 404 836 M 108 892 L 108 912 M 112 888 A 4 4 0 0 0 108 892 L 108 912 M 116 888 L 112 888 M 116 888 L 120 888 M 112 888 L 120 888 M 112 888 L 120 888 M 124 888 L 120 888 M 124 888 L 128 888 M 120 888 L 128 888 M 120 888 L 128 888 M 132 888 L 128 888 M 132 888 L 136 888 M 128 888 L 136 888 M 128 888 L 136 888 M 140 888 L 136 888 M 140 888 L 144 888 M 136 888 L 144 888 M 136 888 L 144 888 M 148 888 L 144 888 M 148 888 L 152 888 M 144 888 L 152 888 M 144 888 L 152 888 M 156 888 L 152 888 M 156 888 L 160 888 M 152 888 L 160 888 M 152 888 L 160 888 M 164 888 L 160 888 M 164 888 L 168 888 M 160 888 L 168 888 M 160 888 L 168 888 M 172 888 L 168 888 M 172 888 L 176 888 M 168 888 L 176 888 M 168 888 L 176 888 M 180 888 L 176 888 M 180 888 L 184 888 M 176 888 L 184 888 M 176 888 L 184 888 M 188 888 L 184 888 M 188 888 L 192 888 M 184 888 L 192 888 M 184 888 L 192 888 M 196 888 L 192 888 M 196 888 L 200 888 M 192 888 L 200 888 M 192 888 L 200 888 M 204 888 L 200 888 M 204 888 L 208 888 M 200 888 L 208 888 M 200 888 L 208 888 M 212 888 L 208 888 M 212 888 L 216 888 M 208 888 L 216 888 M 208 888 L 216 888 M 220 888 L 216 888 M 220 888 L 224 888 M 216 888 L 224 888 M 216 888 L 224 888 M 228 888 L 224 888 M 228 888 L 232 888 M 224 888 L 232 888 M 224 888 L 232 888 M 236 888 L 232 888 M 236 888 L 240 888 M 232 888 L 240 888 M 232 888 L 240 888 M 244 888 L 240 888 M 244 888 L 248 888 M 240 888 L 248 888 M 240 888 L 248 888 M 252 888 L 248 888 M 252 888 L 256 888 M 248 888 L 256 888 M 248 888 L 256 888 M 260 888 L 256 888 M 260 888 L 264 888 M 256 888 L 264 888 M 256 888 L 264 888 M 268 888 L 264 888 M 268 888 L 272 888 M 264 888 L 272 888 M 264 888 L 272 888 M 276 888 L 272 888 M 276 888 L 280 888 M 272 888 L 280 888 M 272 888 L 280 888 M 284 888 L 280 888 M 284 888 L 288 888 M 280 888 L 288 888 M 280 888 L 288 888 M 292 888 L 288 888 M 292 888 L 296 888 M 288 888 L 296 888 M 288 888 L 296 888 M 300 888 L 296 888 M 300 888 L 304 888 M 296 888 L 304 888 M 296 888 L 304 888 M 308 888 L 304 888 M 308 888 L 312 888 M 304 888 L 312 888 M 304 888 L 312 888 M 316 888 L 312 888 M 316 888 L 320 888 M 312 888 L 320 888 M 312 888 L 320 888 M 324 888 L 320 888 M 324 888 L 328 888 M 320 888 L 328 888 M 320 888 L 328 888 M 332 888 L 328 888 M 332 888 L 336 888 M 328 888 L 336 888 M 328 888 L 336 888 M 340 888 L 336 888 M 340 888 L 344 888 M 336 888 L 344 888 M 336 888 L 344 888 M 348 888 L 344 888 M 348 888 L 352 888 M 344 888 L 352 888 M 344 888 L 352 888 M 356 888 L 352 888 M 356 888 L 360 888 M 352 888 L 360 888 M 352 888 L 360 888 M 364 888 L 360 888 M 364 888 L 368 888 M 360 888 L 368 888 M 360 888 L 368 888 M 372 888 L 368 888 M 372 888 L 376 888 M 368 888 L 376 888 M 368 888 L 376 888 M 380 888 L 376 888 M 380 888 L 384 888 M 376 888 L 384 888 M 376 888 L 384 888 M 388 888 L 384 888 M 388 888 L 392 888 M 384 888 L 392 888 M 384 888 L 392 888 M 396 888 L 392 888 M 396 888 L 400 888 M 392 888 L 400 888 M 392 888 L 400 888 M 404 888 L 400 888 M 404 888 L 408 888 M 400 888 L 408 888 M 400 888 L 408 888 M 412 888 L 408 888 M 412 888 L 416 888 M 408 888 L 416 888 M 408 888 L 416 888 M 420 888 L 416 888 M 420 888 L 424 888 M 416 888 L 424 888 M 416 888 L 424 888 M 428 892 L 428 912 M 428 892 L 428 912 M 428 892 A 4 4 0 0 0 424 888 M 108 896 L 108 912 M 428 896 L 428 912 M 108 912 L 108 916 A 4 4 0 0 0 112 920 M 108 916 L 108 912 M 116 920 L 112 920 M 116 920 L 120 920 M 112 920 L 120 920 M 112 920 L 120 920 M 124 920 L 120 920 M 124 920 L 128 920 M 120 920 L 128 920 M 120 920 L 128 920 M 132 920 L 128 920 M 132 920 L 136 920 M 128 920 L 136 920 M 128 920 L 136 920 M 140 920 L 136 920 M 140 920 L 144 920 M 136 920 L 144 920 M 136 920 L 144 920 M 148 920 L 144 920 M 148 920 L 152 920 M 144 920 L 152 920 M 144 920 L 152 920 M 156 920 L 152 920 M 156 920 L 160 920 M 152 920 L 160 920 M 152 920 L 160 920 M 164 920 L 160 920 M 164 920 L 168 920 M 160 920 L 168 920 M 160 920 L 168 920 M 172 920 L 168 920 M 172 920 L 176 920 M 168 920 L 176 920 M 168 920 L 176 920 M 180 920 L 176 920 M 180 920 L 184 920 M 176 920 L 184 920 M 176 920 L 184 920 M 188 920 L 184 920 M 188 920 L 192 920 M 184 920 L 192 920 M 184 920 L 192 920 M 196 920 L 192 920 M 196 920 L 200 920 M 192 920 L 200 920 M 192 920 L 200 920 M 204 920 L 200 920 M 204 920 L 208 920 M 200 920 L 208 920 M 200 920 L 208 920 M 212 920 L 208 920 M 212 920 L 216 920 M 208 920 L 216 920 M 208 920 L 216 920 M 220 920 L 216 920 M 220 920 L 224 920 M 216 920 L 224 920 M 216 920 L 224 920 M 228 920 L 224 920 M 228 920 L 232 920 M 224 920 L 232 920 M 224 920 L 232 920 M 236 920 L 232 920 M 236 920 L 240 920 M 232 920 L 240 920 M 232 920 L 240 920 M 244 920 L 240 920 M 244 920 L 248 920 M 240 920 L 248 920 M 240 920 L 248 920 M 252 920 L 248 920 M 252 920 L 256 920 M 248 920 L 256 920 M 248 920 L 256 920 M 260 920 L 256 920 M 260 920 L 264 920 M 256 920 L 264 920 M 256 920 L 264 920 M 268 920 L 264 920 M 268 920 L 272 920 M 264 920 L 272 920 M 264 920 L 272 920 M 276 920 L 272 920 M 276 920 L 280 920 M 272 920 L 280 920 M 272 920 L 280 920 M 284 920 L 280 920 M 284 920 L 288 920 M 280 920 L 288 920 M 280 920 L 288 920 M 292 920 L 288 920 M 292 920 L 296 920 M 288 920 L 296 920 M 288 920 L 296 920 M 300 920 L 296 920 M 300 920 L 304 920 M 296 920 L 304 920 M 296 920 L 304 920 M 308 920 L 304 920 M 308 920 L 312 920 M 304 920 L 312 920 M 304 920 L 312 920 M 316 920 L 312 920 M 316 920 L 320 920 M 312 920 L 320 920 M 312 920 L 320 920 M 324 920 L 320 920 M 324 920 L 328 920 M 320 920 L 328 920 M 320 920 L 328 920 M 332 920 L 328 920 M 332 920 L 336 920 M 328 920 L 336 920 M 328 920 L 336 920 M 340 920 L 336 920 M 340 920 L 344 920 M 336 920 L 344 920 M 336 920 L 344 920 M 348 920 L 344 920 M 348 920 L 352 920 M 344 920 L 352 920 M 344 920 L 352 920 M 356 920 L 352 920 M 356 920 L 360 920 M 352 920 L 360 920 M 352 920 L 360 920 M 364 920 L 360 920 M 364 920 L 368 920 M 360 920 L 368 920 M 360 920 L 368 920 M 372 920 L 368 920 M 372 920 L 376 920 M 368 920 L 376 920 M 368 920 L 376 920 M 380 920 L 376 920 M 380 920 L 384 920 M 376 920 L 384 920 M 376 920 L 384 920 M 388 920 L 384 920 M 388 920 L 392 920 M 384 920 L 392 920 M 384 920 L 392 920 M 396 920 L 392 920 M 396 920 L 400 920 M 392 920 L 400 920 M 392 920 L 400 920 M 404 920 L 400 920 M 404 920 L 408 920 M 400 920 L 408 920 M 400 920 L 408 920 M 412 920 L 408 920 M 412 920 L 416 920 M 408 920 L 416 920 M 408 920 L 416 920 M 420 920 L 416 920 M 420 920 L 424 920 M 416 920 L 424 920 M 416 920 L 424 920 M 428 912 L 428 916 L 428 912 M 424 920 A 4 4 0 0 0 428 916 M 24 976 L 48 976 M 56 976 L 60 976 M 48 976 L 56 976 M 64 960 L 60 960 L 60 976 L 64 976 M 64 960 L 68 960 L 68 1024 M 68 976 L 64 976 M 24 976 L 20 976 L 20 1072 M 32 992 L 56 992 M 68 976 L 68 1024 M 20 992 L 20 1072 M 32 992 L 28 992 L 28 1008 M 56 992 L 60 992 L 60 1008 M 28 1024 L 56 1024 M 28 1008 L 28 1024 M 32 1024 L 56 1024 M 60 1024 L 56 1024 M 60 1008 L 60 1024 M 68 1032 L 72 1032 M 68 1024 L 68 1072 M 76 1032 L 80 1032 M 72 1032 L 80 1032 M 72 1032 L 80 1032 M 84 1032 L 80 1032 M 84 1032 L 88 1032 M 80 1032 L 88 1032 M 80 1032 L 88 1032 M 92 1032 L 88 1032 M 92 1032 L 96 1032 M 88 1032 L 96 1032 M 88 1032 L 96 1032 M 100 1032 L 96 1032 M 100 1032 L 104 1032 M 96 1032 L 104 1032 M 96 1032 L 104 1032 M 108 1032 L 104 1032 M 108 1032 L 112 1032 M 104 1032 L 112 1032 M 104 1032 L 112 1032 M 116 1032 L 112 1032 M 116 1032 L 120 1032 M 112 1032 L 120 1032 M 112 1032 L 120 1032 M 124 1032 L 120 1032 M 124 1032 L 128 1032 M 120 1032 L 128 1032 M 120 1032 L 128 1032 M 132 1032 L 128 1032 M 132 1032 L 136 1032 M 128 1032 L 136 1032 M 128 1032 L 136 1032 M 140 1032 L 136 1032 M 140 1032 L 144 1032 M 136 1032 L 144 1032 M 136 1032 L 144 1032 M 148 1032 L 144 1032 M 148 1032 L 152 1032 M 144 1032 L 152 1032 M 144 1032 L 152 1032 M 156 1032 L 152 1032 M 156 1032 L 160 1032 M 152 1032 L 160 1032 M 152 1032 L 160 1032 M 164 1032 L 160 1032 M 164 1032 L 168 1032 M 160 1032 L 168 1032 M 160 1032 L 168 1032 M 172 1032 L 168 1032 M 172 1032 L 176 1032 M 168 1032 L 176 1032 M 168 1032 L 176 1032 M 180 1032 L 176 1032 M 180 1032 L 184 1032 M 176 1032 L 184 1032 M 176 1032 L 184 1032 M 188 1032 L 184 1032 M 188 1032 L 192 1032 M 184 1032 L 192 1032 M 184 1032 L 192 1032 M 196 1032 L 192 1032 M 196 1032 L 200 1032 M 192 1032 L 200 1032 M 192 1032 L 200 1032 M 204 1032 L 200 1032 M 204 1032 L 208 1032 M 200 1032 L 208 1032 M 200 1032 L 208 1032 M 212 1032 L 208 1032 M 212 1032 L 216 1032 M 208 1032 L 216 1032 M 208 1032 L 216 1032 M 220 1032 L 216 1032 M 220 1032 L 224 1032 M 216 1032 L 224 1032 M 216 1032 L 224 1032 M 228 1032 L 224 1032 M 228 1032 L 232 1032 M 224 1032 L 232 1032 M 224 1032 L 232 1032 M 236 1032 L 232 1032 M 236 1032 L 240 1032 M 232 1032 L 240 1032 M 232 1032 L 240 1032 M 244 1032 L 240 1032 M 244 1032 L 248 1032 M 240 1032 L 248 1032 M 240 1032 L 248 1032 M 252 1032 L 248 1032 M 252 1032 L 256 1032 M 248 1032 L 256 1032 M 248 1032 L 256 1032 M 260 1032 L 256 1032 M 260 1032 L 264 1032 M 256 1032 L 264 1032 M 256 1032 L 264 1032 M 268 1032 L 264 1032 M 268 1032 L 272 1032 M 264 1032 L 272 1032 M 264 1032 L 272 1032 M 276 1032 L 272 1032 M 276 1032 L 280 1032 M 272 1032 L 280 1032 M 272 1032 L 280 1032 M 284 1032 L 280 1032 M 284 1032 L 288 1032 M 280 1032 L 288 1032 M 280 1032 L 288 1032 M 292 1032 L 288 1032 M 292 1032 L 296 1032 M 288 1032 L 296 1032 M 288 1032 L 296 1032 M 300 1032 L 296 1032 M 300 1032 L 304 1032 M 296 1032 L 304 1032 M 296 1032 L 304 1032 M 308 1032 L 304 1032 M 308 1032 L 312 1032 M 304 1032 L 312 1032 M 304 1032 L 312 1032 M 316 1032 L 312 1032 M 316 1032 L 320 1032 M 312 1032 L 320 1032 M 312 1032 L 320 1032 M 324 1032 L 320 1032 M 324 1032 L 328 1032 M 320 1032 L 328 1032 M 320 1032 L 328 1032 M 332 1032 L 328 1032 M 332 1032 L 336 1032 M 328 1032 L 336 1032 M 328 1032 L 336 1032 M 340 1032 L 336 1032 M 340 1032 L 344 1032 M 336 1032 L 344 1032 M 336 1032 L 344 1032 M 348 1032 L 344 1032 M 348 1032 L 352 1032 M 344 1032 L 352 1032 M 344 1032 L 352 1032 M 356 1032 L 352 1032 M 356 1032 L 360 1032 M 352 1032 L 360 1032 M 352 1032 L 360 1032 M 364 1032 L 360 1032 M 364 1032 L 368 1032 M 360 1032 L 368 1032 M 360 1032 L 368 1032 M 372 1032 L 368 1032 M 372 1032 L 376 1032 M 368 1032 L 376 1032 M 368 1032 L 376 1032 M 380 1032 L 376 1032 M 380 1032 L 384 1032 M 376 1032 L 384 1032 M 376 1032 L 384 1032 M 388 1032 L 384 1032 M 388 1032 L 392 1032 M 384 1032 L 392 1032 M 384 1032 L 392 1032 M 396 1032 L 392 1032 M 396 1032 L 400 1032 M 392 1032 L 400 1032 M 392 1032 L 400 1032 M 404 1032 L 400 1032 M 404 1032 L 408 1032 M 400 1032 L 408 1032 M 400 1032 L 408 1032 M 412 1032 L 408 1032 M 412 1032 L 416 1032 M 408 1032 L 416 1032 M 408 1032 L 416 1032 M 420 1032 L 416 1032 M 420 1032 L 424 1032 M 416 1032 L 424 1032 M 416 1032 L 424 1032 M 428 1032 L 424 1032 M 428 1032 L 432 1032 M 424 1032 L 432 1032 M 424 1032 L 432 1032 M 436 1032 L 432 1032 M 436 1032 L 440 1032 M 432 1032 L 440 1032 M 432 1032 L 440 1032 M 444 1032 L 440 1032 M 444 1032 L 448 1032 M 440 1032 L 448 1032 M 440 1032 L 448 1032 M 452 1032 L 448 1032 M 452 1032 L 456 1032 M 448 1032 L 456 1032 M 448 1032 L 456 1032 M 460 1032 L 456 1032 M 460 1032 L 464 1032 M 456 1032 L 464 1032 M 456 1032 L 464 1032 M 468 1032 L 464 1032 M 468 1032 L 472 1032 M 464 1032 L 472 1032 M 464 1032 L 472 1032 M 476 1032 L 472 1032 M 476 1032 L 480 1032 M 472 1032 L 480 1032 M 472 1032 L 480 1032 M 484 1032 L 480 1032 M 484 1032 L 488 1032 M 480 1032 L 488 1032 M 480 1032 L 488 1032 M 492 1032 L 488 1032 M 492 1032 L 496 1032 M 488 1032 L 496 1032 M 488 1032 L 496 1032 M 500 1032 L 496 1032 M 500 1032 L 504 1032 M 496 1032 L 504 1032 M 496 1032 L 504 1032 M 508 1032 L 504 1032 M 508 1032 L 512 1032 M 504 1032 L 512 1032 M 504 1032 L 512 1032 M 516 1032 L 512 1032 M 516 1032 L 520 1032 M 512 1032 L 520 1032 M 512 1032 L 520 1032 M 524 1032 L 520 1032 M 524 1032 L 528 1032 M 520 1032 L 528 1032 M 520 1032 L 528 1032 M 532 1032 L 528 1032 M 532 1032 L 536 1032 M 528 1032 L 536 1032 M 528 1032 L 536 1032 M 540 1036 A 4 4 0 0 0 536 1032 M 68 1040 L 68 1072 M 20 1072 L 20 1076 A 4 4 0 0 0 24 1080 M 20 1076 L 20 1072 M 28 1080 L 24 1080 M 28 1080 L 32 1080 M 24 1080 L 32 1080 M 24 1080 L 32 1080 M 36 1080 L 32 1080 M 36 1080 L 40 1080 M 32 1080 L 40 1080 M 32 1080 L 40 1080 M 44 1080 L 40 1080 M 44 1080 L 48 1080 M 40 1080 L 48 1080 M 40 1080 L 48 1080 M 52 1080 L 48 1080 M 52 1080 L 56 1080 M 48 1080 L 56 1080 M 48 1080 L 56 1080 M 60 1080 L 56 1080 M 60 1080 L 64 1080 M 56 1080 L 64 1080 M 56 1080 L 64 1080 M 68 1072 L 68 1076 L 68 1072 M 64 1080 A 4 4 0 0 0 68 1076 M 28 1132 L 28 1152 M 32 1128 A 4 4 0 0 0 28 1132 L 28 1152 M 36 1128 L 32 1128 M 36 1128 L 40 1128 M 32 1128 L 40 1128 M 32 1128 L 40 1128 M 44 1128 L 40 1128 M 44 1128 L 48 1128 M 40 1128 L 48 1128 M 40 1128 L 48 1128 M 52 1128 L 48 1128 M 52 1128 L 56 1128 M 48 1128 L 56 1128 M 48 1128 L 56 1128 M 60 1128 L 56 1128 M 60 1128 L 64 1128 M 56 1128 L 64 1128 M 56 1128 L 64 1128 M 68 1128 L 64 1128 M 68 1128 L 72 1128 M 64 1128 L 72 1128 M 64 1128 L 72 1128 M 76 1128 L 72 1128 M 76 1128 L 80 1128 M 72 1128 L 80 1128 M 72 1128 L 80 1128 M 84 1128 L 80 1128 M 84 1128 L 88 1128 M 80 1128 L 88 1128 M 80 1128 L 88 1128 M 92 1128 L 88 1128 M 92 1128 L 96 1128 M 88 1128 L 96 1128 M 88 1128 L 96 1128 M 100 1128 L 96 1128 M 100 1128 L 104 1128 M 96 1128 L 104 1128 M 96 1128 L 104 1128 M 108 1128 L 104 1128 M 108 1128 L 112 1128 M 104 1128 L 112 1128 M 104 1128 L 112 1128 M 116 1128 L 112 1128 M 116 1128 L 120 1128 M 112 1128 L 120 1128 M 112 1128 L 120 1128 M 124 1128 L 120 1128 M 124 1128 L 128 1128 M 120 1128 L 128 1128 M 120 1128 L 128 1128 M 132 1128 L 128 1128 M 132 1128 L 136 1128 M 128 1128 L 136 1128 M 128 1128 L 136 1128 M 140 1128 L 136 1128 M 140 1128 L 144 1128 M 136 1128 L 144 1128 M 136 1128 L 144 1128 M 148 1128 L 144 1128 M 148 1128 L 152 1128 M 144 1128 L 152 1128 M 144 1128 L 152 1128 M 156 1128 L 152 1128 M 156 1128 L 160 1128 M 152 1128 L 160 1128 M 152 1128 L 160 1128 M 164 1128 L 160 1128 M 164 1128 L 168 1128 M 160 1128 L 168 1128 M 160 1128 L 168 1128 M 172 1128 L 168 1128 M 172 1128 L 176 1128 M 168 1128 L 176 1128 M 168 1128 L 176 1128 M 180 1128 L 176 1128 M 180 1128 L 184 1128 M 176 1128 L 184 1128 M 176 1128 L 184 1128 M 188 1132 L 188 1152 M 188 1132 L 188 1152 M 188 1132 A 4 4 0 0 0 184 1128 M 212 1132 L 212 1152 M 216 1128 A 4 4 0 0 0 212 1132 L 212 1152 M 220 1128 L 216 1128 M 220 1128 L 224 1128 M 216 1128 L 224 1128 M 216 1128 L 224 1128 M 228 1128 L 224 1128 M 228 1128 L 232 1128 M 224 1128 L 232 1128 M 224 1128 L 232 1128 M 236 1128 L 232 1128 M 236 1128 L 240 1128 M 232 1128 L 240 1128 M 232 1128 L 240 1128 M 244 1128 L 240 1128 M 244 1128 L 248 1128 M 240 1128 L 248 1128 M 240 1128 L 248 1128 M 252 1128 L 248 1128 M 252 1128 L 256 1128 M 248 1128 L 256 1128 M 248 1128 L 256 1128 M 260 1128 L 256 1128 M 260 1128 L 264 1128 M 256 1128 L 264 1128 M 256 1128 L 264 1128 M 268 1128 L 264 1128 M 268 1128 L 272 1128 M 264 1128 L 272 1128 M 264 1128 L 272 1128 M 276 1128 L 272 1128 M 276 1128 L 280 1128 M 272 1128 L 280 1128 M 272 1128 L 280 1128 M 284 1128 L 280 1128 M 284 1128 L 288 1128 M 280 1128 L 288 1128 M 280 1128 L 288 1128 M 292 1128 L 288 1128 M 292 1128 L 296 1128 M 288 1128 L 296 1128 M 288 1128 L 296 1128 M 300 1128 L 296 1128 M 300 1128 L 304 1128 M 296 1128 L 304 1128 M 296 1128 L 304 1128 M 308 1128 L 304 1128 M 308 1128 L 312 1128 M 304 1128 L 312 1128 M 304 1128 L 312 1128 M 316 1128 L 312 1128 M 316 1128 L 320 1128 M 312 1128 L 320 1128 M 312 1128 L 320 1128 M 324 1128 L 320 1128 M 324 1128 L 328 1128 M 320 1128 L 328 1128 M 320 1128 L 328 1128 M 332 1128 L 328 1128 M 332 1128 L 336 1128 M 328 1128 L 336 1128 M 328 1128 L 336 1128 M 340 1128 L 336 1128 M 340 1128 L 344 1128 M 336 1128 L 344 1128 M 336 1128 L 344 1128 M 348 1128 L 344 1128 M 348 1128 L 352 1128 M 344 1128 L 352 1128 M 344 1128 L 352 1128 M 356 1128 L 352 1128 M 356 1128 L 360 1128 M 352 1128 L 360 1128 M 352 1128 L 360 1128 M 364 1128 L 360 1128 M 364 1128 L 368 1128 M 360 1128 L 368 1128 M 360 1128 L 368 1128 M 372 1128 L 368 1128 M 372 1128 L 376 1128 M 368 1128 L 376 1128 M 368 1128 L 376 1128 M 380 1128 L 376 1128 M 380 1128 L 384 1128 M 376 1128 L 384 1128 M 376 1128 L 384 1128 M 388 1128 L 384 1128 M 388 1128 L 392 1128 M 384 1128 L 392 1128 M 384 1128 L 392 1128 M 396 1128 L 392 1128 M 396 1128 L 400 1128 M 392 1128 L 400 1128 M 392 1128 L 400 1128 M 404 1128 L 400 1128 M 404 1128 L 408 1128 M 400 1128 L 408 1128 M 400 1128 L 408 1128 M 412 1128 L 408 1128 M 412 1128 L 416 1128 M 408 1128 L 416 1128 M 408 1128 L 416 1128 M 420 1128 L 416 1128 M 420 1128 L 424 1128 M 416 1128 L 424 1128 M 416 1128 L 424 1128 M 428 1128 L 424 1128 M 428 1128 L 432 1128 M 424 1128 L 432 1128 M 424 1128 L 432 1128 M 436 1132 L 436 1152 M 436 1132 L 436 1152 M 436 1132 A 4 4 0 0 0 432 1128 M 460 1132 L 460 1168 M 464 1128 A 4 4 0 0 0 460 1132 L 460 1168 M 468 1128 L 464 1128 M 468 1128 L 472 1128 M 464 1128 L 472 1128 M 464 1128 L 472 1128 M 476 1128 L 472 1128 M 476 1128 L 480 1128 M 472 1128 L 480 1128 M 472 1128 L 480 1128 M 484 1128 L 480 1128 M 484 1128 L 488 1128 M 480 1128 L 488 1128 M 480 1128 L 488 1128 M 492 1128 L 488 1128 M 492 1128 L 496 1128 M 488 1128 L 496 1128 M 488 1128 L 496 1128 M 500 1128 L 496 1128 M 500 1128 L 504 1128 M 496 1128 L 504 1128 M 496 1128 L 504 1128 M 508 1128 L 504 1128 M 508 1128 L 512 1128 M 504 1128 L 512 1128 M 504 1128 L 512 1128 M 516 1128 L 512 1128 M 516 1128 L 520 1128 M 512 1128 L 520 1128 M 512 1128 L 520 1128 M 524 1128 L 520 1128 M 524 1128 L 528 1128 M 520 1128 L 528 1128 M 520 1128 L 528 1128 M 532 1128 L 528 1128 M 532 1128 L 536 1128 M 528 1128 L 536 1128 M 528 1128 L 536 1128 M 540 1128 L 536 1128 M 540 1128 L 544 1128 M 536 1128 L 544 1128 M 536 1128 L 544 1128 M 548 1128 L 544 1128 M 548 1128 L 552 1128 M 544 1128 L 552 1128 M 544 1128 L 552 1128 M 556 1128 L 552 1128 M 556 1128 L 560 1128 M 552 1128 L 560 1128 M 552 1128 L 560 1128 M 564 1128 L 560 1128 M 564 1128 L 568 1128 M 560 1128 L 568 1128 M 560 1128 L 568 1128 M 572 1128 L 568 1128 M 572 1128 L 576 1128 M 568 1128 L 576 1128 M 568 1128 L 576 1128 M 580 1128 L 576 1128 M 580 1128 L 584 1128 M 576 1128 L 584 1128 M 576 1128 L 584 1128 M 588 1128 L 584 1128 M 588 1128 L 592 1128 M 584 1128 L 592 1128 M 584 1128 L 592 1128 M 596 1128 L 592 1128 M 596 1128 L 600 1128 M 592 1128 L 600 1128 M 592 1128 L 600 1128 M 604 1128 L 600 1128 M 604 1128 L 608 1128 M 600 1128 L 608 1128 M 600 1128 L 608 1128 M 612 1128 L 608 1128 M 612 1128 L 616 1128 M 608 1128 L 616 1128 M 608 1128 L 616 1128 M 620 1132 L 620 1168 M 620 1132 L 620 1168 M 620 1132 A 4 4 0 0 0 616 1128 M 28 1136 L 28 1152 M 188 1136 L 188 1152 M 212 1136 L 212 1152 M 436 1136 L 436 1152 M 460 1136 L 460 1168 M 620 1136 L 620 1168 M 28 1152 L 28 1156 A 4 4 0 0 0 32 1160 M 28 1156 L 28 1152 M 36 1160 L 32 1160 M 36 1160 L 40 1160 M 32 1160 L 40 1160 M 32 1160 L 40 1160 M 44 1160 L 40 1160 M 44 1160 L 48 1160 M 40 1160 L 48 1160 M 40 1160 L 48 1160 M 52 1160 L 48 1160 M 52 1160 L 56 1160 M 48 1160 L 56 1160 M 48 1160 L 56 1160 M 60 1160 L 56 1160 M 60 1160 L 64 1160 M 56 1160 L 64 1160 M 56 1160 L 64 1160 M 68 1160 L 64 1160 M 68 1160 L 72 1160 M 64 1160 L 72 1160 M 64 1160 L 72 1160 M 76 1160 L 72 1160 M 76 1160 L 80 1160 M 72 1160 L 80 1160 M 72 1160 L 80 1160 M 84 1160 L 80 1160 M 84 1160 L 88 1160 M 80 1160 L 88 1160 M 80 1160 L 88 1160 M 92 1160 L 88 1160 M 92 1160 L 96 1160 M 88 1160 L 96 1160 M 88 1160 L 96 1160 M 100 1160 L 96 1160 M 100 1160 L 104 1160 M 96 1160 L 104 1160 M 96 1160 L 104 1160 M 108 1160 L 104 1160 M 108 1160 L 112 1160 M 104 1160 L 112 1160 M 104 1160 L 112 1160 M 116 1160 L 112 1160 M 116 1160 L 120 1160 M 112 1160 L 120 1160 M 112 1160 L 120 1160 M 124 1160 L 120 1160 M 124 1160 L 128 1160 M 120 1160 L 128 1160 M 120 1160 L 128 1160 M 132 1160 L 128 1160 M 132 1160 L 136 1160 M 128 1160 L 136 1160 M 128 1160 L 136 1160 M 140 1160 L 136 1160 M 140 1160 L 144 1160 M 136 1160 L 144 1160 M 136 1160 L 144 1160 M 148 1160 L 144 1160 M 148 1160 L 152 1160 M 144 1160 L 152 1160 M 144 1160 L 152 1160 M 156 1160 L 152 1160 M 156 1160 L 160 1160 M 152 1160 L 160 1160 M 152 1160 L 160 1160 M 164 1160 L 160 1160 M 164 1160 L 168 1160 M 160 1160 L 168 1160 M 160 1160 L 168 1160 M 172 1160 L 168 1160 M 172 1160 L 176 1160 M 168 1160 L 176 1160 M 168 1160 L 176 1160 M 180 1160 L 176 1160 M 180 1160 L 184 1160 M 176 1160 L 184 1160 M 176 1160 L 184 1160 M 188 1152 L 188 1156 L 188 1152 M 184 1160 A 4 4 0 0 0 188 1156 M 212 1160 L 216 1160 M 212 1152 L 212 1184 M 220 1160 L 224 1160 M 216 1160 L 224 1160 M 216 1160 L 224 1160 M 228 1160 L 224 1160 M 228 1160 L 232 1160 M 224 1160 L 232 1160 M 224 1160 L 232 1160 M 236 1160 L 232 1160 M 236 1160 L 240 1160 M 232 1160 L 240 1160 M 232 1160 L 240 1160 M 244 1160 L 240 1160 M 244 1160 L 248 1160 M 240 1160 L 248 1160 M 240 1160 L 248 1160 M 252 1160 L 248 1160 M 252 1160 L 256 1160 M 248 1160 L 256 1160 M 248 1160 L 256 1160 M 260 1160 L 256 1160 M 260 1160 L 264 1160 M 256 1160 L 264 1160 M 256 1160 L 264 1160 M 268 1160 L 264 1160 M 268 1160 L 272 1160 M 264 1160 L 272 1160 M 264 1160 L 272 1160 M 276 1160 L 272 1160 M 276 1160 L 280 1160 M 272 1160 L 280 1160 M 272 1160 L 280 1160 M 284 1160 L 280 1160 M 284 1160 L 288 1160 M 280 1160 L 288 1160 M 280 1160 L 288 1160 M 292 1160 L 288 1160 M 292 1160 L 296 1160 M 288 1160 L 296 1160 M 288 1160 L 296 1160 M 300 1160 L 296 1160 M 300 1160 L 304 1160 M 296 1160 L 304 1160 M 296 1160 L 304 1160 M 308 1160 L 304 1160 M 308 1160 L 312 1160 M 304 1160 L 312 1160 M 304 1160 L 312 1160 M 316 1160 L 312 1160 M 316 1160 L 320 1160 M 312 1160 L 320 1160 M 312 1160 L 320 1160 M 324 1160 L 320 1160 M 324 1160 L 328 1160 M 320 1160 L 328 1160 M 320 1160 L 328 1160 M 332 1160 L 328 1160 M 332 1160 L 336 1160 M 328 1160 L 336 1160 M 328 1160 L 336 1160 M 340 1160 L 336 1160 M 340 1160 L 344 1160 M 336 1160 L 344 1160 M 336 1160 L 344 1160 M 348 1160 L 344 1160 M 348 1160 L 352 1160 M 344 1160 L 352 1160 M 344 1160 L 352 1160 M 356 1160 L 352 1160 M 356 1160 L 360 1160 M 352 1160 L 360 1160 M 352 1160 L 360 1160 M 364 1160 L 360 1160 M 364 1160 L 368 1160 M 360 1160 L 368 1160 M 360 1160 L 368 1160 M 372 1160 L 368 1160 M 372 1160 L 376 1160 M 368 1160 L 376 1160 M 368 1160 L 376 1160 M 380 1160 L 376 1160 M 380 1160 L 384 1160 M 376 1160 L 384 1160 M 376 1160 L 384 1160 M 388 1160 L 384 1160 M 388 1160 L 392 1160 M 384 1160 L 392 1160 M 384 1160 L 392 1160 M 396 1160 L 392 1160 M 396 1160 L 400 1160 M 392 1160 L 400 1160 M 392 1160 L 400 1160 M 404 1160 L 400 1160 M 404 1160 L 408 1160 M 400 1160 L 408 1160 M 400 1160 L 408 1160 M 412 1160 L 408 1160 M 412 1160 L 416 1160 M 408 1160 L 416 1160 M 408 1160 L 416 1160 M 420 1160 L 416 1160 M 420 1160 L 424 1160 M 416 1160 L 424 1160 M 416 1160 L 424 1160 M 428 1160 L 424 1160 L 432 1160 M 424 1160 L 432 1160 L 436 1160 M 436 1152 L 436 1232 M 108 1168 L 108 1184 M 212 1168 L 212 1184 M 292 1180 L 292 1200 M 296 1176 A 4 4 0 0 0 292 1180 L 292 1200 M 300 1176 L 296 1176 M 300 1176 L 304 1176 M 296 1176 L 304 1176 M 296 1176 L 304 1176 M 308 1176 L 304 1176 M 308 1176 L 312 1176 M 304 1176 L 312 1176 M 304 1176 L 312 1176 M 316 1176 L 312 1176 M 316 1176 L 320 1176 M 312 1176 L 320 1176 M 312 1176 L 320 1176 M 324 1176 L 320 1176 M 324 1176 L 328 1176 M 320 1176 L 328 1176 M 320 1176 L 328 1176 M 332 1176 L 328 1176 M 332 1176 L 336 1176 M 328 1176 L 336 1176 M 328 1176 L 336 1176 M 340 1180 L 340 1200 M 340 1180 L 340 1200 M 340 1180 A 4 4 0 0 0 336 1176 M 436 1168 L 436 1232 M 460 1168 L 460 1172 A 4 4 0 0 0 464 1176 M 460 1172 L 460 1168 M 468 1176 L 464 1176 M 468 1176 L 472 1176 M 464 1176 L 472 1176 M 464 1176 L 472 1176 M 476 1176 L 472 1176 M 476 1176 L 480 1176 M 472 1176 L 480 1176 M 472 1176 L 480 1176 M 484 1176 L 480 1176 M 484 1176 L 488 1176 M 480 1176 L 488 1176 M 480 1176 L 488 1176 M 492 1176 L 488 1176 M 492 1176 L 496 1176 M 488 1176 L 496 1176 M 488 1176 L 496 1176 M 500 1176 L 496 1176 M 500 1176 L 504 1176 M 496 1176 L 504 1176 M 496 1176 L 504 1176 M 508 1176 L 504 1176 M 508 1176 L 512 1176 M 504 1176 L 512 1176 M 504 1176 L 512 1176 M 516 1176 L 512 1176 M 516 1176 L 520 1176 M 512 1176 L 520 1176 M 512 1176 L 520 1176 M 524 1176 L 520 1176 M 524 1176 L 528 1176 M 520 1176 L 528 1176 M 520 1176 L 528 1176 M 532 1176 L 528 1176 M 532 1176 L 536 1176 M 528 1176 L 536 1176 M 528 1176 L 536 1176 M 540 1176 L 536 1176 M 540 1176 L 544 1176 M 536 1176 L 544 1176 M 536 1176 L 544 1176 M 548 1176 L 544 1176 M 548 1176 L 552 1176 M 544 1176 L 552 1176 M 544 1176 L 552 1176 M 556 1176 L 552 1176 M 556 1176 L 560 1176 M 552 1176 L 560 1176 M 552 1176 L 560 1176 M 564 1176 L 560 1176 M 564 1176 L 568 1176 M 560 1176 L 568 1176 M 560 1176 L 568 1176 M 572 1176 L 568 1176 M 572 1176 L 576 1176 M 568 1176 L 576 1176 M 568 1176 L 576 1176 M 580 1176 L 576 1176 M 580 1176 L 584 1176 M 576 1176 L 584 1176 M 576 1176 L 584 1176 M 588 1176 L 584 1176 M 588 1176 L 592 1176 M 584 1176 L 592 1176 M 584 1176 L 592 1176 M 596 1176 L 592 1176 M 596 1176 L 600 1176 M 592 1176 L 600 1176 M 592 1176 L 600 1176 M 604 1176 L 600 1176 M 604 1176 L 608 1176 M 600 1176 L 608 1176 M 600 1176 L 608 1176 M 612 1176 L 608 1176 M 612 1176 L 616 1176 M 608 1176 L 616 1176 M 608 1176 L 616 1176 M 620 1168 L 620 1172 L 620 1168 M 616 1176 A 4 4 0 0 0 620 1172 M 108 1184 L 108 1188 A 4 4 0 0 0 112 1192 M 108 1188 L 108 1184 M 116 1192 L 112 1192 M 116 1192 L 120 1192 M 112 1192 L 120 1192 M 112 1192 L 120 1192 M 124 1192 L 120 1192 M 124 1192 L 128 1192 M 120 1192 L 128 1192 M 120 1192 L 128 1192 M 132 1192 L 128 1192 M 132 1192 L 136 1192 M 128 1192 L 136 1192 M 128 1192 L 136 1192 M 140 1192 L 136 1192 M 140 1192 L 144 1192 M 136 1192 L 144 1192 M 136 1192 L 144 1192 M 148 1192 L 144 1192 M 148 1192 L 152 1192 M 144 1192 L 152 1192 M 144 1192 L 152 1192 M 156 1192 L 152 1192 M 156 1192 L 160 1192 M 152 1192 L 160 1192 M 152 1192 L 160 1192 M 164 1192 L 160 1192 M 164 1192 L 168 1192 M 160 1192 L 168 1192 M 160 1192 L 168 1192 M 172 1192 L 168 1192 M 172 1192 L 176 1192 M 168 1192 L 176 1192 M 168 1192 L 176 1192 M 180 1192 L 176 1192 M 180 1192 L 184 1192 M 176 1192 L 184 1192 M 176 1192 L 184 1192 M 188 1192 L 184 1192 M 188 1192 L 192 1192 M 184 1192 L 192 1192 M 184 1192 L 192 1192 M 196 1192 L 192 1192 M 196 1192 L 200 1192 M 192 1192 L 200 1192 M 192 1192 L 200 1192 M 204 1192 L 200 1192 M 204 1192 L 208 1192 M 200 1192 L 208 1192 M 200 1192 L 208 1192 M 212 1184 L 212 1192 L 212 1264 M 212 1192 L 208 1192 M 212 1192 L 216 1192 M 220 1192 L 216 1192 M 220 1192 L 224 1192 M 216 1192 L 224 1192 M 216 1192 L 224 1192 M 228 1192 L 224 1192 M 228 1192 L 232 1192 M 224 1192 L 232 1192 M 224 1192 L 232 1192 M 236 1192 L 232 1192 M 236 1192 L 240 1192 M 232 1192 L 240 1192 M 232 1192 L 240 1192 M 244 1192 L 240 1192 M 244 1192 L 248 1192 M 240 1192 L 248 1192 M 240 1192 L 248 1192 M 252 1192 L 248 1192 M 252 1192 L 256 1192 M 248 1192 L 256 1192 M 248 1192 L 256 1192 M 260 1192 L 256 1192 M 260 1192 L 264 1192 M 256 1192 L 264 1192 M 256 1192 L 264 1192 M 268 1192 L 264 1192 M 268 1192 L 272 1192 M 264 1192 L 272 1192 M 264 1192 L 272 1192 M 276 1192 L 272 1192 M 292 1184 L 292 1200 M 340 1184 L 340 1200 M 548 1184 L 548 1232 M 212 1200 L 212 1264 M 292 1200 L 292 1204 A 4 4 0 0 0 296 1208 M 292 1204 L 292 1200 M 300 1208 L 296 1208 M 300 1208 L 304 1208 M 296 1208 L 304 1208 M 296 1208 L 304 1208 M 308 1208 L 304 1208 M 308 1208 L 312 1208 M 304 1208 L 312 1208 M 304 1208 L 312 1208 M 316 1208 L 312 1208 M 316 1208 L 320 1208 M 312 1208 L 320 1208 M 312 1208 L 320 1208 M 324 1208 L 320 1208 M 324 1208 L 328 1208 M 320 1208 L 328 1208 M 320 1208 L 328 1208 M 332 1208 L 328 1208 M 332 1208 L 336 1208 M 328 1208 L 336 1208 M 328 1208 L 336 1208 M 340 1200 L 340 1204 L 340 1200 M 336 1208 A 4 4 0 0 0 340 1204 M 256 1224 A 8 8 0 0 0 250 1228 L 248 1232 M 260 1224 L 256 1224 M 260 1224 L 264 1224 M 256 1224 L 264 1224 M 256 1224 L 264 1224 M 268 1224 L 264 1224 M 268 1224 L 272 1224 M 264 1224 L 272 1224 M 264 1224 L 272 1224 M 276 1224 L 272 1224 M 276 1224 L 280 1224 M 272 1224 L 280 1224 M 272 1224 L 280 1224 M 284 1224 L 280 1224 M 284 1224 L 288 1224 M 280 1224 L 288 1224 M 280 1224 L 288 1224 M 292 1224 L 288 1224 M 292 1224 L 296 1224 M 288 1224 L 296 1224 M 288 1224 L 296 1224 M 300 1224 L 296 1224 M 300 1224 L 304 1224 M 296 1224 L 304 1224 M 296 1224 L 304 1224 M 308 1224 L 304 1224 M 308 1224 L 312 1224 M 304 1224 L 312 1224 M 304 1224 L 312 1224 M 316 1224 L 312 1224 M 316 1224 L 320 1224 M 312 1224 L 320 1224 M 312 1224 L 320 1224 M 324 1224 L 320 1224 M 324 1224 L 328 1224 M 320 1224 L 328 1224 M 320 1224 L 328 1224 M 332 1224 L 328 1224 M 332 1224 L 336 1224 M 328 1224 L 336 1224 M 328 1224 L 336 1224 M 340 1224 L 336 1224 M 340 1224 L 344 1224 M 336 1224 L 344 1224 M 336 1224 L 344 1224 M 348 1224 L 344 1224 M 348 1224 L 352 1224 M 344 1224 L 352 1224 M 344 1224 L 352 1224 M 356 1224 L 352 1224 M 356 1224 L 360 1224 M 352 1224 L 360 1224 M 352 1224 L 360 1224 M 364 1224 L 360 1224 M 364 1224 L 368 1224 M 360 1224 L 368 1224 M 360 1224 L 368 1224 M 372 1224 L 368 1224 M 372 1224 L 376 1224 M 368 1224 L 376 1224 M 368 1224 L 376 1224 M 380 1224 L 376 1224 M 380 1224 L 384 1224 M 376 1224 L 384 1224 M 376 1224 L 384 1224 M 388 1224 L 384 1224 M 388 1224 L 392 1224 M 384 1224 L 392 1224 M 384 1224 L 392 1224 M 396 1224 L 392 1224 M 396 1224 L 400 1224 M 392 1224 L 400 1224 M 392 1224 L 400 1224 M 400 1232 L 402 1228 A 4 4 0 0 0 400 1224 M 248 1232 L 240 1248 M 400 1232 L 392 1248 M 412 1240 L 416 1240 M 408 1240 L 416 1240 M 408 1240 L 416 1240 M 420 1240 L 416 1240 M 420 1240 L 424 1240 M 416 1240 L 424 1240 M 416 1240 L 424 1240 M 428 1240 L 424 1240 M 428 1240 L 432 1240 M 424 1240 L 432 1240 M 424 1240 L 432 1240 M 436 1232 L 436 1240 L 436 1264 M 436 1240 L 432 1240 M 436 1240 L 440 1240 M 444 1240 L 440 1240 M 444 1240 L 448 1240 M 440 1240 L 448 1240 M 440 1240 L 448 1240 M 452 1240 L 448 1240 M 452 1240 L 456 1240 M 448 1240 L 456 1240 M 448 1240 L 456 1240 M 460 1240 L 456 1240 M 460 1240 L 464 1240 M 456 1240 L 464 1240 M 456 1240 L 464 1240 M 468 1240 L 464 1240 M 468 1240 L 472 1240 M 464 1240 L 472 1240 M 464 1240 L 472 1240 M 476 1240 L 472 1240 M 476 1240 L 480 1240 M 472 1240 L 480 1240 M 472 1240 L 480 1240 M 484 1240 L 480 1240 M 484 1240 L 488 1240 M 480 1240 L 488 1240 M 480 1240 L 488 1240 M 492 1240 L 488 1240 M 492 1240 L 496 1240 M 488 1240 L 496 1240 M 488 1240 L 496 1240 M 500 1240 L 496 1240 M 500 1240 L 504 1240 M 496 1240 L 504 1240 M 496 1240 L 504 1240 M 508 1240 L 504 1240 M 508 1240 L 512 1240 M 504 1240 L 512 1240 M 504 1240 L 512 1240 M 516 1240 L 512 1240 M 516 1240 L 520 1240 M 512 1240 L 520 1240 M 512 1240 L 520 1240 M 524 1240 L 520 1240 M 524 1240 L 528 1240 M 520 1240 L 528 1240 M 520 1240 L 528 1240 M 532 1240 L 528 1240 M 532 1240 L 536 1240 M 528 1240 L 536 1240 M 528 1240 L 536 1240 M 540 1240 L 536 1240 M 540 1240 L 544 1240 M 536 1240 L 544 1240 M 536 1240 L 544 1240 M 548 1232 L 548 1236 L 548 1232 M 544 1240 A 4 4 0 0 0 548 1236 M 240 1248 L 238 1252 A 4 4 0 0 0 240 1256 M 244 1256 L 240 1256 M 244 1256 L 248 1256 M 240 1256 L 248 1256 M 240 1256 L 248 1256 M 252 1256 L 248 1256 M 252 1256 L 256 1256 M 248 1256 L 256 1256 M 248 1256 L 256 1256 M 260 1256 L 256 1256 M 260 1256 L 264 1256 M 256 1256 L 264 1256 M 256 1256 L 264 1256 M 268 1256 L 264 1256 M 268 1256 L 272 1256 M 264 1256 L 272 1256 M 264 1256 L 272 1256 M 276 1256 L 272 1256 M 276 1256 L 280 1256 M 272 1256 L 280 1256 M 272 1256 L 280 1256 M 284 1256 L 280 1256 M 284 1256 L 288 1256 M 280 1256 L 288 1256 M 280 1256 L 288 1256 M 292 1256 L 288 1256 M 292 1256 L 296 1256 M 288 1256 L 296 1256 M 288 1256 L 296 1256 M 300 1256 L 296 1256 M 300 1256 L 304 1256 M 296 1256 L 304 1256 M 296 1256 L 304 1256 M 308 1256 L 304 1256 M 308 1256 L 312 1256 M 304 1256 L 312 1256 M 304 1256 L 312 1256 M 316 1256 L 312 1256 M 316 1256 L 320 1256 M 312 1256 L 320 1256 M 312 1256 L 320 1256 M 324 1256 L 320 1256 M 324 1256 L 328 1256 M 320 1256 L 328 1256 M 320 1256 L 328 1256 M 332 1256 L 328 1256 M 332 1256 L 336 1256 M 328 1256 L 336 1256 M 328 1256 L 336 1256 M 340 1256 L 336 1256 M 340 1256 L 344 1256 M 336 1256 L 344 1256 M 336 1256 L 344 1256 M 348 1256 L 344 1256 M 348 1256 L 352 1256 M 344 1256 L 352 1256 M 344 1256 L 352 1256 M 356 1256 L 352 1256 M 356 1256 L 360 1256 M 352 1256 L 360 1256 M 352 1256 L 360 1256 M 364 1256 L 360 1256 M 364 1256 L 368 1256 M 360 1256 L 368 1256 M 360 1256 L 368 1256 M 372 1256 L 368 1256 M 372 1256 L 376 1256 M 368 1256 L 376 1256 M 368 1256 L 376 1256 M 380 1256 L 376 1256 M 380 1256 L 384 1256 M 376 1256 L 384 1256 M 376 1256 L 384 1256 A 8 8 0 0 0 390 1252 L 392 1248 M 436 1248 L 436 1264 M 212 1264 L 212 1268 A 4 4 0 0 0 216 1272 M 212 1268 L 212 1264 M 220 1272 L 216 1272 M 220 1272 L 224 1272 M 216 1272 L 224 1272 M 216 1272 L 224 1272 M 228 1272 L 224 1272 M 228 1272 L 232 1272 M 224 1272 L 232 1272 M 224 1272 L 232 1272 M 236 1272 L 232 1272 M 236 1272 L 240 1272 M 232 1272 L 240 1272 M 232 1272 L 240 1272 M 244 1272 L 240 1272 M 244 1272 L 248 1272 M 240 1272 L 248 1272 M 240 1272 L 248 1272 M 252 1272 L 248 1272 M 252 1272 L 256 1272 M 248 1272 L 256 1272 M 248 1272 L 256 1272 M 260 1272 L 256 1272 M 260 1272 L 264 1272 M 256 1272 L 264 1272 M 256 1272 L 264 1272 M 268 1272 L 264 1272 M 268 1272 L 272 1272 M 264 1272 L 272 1272 M 264 1272 L 272 1272 M 276 1272 L 272 1272 M 276 1272 L 280 1272 M 272 1272 L 280 1272 M 272 1272 L 280 1272 M 284 1272 L 280 1272 M 284 1272 L 288 1272 M 280 1272 L 288 1272 M 280 1272 L 288 1272 M 292 1272 L 288 1272 M 292 1272 L 296 1272 M 288 1272 L 296 1272 M 288 1272 L 296 1272 M 300 1272 L 296 1272 M 300 1272 L 304 1272 M 296 1272 L 304 1272 M 296 1272 L 304 1272 M 308 1272 L 304 1272 M 308 1272 L 312 1272 M 304 1272 L 312 1272 M 304 1272 L 312 1272 M 316 1272 L 312 1272 M 316 1272 L 320 1272 M 312 1272 L 320 1272 M 312 1272 L 320 1272 M 324 1272 L 320 1272 M 324 1272 L 328 1272 M 320 1272 L 328 1272 M 320 1272 L 328 1272 M 332 1272 L 328 1272 M 332 1272 L 336 1272 M 328 1272 L 336 1272 M 328 1272 L 336 1272 M 340 1272 L 336 1272 M 340 1272 L 344 1272 M 336 1272 L 344 1272 M 336 1272 L 344 1272 M 348 1272 L 344 1272 M 348 1272 L 352 1272 M 344 1272 L 352 1272 M 344 1272 L 352 1272 M 356 1272 L 352 1272 M 356 1272 L 360 1272 M 352 1272 L 360 1272 M 352 1272 L 360 1272 M 364 1272 L 360 1272 M 364 1272 L 368 1272 M 360 1272 L 368 1272 M 360 1272 L 368 1272 M 372 1272 L 368 1272 M 372 1272 L 376 1272 M 368 1272 L 376 1272 M 368 1272 L 376 1272 M 380 1272 L 376 1272 M 380 1272 L 384 1272 M 376 1272 L 384 1272 M 376 1272 L 384 1272 M 388 1272 L 384 1272 M 388 1272 L 392 1272 M 384 1272 L 392 1272 M 384 1272 L 392 1272 M 396 1272 L 392 1272 M 396 1272 L 400 1272 M 392 1272 L 400 1272 M 392 1272 L 400 1272 M 404 1272 L 400 1272 M 404 1272 L 408 1272 M 400 1272 L 408 1272 M 400 1272 L 408 1272 M 412 1272 L 408 1272 M 412 1272 L 416 1272 M 408 1272 L 416 1272 M 408 1272 L 416 1272 M 420 1272 L 416 1272 M 420 1272 L 424 1272 M 416 1272 L 424 1272 M 416 1272 L 424 1272 M 428 1272 L 424 1272 M 428 1272 L 432 1272 M 424 1272 L 432 1272 M 424 1272 L 432 1272 M 436 1264 L 436 1268 L 436 1264 M 432 1272 A 4 4 0 0 0 436 1268 M 72 1304 A 4 4 0 0 0 70 1308 L 80 1328 M 76 1304 L 72 1304 M 76 1304 L 80 1304 M 72 1304 L 80 1304 M 72 1304 L 80 1304 M 84 1304 L 80 1304 M 84 1304 L 88 1304 M 80 1304 L 88 1304 M 80 1304 L 88 1304 M 92 1304 L 88 1304 M 92 1304 L 96 1304 M 88 1304 L 96 1304 M 88 1304 L 96 1304 M 100 1304 L 96 1304 M 100 1304 L 104 1304 M 96 1304 L 104 1304 M 96 1304 L 104 1304 M 108 1304 L 104 1304 M 108 1304 L 112 1304 M 104 1304 L 112 1304 M 104 1304 L 112 1304 M 116 1304 L 112 1304 M 116 1304 L 120 1304 M 112 1304 L 120 1304 M 112 1304 L 120 1304 M 124 1304 L 120 1304 M 124 1304 L 128 1304 M 120 1304 L 128 1304 M 120 1304 L 128 1304 M 132 1304 L 128 1304 M 132 1304 L 136 1304 M 128 1304 L 136 1304 M 128 1304 L 136 1304 M 140 1304 L 136 1304 M 140 1304 L 144 1304 M 136 1304 L 144 1304 M 136 1304 L 144 1304 M 148 1304 L 144 1304 M 148 1304 L 152 1304 M 144 1304 L 152 1304 M 144 1304 L 152 1304 M 156 1304 L 152 1304 M 156 1304 L 160 1304 M 152 1304 L 160 1304 M 152 1304 L 160 1304 M 164 1304 L 160 1304 M 164 1304 L 168 1304 M 160 1304 L 168 1304 M 160 1304 L 168 1304 M 172 1304 L 168 1304 M 172 1304 L 176 1304 M 168 1304 L 176 1304 M 168 1304 L 176 1304 M 180 1304 L 176 1304 M 180 1304 L 184 1304 M 176 1304 L 184 1304 M 176 1304 L 184 1304 M 190 1308 A 8 8 0 0 0 184 1304 M 190 1308 L 200 1328 M 72 1312 L 80 1328 M 192 1312 L 200 1328 M 80 1328 L 82 1332 A 8 8 0 0 0 88 1336 M 92 1336 L 88 1336 M 92 1336 L 96 1336 M 88 1336 L 96 1336 M 88 1336 L 96 1336 M 100 1336 L 96 1336 M 100 1336 L 104 1336 M 96 1336 L 104 1336 M 96 1336 L 104 1336 M 108 1336 L 104 1336 M 108 1336 L 112 1336 M 104 1336 L 112 1336 M 104 1336 L 112 1336 M 116 1336 L 112 1336 M 116 1336 L 120 1336 M 112 1336 L 120 1336 M 112 1336 L 120 1336 M 124 1336 L 120 1336 M 124 1336 L 128 1336 M 120 1336 L 128 1336 M 120 1336 L 128 1336 M 132 1336 L 128 1336 M 132 1336 L 136 1336 M 128 1336 L 136 1336 M 128 1336 L 136 1336 M 140 1336 L 136 1336 M 140 1336 L 144 1336 M 136 1336 L 144 1336 M 136 1336 L 144 1336 M 148 1336 L 144 1336 M 148 1336 L 152 1336 M 144 1336 L 152 1336 M 144 1336 L 152 1336 M 156 1336 L 152 1336 M 156 1336 L 160 1336 M 152 1336 L 160 1336 M 152 1336 L 160 1336 M 164 1336 L 160 1336 M 164 1336 L 168 1336 M 160 1336 L 168 1336 M 160 1336 L 168 1336 M 172 1336 L 168 1336 M 172 1336 L 176 1336 M 168 1336 L 176 1336 M 168 1336 L 176 1336 M 180 1336 L 176 1336 M 180 1336 L 184 1336 M 176 1336 L 184 1336 M 176 1336 L 184 1336 M 188 1336 L 184 1336 M 188 1336 L 192 1336 M 184 1336 L 192 1336 M 184 1336 L 192 1336 M 196 1336 L 192 1336 M 196 1336 L 200 1336 M 192 1336 L 200 1336 M 192 1336 L 200 1336 A 4 4 0 0 0 202 1332 L 200 1328 M 328 1368 A 8 8 0 0 0 322 1372 L 320 1376 M 332 1368 L 328 1368 M 332 1368 L 336 1368 M 328 1368 L 336 1368 M 328 1368 L 336 1368 M 340 1368 L 336 1368 M 320 1376 L 312 1392 M 306 1404 L 312 1392 M 312 1400 A 8 8 0 0 0 306 1404 L 304 1408 M 316 1400 L 312 1400 M 316 1400 L 320 1400 M 312 1400 L 320 1400 M 312 1400 L 320 1400 M 324 1400 L 320 1400 M 324 1400 L 328 1400 M 320 1400 L 328 1400 M 320 1400 L 328 1400 M 332 1400 L 328 1400 M 332 1400 L 336 1400 M 328 1400 L 336 1400 M 328 1400 L 336 1400 M 340 1400 L 336 1400 M 132 1416 L 136 1416 M 128 1416 L 136 1416 M 128 1416 L 136 1416 M 140 1416 L 136 1416 M 140 1416 L 144 1416 M 136 1416 L 144 1416 M 136 1416 L 144 1416 M 148 1416 L 144 1416 M 148 1416 L 152 1416 M 144 1416 L 152 1416 M 144 1416 L 152 1416 M 156 1416 L 152 1416 M 156 1416 L 160 1416 M 152 1416 L 160 1416 M 152 1416 L 160 1416 M 164 1416 L 160 1416 M 164 1416 L 168 1416 M 160 1416 L 168 1416 M 160 1416 L 168 1416 M 172 1416 L 168 1416 M 172 1416 L 176 1416 M 168 1416 L 176 1416 M 168 1416 L 176 1416 M 180 1416 L 176 1416 M 180 1416 L 184 1416 M 176 1416 L 184 1416 M 176 1416 L 184 1416 M 190 1420 A 8 8 0 0 0 184 1416 M 190 1420 L 240 1520 M 304 1408 L 296 1424 M 376 1408 L 384 1424 M 192 1424 L 240 1520 M 296 1424 L 288 1440 M 392 1432 A 4 4 0 0 0 390 1436 L 400 1456 M 396 1432 L 392 1432 M 396 1432 L 400 1432 M 392 1432 L 400 1432 M 392 1432 L 400 1432 M 404 1432 L 400 1432 M 404 1432 L 408 1432 M 400 1432 L 408 1432 M 400 1432 L 408 1432 M 412 1432 L 408 1432 M 288 1440 L 280 1456 M 392 1440 L 400 1456 M 96 1456 L 128 1520 M 280 1456 L 272 1472 M 400 1456 L 402 1460 A 8 8 0 0 0 408 1464 M 412 1464 L 408 1464 M 412 1464 L 416 1464 M 408 1464 L 416 1464 M 408 1464 L 416 1464 M 420 1464 L 416 1464 M 272 1472 L 264 1488 M 258 1500 L 264 1488 M 264 1496 A 8 8 0 0 0 258 1500 L 256 1504 M 268 1496 L 264 1496 M 268 1496 L 272 1496 M 264 1496 L 272 1496 M 264 1496 L 272 1496 M 276 1496 L 272 1496 M 276 1496 L 280 1496 M 272 1496 L 280 1496 M 272 1496 L 280 1496 M 284 1496 L 280 1496 M 284 1496 L 288 1496 M 280 1496 L 288 1496 M 280 1496 L 288 1496 M 292 1496 L 288 1496 M 292 1496 L 296 1496 M 288 1496 L 296 1496 M 288 1496 L 296 1496 M 300 1496 L 296 1496 M 300 1496 L 304 1496 M 296 1496 L 304 1496 M 296 1496 L 304 1496 M 308 1496 L 304 1496 M 308 1496 L 312 1496 M 304 1496 L 312 1496 M 304 1496 L 312 1496 M 316 1496 L 312 1496 M 316 1496 L 320 1496 M 312 1496 L 320 1496 M 312 1496 L 320 1496 M 324 1496 L 320 1496 M 324 1496 L 328 1496 M 320 1496 L 328 1496 M 320 1496 L 328 1496 M 332 1496 L 328 1496 M 332 1496 L 336 1496 M 328 1496 L 336 1496 M 328 1496 L 336 1496 M 340 1496 L 336 1496 M 340 1496 L 344 1496 M 336 1496 L 344 1496 M 336 1496 L 344 1496 M 348 1496 L 344 1496 M 256 1504 L 248 1520 M 128 1520 L 130 1524 A 8 8 0 0 0 136 1528 M 140 1528 L 136 1528 M 140 1528 L 144 1528 M 136 1528 L 144 1528 M 136 1528 L 144 1528 M 148 1528 L 144 1528 M 148 1528 L 152 1528 M 144 1528 L 152 1528 M 144 1528 L 152 1528 M 156 1528 L 152 1528 M 156 1528 L 160 1528 M 152 1528 L 160 1528 M 152 1528 L 160 1528 M 164 1528 L 160 1528 M 164 1528 L 168 1528 M 160 1528 L 168 1528 M 160 1528 L 168 1528 M 172 1528 L 168 1528 M 172 1528 L 176 1528 M 168 1528 L 176 1528 M 168 1528 L 176 1528 M 180 1528 L 176 1528 L 184 1528 M 176 1528 L 184 1528 M 192 1536 L 184 1552 M 208 1536 L 288 1696 M 224 1536 L 280 1648 M 240 1536 L 264 1584 M 180 1568 L 180 1584 M 180 1596 L 180 1600 M 180 1596 L 180 1600 M 176 1600 L 178 1596 A 16 16 0 0 0 180 1588 L 180 1584 M 180 1592 L 180 1600 M 264 1584 L 266 1588 A 8 8 0 0 0 272 1592 M 276 1592 L 272 1592 M 276 1592 L 280 1592 M 272 1592 L 280 1592 M 272 1592 L 280 1592 M 284 1592 L 280 1592 M 284 1592 L 288 1592 M 280 1592 L 288 1592 M 280 1592 L 288 1592 M 292 1592 L 288 1592 L 296 1592 M 288 1592 L 296 1592 M 176 1600 L 180 1592 M 176 1600 L 168 1616 M 180 1600 L 180 1592 M 180 1600 L 180 1616 M 312 1600 L 320 1616 M 180 1616 L 180 1620 L 180 1616 M 320 1616 L 322 1620 A 8 8 0 0 0 328 1624 M 332 1624 L 328 1624 M 332 1624 L 336 1624 M 328 1624 L 336 1624 M 328 1624 L 336 1624 M 340 1624 L 336 1624 M 340 1624 L 344 1624 M 336 1624 L 344 1624 M 336 1624 L 344 1624 M 348 1624 L 344 1624 M 348 1624 L 352 1624 M 344 1624 L 352 1624 M 344 1624 L 352 1624 M 356 1624 L 352 1624 L 360 1624 M 352 1624 L 360 1624 M 176 1632 L 180 1624 M 176 1632 L 168 1648 M 180 1632 L 180 1624 M 180 1632 L 180 1648 L 180 1652 L 180 1648 M 280 1648 L 282 1652 A 8 8 0 0 0 288 1656 M 292 1656 L 288 1656 L 296 1656 M 288 1656 L 296 1656 M 176 1664 L 180 1656 M 176 1664 L 168 1680 M 180 1664 L 180 1656 M 180 1664 L 180 1680 L 180 1684 L 180 1680 M 176 1696 L 168 1712 M 288 1696 L 290 1700 A 8 8 0 0 0 296 1704 M 300 1704 L 296 1704 M 300 1704 L 304 1704 M 296 1704 L 304 1704 M 296 1704 L 304 1704 M 308 1704 L 304 1704 M 308 1704 L 312 1704 M 304 1704 L 312 1704 M 304 1704 L 312 1704 M 316 1704 L 312 1704 L 320 1704 M 312 1704 L 320 1704" fill="none"/>
<path d="" fill="none" stroke-dasharray="3 3"/>
<line marker-end="url(#triangle)" x1="72" x2="86" y1="88" y2="88"/>
<line marker-end="url(#triangle)" x1="72" x2="86" y1="88" y2="88"/>
<line marker-end="url(#triangle)" x1="80" x2="86" y1="88" y2="88"/>
<line marker-end="url(#triangle)" x1="232" x2="226" y1="88" y2="88"/>
<line marker-end="url(#triangle)" x1="196" x2="196" y1="120" y2="156"/>
<line marker-end="url(#triangle)" x1="116" x2="116" y1="144" y2="132"/>
<line marker-end="url(#triangle)" x1="196" x2="196" y1="128" y2="156"/>
<line marker-end="url(#triangle)" x1="112" x2="108" y1="496" y2="488"/>
<line marker-end="url(#triangle)" x1="232" x2="236" y1="496" y2="488"/>
<line marker-end="url(#triangle)" x1="112" x2="106" y1="552" y2="552"/>
<line marker-end="url(#triangle)" x1="208" x2="222" y1="552" y2="552"/>
<line marker-end="url(#triangle)" x1="208" x2="222" y1="552" y2="552"/>
<line marker-end="url(#triangle)" x1="216" x2="222" y1="552" y2="552"/>
<line marker-end="url(#triangle)" x1="224" x2="236" y1="592" y2="616"/>
<line marker-end="url(#triangle)" x1="88" x2="84" y1="608" y2="616"/>
<line marker-end="url(#triangle)" x1="124" x2="124" y1="688" y2="716"/>
<line marker-end="url(#triangle)" x1="180" x2="180" y1="688" y2="716"/>
<line marker-end="url(#triangle)" x1="284" x2="284" y1="688" y2="716"/>
<line marker-end="url(#triangle)" x1="356" x2="356" y1="688" y2="796"/>
<line marker-end="url(#triangle)" x1="412" x2="412" y1="688" y2="716"/>
<line marker-end="url(#triangle)" x1="164" x2="164" y1="768" y2="796"/>
<line marker-end="url(#triangle)" x1="284" x2="284" y1="768" y2="876"/>
<line marker-end="url(#triangle)" x1="192" x2="186" y1="824" y2="824"/>
<line marker-end="url(#triangle)" x1="164" x2="164" y1="848" y2="876"/>
<line marker-end="url(#triangle)" x1="364" x2="364" y1="848" y2="876"/>
<line marker-end="url(#triangle)" x1="540" x2="540" y1="1036" y2="1116"/>
<line marker-end="url(#triangle)" x1="540" x2="540" y1="1036" y2="1116"/>
<line marker-end="url(#triangle)" x1="108" x2="108" y1="1040" y2="1116"/>
<line marker-end="url(#triangle)" x1="324" x2="324" y1="1040" y2="1116"/>
<line marker-end="url(#triangle)" x1="540" x2="540" y1="1040" y2="1116"/>
<line marker-end="url(#triangle)" x1="272" x2="286" y1="1192" y2="1192"/>
<line marker-end="url(#triangle)" x1="272" x2="286" y1="1192" y2="1192"/>
<line marker-end="url(#triangle)" x1="280" x2="286" y1="1192" y2="1192"/>
<line marker-end="url(#triangle)" x1="408" x2="402" y1="1240" y2="1240"/>
<line marker-end="url(#triangle)" x1="336" x2="350" y1="1368" y2="1368"/>
<line marker-end="url(#triangle)" x1="336" x2="350" y1="1368" y2="1368"/>
<line marker-end="url(#triangle)" x1="344" x2="350" y1="1368" y2="1368"/>
<line marker-end="url(#triangle)" x1="336" x2="350" y1="1400" y2="1400"/>
<line marker-end="url(#triangle)" x1="336" x2="350" y1="1400" y2="1400"/>
<line marker-end="url(#triangle)" x1="344" x2="350" y1="1400" y2="1400"/>
<line marker-end="url(#triangle)" x1="408" x2="422" y1="1432" y2="1432"/>
<line marker-end="url(#triangle)" x1="408" x2="422" y1="1432" y2="1432"/>
<line marker-end="url(#triangle)" x1="416" x2="422" y1="1432" y2="1432"/>
<line marker-end="url(#triangle)" x1="416" x2="430" y1="1464" y2="1464"/>
<line marker-end="url(#triangle)" x1="416" x2="430" y1="1464" y2="1464"/>
<line marker-end="url(#triangle)" x1="424" x2="430" y1="1464" y2="1464"/>
<line marker-end="url(#triangle)" x1="344" x2="358" y1="1496" y2="1496"/>
<line marker-end="url(#triangle)" x1="344" x2="358" y1="1496" y2="1496"/>
<line marker-end="url(#triangle)" x1="352" x2="358" y1="1496" y2="1496"/>
<line marker-end="url(#triangle)" x1="168" x2="164" y1="1712" y2="1720"/>
<text x="17" y="92">
Foo
</text>
<text x="105" y="92">
Bar
</text>
<text x="185" y="92">
Baz
</text>
<text x="265" y="92">
Moo
</text>
<text x="17" y="188">
Hello
</text>
<text x="65" y="188">
here
</text>
<text x="105" y="188">
and
</text>
<text x="137" y="188">
there
</text>
<text x="185" y="188">
and
</text>
<text x="217" y="188">
everywhere
</text>
<text x="33" y="284">
a
</text>
<text x="73" y="284">
b
</text>
<text x="49" y="300">
&amp;
</text>
<text x="57" y="300">
&amp;
</text>
<text x="225" y="300">
process
</text>
<text x="33" y="316">
&apos;
</text>
<text x="41" y="316">
string&apos;
</text>
<text x="105" y="316">
ne
</text>
<text x="129" y="316">
&apos;
</text>
<text x="137" y="316">
&apos;
</text>
<text x="361" y="316">
process
</text>
<text x="65" y="428">
another
</text>
<text x="129" y="428">
process
</text>
<text x="17" y="492">
User
</text>
<text x="57" y="492">
code
</text>
<text x="249" y="492">
OS
</text>
<text x="273" y="492">
code
</text>
<text x="17" y="556">
User
</text>
<text x="57" y="556">
code
</text>
<text x="145" y="556">
Mode
</text>
<text x="233" y="556">
OS
</text>
<text x="257" y="556">
code
</text>
<text x="57" y="636">
User
</text>
<text x="97" y="636">
code
</text>
<text x="225" y="636">
OS
</text>
<text x="249" y="636">
code
</text>
<text x="33" y="684">
OS
</text>
<text x="57" y="684">
API
</text>
<text x="121" y="748">
Filesystem
</text>
<text x="257" y="748">
Scheduler
</text>
<text x="393" y="748">
MMU
</text>
<text x="153" y="828">
IO
</text>
<text x="337" y="828">
Network
</text>
<text x="257" y="908">
HAL
</text>
<text x="89" y="1004">
device
</text>
<text x="89" y="1020">
loads
</text>
<text x="33" y="1036">
ooo
</text>
<text x="33" y="1052">
ooo
</text>
<text x="33" y="1068">
ooo
</text>
<text x="41" y="1148">
Loadable
</text>
<text x="113" y="1148">
module
</text>
<text x="169" y="1148">
C
</text>
<text x="257" y="1148">
Loadable
</text>
<text x="329" y="1148">
module
</text>
<text x="385" y="1148">
A
</text>
<text x="473" y="1148">
Loadable
</text>
<text x="545" y="1148">
module
</text>
<text x="601" y="1148">
B
</text>
<text x="489" y="1164">
(instrumented)
</text>
<text x="305" y="1196">
A.o
</text>
<text x="137" y="1212">
calls
</text>
<text x="257" y="1244">
A.instrumented.o
</text>
<text x="473" y="1260">
calls
</text>
<text x="361" y="1372">
Base::Class::Derived_A
</text>
<text x="361" y="1404">
Base::Class::Derived_B
</text>
<text x="49" y="1420">
Something
</text>
<text x="433" y="1436">
Base::Class::Derived
</text>
<text x="49" y="1452">
Something::else
</text>
<text x="441" y="1468">
Base::Class::Derived
</text>
<text x="369" y="1500">
Base::Class::Derived_C
</text>
<text x="193" y="1532">
Base::Class
</text>
<text x="177" y="1564">
&apos;
</text>
<text x="305" y="1596">
The::Latest
</text>
<text x="9" y="1628">
With::Some::fantasy
</text>
<text x="369" y="1628">
The::Latest::Greatest
</text>
<text x="73" y="1660">
More::Stuff
</text>
<text x="305" y="1660">
I::Am::Running::Out::Of::Ideas
</text>
<text x="73" y="1692">
More::Stuff
</text>
<text x="329" y="1708">
Last::One
</text>
<text x="57" y="1724">
More::Stuff
</text>
</svg>