<svg font-family="arial" font-size="14" height="9776" width="648" xmlns="http://www.w3.org/2000/svg">
<defs>
<marker id="triangle" markerHeight="10" markerUnits="strokeWidth" markerWidth="10" orient="auto" refX="15" refY="10" viewBox="0 0 50 20">
<path d="M 0 0 L 30 10 L 0 20 z"/>
</marker>
</defs>
<style>

    line, path {
      stroke: black;
      stroke-width: 2;
      stroke-opacity: 1;
      fill-opacity: 1;
      stroke-linecap: round;
      stroke-linejoin: miter;
    }
    circle {
      stroke: black;
      stroke-width: 2;
      stroke-opacity: 1;
      fill-opacity: 1;
      stroke-linecap: round;
      stroke-linejoin: miter;
      fill:white;
    }
    circle.solid {
      fill:black;
    }
    circle.open {
      fill:white;
    }
    tspan.head{
        fill: none;
        stroke: none;
    }
    
</style>
<path d=" M 32 56 L 40 56 M 160 64 L 148 64 M 160 64 L 180 64 M 24 72 L 72 72 M 80 72 L 128 72 M 136 72 L 148 72 M 148 64 L 148 80 M 160 80 L 148 80 M 160 80 L 180 80 M 180 64 L 180 80 M 192 72 L 180 72 M 200 72 L 216 72 M 224 72 L 296 72 M 304 72 L 336 72 M 344 72 L 400 72 M 76 80 L 76 96 M 132 80 L 132 144 M 196 80 L 196 176 M 220 80 L 220 96 M 300 80 L 300 144 M 340 80 L 340 200 M 404 80 L 404 272 M 64 104 L 88 104 M 212 108 L 212 144 M 216 104 A 4 4 0 0 0 212 108 M 224 104 A 16 16 0 0 0 216 104 M 228 108 L 228 144 M 228 108 A 4 4 0 0 0 224 104 M 212 112 L 212 144 M 228 112 L 228 144 M 76 128 L 76 144 M 24 152 L 72 152 M 132 144 L 132 148 A 4 4 0 0 0 136 152 L 152 152 M 156 156 L 156 176 M 156 156 A 4 4 0 0 0 152 152 M 212 144 L 212 148 A 4 4 0 0 0 216 152 L 224 152 M 228 144 L 228 148 M 224 152 A 4 4 0 0 0 228 148 M 292 156 L 292 192 M 296 152 A 4 4 0 0 0 292 156 M 304 152 A 16 16 0 0 0 296 152 M 308 156 L 308 192 M 308 156 A 4 4 0 0 0 304 152 M 76 160 L 76 176 M 156 160 L 156 176 M 220 160 L 220 176 M 292 160 L 292 192 M 308 160 L 308 192 M 140 188 L 140 432 M 144 184 A 4 4 0 0 0 140 188 M 144 184 L 240 184 M 244 188 L 244 432 M 244 188 A 4 4 0 0 0 240 184 M 140 192 L 140 432 M 244 192 L 244 432 M 292 192 L 292 196 A 4 4 0 0 0 296 200 L 304 200 M 308 192 L 308 196 M 304 200 A 4 4 0 0 0 308 196 M 300 208 L 300 224 M 324 208 L 324 224 M 336 208 L 324 232 M 256 232 L 244 232 M 256 232 L 296 232 M 304 232 L 324 232 L 324 256 M 300 240 L 300 256 M 292 268 L 292 304 M 296 264 A 4 4 0 0 0 292 268 M 304 264 A 16 16 0 0 0 296 264 M 308 268 L 308 304 M 308 268 A 4 4 0 0 0 304 264 M 340 256 L 340 272 M 292 272 L 292 304 M 308 272 L 308 304 M 344 280 L 380 280 M 380 272 L 380 320 M 388 272 L 388 320 M 400 280 L 388 280 M 404 280 L 404 272 M 404 280 L 400 280 M 340 288 L 340 336 M 400 296 L 388 296 M 292 304 L 292 308 A 4 4 0 0 0 296 312 L 304 312 M 308 304 L 308 308 M 304 312 A 4 4 0 0 0 308 308 M 400 312 L 388 312 M 404 312 L 404 336 M 404 312 L 400 312 M 300 320 L 300 336 M 404 320 L 404 336 M 504 328 L 512 328 M 300 336 L 300 340 A 4 4 0 0 0 304 344 L 336 344 M 340 336 L 340 340 M 336 344 A 4 4 0 0 0 340 340 M 408 344 L 428 344 M 428 336 L 428 352 M 440 344 L 448 344 M 456 344 L 488 344 M 496 344 L 512 344 M 404 352 L 404 368 M 452 352 L 452 464 M 492 352 L 492 384 M 256 376 L 244 376 M 256 376 L 268 376 M 268 368 L 268 384 M 412 368 L 412 416 M 480 392 L 504 392 M 256 424 L 244 424 M 256 424 L 308 424 M 308 416 L 308 432 M 316 416 L 316 432 M 328 424 L 316 424 M 328 424 L 336 424 M 340 428 L 340 464 M 340 428 A 4 4 0 0 0 336 424 M 404 416 L 404 432 M 492 416 L 492 432 M 140 432 L 140 436 A 4 4 0 0 0 144 440 L 240 440 M 244 432 L 244 436 M 240 440 A 4 4 0 0 0 244 436 M 340 432 L 340 464 M 188 448 L 188 496 M 228 448 L 228 464 L 228 468 A 4 4 0 0 0 232 472 L 336 472 M 344 472 L 448 472 M 416 496 L 404 496 M 416 496 L 436 496 M 452 480 L 452 496 M 188 496 L 188 500 A 4 4 0 0 0 192 504 L 376 504 M 384 504 L 404 504 M 404 496 L 404 512 M 416 512 L 404 512 M 416 512 L 436 512 M 436 496 L 436 512 M 448 504 L 436 504 M 452 496 L 452 500 M 448 504 A 4 4 0 0 0 452 500 M 380 512 L 380 528 M 372 540 L 372 576 M 376 536 A 4 4 0 0 0 372 540 M 384 536 A 16 16 0 0 0 376 536 M 388 540 L 388 576 M 388 540 A 4 4 0 0 0 384 536 M 372 544 L 372 576 M 388 544 L 388 576 M 372 576 L 372 580 A 4 4 0 0 0 376 584 L 384 584 M 388 576 L 388 580 M 384 584 A 4 4 0 0 0 388 580 M 380 592 L 380 608 M 44 656 L 44 672 M 28 680 L 28 704 M 28 680 L 40 680 M 32 680 L 40 680 M 44 680 L 44 672 M 40 680 L 64 680 M 48 680 L 64 680 M 68 680 L 68 704 M 68 680 L 64 680 M 28 688 L 28 704 M 68 688 L 68 704 M 28 712 L 28 704 M 28 712 L 40 712 M 32 712 L 40 712 M 44 712 L 44 736 M 40 712 L 64 712 M 48 712 L 64 712 M 68 712 L 68 704 M 68 712 L 64 712 M 44 720 L 44 736 L 44 784 M 44 744 L 108 744 M 48 744 L 108 744 M 108 736 L 108 752 M 124 736 L 124 752 M 136 744 L 124 744 M 136 744 L 192 744 M 44 752 L 44 784 M 32 808 L 68 808 M 68 800 L 68 816 M 44 832 L 44 848 M 68 888 L 68 1056 M 68 888 L 96 888 M 72 888 L 96 888 M 100 888 L 100 1056 M 100 888 L 96 888 M 68 896 L 68 1056 M 100 896 L 100 1056 M 112 904 L 136 904 M 184 904 L 208 904 M 212 904 L 212 976 M 212 904 L 208 904 M 112 920 L 136 920 M 184 920 L 212 920 M 212 912 L 212 976 M 112 936 L 136 936 M 184 936 L 212 936 M 112 952 L 136 952 M 176 952 L 212 952 M 112 968 L 136 968 M 176 968 L 212 968 M 112 984 L 136 984 M 176 984 L 208 984 M 212 976 L 212 1008 M 208 984 L 256 984 M 216 984 L 256 984 M 260 984 L 260 1008 M 256 984 L 296 984 M 264 984 L 296 984 M 112 1000 L 136 1000 M 176 1000 L 212 1000 M 212 992 L 212 1008 M 260 992 L 260 1008 M 112 1016 L 136 1016 M 168 1016 L 208 1016 M 212 1016 L 212 1008 M 212 1016 L 208 1016 M 260 1024 L 260 1040 M 112 1048 L 256 1048 M 260 1048 L 260 1040 M 256 1048 L 408 1048 M 264 1048 L 408 1048 M 412 1048 L 412 1072 M 412 1048 L 408 1048 M 68 1064 L 68 1056 M 68 1064 L 96 1064 M 72 1064 L 96 1064 M 100 1064 L 100 1056 M 100 1064 L 96 1064 M 412 1056 L 412 1072 M 32 1160 L 40 1160 M 48 1168 L 60 1168 M 60 1152 L 60 1168 M 72 1168 L 60 1168 M 80 1160 L 112 1160 M 116 1160 L 116 1184 M 112 1160 L 200 1160 M 120 1160 L 200 1160 M 204 1160 L 204 1216 M 312 1160 L 376 1160 M 380 1160 L 380 1216 M 376 1160 L 464 1160 M 384 1160 L 464 1160 M 468 1160 L 468 1184 M 116 1168 L 116 1184 M 204 1168 L 204 1216 M 380 1168 L 380 1216 M 468 1168 L 468 1184 M 116 1200 L 116 1216 M 468 1200 L 468 1232 M 116 1216 L 116 1248 M 116 1224 L 136 1224 M 120 1224 L 136 1224 M 196 1216 L 196 1264 M 336 1224 L 352 1224 M 388 1216 L 388 1264 M 116 1232 L 116 1248 M 232 1240 L 248 1240 M 348 1232 L 348 1280 M 448 1240 L 464 1240 M 468 1240 L 468 1232 M 468 1240 L 464 1240 M 96 1256 L 136 1256 M 236 1248 L 236 1280 M 448 1256 L 488 1256 M 96 1264 L 112 1296 M 204 1264 L 204 1280 M 380 1264 L 380 1280 M 448 1264 L 464 1296 M 120 1296 L 136 1264 M 472 1296 L 488 1264 M 96 1304 L 136 1304 M 204 1296 L 204 1328 M 380 1296 L 380 1328 M 448 1304 L 488 1304 M 116 1312 L 116 1392 M 136 1312 L 144 1328 M 236 1312 L 236 1328 M 348 1312 L 348 1328 M 440 1328 L 448 1312 M 468 1312 L 468 1392 M 148 1336 L 148 1360 M 148 1336 L 168 1336 M 152 1336 L 168 1336 M 184 1336 L 200 1336 M 204 1336 L 204 1328 M 200 1336 L 232 1336 M 208 1336 L 232 1336 M 236 1336 L 236 1328 M 236 1336 L 232 1336 M 348 1336 L 348 1328 M 348 1336 L 376 1336 M 352 1336 L 376 1336 M 380 1336 L 380 1328 M 376 1336 L 400 1336 M 384 1336 L 400 1336 M 416 1336 L 432 1336 M 436 1336 L 436 1360 M 436 1336 L 432 1336 M 148 1344 L 148 1360 M 436 1344 L 436 1360 M 148 1376 L 148 1392 M 436 1376 L 436 1392 M 32 1400 L 112 1400 M 116 1400 L 116 1392 M 112 1400 L 144 1400 M 120 1400 L 144 1400 M 148 1400 L 148 1392 M 304 1400 L 432 1400 M 436 1400 L 436 1392 M 432 1400 L 464 1400 M 440 1400 L 464 1400 M 468 1400 L 468 1392 M 0 1576 L 16 1576 M 56 1576 L 72 1576 M 0 1592 L 16 1592 M 56 1592 L 72 1592 M 24 1624 L 48 1624 M 52 1624 L 52 1648 M 48 1624 L 176 1624 M 56 1624 L 176 1624 M 180 1624 L 180 1648 M 176 1624 L 208 1624 M 184 1624 L 208 1624 M 212 1624 L 212 1648 M 212 1624 L 208 1624 M 52 1632 L 52 1648 M 180 1632 L 180 1648 M 212 1632 L 212 1648 M 156 1656 L 156 1776 M 156 1656 L 240 1656 M 160 1656 L 240 1656 M 244 1656 L 244 1776 M 244 1656 L 240 1656 M 52 1664 L 52 1680 M 156 1664 L 156 1776 M 244 1664 L 244 1776 M 24 1688 L 48 1688 M 52 1688 L 52 1680 M 48 1688 L 104 1688 M 56 1688 L 104 1688 M 108 1688 L 108 1712 M 104 1688 L 156 1688 M 112 1688 L 156 1688 M 256 1688 L 244 1688 M 256 1688 L 296 1688 M 296 1696 L 304 1680 L 312 1696 L 320 1680 L 328 1696 L 336 1680 L 344 1696 M 344 1688 L 368 1688 M 372 1688 L 372 1712 M 368 1688 L 432 1688 M 376 1688 L 432 1688 M 108 1696 L 108 1712 M 372 1696 L 372 1712 M 108 1720 L 108 1712 M 108 1720 L 156 1720 M 112 1720 L 156 1720 M 352 1720 L 392 1720 M 352 1736 L 392 1736 M 108 1752 L 108 1808 M 108 1752 L 156 1752 M 112 1752 L 156 1752 M 256 1752 L 244 1752 M 256 1752 L 280 1752 M 284 1752 L 284 1776 M 284 1752 L 280 1752 M 372 1744 L 372 1760 M 108 1760 L 108 1808 M 284 1760 L 284 1776 M 156 1784 L 156 1776 M 156 1784 L 240 1784 M 160 1784 L 240 1784 M 244 1784 L 244 1776 M 244 1784 L 240 1784 M 196 1792 L 196 1808 M 284 1792 L 284 1808 M 72 1816 L 104 1816 M 108 1816 L 108 1808 M 108 1816 L 104 1816 M 44 1840 L 44 1856 M 160 1848 L 168 1848 M 364 1896 L 364 1984 M 364 1904 L 364 1984 M 44 1936 L 44 2048 M 48 1936 L 96 1984 M 156 1936 L 156 2048 M 160 1936 L 208 1984 M 268 1936 L 268 2048 M 272 1936 L 320 1984 M 412 1936 L 412 2048 M 416 1936 L 464 1984 M 20 1992 L 20 2176 M 20 1992 L 44 1992 M 24 1992 L 44 1992 M 92 1988 L 104 1992 M 92 1996 L 104 1992 M 112 1992 L 156 1992 M 204 1988 L 216 1992 M 204 1996 L 216 1992 M 224 1992 L 268 1992 M 316 1988 L 328 1992 M 316 1996 L 328 1992 M 336 1992 L 360 1992 M 364 1992 L 364 1984 M 360 1992 L 412 1992 M 368 1992 L 412 1992 M 460 1988 L 472 1992 M 460 1996 L 472 1992 M 480 1992 L 516 1992 M 516 1984 L 516 2176 M 20 2000 L 20 2176 M 88 2008 L 80 2016 M 96 2000 L 88 2008 M 200 2008 L 192 2016 M 208 2000 L 200 2008 M 312 2008 L 304 2016 M 320 2000 L 312 2008 M 456 2008 L 448 2016 M 464 2000 L 456 2008 M 72 2024 L 64 2032 M 80 2016 L 72 2024 M 184 2024 L 176 2032 M 192 2016 L 184 2024 M 296 2024 L 288 2032 M 304 2016 L 296 2024 M 440 2024 L 432 2032 M 448 2016 L 440 2024 M 56 2040 L 48 2048 M 64 2032 L 56 2040 M 168 2040 L 160 2048 M 176 2032 L 168 2040 M 280 2040 L 272 2048 M 288 2032 L 280 2040 M 424 2040 L 416 2048 M 432 2032 L 424 2040 M 284 2080 L 284 2104 L 288 2112 M 280 2128 L 288 2112 M 200 2136 L 192 2144 M 208 2128 L 200 2136 M 212 2128 L 212 2240 M 280 2128 L 288 2144 M 184 2152 L 176 2160 M 192 2144 L 184 2152 M 284 2152 L 288 2144 M 168 2168 L 160 2176 M 176 2160 L 168 2168 M 284 2152 L 284 2176 M 20 2184 L 20 2176 M 20 2184 L 144 2184 M 24 2184 L 144 2184 M 224 2184 L 212 2184 M 224 2184 L 280 2184 M 284 2184 L 284 2176 M 280 2184 L 312 2184 M 288 2184 L 312 2184 M 316 2184 L 316 2216 M 312 2184 L 400 2184 M 320 2184 L 400 2184 M 464 2184 L 512 2184 M 516 2184 L 516 2176 M 516 2184 L 512 2184 M 160 2192 L 208 2240 M 316 2192 L 316 2216 L 312 2224 L 320 2240 M 312 2256 L 320 2240 M 312 2256 L 316 2264 L 316 2288 M 200 2352 L 212 2352 M 208 2352 L 216 2352 M 224 2352 L 212 2352 L 212 2384 M 200 2384 L 212 2384 M 224 2384 L 212 2384 M 192 2400 L 216 2400 M 200 2384 L 212 2408 M 224 2384 L 212 2408 M 232 2400 L 216 2400 M 80 2416 L 68 2416 M 80 2416 L 108 2416 M 208 2400 L 212 2408 L 216 2400 M 212 2416 L 212 2408 M 32 2432 L 68 2432 M 68 2416 L 68 2448 M 108 2416 L 108 2448 M 120 2432 L 108 2432 M 120 2432 L 148 2432 M 144 2432 L 152 2432 M 160 2432 L 148 2432 M 160 2432 L 196 2432 M 196 2416 L 196 2424 M 208 2416 L 196 2440 M 80 2448 L 68 2448 M 80 2448 L 108 2448 M 148 2432 L 148 2464 M 196 2440 L 196 2448 M 200 2432 L 212 2456 M 136 2464 L 148 2464 M 152 2464 L 164 2464 M 200 2464 L 212 2464 M 212 2456 L 212 2464 M 216 2464 L 228 2464 M 132 2464 L 132 2496 M 164 2464 L 164 2496 M 196 2464 L 196 2496 M 228 2464 L 228 2496 M 136 2496 L 148 2496 M 152 2496 L 164 2496 M 200 2496 L 212 2496 M 216 2496 L 228 2496 M 148 2496 L 148 2528 M 212 2496 L 212 2528 M 136 2528 L 148 2528 M 160 2528 L 148 2528 M 160 2528 L 212 2528 M 224 2528 L 212 2528 M 24 2568 L 64 2568 M 72 2568 L 136 2568 M 144 2568 L 208 2568 M 216 2568 L 280 2568 M 92 2576 L 92 2592 M 164 2576 L 164 2592 M 236 2576 L 236 2592 M 308 2576 L 308 2592 M 92 2608 L 92 2624 M 164 2608 L 164 2640 M 236 2608 L 236 2640 M 308 2608 L 308 2624 M 36 2632 L 36 2656 M 36 2632 L 88 2632 M 40 2632 L 88 2632 M 92 2632 L 92 2624 M 92 2632 L 88 2632 M 308 2632 L 308 2624 M 308 2632 L 360 2632 M 312 2632 L 360 2632 M 364 2632 L 364 2656 M 364 2632 L 360 2632 M 36 2640 L 36 2656 M 92 2648 L 92 2664 M 92 2648 L 120 2648 M 96 2648 L 120 2648 M 136 2648 L 160 2648 M 164 2640 L 164 2704 M 164 2648 L 160 2648 M 236 2640 L 236 2688 M 236 2648 L 264 2648 M 240 2648 L 264 2648 M 280 2648 L 304 2648 M 308 2648 L 308 2680 M 308 2648 L 304 2648 M 364 2640 L 364 2656 M 92 2656 L 92 2664 M 164 2656 L 164 2704 M 236 2656 L 236 2688 M 308 2656 L 308 2680 M 36 2672 L 36 2752 M 96 2672 L 108 2696 M 364 2672 L 364 2752 M 108 2696 L 108 2704 M 120 2696 L 108 2696 M 120 2696 L 164 2696 M 176 2696 L 164 2696 M 176 2696 L 232 2696 M 236 2696 L 236 2688 M 236 2696 L 232 2696 M 304 2688 L 292 2712 M 104 2704 L 92 2728 M 164 2712 L 164 2704 M 164 2712 L 292 2712 M 168 2712 L 292 2712 L 292 2720 M 92 2728 L 92 2752 M 296 2720 L 308 2744 L 308 2752 M 24 2760 L 32 2760 M 36 2760 L 36 2752 M 32 2760 L 88 2760 M 40 2760 L 88 2760 M 92 2760 L 92 2752 M 88 2760 L 304 2760 M 96 2760 L 304 2760 M 308 2760 L 308 2752 M 304 2760 L 360 2760 M 312 2760 L 360 2760 M 364 2760 L 364 2752 M 172 2912 L 172 2936 L 176 2944 M 168 2960 L 176 2944 M 168 2960 L 176 2976 M 172 2984 L 176 2976 M 60 2992 L 60 3040 M 64 2992 L 72 3008 M 172 2984 L 172 3008 M 0 3016 L 60 3016 M 80 3016 L 168 3016 M 172 3008 L 172 3088 M 172 3016 L 168 3016 M 64 3040 L 72 3024 M 172 3024 L 172 3088 M 312 3160 L 320 3160 M 352 3160 L 360 3160 M 176 3176 L 184 3176 M 144 3208 L 176 3208 M 208 3208 L 244 3208 M 244 3200 L 244 3216 M 252 3200 L 252 3216 M 264 3208 L 252 3208 M 264 3208 L 332 3208 M 332 3200 L 332 3216 M 340 3200 L 340 3216 M 352 3208 L 340 3208 M 352 3208 L 412 3208 M 412 3200 L 412 3216 M 420 3200 L 420 3216 M 432 3208 L 420 3208 M 432 3208 L 492 3208 M 492 3200 L 492 3216 M 500 3200 L 500 3216 M 512 3208 L 500 3208 M 512 3208 L 560 3208 M 48 3224 L 56 3224 M 140 3216 L 140 3328 M 296 3216 L 312 3248 M 376 3216 L 392 3248 M 456 3216 L 472 3248 M 564 3216 L 564 3264 M 88 3240 L 96 3240 M 280 3248 L 296 3216 M 360 3248 L 376 3216 M 440 3248 L 456 3216 M 528 3248 L 544 3216 M 320 3264 L 336 3296 M 400 3264 L 416 3296 M 480 3264 L 496 3296 M 556 3264 L 556 3296 M 572 3264 L 572 3296 M 256 3296 L 272 3264 M 336 3296 L 352 3264 M 416 3296 L 432 3264 M 504 3296 L 520 3264 M 24 3304 L 140 3304 M 152 3304 L 140 3304 M 152 3304 L 192 3304 M 220 3296 L 220 3312 M 232 3304 L 220 3304 M 232 3304 L 292 3304 M 292 3296 L 292 3312 M 300 3296 L 300 3312 M 312 3304 L 300 3304 M 312 3304 L 372 3304 M 372 3296 L 372 3312 M 380 3296 L 380 3312 M 392 3304 L 380 3304 M 392 3304 L 452 3304 M 452 3296 L 452 3312 M 460 3296 L 460 3312 M 472 3304 L 460 3304 M 472 3304 L 504 3304 M 564 3296 L 564 3312 M 112 3328 L 120 3328 M 252 3312 L 252 3344 M 556 3312 L 556 3344 M 572 3312 L 572 3344 M 104 3344 L 112 3328 M 116 3328 L 116 3376 M 120 3328 L 128 3344 M 140 3344 L 140 3376 M 288 3360 L 296 3344 M 564 3344 L 564 3376 M 252 3360 L 252 3440 M 536 3376 L 524 3376 M 536 3376 L 564 3376 M 136 3392 L 140 3384 L 144 3392 M 140 3376 L 140 3384 M 504 3384 L 512 3384 M 512 3392 L 524 3392 M 524 3376 L 524 3392 M 528 3392 L 540 3392 M 16 3408 L 24 3392 M 16 3408 L 16 3408 M 32 3408 L 16 3408 M 32 3408 L 128 3408 L 140 3384 M 140 3392 L 140 3520 M 152 3408 L 140 3384 M 152 3408 L 252 3408 M 508 3392 L 508 3456 M 540 3392 L 540 3456 M 16 3408 L 24 3424 M 24 3448 L 40 3448 M 288 3456 L 296 3440 M 512 3456 L 524 3456 M 520 3456 L 540 3456 M 252 3456 L 252 3520 M 504 3464 L 512 3464 M 524 3456 L 524 3520 M 152 3520 L 140 3520 M 152 3520 L 252 3520 M 264 3520 L 252 3520 M 264 3520 L 524 3520 M 116 3568 L 116 3616 M 120 3568 L 128 3584 M 92 3592 L 92 3632 M 92 3592 L 116 3592 M 96 3592 L 116 3592 M 144 3592 L 168 3592 M 172 3592 L 172 3632 M 92 3600 L 92 3632 M 120 3616 L 128 3600 M 172 3600 L 172 3632 M 92 3632 L 92 3776 M 92 3640 L 112 3640 M 96 3640 L 112 3640 M 112 3632 L 120 3648 L 128 3632 L 136 3648 L 144 3632 L 152 3648 M 152 3640 L 168 3640 M 172 3632 L 172 3688 M 172 3640 L 168 3640 M 92 3648 L 92 3776 M 172 3648 L 172 3688 L 176 3696 M 168 3712 L 176 3696 M 168 3712 L 176 3728 M 172 3736 L 176 3728 M 172 3736 L 172 3776 M 92 3776 L 92 3808 M 92 3784 L 124 3784 M 96 3784 L 124 3784 M 124 3776 L 124 3792 M 148 3776 L 148 3792 M 160 3784 L 148 3784 M 160 3784 L 168 3784 M 172 3776 L 172 3808 M 172 3784 L 168 3784 M 80 3808 L 92 3808 M 92 3792 L 92 3808 M 104 3808 L 92 3808 M 160 3808 L 172 3808 M 172 3792 L 172 3808 M 184 3808 L 172 3808 M 80 3824 L 92 3824 M 88 3824 L 96 3824 M 104 3824 L 92 3824 M 160 3824 L 172 3824 M 168 3824 L 176 3824 M 184 3824 L 172 3824 M 80 3840 L 92 3840 M 92 3824 L 92 3840 M 104 3840 L 92 3840 M 160 3840 L 172 3840 M 172 3824 L 172 3840 M 184 3840 L 172 3840 M 80 3840 L 88 3856 M 96 3856 L 104 3840 M 160 3840 L 168 3856 M 176 3856 L 184 3840 M 160 3896 L 200 3896 M 240 3896 L 292 3896 M 292 3888 L 292 3904 M 308 3888 L 308 3904 M 320 3896 L 308 3896 M 320 3896 L 384 3896 M 384 3888 L 392 3904 L 400 3888 L 408 3904 L 416 3888 L 424 3904 L 432 3888 M 432 3896 L 440 3896 M 444 3896 L 444 3936 M 440 3896 L 456 3896 M 448 3896 L 456 3896 M 444 3904 L 444 3936 M 432 3936 L 444 3936 M 456 3936 L 444 3936 M 432 3952 L 444 3952 M 440 3952 L 448 3952 M 456 3952 L 444 3952 L 444 3984 M 432 3984 L 444 3984 M 456 3984 L 444 3984 M 432 3984 L 440 4000 M 448 4000 L 456 3984 M 24 4024 L 32 4024 M 40 4024 L 48 4024 M 160 4056 L 192 4056 M 192 4048 L 200 4064 L 208 4048 L 216 4064 L 224 4048 L 232 4064 L 240 4048 M 240 4056 L 256 4056 M 260 4056 L 260 4096 M 256 4056 L 288 4056 M 264 4056 L 288 4056 M 328 4056 L 368 4056 M 416 4056 L 432 4056 M 436 4056 L 436 4096 M 432 4056 L 456 4056 M 440 4056 L 456 4056 M 260 4064 L 260 4096 M 436 4064 L 436 4096 M 248 4096 L 260 4096 M 272 4096 L 260 4096 M 424 4096 L 436 4096 M 448 4096 L 436 4096 M 248 4112 L 260 4112 M 256 4112 L 264 4112 M 272 4112 L 260 4112 M 424 4112 L 436 4112 M 432 4112 L 440 4112 M 448 4112 L 436 4112 M 260 4112 L 260 4144 M 436 4112 L 436 4144 M 248 4144 L 260 4144 M 272 4144 L 260 4144 M 424 4144 L 436 4144 M 448 4144 L 436 4144 M 248 4144 L 256 4160 M 264 4160 L 272 4144 M 424 4144 L 432 4160 M 440 4160 L 448 4144 M 24 4216 L 32 4216 M 36 4216 L 36 4240 M 32 4216 L 48 4216 M 40 4216 L 48 4216 M 48 4224 L 56 4208 L 64 4224 L 72 4208 L 80 4224 L 88 4208 L 96 4224 M 96 4216 L 112 4216 M 120 4216 L 136 4216 M 140 4216 L 140 4240 M 136 4216 L 232 4216 M 144 4216 L 232 4216 M 236 4216 L 236 4240 M 232 4216 L 304 4216 M 240 4216 L 304 4216 M 308 4216 L 308 4240 M 304 4216 L 328 4216 M 312 4216 L 328 4216 M 344 4216 L 360 4216 M 364 4216 L 364 4240 M 360 4216 L 400 4216 M 368 4216 L 400 4216 M 404 4216 L 404 4240 M 400 4216 L 448 4216 M 408 4216 L 448 4216 M 452 4216 L 452 4240 M 448 4216 L 496 4216 M 456 4216 L 496 4216 M 36 4224 L 36 4240 M 140 4224 L 140 4240 M 236 4224 L 236 4240 M 308 4224 L 308 4240 M 364 4224 L 364 4240 M 404 4224 L 404 4240 M 452 4224 L 452 4240 M 68 4240 L 68 4256 M 292 4240 L 292 4272 M 388 4240 L 388 4272 M 40 4264 L 64 4264 M 68 4256 L 68 4288 M 68 4264 L 64 4264 M 116 4256 L 116 4272 M 140 4256 L 140 4272 M 236 4256 L 236 4272 M 304 4256 L 292 4280 M 364 4256 L 364 4272 M 400 4256 L 388 4280 M 452 4256 L 452 4272 M 68 4272 L 68 4288 M 116 4280 L 116 4272 M 116 4280 L 136 4280 M 120 4280 L 136 4280 M 140 4280 L 140 4272 M 140 4280 L 136 4280 M 180 4280 L 180 4320 M 180 4280 L 200 4280 M 184 4280 L 200 4280 M 216 4280 L 232 4280 M 236 4272 L 236 4320 M 232 4280 L 264 4280 M 240 4280 L 264 4280 M 268 4280 L 268 4304 M 264 4280 L 292 4280 M 272 4280 L 292 4280 L 292 4320 M 364 4272 L 364 4336 M 364 4280 L 388 4280 M 368 4280 L 388 4280 L 388 4320 M 180 4288 L 180 4320 M 236 4288 L 236 4320 M 268 4288 L 268 4304 M 304 4304 L 292 4280 M 364 4288 L 364 4336 M 400 4304 L 388 4280 M 68 4304 L 68 4320 M 8 4328 L 24 4328 M 40 4328 L 64 4328 M 68 4320 L 68 4352 M 64 4328 L 88 4328 M 72 4328 L 88 4328 M 104 4328 L 120 4328 M 128 4328 L 144 4328 M 160 4328 L 176 4328 M 180 4320 L 180 4352 M 180 4328 L 176 4328 M 268 4320 L 268 4336 M 308 4320 L 308 4336 M 404 4320 L 404 4336 M 68 4336 L 68 4352 M 180 4336 L 180 4352 M 236 4336 L 236 4384 M 268 4344 L 268 4336 M 268 4344 L 304 4344 M 272 4344 L 304 4344 M 308 4344 L 308 4336 M 304 4344 L 328 4344 M 312 4344 L 328 4344 M 344 4344 L 360 4344 M 364 4344 L 364 4336 M 364 4344 L 360 4344 M 404 4344 L 404 4336 M 404 4344 L 424 4344 M 408 4344 L 424 4344 M 448 4344 L 464 4344 M 68 4368 L 68 4384 M 124 4368 L 124 4384 M 180 4368 L 180 4384 M 268 4368 L 268 4384 M 308 4368 L 308 4384 M 364 4368 L 364 4384 M 404 4368 L 404 4384 M 24 4392 L 64 4392 M 68 4392 L 68 4384 M 64 4392 L 120 4392 M 72 4392 L 120 4392 M 124 4392 L 124 4384 M 120 4392 L 176 4392 M 128 4392 L 176 4392 M 180 4392 L 180 4384 M 176 4392 L 232 4392 M 184 4392 L 232 4392 M 236 4392 L 236 4384 M 232 4392 L 264 4392 M 240 4392 L 264 4392 M 268 4392 L 268 4384 M 264 4392 L 304 4392 M 272 4392 L 304 4392 M 308 4392 L 308 4384 M 304 4392 L 360 4392 M 312 4392 L 360 4392 M 364 4392 L 364 4384 M 360 4392 L 400 4392 M 368 4392 L 400 4392 M 404 4392 L 404 4384 M 400 4392 L 496 4392 M 408 4392 L 496 4392 M 240 4624 L 248 4608 M 108 4832 L 108 4848 M 76 4856 L 76 4880 M 76 4856 L 104 4856 M 80 4856 L 104 4856 M 108 4848 L 108 4912 M 108 4856 L 104 4856 M 76 4864 L 76 4880 M 108 4864 L 108 4912 M 76 4896 L 76 4912 L 76 4960 M 76 4920 L 88 4920 M 80 4920 L 88 4920 M 76 4928 L 76 4960 M 108 4928 L 108 4944 L 108 4976 M 108 4952 L 176 4952 M 112 4952 L 176 4952 M 32 4968 L 56 4968 M 108 4960 L 108 4976 M 76 4976 L 76 5008 M 220 4984 L 220 5008 M 108 4992 L 108 5008 M 220 4992 L 220 5008 M 76 5016 L 76 5008 M 76 5016 L 104 5016 M 80 5016 L 104 5016 M 108 5008 L 108 5040 M 108 5016 L 104 5016 M 208 5016 L 232 5016 M 108 5024 L 108 5040 M 120 5048 L 128 5048 M 224 5048 L 232 5048 M 252 5104 L 252 5120 M 116 5128 L 116 5152 M 116 5128 L 152 5128 M 120 5128 L 152 5128 M 156 5128 L 156 5152 M 152 5128 L 248 5128 M 160 5128 L 248 5128 M 252 5120 L 252 5152 M 252 5128 L 248 5128 M 116 5136 L 116 5152 M 156 5136 L 156 5152 M 252 5136 L 252 5152 M 116 5168 L 116 5232 M 156 5168 L 156 5200 M 252 5168 L 252 5200 M 156 5200 L 156 5232 M 156 5208 L 232 5208 M 160 5208 L 232 5208 M 32 5232 L 40 5216 M 156 5216 L 156 5232 M 252 5216 L 252 5232 M 8 5240 L 32 5240 M 36 5240 L 36 5280 M 32 5240 L 76 5240 M 40 5240 L 76 5240 M 76 5232 L 76 5248 M 84 5232 L 84 5248 M 96 5240 L 84 5240 M 96 5240 L 112 5240 M 116 5232 L 116 5280 M 112 5240 L 136 5240 M 120 5240 L 136 5240 M 252 5232 L 252 5264 M 252 5240 L 300 5240 M 256 5240 L 300 5240 M 300 5232 L 300 5248 M 308 5232 L 308 5248 M 320 5240 L 308 5240 M 36 5248 L 36 5280 M 116 5248 L 116 5280 M 156 5248 L 156 5280 M 252 5248 L 252 5264 M 424 5256 L 432 5256 M 156 5288 L 156 5280 M 156 5288 L 248 5288 M 160 5288 L 248 5288 M 36 5296 L 36 5312 M 116 5296 L 116 5312 M 24 5320 L 48 5320 M 104 5320 L 128 5320 M 252 5312 L 252 5328 M 240 5336 L 264 5336 M 76 5392 L 76 5408 M 88 5400 L 76 5400 M 88 5400 L 136 5400 M 136 5408 L 144 5392 L 152 5408 L 160 5392 L 168 5408 L 176 5392 L 184 5408 L 192 5392 M 192 5400 L 216 5400 M 164 5424 L 164 5472 M 176 5432 L 164 5432 M 168 5480 L 204 5480 M 204 5472 L 204 5488 M 216 5480 L 248 5480 M 252 5488 L 252 5520 M 40 5512 L 252 5512 M 264 5512 L 252 5512 M 284 5648 L 284 5696 M 300 5648 L 300 5696 M 36 5672 L 36 5728 M 36 5672 L 208 5672 M 40 5672 L 208 5672 M 212 5672 L 212 5712 M 208 5672 L 284 5672 M 216 5672 L 284 5672 M 312 5672 L 300 5672 M 36 5680 L 36 5728 M 212 5680 L 212 5712 M 304 5712 L 312 5712 M 336 5712 L 344 5712 M 212 5720 L 212 5712 M 212 5720 L 296 5720 M 216 5720 L 296 5720 M 296 5728 L 304 5712 M 312 5712 L 320 5728 L 328 5728 L 336 5712 M 344 5712 L 352 5728 L 360 5728 L 368 5712 M 368 5720 L 448 5720 M 452 5720 L 452 5760 M 452 5720 L 448 5720 M 344 5736 L 352 5736 M 452 5728 L 452 5760 M 36 5744 L 36 5824 M 168 5768 L 176 5768 M 424 5768 L 480 5768 M 440 5784 L 464 5784 M 452 5792 L 452 5824 M 36 5832 L 36 5824 M 36 5832 L 448 5832 M 40 5832 L 448 5832 M 452 5832 L 452 5824 M 240 5904 L 248 5888 M 16 5912 L 24 5912 M 72 5912 L 96 5912 M 96 5920 L 104 5904 L 112 5920 L 120 5904 L 128 5920 L 136 5904 L 144 5920 M 144 5912 L 176 5912 M 184 5912 L 232 5912 M 264 5912 L 360 5912 M 368 5912 L 496 5912 M 180 5920 L 180 5984 M 364 5920 L 364 5984 M 500 5920 L 500 5968 M 232 5984 L 260 5984 M 260 5968 L 260 5984 M 272 5984 L 260 5984 M 272 5984 L 288 5984 M 456 5976 L 544 5976 M 184 5992 L 232 5992 M 288 5992 L 360 5992 M 480 5992 L 520 5992 M 180 6000 L 180 6032 M 364 6000 L 364 6016 M 500 6000 L 500 6096 M 128 6024 L 136 6024 M 336 6024 L 392 6024 M 144 6048 L 216 6048 M 340 6032 L 340 6064 M 388 6032 L 388 6064 M 144 6056 L 216 6056 M 352 6064 L 340 6064 M 352 6064 L 364 6064 M 360 6064 L 368 6064 M 376 6064 L 364 6064 M 376 6064 L 388 6064 M 180 6064 L 180 6096 M 364 6064 L 364 6096 M 48 6104 L 56 6104 M 72 6104 L 176 6104 M 184 6104 L 360 6104 M 368 6104 L 496 6104 M 244 6144 L 244 6224 M 256 6152 L 244 6152 M 256 6152 L 272 6152 M 272 6144 L 280 6160 L 288 6144 L 296 6160 L 304 6144 L 312 6160 L 320 6144 L 328 6160 L 336 6144 L 344 6160 L 352 6144 L 360 6160 L 368 6144 L 376 6160 M 376 6152 L 396 6152 M 396 6144 L 396 6224 M 292 6192 L 292 6224 M 296 6192 L 312 6224 M 48 6232 L 112 6232 M 112 6224 L 120 6240 L 128 6224 L 136 6240 L 144 6224 L 152 6240 L 160 6224 L 168 6240 L 176 6224 L 184 6240 L 192 6224 L 200 6240 L 208 6224 M 208 6232 L 284 6232 M 284 6224 L 284 6240 M 304 6224 L 312 6240 M 388 6224 L 388 6240 M 84 6240 L 84 6320 M 292 6240 L 292 6352 M 320 6240 L 336 6272 M 396 6240 L 396 6256 M 336 6264 L 408 6264 M 248 6296 L 256 6296 M 96 6312 L 84 6312 M 96 6312 L 112 6312 M 112 6304 L 120 6320 L 128 6304 L 136 6320 L 144 6304 L 152 6320 L 160 6304 L 168 6320 L 176 6304 L 184 6320 L 192 6304 L 200 6320 L 208 6304 M 208 6312 L 292 6312 M 244 6320 L 244 6384 M 296 6352 L 336 6272 M 216 6392 L 272 6392 M 216 6408 L 272 6408 M 244 6416 L 244 6480 M 212 6528 L 212 6544 M 212 6560 L 212 6576 M 124 6576 L 124 6592 M 212 6584 L 212 6576 M 212 6584 L 288 6584 M 216 6584 L 288 6584 M 292 6584 L 292 6608 M 292 6584 L 288 6584 M 200 6608 L 208 6592 M 292 6592 L 292 6608 M 124 6608 L 124 6624 M 188 6608 L 188 6624 M 200 6608 L 188 6632 M 24 6632 L 60 6632 M 60 6624 L 60 6640 M 68 6624 L 68 6640 M 80 6632 L 68 6632 M 80 6632 L 120 6632 M 124 6624 L 124 6656 M 120 6632 L 188 6632 M 128 6632 L 188 6632 L 188 6656 M 304 6632 L 324 6632 M 324 6624 L 324 6640 M 332 6624 L 332 6640 M 344 6632 L 332 6632 M 124 6640 L 124 6656 M 200 6656 L 188 6632 M 200 6656 L 208 6672 M 292 6656 L 292 6672 M 124 6672 L 124 6688 M 212 6680 L 212 6704 M 212 6680 L 288 6680 M 216 6680 L 288 6680 M 292 6680 L 292 6672 M 292 6680 L 288 6680 M 212 6688 L 212 6704 M 212 6720 L 212 6736 M 24 6776 L 48 6776 M 56 6776 L 136 6776 M 144 6776 L 304 6776 M 312 6776 L 416 6776 M 424 6776 L 480 6776 M 52 6784 L 52 6880 M 140 6784 L 140 6832 M 308 6784 L 308 6792 M 420 6784 L 420 6840 M 484 6784 L 484 6880 M 296 6816 L 308 6792 M 176 6824 L 208 6824 M 272 6832 L 280 6816 M 280 6824 L 288 6824 M 144 6840 L 168 6840 M 216 6840 L 240 6840 M 248 6840 L 272 6840 M 292 6832 L 292 6848 M 140 6848 L 140 6880 M 176 6856 L 208 6856 M 244 6848 L 244 6944 M 272 6848 L 280 6864 M 280 6856 L 288 6856 M 408 6864 L 420 6840 M 296 6864 L 304 6880 M 384 6880 L 392 6864 M 392 6872 L 400 6872 M 304 6888 L 336 6888 M 344 6888 L 384 6888 M 404 6880 L 404 6896 M 44 6896 L 44 6928 M 60 6896 L 60 6928 M 132 6896 L 132 6928 M 148 6896 L 148 6928 M 340 6896 L 340 6912 M 384 6896 L 392 6912 M 392 6904 L 400 6904 M 484 6896 L 484 6944 M 408 6912 L 420 6936 M 276 6928 L 276 6976 M 288 6944 L 296 6928 M 300 6928 L 300 6976 M 340 6928 L 340 6944 M 420 6936 L 420 6944 M 52 6944 L 52 7008 M 140 6944 L 140 6976 M 208 6960 L 216 6944 M 216 6952 L 240 6952 M 248 6952 L 276 6952 M 312 6952 L 300 6952 M 312 6952 L 336 6952 M 344 6952 L 416 6952 M 424 6952 L 480 6952 M 184 6976 L 192 6960 M 192 6968 L 200 6968 M 288 6960 L 296 6976 M 484 6960 L 484 6992 M 112 6992 L 120 6976 M 120 6984 L 136 6984 M 144 6984 L 184 6984 M 204 6976 L 204 6992 M 88 7008 L 96 6992 M 96 7000 L 104 7000 M 184 6992 L 192 7008 M 192 7000 L 200 7000 M 464 7000 L 504 7000 M 56 7016 L 88 7016 M 108 7008 L 108 7024 M 208 7008 L 220 7032 M 52 7024 L 52 7072 M 88 7024 L 96 7040 M 96 7032 L 104 7032 M 220 7032 L 220 7120 M 464 7032 L 504 7032 M 112 7040 L 124 7064 M 484 7040 L 484 7072 M 124 7064 L 124 7120 M 56 7080 L 124 7080 M 136 7080 L 124 7080 M 136 7080 L 220 7080 M 232 7080 L 220 7080 M 232 7080 L 480 7080 M 52 7088 L 52 7120 M 76 7104 L 76 7152 M 88 7120 L 96 7104 M 100 7104 L 100 7152 M 56 7128 L 76 7128 M 112 7128 L 100 7128 M 112 7128 L 120 7128 M 128 7128 L 216 7128 M 224 7128 L 280 7128 M 88 7136 L 96 7152 M 40 7192 L 104 7192 M 100 7200 L 100 7296 M 172 7200 L 172 7296 M 60 7256 L 60 7280 M 60 7256 L 100 7256 M 64 7256 L 100 7256 M 60 7264 L 60 7280 M 184 7272 L 172 7272 M 184 7272 L 192 7272 M 196 7272 L 196 7328 M 60 7280 L 60 7328 M 60 7288 L 100 7288 M 64 7288 L 100 7288 M 196 7280 L 196 7328 M 60 7296 L 60 7328 M 100 7304 L 100 7296 M 100 7304 L 168 7304 M 104 7304 L 168 7304 M 172 7304 L 172 7296 M 172 7304 L 168 7304 M 60 7328 L 60 7360 M 60 7336 L 104 7336 M 64 7336 L 104 7336 M 104 7344 L 112 7328 L 120 7344 L 128 7328 L 136 7344 L 144 7328 M 144 7336 L 192 7336 M 196 7336 L 196 7328 M 196 7336 L 192 7336 M 60 7344 L 60 7360 M 40 7368 L 80 7368 M 40 7384 L 80 7384 M 60 7392 L 60 7424 M 108 7488 L 108 7512 L 112 7520 M 104 7536 L 112 7520 M 104 7536 L 112 7552 M 108 7560 L 112 7552 M 108 7560 L 108 7600 M 96 7608 L 120 7608 M 112 7632 L 120 7616 M 96 7656 L 120 7656 M 108 7664 L 108 7704 L 104 7712 M 92 7712 L 92 7728 M 104 7712 L 92 7736 M 24 7736 L 32 7736 M 32 7728 L 40 7744 L 48 7728 L 56 7744 L 64 7728 L 72 7744 M 72 7736 L 92 7736 L 92 7760 M 104 7760 L 92 7736 M 108 7776 L 108 7808 M 108 7872 L 108 7896 L 104 7904 M 92 7904 L 92 7928 M 24 7928 L 32 7928 M 32 7920 L 40 7936 L 48 7920 L 56 7936 L 64 7920 L 72 7936 M 72 7928 L 92 7928 M 92 7936 L 92 7952 M 96 7936 L 108 7960 L 108 8008 L 112 8016 M 104 8032 L 112 8016 M 104 8032 L 112 8048 M 108 8056 L 112 8048 M 108 8056 L 108 8096 M 96 8104 L 120 8104 M 96 8112 L 104 8128 M 112 8128 L 120 8112 M 96 8136 L 120 8136 M 108 8144 L 108 8176 M 16 8232 L 32 8232 M 56 8232 L 64 8232 M 68 8232 L 68 8272 M 64 8232 L 88 8232 M 72 8232 L 88 8232 M 136 8232 L 152 8232 M 156 8232 L 156 8304 M 156 8232 L 152 8232 M 68 8240 L 68 8272 M 156 8240 L 156 8304 M 84 8256 L 84 8368 M 88 8256 L 112 8304 M 296 8272 L 308 8272 M 308 8256 L 308 8272 M 320 8272 L 308 8272 M 68 8280 L 68 8272 M 68 8280 L 84 8280 M 72 8280 L 84 8280 M 96 8280 L 84 8280 M 296 8272 L 304 8288 M 312 8288 L 320 8272 M 20 8288 L 20 8304 M 208 8296 L 240 8296 M 288 8296 L 304 8296 M 120 8312 L 152 8312 M 156 8304 L 156 8384 M 152 8312 L 200 8312 M 160 8312 L 200 8312 M 20 8320 L 20 8336 M 156 8320 L 156 8384 M 208 8328 L 240 8328 M 288 8328 L 304 8328 M 308 8328 L 308 8352 M 308 8328 L 304 8328 M 20 8336 L 20 8384 M 20 8344 L 84 8344 M 24 8344 L 84 8344 M 296 8352 L 308 8352 M 308 8336 L 308 8352 M 320 8352 L 308 8352 M 20 8352 L 20 8384 M 88 8368 L 112 8320 M 296 8352 L 308 8376 M 320 8352 L 308 8376 M 304 8368 L 308 8376 L 312 8368 M 308 8384 L 308 8376 M 20 8384 L 20 8432 M 20 8392 L 56 8392 M 24 8392 L 56 8392 M 104 8392 L 152 8392 M 156 8392 L 156 8384 M 156 8392 L 152 8392 M 20 8400 L 20 8432 M 20 8448 L 20 8464 M 140 8520 L 140 8536 M 140 8520 L 280 8520 M 144 8520 L 280 8520 M 300 8512 L 300 8864 M 308 8512 L 308 8864 M 140 8528 L 140 8536 M 44 8544 L 44 8640 M 124 8544 L 124 8560 M 136 8544 L 124 8568 M 68 8568 L 68 8848 M 68 8568 L 124 8568 M 72 8568 L 124 8568 L 124 8592 M 68 8576 L 68 8848 M 128 8576 L 140 8600 M 328 8584 L 388 8584 M 388 8576 L 388 8592 M 404 8576 L 404 8592 M 416 8584 L 404 8584 M 416 8584 L 488 8584 M 140 8600 L 140 8608 M 128 8616 L 136 8616 M 136 8624 L 144 8624 M 144 8616 L 152 8616 M 44 8640 L 44 8896 M 44 8648 L 68 8648 M 48 8648 L 68 8648 M 80 8648 L 68 8648 M 80 8648 L 280 8648 M 44 8656 L 44 8896 M 128 8672 L 140 8672 M 136 8664 L 144 8664 M 152 8672 L 140 8672 L 140 8680 M 124 8688 L 124 8704 M 136 8688 L 124 8712 M 88 8712 L 124 8712 L 124 8736 M 92 8720 L 92 8784 M 128 8720 L 140 8744 L 140 8752 M 140 8760 L 140 8752 M 140 8760 L 280 8760 M 144 8760 L 280 8760 M 88 8792 L 280 8792 M 328 8792 L 480 8792 M 504 8792 L 512 8792 M 196 8824 L 196 8848 M 196 8824 L 280 8824 M 200 8824 L 280 8824 M 196 8832 L 196 8848 M 344 8840 L 352 8840 M 68 8856 L 68 8848 M 68 8856 L 280 8856 M 72 8856 L 280 8856 M 196 8864 L 196 8896 M 44 8904 L 44 8896 M 44 8904 L 128 8904 M 48 8904 L 128 8904 M 128 8912 L 136 8896 L 144 8912 L 152 8896 L 160 8912 L 168 8896 L 176 8912 M 176 8904 L 192 8904 M 196 8904 L 196 8896 M 192 8904 L 216 8904 M 200 8904 L 216 8904 M 216 8912 L 224 8896 L 232 8912 L 240 8896 L 248 8912 L 256 8896 L 264 8912 M 264 8904 L 288 8904 M 292 8904 L 292 8928 M 292 8904 L 288 8904 M 280 8928 L 292 8928 M 292 8912 L 292 8928 M 304 8928 L 292 8928 M 288 8936 L 296 8936 M 92 9040 L 92 9056 M 28 9064 L 28 9088 M 28 9064 L 88 9064 M 32 9064 L 88 9064 M 92 9056 L 92 9104 M 88 9064 L 120 9064 M 96 9064 L 120 9064 M 124 9064 L 124 9104 M 124 9064 L 120 9064 M 28 9072 L 28 9088 M 92 9072 L 92 9104 M 124 9072 L 124 9104 M 272 9080 L 280 9080 M 204 9096 L 204 9120 M 204 9096 L 240 9096 M 208 9096 L 240 9096 M 244 9096 L 244 9184 M 28 9104 L 28 9120 M 80 9112 L 136 9112 M 204 9104 L 204 9120 M 244 9104 L 244 9184 M 28 9120 L 28 9152 M 28 9128 L 76 9128 M 32 9128 L 76 9128 M 76 9120 L 76 9216 M 140 9120 L 140 9216 M 28 9136 L 28 9152 M 52 9144 L 52 9184 M 52 9144 L 76 9144 M 56 9144 L 76 9144 M 204 9136 L 204 9152 M 52 9152 L 52 9184 M 152 9160 L 140 9160 M 152 9160 L 168 9160 M 184 9160 L 200 9160 M 204 9152 L 204 9184 M 204 9160 L 200 9160 M 28 9168 L 28 9184 M 204 9168 L 204 9184 M 28 9184 L 28 9232 M 28 9192 L 48 9192 M 32 9192 L 48 9192 M 52 9192 L 52 9184 M 48 9192 L 76 9192 M 56 9192 L 76 9192 M 28 9200 L 28 9232 M 204 9200 L 204 9264 M 244 9200 L 244 9264 M 80 9224 L 136 9224 M 108 9232 L 108 9264 M 28 9248 L 28 9264 M 28 9272 L 28 9264 M 28 9272 L 104 9272 M 32 9272 L 104 9272 M 108 9264 L 108 9296 M 104 9272 L 200 9272 M 112 9272 L 200 9272 M 204 9272 L 204 9264 M 200 9272 L 240 9272 M 208 9272 L 240 9272 M 244 9272 L 244 9264 M 244 9272 L 240 9272 M 108 9280 L 108 9296 M 80 9384 L 88 9384 M 380 9376 L 380 9408 M 392 9384 L 380 9384 M 392 9384 L 484 9384 M 484 9376 L 484 9408 M 60 9392 L 60 9424 M 72 9400 L 60 9400 M 72 9400 L 144 9400 M 140 9408 L 140 9424 M 16 9432 L 32 9432 M 60 9440 L 60 9488 M 140 9440 L 140 9472 M 388 9440 L 388 9472 M 484 9440 L 484 9472 M 424 9464 L 432 9464 M 16 9480 L 60 9480 M 72 9480 L 60 9480 M 72 9480 L 560 9480 M 424 9624 L 440 9624 M 8 9648 L 16 9632 M 20 9632 L 20 9696 M 24 9632 L 32 9648 M 192 9648 L 180 9648 M 192 9648 L 212 9648 M 208 9648 L 216 9648 M 224 9648 L 212 9648 M 224 9648 L 236 9648 M 232 9648 L 240 9648 M 248 9648 L 236 9648 M 248 9648 L 268 9648 M 304 9648 L 292 9648 M 304 9648 L 324 9648 M 320 9648 L 328 9648 M 336 9648 L 324 9648 M 336 9648 L 348 9648 M 344 9648 L 352 9648 M 360 9648 L 348 9648 M 360 9648 L 380 9648 M 180 9648 L 180 9696 M 212 9648 L 212 9696 M 236 9648 L 236 9696 M 268 9648 L 268 9696 M 292 9648 L 292 9696 M 324 9648 L 324 9696 M 348 9648 L 348 9696 M 380 9648 L 380 9696 M 104 9688 L 112 9688 M 136 9696 L 180 9696 M 192 9696 L 180 9696 M 192 9696 L 212 9696 M 248 9696 L 236 9696 M 248 9696 L 268 9696 M 280 9696 L 268 9696 M 280 9696 L 292 9696 M 304 9696 L 292 9696 M 304 9696 L 324 9696 M 360 9696 L 348 9696 M 360 9696 L 380 9696 M 392 9696 L 380 9696 M 392 9696 L 424 9696 M 432 9720 L 448 9720" fill="none"/>
<path d=" M 400 1080 L 424 1080 M 64 2800 L 88 2800 M 64 2816 L 88 2816 M 64 2832 L 88 2832 M 64 2848 L 88 2848 M 64 2864 L 88 2864 M 176 3208 L 208 3208 M 240 3352 L 264 3352 M 56 3376 L 96 3376 M 240 3448 L 264 3448 M 20 5536 L 20 5584 M 464 6888 L 504 6888 M 320 6920 L 360 6920 M 96 9304 L 120 9304 M 160 9624 L 400 9624 M 160 9720 L 408 9720" fill="none" stroke-dasharray="3 3"/>
<line marker-end="url(#triangle)" x1="400" x2="404" y1="296" y2="296"/>
<line marker-end="url(#triangle)" x1="440" x2="436" y1="344" y2="344"/>
<line marker-end="url(#triangle)" x1="352" x2="412" y1="984" y2="984"/>
<line marker-end="url(#triangle)" x1="200" x2="300" y1="1160" y2="1160"/>
<line marker-end="url(#triangle)" x1="208" x2="300" y1="1160" y2="1160"/>
<line marker-end="url(#triangle)" x1="464" x2="516" y1="1160" y2="1160"/>
<line marker-end="url(#triangle)" x1="472" x2="516" y1="1160" y2="1160"/>
<line marker-end="url(#triangle)" x1="144" x2="292" y1="1400" y2="1400"/>
<line marker-end="url(#triangle)" x1="152" x2="292" y1="1400" y2="1400"/>
<line marker-end="url(#triangle)" x1="464" x2="500" y1="1400" y2="1400"/>
<line marker-end="url(#triangle)" x1="472" x2="500" y1="1400" y2="1400"/>
<line marker-end="url(#triangle)" x1="44" x2="44" y1="1840" y2="1824"/>
<line marker-end="url(#triangle)" x1="364" x2="460" y1="1896" y2="1896"/>
<line marker-end="url(#triangle)" x1="368" x2="460" y1="1896" y2="1896"/>
<line marker-end="url(#triangle)" x1="288" x2="308" y1="2568" y2="2568"/>
<line marker-end="url(#triangle)" x1="360" x2="396" y1="2760" y2="2760"/>
<line marker-end="url(#triangle)" x1="368" x2="396" y1="2760" y2="2760"/>
<line marker-end="url(#triangle)" x1="24" x2="20" y1="3304" y2="3304"/>
<line marker-end="url(#triangle)" x1="24" x2="20" y1="3448" y2="3448"/>
<line marker-end="url(#triangle)" x1="168" x2="212" y1="3592" y2="3592"/>
<line marker-end="url(#triangle)" x1="176" x2="212" y1="3592" y2="3592"/>
<line marker-end="url(#triangle)" x1="68" x2="68" y1="4240" y2="4224"/>
<line marker-end="url(#triangle)" x1="184" x2="244" y1="4952" y2="4952"/>
<line marker-end="url(#triangle)" x1="220" x2="244" y1="4984" y2="4984"/>
<line marker-end="url(#triangle)" x1="224" x2="244" y1="4984" y2="4984"/>
<line marker-end="url(#triangle)" x1="320" x2="380" y1="5240" y2="5240"/>
<line marker-end="url(#triangle)" x1="16" x2="12" y1="5400" y2="5400"/>
<line marker-end="url(#triangle)" x1="16" x2="68" y1="5400" y2="5400"/>
<line marker-end="url(#triangle)" x1="164" x2="164" y1="5424" y2="5408"/>
<line marker-end="url(#triangle)" x1="176" x2="292" y1="5432" y2="5432"/>
<line marker-end="url(#triangle)" x1="40" x2="36" y1="5512" y2="5512"/>
<line marker-end="url(#triangle)" x1="264" x2="292" y1="5512" y2="5512"/>
<line marker-end="url(#triangle)" x1="312" x2="420" y1="5672" y2="5672"/>
<line marker-end="url(#triangle)" x1="448" x2="492" y1="5832" y2="5832"/>
<line marker-end="url(#triangle)" x1="456" x2="492" y1="5832" y2="5832"/>
<line marker-end="url(#triangle)" x1="304" x2="300" y1="6632" y2="6632"/>
<line marker-end="url(#triangle)" x1="344" x2="364" y1="6632" y2="6632"/>
<line marker-end="url(#triangle)" x1="192" x2="228" y1="7272" y2="7272"/>
<line marker-end="url(#triangle)" x1="200" x2="228" y1="7272" y2="7272"/>
<line marker-end="url(#triangle)" x1="108" x2="108" y1="7488" y2="7472"/>
<line marker-end="url(#triangle)" x1="96" x2="108" y1="7616" y2="7640"/>
<line marker-end="url(#triangle)" x1="104" x2="108" y1="7760" y2="7768"/>
<line marker-end="url(#triangle)" x1="108" x2="108" y1="7872" y2="7856"/>
<line marker-end="url(#triangle)" x1="92" x2="92" y1="9040" y2="9024"/>
<line marker-end="url(#triangle)" x1="240" x2="276" y1="9096" y2="9096"/>
<line marker-end="url(#triangle)" x1="248" x2="276" y1="9096" y2="9096"/>
<line marker-end="url(#triangle)" x1="360" x2="372" y1="9368" y2="9368"/>
<line marker-end="url(#triangle)" x1="80" x2="76" y1="9384" y2="9384"/>
<line marker-end="url(#triangle)" x1="96" x2="108" y1="9464" y2="9464"/>
<line marker-end="url(#triangle)" x1="424" x2="420" y1="9464" y2="9464"/>
<line marker-end="url(#triangle)" x1="424" x2="420" y1="9624" y2="9624"/>
<line marker-end="url(#triangle)" x1="432" x2="428" y1="9720" y2="9720"/>
<text x="10" y="60">
+10
</text>
<text x="42" y="60">
15V
</text>
<text x="178" y="60">
0,047R
</text>
<text x="18" y="76">
X
</text>
<text x="18" y="124">
470uF
</text>
<text x="66" y="124">
###
</text>
<text x="242" y="124">
2k2
</text>
<text x="90" y="140">
+
</text>
<text x="18" y="156">
X
</text>
<text x="162" y="172">
6
</text>
<text x="202" y="172">
7
</text>
<text x="226" y="172">
8
</text>
<text x="266" y="172">
1k
</text>
<text x="66" y="188">
GND
</text>
<text x="250" y="220">
1
</text>
<text x="354" y="220">
BC
</text>
<text x="354" y="236">
547
</text>
<text x="330" y="252">
&gt;
</text>
<text x="258" y="284">
220R
</text>
<text x="426" y="284">
IRF9Z34
</text>
<text x="162" y="316">
MC34063
</text>
<text x="426" y="332">
BYV29
</text>
<text x="514" y="332">
12V6
</text>
<text x="514" y="348">
X OUT
</text>
<text x="250" y="364">
2
</text>
<text x="402" y="380">
C
</text>
<text x="258" y="396">
GND
</text>
<text x="362" y="396">
30uH C
</text>
<text x="514" y="396">
470
</text>
<text x="250" y="412">
3
</text>
<text x="306" y="412">
1nF
</text>
<text x="402" y="412">
C
</text>
<text x="482" y="412">
###
</text>
<text x="522" y="412">
uF
</text>
<text x="506" y="428">
+
</text>
<text x="394" y="444">
GND
</text>
<text x="482" y="444">
GND
</text>
<text x="178" y="460">
5
</text>
<text x="218" y="460">
4
</text>
<text x="442" y="524">
1k0
</text>
<text x="402" y="556">
5k6
</text>
<text x="434" y="556">
+
</text>
<text x="450" y="556">
3k3
</text>
<text x="402" y="572">
in Serie
</text>
<text x="370" y="620">
GND
</text>
<text x="10" y="652">
+12v
</text>
<text x="58" y="652">
(sidelights)
</text>
<text x="82" y="700">
Buzzer
</text>
<text x="138" y="700">
(12v)
</text>
<text x="114" y="748">
&lt;
</text>
<text x="202" y="748">
To existing drivers interior light switch
</text>
<text x="106" y="764">
Di
</text>
<text x="130" y="764">
de
</text>
<text x="42" y="796">
O
</text>
<text x="90" y="812">
Drivers door switch
</text>
<text x="42" y="828">
O
</text>
<text x="34" y="860">
Car Chassis
</text>
<text x="82" y="908">
2
</text>
<text x="138" y="908">
&lt;
</text>
<text x="146" y="908">
640k&gt;
</text>
<text x="82" y="924">
3
</text>
<text x="138" y="924">
&lt;
</text>
<text x="146" y="924">
320k&gt;
</text>
<text x="82" y="940">
4
</text>
<text x="138" y="940">
&lt;
</text>
<text x="146" y="940">
160k&gt;
</text>
<text x="82" y="956">
5
</text>
<text x="138" y="956">
&lt;
</text>
<text x="146" y="956">
80k&gt;
</text>
<text x="82" y="972">
6
</text>
<text x="138" y="972">
&lt;
</text>
<text x="146" y="972">
40k&gt;
</text>
<text x="82" y="988">
7
</text>
<text x="138" y="988">
&lt;
</text>
<text x="146" y="988">
20k&gt;
</text>
<text x="306" y="988">
10 uF
</text>
<text x="426" y="988">
Out
</text>
<text x="82" y="1004">
8
</text>
<text x="138" y="1004">
&lt;
</text>
<text x="146" y="1004">
10k&gt;
</text>
<text x="82" y="1020">
9
</text>
<text x="138" y="1020">
&lt;
</text>
<text x="146" y="1020">
5k&gt;
</text>
<text x="242" y="1020">
&lt;
</text>
<text x="250" y="1020">
390&gt;
</text>
<text x="82" y="1052">
25
</text>
<text x="394" y="1100">
Ground
</text>
<text x="50" y="1148">
SW3
</text>
<text x="2" y="1164">
+6V
</text>
<text x="306" y="1164">
&gt;
</text>
<text x="522" y="1164">
&gt;
</text>
<text x="98" y="1196">
LAMP1
</text>
<text x="450" y="1196">
LAMP2
</text>
<text x="218" y="1212">
SW1
</text>
<text x="394" y="1212">
SW2
</text>
<text x="138" y="1228">
A&gt;
</text>
<text x="322" y="1228">
&lt;
</text>
<text x="330" y="1228">
A
</text>
<text x="178" y="1244">
==
</text>
<text x="250" y="1244">
B&gt;
</text>
<text x="394" y="1244">
==
</text>
<text x="434" y="1244">
&lt;
</text>
<text x="442" y="1244">
B
</text>
<text x="50" y="1276">
SCR1
</text>
<text x="506" y="1276">
SCR2
</text>
<text x="194" y="1292">
R3
</text>
<text x="234" y="1292">
^
</text>
<text x="346" y="1292">
^
</text>
<text x="378" y="1292">
R4
</text>
<text x="226" y="1308">
CR1
</text>
<text x="338" y="1308">
CR2
</text>
<text x="170" y="1340">
R2
</text>
<text x="402" y="1340">
R5
</text>
<text x="146" y="1372">
R1
</text>
<text x="426" y="1372">
R6
</text>
<text x="2" y="1404">
GND
</text>
<text x="298" y="1404">
&gt;
</text>
<text x="506" y="1404">
&gt;
</text>
<text x="2" y="1436">
SW1,SW2
</text>
<text x="130" y="1436">
normally open momentary pushbuttons
</text>
<text x="2" y="1452">
SW3
</text>
<text x="130" y="1452">
normally closed momentary pushbutton
</text>
<text x="2" y="1468">
LAMP1,
</text>
<text x="58" y="1468">
LAMP2
</text>
<text x="130" y="1468">
6V incandescent lamps
</text>
<text x="2" y="1484">
R1,
</text>
<text x="34" y="1484">
R6
</text>
<text x="130" y="1484">
470 ohm
</text>
<text x="2" y="1500">
R2,R3,R4,R5
</text>
<text x="130" y="1500">
1 K
</text>
<text x="2" y="1516">
SCR1,
</text>
<text x="50" y="1516">
SCR2
</text>
<text x="130" y="1516">
Small SCRs,
</text>
<text x="226" y="1516">
not power type
</text>
<text x="2" y="1532">
CR1,
</text>
<text x="42" y="1532">
CR2
</text>
<text x="130" y="1532">
1N914 diodes
</text>
<text x="2" y="1548">
+
</text>
<text x="130" y="1548">
connection
</text>
<text x="2" y="1564">
^
</text>
<text x="130" y="1564">
cathode of a diode
</text>
<text x="18" y="1580">
A&gt;
</text>
<text x="42" y="1580">
&lt;
</text>
<text x="50" y="1580">
A
</text>
<text x="130" y="1580">
are connected
</text>
<text x="242" y="1580">
(jump)
</text>
<text x="18" y="1596">
B&gt;
</text>
<text x="42" y="1596">
&lt;
</text>
<text x="50" y="1596">
B
</text>
<text x="130" y="1596">
same deal
</text>
<text x="2" y="1628">
+5
</text>
<text x="50" y="1660">
R
</text>
<text x="58" y="1676">
(see below)
</text>
<text x="178" y="1676">
8
</text>
<text x="210" y="1676">
4
</text>
<text x="18" y="1692">
+
</text>
<text x="162" y="1692">
7
</text>
<text x="234" y="1692">
3
</text>
<text x="442" y="1692">
Vout
</text>
<text x="18" y="1708">
:
</text>
<text x="178" y="1708">
LMC555
</text>
<text x="18" y="1724">
C to test
</text>
<text x="162" y="1724">
6
</text>
<text x="18" y="1740">
:
</text>
<text x="2" y="1756">
ground
</text>
<text x="162" y="1756">
2
</text>
<text x="234" y="1756">
5
</text>
<text x="194" y="1772">
1
</text>
<text x="354" y="1772">
gr
</text>
<text x="378" y="1772">
und
</text>
<text x="266" y="1788">
0.1 uF
</text>
<text x="26" y="1820">
Clock
</text>
<text x="178" y="1820">
gr
</text>
<text x="202" y="1820">
und
</text>
<text x="266" y="1820">
gr
</text>
<text x="290" y="1820">
und
</text>
<text x="2" y="1852">
(see
</text>
<text x="58" y="1852">
next section
</text>
<text x="178" y="1852">
CMOS Oscillator)
</text>
<text x="474" y="1900">
Output
</text>
<text x="106" y="1996">
O
</text>
<text x="218" y="1996">
O
</text>
<text x="330" y="1996">
O
</text>
<text x="474" y="1996">
O
</text>
<text x="266" y="2076">
+5.0V
</text>
<text x="306" y="2124">
R1
</text>
<text x="298" y="2140">
10K
</text>
<text x="426" y="2156">
L1
</text>
<text x="418" y="2172">
75 uH
</text>
<text x="146" y="2188">
O&lt;
</text>
<text x="402" y="2188">
)()()()(
</text>
<text x="338" y="2236">
R2
</text>
<text x="330" y="2252">
10K
</text>
<text x="306" y="2300">
GND
</text>
<text x="226" y="2348">
+5V
</text>
<text x="250" y="2396">
LED
</text>
<text x="2" y="2428">
TTL
</text>
<text x="74" y="2428">
6k8
</text>
<text x="210" y="2444">
e
</text>
<text x="138" y="2476">
4k7
</text>
<text x="202" y="2476">
270
</text>
<text x="226" y="2524">
GND
</text>
<text x="66" y="2572">
+
</text>
<text x="138" y="2572">
+
</text>
<text x="210" y="2572">
+
</text>
<text x="282" y="2572">
+
</text>
<text x="322" y="2572">
+9v
</text>
<text x="354" y="2572">
(whatever)
</text>
<text x="82" y="2604">
R1
</text>
<text x="154" y="2604">
R2
</text>
<text x="226" y="2604">
R3
</text>
<text x="298" y="2604">
R4
</text>
<text x="122" y="2652">
C1
</text>
<text x="266" y="2652">
C2
</text>
<text x="34" y="2668">
D1
</text>
<text x="82" y="2668">
c
</text>
<text x="362" y="2668">
D2
</text>
<text x="314" y="2684">
c
</text>
<text x="74" y="2700">
Q1
</text>
<text x="282" y="2700">
b
</text>
<text x="114" y="2716">
b
</text>
<text x="322" y="2716">
Q2
</text>
<text x="82" y="2732">
e
</text>
<text x="314" y="2748">
e
</text>
<text x="402" y="2764">
GND
</text>
<text x="2" y="2796">
Q1,
</text>
<text x="34" y="2796">
Q2
</text>
<text x="98" y="2796">
anything NPN
</text>
<text x="202" y="2796">
:
</text>
<text x="218" y="2796">
BC108,
</text>
<text x="274" y="2796">
2N2222,
</text>
<text x="338" y="2796">
etc
</text>
<text x="2" y="2812">
R1,
</text>
<text x="34" y="2812">
R4
</text>
<text x="98" y="2812">
1k0
</text>
<text x="2" y="2828">
R2,
</text>
<text x="34" y="2828">
R3
</text>
<text x="98" y="2828">
10k0
</text>
<text x="2" y="2844">
C1,
</text>
<text x="34" y="2844">
C2
</text>
<text x="98" y="2844">
10uF
</text>
<text x="2" y="2860">
D1,
</text>
<text x="34" y="2860">
D2
</text>
<text x="98" y="2860">
Your LEDs
</text>
<text x="162" y="2908">
+5VDC
</text>
<text x="194" y="2956">
270 ohms
</text>
<text x="2" y="3004">
Control
</text>
<text x="82" y="3004">
7407
</text>
<text x="74" y="3020">
&gt;
</text>
<text x="2" y="3052">
Control
</text>
<text x="66" y="3052">
=
</text>
<text x="82" y="3052">
1 LED on
</text>
<text x="2" y="3068">
Control
</text>
<text x="66" y="3068">
=
</text>
<text x="82" y="3068">
0 LED off
</text>
<text x="162" y="3100">
LED
</text>
<text x="154" y="3116">
anode
</text>
<text x="2" y="3148">
Part 1:
</text>
<text x="2" y="3164">
~~~~~~~
</text>
<text x="298" y="3164">
C4
</text>
<text x="322" y="3164">
C10
</text>
<text x="370" y="3164">
DISK CERAMICS
</text>
<text x="162" y="3180">
1M
</text>
<text x="186" y="3180">
1Watt
</text>
<text x="186" y="3196">
R3
</text>
<text x="234" y="3196">
100p
</text>
<text x="322" y="3196">
100p
</text>
<text x="402" y="3196">
100p
</text>
<text x="482" y="3196">
100p
</text>
<text x="34" y="3228">
D3
</text>
<text x="58" y="3228">
D11:
</text>
<text x="242" y="3228">
C4
</text>
<text x="330" y="3228">
C6
</text>
<text x="410" y="3228">
C8
</text>
<text x="482" y="3228">
C10
</text>
<text x="58" y="3244">
high
</text>
<text x="162" y="3244">
Diodes follow
</text>
<text x="58" y="3260">
voltage
</text>
<text x="162" y="3260">
direction to
</text>
<text x="274" y="3260">
D5
</text>
<text x="314" y="3260">
D6
</text>
<text x="354" y="3260">
D7
</text>
<text x="394" y="3260">
D8
</text>
<text x="434" y="3260">
D9
</text>
<text x="474" y="3260">
D10
</text>
<text x="522" y="3260">
D11
</text>
<text x="58" y="3276">
3kV diodes
</text>
<text x="162" y="3276">
D11 from D5
</text>
<text x="578" y="3276">
R4
</text>
<text x="18" y="3292">
A
</text>
<text x="290" y="3292">
C5
</text>
<text x="370" y="3292">
C7
</text>
<text x="450" y="3292">
C9
</text>
<text x="578" y="3292">
47K
</text>
<text x="194" y="3308">
D3&gt;
</text>
<text x="282" y="3324">
100p
</text>
<text x="362" y="3324">
100p
</text>
<text x="442" y="3324">
100p
</text>
<text x="578" y="3324">
R5
</text>
<text x="42" y="3340">
Diode
</text>
<text x="138" y="3340">
D4
</text>
<text x="578" y="3340">
33K
</text>
<text x="42" y="3356">
going
</text>
<text x="226" y="3356">
C2
</text>
<text x="266" y="3356">
0.1
</text>
<text x="298" y="3356">
1.6KV
</text>
<text x="42" y="3372">
up
</text>
<text x="98" y="3372">
&gt;
</text>
<text x="18" y="3388">
B
</text>
<text x="474" y="3388">
+VE
</text>
<text x="554" y="3420">
LASER
</text>
<text x="554" y="3436">
TUBE
</text>
<text x="42" y="3452">
To part 2
</text>
<text x="226" y="3452">
C3
</text>
<text x="266" y="3452">
0.1
</text>
<text x="298" y="3452">
1.6KV
</text>
<text x="474" y="3468">
GND
</text>
<text x="10" y="3564">
CMOS or HCMOS inverter
</text>
<text x="130" y="3596">
&gt;
</text>
<text x="138" y="3596">
0
</text>
<text x="226" y="3596">
OUT
</text>
<text x="106" y="3660">
1 M
</text>
<text x="138" y="3660">
hm
</text>
<text x="186" y="3708">
2.7 kohms
</text>
<text x="122" y="3772">
1MHz
</text>
<text x="202" y="3772">
parallel resonant
</text>
<text x="130" y="3788">
[]
</text>
<text x="18" y="3820">
55pf
</text>
<text x="202" y="3820">
60pf
</text>
<text x="202" y="3884">
.47 uH
</text>
<text x="282" y="3884">
56 pF
</text>
<text x="386" y="3884">
180 
</text>
<text x="426" y="3884">
hms
</text>
<text x="2" y="3900">
from inverter output
</text>
<text x="202" y="3900">
(((((
</text>
<text x="466" y="3900">
to xtal
</text>
<text x="466" y="3948">
56 pF
</text>
<text x="2" y="4028">
A C
</text>
<text x="34" y="4028">
L
</text>
<text x="50" y="4028">
C pi filter and series resonant crystal is another solution:
</text>
<text x="202" y="4044">
180 ohms
</text>
<text x="298" y="4044">
.47uH
</text>
<text x="2" y="4060">
from inverter output
</text>
<text x="290" y="4060">
(((((
</text>
<text x="378" y="4060">
xtal
</text>
<text x="466" y="4060">
to input
</text>
<text x="370" y="4076">
series
</text>
<text x="282" y="4108">
120pF
</text>
<text x="458" y="4108">
100pF
</text>
<text x="66" y="4204">
VR1
</text>
<text x="2" y="4220">
&lt;
</text>
<text x="10" y="4220">
G&gt;
</text>
<text x="114" y="4220">
+
</text>
<text x="330" y="4220">
R6
</text>
<text x="498" y="4220">
&lt;
</text>
<text x="506" y="4220">
+12VDC&gt;
</text>
<text x="114" y="4236">
^
</text>
<text x="34" y="4252">
C2
</text>
<text x="106" y="4252">
CR2 C8
</text>
<text x="234" y="4252">
R4
</text>
<text x="306" y="4252">
c
</text>
<text x="362" y="4252">
R8
</text>
<text x="402" y="4252">
c
</text>
<text x="442" y="4252">
C11
</text>
<text x="34" y="4268">
+
</text>
<text x="90" y="4284">
&lt;
</text>
<text x="98" y="4284">
G&gt;
</text>
<text x="202" y="4284">
C5
</text>
<text x="442" y="4284">
&lt;
</text>
<text x="450" y="4284">
G&gt;
</text>
<text x="2" y="4300">
audio
</text>
<text x="66" y="4300">
R1
</text>
<text x="2" y="4316">
in
</text>
<text x="266" y="4316">
C6
</text>
<text x="306" y="4316">
e
</text>
<text x="402" y="4316">
e
</text>
<text x="2" y="4332">
O
</text>
<text x="26" y="4332">
C1
</text>
<text x="90" y="4332">
R2
</text>
<text x="122" y="4332">
+
</text>
<text x="146" y="4332">
C4
</text>
<text x="234" y="4332">
R3
</text>
<text x="122" y="4348">
^
</text>
<text x="330" y="4348">
C9
</text>
<text x="426" y="4348">
C10
</text>
<text x="466" y="4348">
O
</text>
<text x="490" y="4348">
RF out
</text>
<text x="66" y="4364">
C3
</text>
<text x="114" y="4364">
CR1
</text>
<text x="178" y="4364">
L1
</text>
<text x="266" y="4364">
C7
</text>
<text x="306" y="4364">
R5
</text>
<text x="362" y="4364">
R7
</text>
<text x="402" y="4364">
R9
</text>
<text x="2" y="4396">
&lt;
</text>
<text x="10" y="4396">
G&gt;
</text>
<text x="498" y="4396">
&lt;
</text>
<text x="506" y="4396">
G&gt;
</text>
<text x="290" y="4428">
Q1
</text>
<text x="386" y="4428">
Q2
</text>
<text x="2" y="4460">
+
</text>
<text x="130" y="4460">
connection&lt;
</text>
<text x="218" y="4460">
G&gt;
</text>
<text x="338" y="4460">
ground connection
</text>
<text x="2" y="4476">
^
</text>
<text x="130" y="4476">
cathode of a diode
</text>
<text x="2" y="4508">
C1,
</text>
<text x="34" y="4508">
C2,
</text>
<text x="66" y="4508">
C8,
</text>
<text x="98" y="4508">
C11
</text>
<text x="130" y="4508">
.1 uF
</text>
<text x="2" y="4524">
C3,
</text>
<text x="34" y="4524">
C4
</text>
<text x="130" y="4524">
.001 uF
</text>
<text x="2" y="4540">
C5,
</text>
<text x="34" y="4540">
C6,
</text>
<text x="66" y="4540">
C7
</text>
<text x="130" y="4540">
39 pF NPO or silver mica
</text>
<text x="2" y="4556">
C9
</text>
<text x="130" y="4556">
10 pF NPO or silver mica
</text>
<text x="2" y="4572">
C10
</text>
<text x="130" y="4572">
22 pF
</text>
<text x="2" y="4588">
CR1
</text>
<text x="130" y="4588">
ECG616 varactor
</text>
<text x="258" y="4588">
(tuning)
</text>
<text x="330" y="4588">
diode
</text>
<text x="2" y="4604">
CR2
</text>
<text x="130" y="4604">
9v Zener
</text>
<text x="2" y="4620">
L1
</text>
<text x="130" y="4620">
5T
</text>
<text x="154" y="4620">
#20 wire,
</text>
<text x="234" y="4620">
1
</text>
<text x="250" y="4620">
8 inch I.D.,
</text>
<text x="354" y="4620">
adjust spacing for tuning range
</text>
<text x="2" y="4636">
Q1
</text>
<text x="130" y="4636">
2N3663
</text>
<text x="2" y="4652">
Q2
</text>
<text x="130" y="4652">
2N3904
</text>
<text x="2" y="4668">
R1,
</text>
<text x="34" y="4668">
R2
</text>
<text x="130" y="4668">
47 K
</text>
<text x="2" y="4684">
R3
</text>
<text x="130" y="4684">
22 K
</text>
<text x="2" y="4700">
R4
</text>
<text x="130" y="4700">
15 K
</text>
<text x="2" y="4716">
R5
</text>
<text x="130" y="4716">
1 K
</text>
<text x="2" y="4732">
R6
</text>
<text x="130" y="4732">
390 ohm
</text>
<text x="2" y="4748">
R7,
</text>
<text x="34" y="4748">
R8
</text>
<text x="130" y="4748">
4.7 K
</text>
<text x="2" y="4764">
R9
</text>
<text x="130" y="4764">
100 ohm
</text>
<text x="2" y="4780">
VR1
</text>
<text x="130" y="4780">
100 K,
</text>
<text x="186" y="4780">
linear taper
</text>
<text x="82" y="4828">
o
</text>
<text x="98" y="4828">
+5v
</text>
<text x="50" y="4892">
1k R
</text>
<text x="114" y="4908">
c
</text>
<text x="138" y="4908">
BC108B
</text>
<text x="90" y="4924">
b
</text>
<text x="2" y="4940">
2Vpp
</text>
<text x="114" y="4940">
e
</text>
<text x="170" y="4940">
75ohm
</text>
<text x="2" y="4956">
video
</text>
<text x="82" y="4956">
e
</text>
<text x="178" y="4956">
R
</text>
<text x="258" y="4956">
video out
</text>
<text x="2" y="4972">
in
</text>
<text x="26" y="4972">
&gt;
</text>
<text x="58" y="4972">
b
</text>
<text x="258" y="4972">
1Vpp
</text>
<text x="298" y="4972">
@
</text>
<text x="314" y="4972">
75 ohm
</text>
<text x="82" y="4988">
c
</text>
<text x="106" y="4988">
R 1k
</text>
<text x="26" y="5004">
BC178B
</text>
<text x="130" y="5052">
5v
</text>
<text x="154" y="5052">
(yes,
</text>
<text x="202" y="5052">
tw
</text>
<text x="234" y="5052">
sided power supply,
</text>
<text x="394" y="5052">
not ground)
</text>
<text x="266" y="5100">
+5v
</text>
<text x="82" y="5164">
3k8 R
</text>
<text x="154" y="5164">
R 680R
</text>
<text x="250" y="5164">
R 56R
</text>
<text x="258" y="5196">
e BC178B
</text>
<text x="2" y="5212">
Video in
</text>
<text x="234" y="5212">
b
</text>
<text x="2" y="5228">
1Vpp
</text>
<text x="42" y="5228">
75R
</text>
<text x="90" y="5228">
+
</text>
<text x="162" y="5228">
c
</text>
<text x="258" y="5228">
c
</text>
<text x="298" y="5228">
100n plastic
</text>
<text x="2" y="5244">
&gt;
</text>
<text x="138" y="5244">
b
</text>
<text x="178" y="5244">
BC108B
</text>
<text x="394" y="5244">
to black level clamping
</text>
<text x="58" y="5260">
47u
</text>
<text x="162" y="5260">
e
</text>
<text x="402" y="5260">
2Vp
</text>
<text x="434" y="5260">
p
</text>
<text x="250" y="5276">
R 220R
</text>
<text x="34" y="5292">
R 75R
</text>
<text x="114" y="5292">
R
</text>
<text x="250" y="5292">
+
</text>
<text x="122" y="5308">
1k8
</text>
<text x="250" y="5308">
R 150R
</text>
<text x="274" y="5340">
(single power supply this time)
</text>
<text x="66" y="5388">
D
</text>
<text x="162" y="5388">
R
</text>
<text x="306" y="5436">
To anode terminal
</text>
<text x="10" y="5452">
To
</text>
<text x="10" y="5468">
120 VAC
</text>
<text x="202" y="5468">
C
</text>
<text x="210" y="5484">
(
</text>
<text x="306" y="5516">
To selected cathode
</text>
<text x="2" y="5548">
D
</text>
<text x="42" y="5548">
any rectifier diode of
</text>
<text x="226" y="5548">
&gt;
</text>
<text x="234" y="5548">
=
</text>
<text x="250" y="5548">
250 PIV
</text>
<text x="2" y="5564">
R
</text>
<text x="42" y="5564">
100 K or so variable resistor
</text>
<text x="2" y="5580">
C
</text>
<text x="42" y="5580">
20 uf
</text>
<text x="90" y="5580">
(or more)
</text>
<text x="170" y="5580">
at at least 250 WVDC
</text>
<text x="338" y="5580">
(observe polarity!)
</text>
<text x="250" y="5628">
capacitor
</text>
<text x="330" y="5628">
(0.5 uf or so)
</text>
<text x="434" y="5676">
to amplifier
</text>
<text x="50" y="5708">
(positive lead)
</text>
<text x="26" y="5740">
MIC
</text>
<text x="258" y="5740">
(resistor 1
</text>
<text x="354" y="5740">
2K or so)
</text>
<text x="466" y="5756">
+
</text>
<text x="50" y="5772">
(ground lead)
</text>
<text x="162" y="5772">
(
</text>
<text x="178" y="5772">
)
</text>
<text x="282" y="5788">
(battery 9v or so)
</text>
<text x="506" y="5836">
ground
</text>
<text x="514" y="5852">
to amp
</text>
<text x="66" y="5884">
300 ohm
</text>
<text x="234" y="5884">
Charge
</text>
<text x="122" y="5900">
5W
</text>
<text x="266" y="5900">
Switch
</text>
<text x="2" y="5916">
20
</text>
<text x="26" y="5916">
40
</text>
<text x="50" y="5916">
+
</text>
<text x="66" y="5916">
O
</text>
<text x="2" y="5932">
VDC
</text>
<text x="234" y="5948">
Zap
</text>
<text x="234" y="5964">
Switch
</text>
<text x="490" y="5964">
+
</text>
<text x="378" y="6012">
+
</text>
<text x="418" y="6012">
Shorted
</text>
<text x="50" y="6028">
6000 micr
</text>
<text x="194" y="6028">
+
</text>
<text x="426" y="6028">
Cell
</text>
<text x="50" y="6044">
Farad,
</text>
<text x="106" y="6044">
40V
</text>
<text x="50" y="6060">
Capacitor
</text>
<text x="402" y="6060">
Volt
</text>
<text x="402" y="6076">
meter
</text>
<text x="66" y="6108">
O
</text>
<text x="26" y="6156">
R1=R2
</text>
<text x="306" y="6172">
R2
</text>
<text x="138" y="6204">
R1
</text>
<text x="258" y="6220">
INV
</text>
<text x="2" y="6236">
INPUT
</text>
<text x="418" y="6268">
OUTPUT
</text>
<text x="146" y="6284">
R3
</text>
<text x="226" y="6300">
NON
</text>
<text x="258" y="6300">
INV
</text>
<text x="290" y="6396">
C
</text>
<text x="218" y="6492">
GROUND
</text>
<text x="170" y="6524">
V+
</text>
<text x="210" y="6556">
R
</text>
<text x="114" y="6572">
V+
</text>
<text x="114" y="6604">
10K
</text>
<text x="42" y="6620">
0.1 uF
</text>
<text x="290" y="6620">
P
</text>
<text x="322" y="6620">
0.1 uF
</text>
<text x="2" y="6636">
IN&gt;
</text>
<text x="210" y="6636">
2N2222
</text>
<text x="290" y="6636">
O
</text>
<text x="378" y="6636">
High impedance output
</text>
<text x="202" y="6652">
E
</text>
<text x="290" y="6652">
T
</text>
<text x="394" y="6652">
(should be buffered)
</text>
<text x="114" y="6668">
10K
</text>
<text x="114" y="6700">
GND
</text>
<text x="210" y="6716">
R
</text>
<text x="202" y="6748">
GND
</text>
<text x="2" y="6780">
+V
</text>
<text x="186" y="6812">
R3
</text>
<text x="170" y="6828">
+
</text>
<text x="210" y="6828">
+
</text>
<text x="290" y="6828">
C
</text>
<text x="170" y="6844">
+
</text>
<text x="186" y="6844">
15K+
</text>
<text x="274" y="6844">
B
</text>
<text x="306" y="6844">
TR1
</text>
<text x="170" y="6860">
+
</text>
<text x="210" y="6860">
+
</text>
<text x="290" y="6860">
E
</text>
<text x="402" y="6876">
C
</text>
<text x="498" y="6876">
47nF
</text>
<text x="42" y="6892">
+++
</text>
<text x="130" y="6892">
+++
</text>
<text x="386" y="6892">
B
</text>
<text x="418" y="6892">
TR2
</text>
<text x="74" y="6908">
2M2
</text>
<text x="162" y="6908">
10K
</text>
<text x="314" y="6908">
C1
</text>
<text x="402" y="6908">
E
</text>
<text x="498" y="6908">
C2
</text>
<text x="74" y="6924">
R1
</text>
<text x="162" y="6924">
R2
</text>
<text x="266" y="6924">
D1
</text>
<text x="42" y="6940">
+++
</text>
<text x="130" y="6940">
+++
</text>
<text x="354" y="6940">
10nF
</text>
<text x="282" y="6956">
&lt;
</text>
<text x="202" y="6972">
C
</text>
<text x="186" y="6988">
B
</text>
<text x="218" y="6988">
TR4
</text>
<text x="282" y="6988">
1N4148
</text>
<text x="506" y="6988">
Earthy
</text>
<text x="106" y="7004">
C
</text>
<text x="202" y="7004">
E
</text>
<text x="522" y="7004">
Side
</text>
<text x="90" y="7020">
B
</text>
<text x="122" y="7020">
TR3
</text>
<text x="474" y="7020">
XXX
</text>
<text x="106" y="7036">
E
</text>
<text x="506" y="7052">
Transducer
</text>
<text x="82" y="7132">
&lt;
</text>
<text x="298" y="7132">
0V
</text>
<text x="370" y="7132">
All transistors 2N3707
</text>
<text x="370" y="7148">
NPN,
</text>
<text x="410" y="7148">
Emitter at bottom.
</text>
<text x="66" y="7164">
D2
</text>
<text x="98" y="7164">
1N4148
</text>
<text x="34" y="7196">
+
</text>
<text x="106" y="7196">
+
</text>
<text x="122" y="7228">
7555
</text>
<text x="106" y="7260">
2
</text>
<text x="162" y="7276">
3
</text>
<text x="242" y="7276">
output
</text>
<text x="106" y="7292">
6
</text>
<text x="122" y="7356">
R
</text>
<text x="90" y="7388">
C
</text>
<text x="50" y="7436">
gnd
</text>
<text x="122" y="7484">
Vcc
</text>
<text x="122" y="7532">
R
</text>
<text x="130" y="7628">
LED
</text>
<text x="178" y="7628">
(glows when 555 ouput is high)
</text>
<text x="2" y="7740">
in
</text>
<text x="114" y="7740">
3904
</text>
<text x="50" y="7756">
R
</text>
<text x="98" y="7820">
gnd
</text>
<text x="2" y="7852">
and:
</text>
<text x="122" y="7868">
Vcc
</text>
<text x="98" y="7916">
&lt;
</text>
<text x="2" y="7932">
in
</text>
<text x="114" y="7932">
3906
</text>
<text x="50" y="7948">
R
</text>
<text x="122" y="8028">
R
</text>
<text x="130" y="8124">
LED
</text>
<text x="178" y="8124">
(glows when 555 output is low)
</text>
<text x="98" y="8188">
gnd
</text>
<text x="2" y="8236">
0V
</text>
<text x="34" y="8236">
cap
</text>
<text x="90" y="8236">
resist
</text>
<text x="298" y="8252">
+5V
</text>
<text x="10" y="8284">
+5
</text>
<text x="330" y="8284">
LED
</text>
<text x="202" y="8300">
+
</text>
<text x="242" y="8300">
resist
</text>
<text x="306" y="8300">
+
</text>
<text x="10" y="8316">
resist
</text>
<text x="114" y="8316">
&gt;
</text>
<text x="202" y="8316">
+
</text>
<text x="202" y="8332">
+
</text>
<text x="242" y="8332">
resist
</text>
<text x="90" y="8348">
+
</text>
<text x="330" y="8364">
LED
</text>
<text x="58" y="8396">
resist
</text>
<text x="306" y="8396">
0V
</text>
<text x="2" y="8444">
resist
</text>
<text x="18" y="8476">
0V
</text>
<text x="26" y="8524">
*VCC
</text>
<text x="98" y="8524">
Q1
</text>
<text x="282" y="8524">
C
</text>
<text x="282" y="8540">
C
</text>
<text x="106" y="8556">
B
</text>
<text x="146" y="8556">
C
</text>
<text x="282" y="8556">
C
</text>
<text x="162" y="8572">
2N3055
</text>
<text x="282" y="8572">
C
</text>
<text x="146" y="8588">
E
</text>
<text x="250" y="8588">
5T
</text>
<text x="282" y="8588">
C
</text>
<text x="322" y="8588">
C
</text>
<text x="394" y="8588">
&gt;
</text>
<text x="514" y="8588">
+HV
</text>
<text x="282" y="8604">
C
</text>
<text x="322" y="8604">
C
</text>
<text x="370" y="8604">
HV Diode,
</text>
<text x="450" y="8604">
usually
</text>
<text x="282" y="8620">
C
</text>
<text x="322" y="8620">
C
</text>
<text x="394" y="8620">
built in
</text>
<text x="282" y="8636">
C
</text>
<text x="322" y="8636">
C
</text>
<text x="282" y="8652">
C
</text>
<text x="322" y="8652">
C
</text>
<text x="98" y="8668">
Q2
</text>
<text x="282" y="8668">
C
</text>
<text x="322" y="8668">
C
</text>
<text x="282" y="8684">
C
</text>
<text x="322" y="8684">
C Secondary
</text>
<text x="418" y="8684">
(HV)
</text>
<text x="458" y="8684">
winding,
</text>
<text x="106" y="8700">
B
</text>
<text x="146" y="8700">
E
</text>
<text x="250" y="8700">
5T
</text>
<text x="282" y="8700">
C
</text>
<text x="322" y="8700">
C intact.
</text>
<text x="162" y="8716">
2N3055
</text>
<text x="282" y="8716">
C
</text>
<text x="322" y="8716">
C
</text>
<text x="146" y="8732">
C
</text>
<text x="282" y="8732">
C
</text>
<text x="322" y="8732">
C
</text>
<text x="282" y="8748">
C
</text>
<text x="322" y="8748">
C
</text>
<text x="282" y="8764">
C
</text>
<text x="322" y="8764">
C
</text>
<text x="322" y="8780">
C
</text>
<text x="282" y="8796">
C
</text>
<text x="322" y="8796">
C
</text>
<text x="514" y="8796">
HV
</text>
<text x="250" y="8812">
2T
</text>
<text x="282" y="8812">
C
</text>
<text x="282" y="8828">
C
</text>
<text x="250" y="8844">
2T
</text>
<text x="282" y="8844">
C
</text>
<text x="322" y="8844">
T1
</text>
<text x="362" y="8844">
Flyback transformer from BW
</text>
<text x="282" y="8860">
C
</text>
<text x="362" y="8860">
or color TV or computer monitor.
</text>
<text x="146" y="8892">
R1
</text>
<text x="234" y="8892">
R2
</text>
<text x="146" y="8924">
110
</text>
<text x="234" y="8924">
27
</text>
<text x="146" y="8940">
2W
</text>
<text x="234" y="8940">
5W
</text>
<text x="290" y="8956">
.
</text>
<text x="34" y="9020">
+V
</text>
<text x="282" y="9084">
V Output
</text>
<text x="18" y="9100">
R1
</text>
<text x="98" y="9100">
8
</text>
<text x="130" y="9100">
4
</text>
<text x="66" y="9116">
7
</text>
<text x="346" y="9116">
Parts List:
</text>
<text x="194" y="9132">
D2
</text>
<text x="346" y="9132">
IC1
</text>
<text x="378" y="9132">
=
</text>
<text x="394" y="9132">
555
</text>
<text x="162" y="9148">
+
</text>
<text x="354" y="9148">
R1
</text>
<text x="378" y="9148">
=
</text>
<text x="394" y="9148">
1.5K
</text>
<text x="18" y="9164">
R2
</text>
<text x="66" y="9164">
6
</text>
<text x="98" y="9164">
IC1
</text>
<text x="170" y="9164">
C1
</text>
<text x="354" y="9164">
R2
</text>
<text x="378" y="9164">
=
</text>
<text x="394" y="9164">
10K
</text>
<text x="146" y="9180">
3
</text>
<text x="354" y="9180">
C1
</text>
<text x="378" y="9180">
=
</text>
<text x="394" y="9180">
10uF,16V
</text>
<text x="194" y="9196">
D1
</text>
<text x="234" y="9196">
C2
</text>
<text x="354" y="9196">
C2
</text>
<text x="378" y="9196">
=
</text>
<text x="394" y="9196">
22uF,16V
</text>
<text x="66" y="9212">
2
</text>
<text x="250" y="9212">
+
</text>
<text x="354" y="9212">
C3
</text>
<text x="378" y="9212">
=
</text>
<text x="394" y="9212">
1500pF
</text>
<text x="330" y="9228">
D1,D2
</text>
<text x="378" y="9228">
=
</text>
<text x="394" y="9228">
1N4001 diodes
</text>
<text x="18" y="9244">
C3
</text>
<text x="114" y="9244">
1
</text>
<text x="90" y="9324">
(GND)
</text>
<text x="354" y="9372">
e
</text>
<text x="90" y="9388">
e
</text>
<text x="162" y="9420">
&lt;
</text>
<text x="170" y="9420">
&lt;
</text>
<text x="178" y="9420">
&lt;
</text>
<text x="186" y="9420">
&lt;
</text>
<text x="210" y="9420">
physical
</text>
<text x="370" y="9420">
CURRENT
</text>
<text x="466" y="9420">
POWER FOR
</text>
<text x="34" y="9436">
REGULATOR
</text>
<text x="130" y="9436">
LOGIC
</text>
<text x="202" y="9436">
separation
</text>
<text x="290" y="9436">
&gt;
</text>
<text x="298" y="9436">
&gt;
</text>
<text x="306" y="9436">
&gt;
</text>
<text x="314" y="9436">
&gt;
</text>
<text x="370" y="9436">
DRIVER
</text>
<text x="474" y="9436">
DRIVERS
</text>
<text x="90" y="9468">
e
</text>
<text x="194" y="9468">
ground
</text>
<text x="434" y="9468">
e
</text>
<text x="74" y="9500">
^
</text>
<text x="90" y="9500">
thick
</text>
<text x="210" y="9500">
^
</text>
<text x="226" y="9500">
thin
</text>
<text x="394" y="9500">
^
</text>
<text x="90" y="9516">
traces
</text>
<text x="226" y="9516">
traces
</text>
<text x="386" y="9516">
very thick
</text>
<text x="90" y="9532">
from reg to
</text>
<text x="386" y="9532">
traces from
</text>
<text x="90" y="9548">
logic load
</text>
<text x="386" y="9548">
drivers to supply
</text>
<text x="226" y="9612">
(hot side)
</text>
<text x="450" y="9628">
ceramic
</text>
<text x="34" y="9660">
majority
</text>
<text x="34" y="9676">
carrier
</text>
<text x="194" y="9676">
N
</text>
<text x="250" y="9676">
P
</text>
<text x="306" y="9676">
N
</text>
<text x="362" y="9676">
P
</text>
<text x="34" y="9692">
flow
</text>
<text x="98" y="9692">
(
</text>
<text x="114" y="9692">
)
</text>
<text x="442" y="9692">
(+)
</text>
<text x="458" y="9724">
ceramic
</text>
<text x="226" y="9740">
(cold side)
</text>
<circle class="open" cx="76" cy="72" r="4"/>
<circle class="open" cx="132" cy="72" r="4"/>
<circle class="open" cx="196" cy="72" r="4"/>
<circle class="open" cx="220" cy="72" r="4"/>
<circle class="open" cx="300" cy="72" r="4"/>
<circle class="open" cx="340" cy="72" r="4"/>
<circle class="open" cx="404" cy="72" r="4"/>
<circle class="open" cx="76" cy="152" r="4"/>
<circle class="open" cx="300" cy="232" r="4"/>
<circle class="open" cx="340" cy="280" r="4"/>
<circle class="open" cx="404" cy="344" r="4"/>
<circle class="open" cx="452" cy="344" r="4"/>
<circle class="open" cx="492" cy="344" r="4"/>
<circle class="open" cx="340" cy="472" r="4"/>
<circle class="open" cx="452" cy="472" r="4"/>
<circle class="open" cx="380" cy="504" r="4"/>
<circle class="open" cx="124" cy="760" r="4"/>
<circle class="open" cx="44" cy="1160" r="4"/>
<circle class="open" cx="76" cy="1160" r="4"/>
<circle class="open" cx="204" cy="1224" r="4"/>
<circle class="open" cx="380" cy="1224" r="4"/>
<circle class="open" cx="204" cy="1256" r="4"/>
<circle class="open" cx="380" cy="1256" r="4"/>
<circle class="open" cx="372" cy="1768" r="4"/>
<circle class="open" cx="196" cy="1816" r="4"/>
<circle class="open" cx="284" cy="1816" r="4"/>
<circle class="open" cx="132" cy="3656" r="4"/>
<circle class="open" cx="420" cy="3880" r="4"/>
<circle class="open" cx="108" cy="5048" r="4"/>
<circle class="open" cx="220" cy="5048" r="4"/>
<circle class="open" cx="252" cy="5096" r="4"/>
<circle class="open" cx="180" cy="5912" r="4"/>
<circle class="open" cx="236" cy="5912" r="4"/>
<circle class="open" cx="260" cy="5912" r="4"/>
<circle class="open" cx="364" cy="5912" r="4"/>
<circle class="open" cx="500" cy="5912" r="4"/>
<circle class="open" cx="180" cy="5992" r="4"/>
<circle class="open" cx="236" cy="5992" r="4"/>
<circle class="open" cx="284" cy="5992" r="4"/>
<circle class="open" cx="364" cy="5992" r="4"/>
<circle class="open" cx="124" cy="6024" r="4"/>
<circle class="open" cx="180" cy="6104" r="4"/>
<circle class="open" cx="364" cy="6104" r="4"/>
<circle class="open" cx="500" cy="6104" r="4"/>
<circle class="open" cx="52" cy="6776" r="4"/>
<circle class="open" cx="140" cy="6776" r="4"/>
<circle class="open" cx="308" cy="6776" r="4"/>
<circle class="open" cx="420" cy="6776" r="4"/>
<circle class="open" cx="484" cy="6776" r="4"/>
<circle class="open" cx="140" cy="6840" r="4"/>
<circle class="open" cx="244" cy="6840" r="4"/>
<circle class="open" cx="340" cy="6888" r="4"/>
<circle class="open" cx="244" cy="6952" r="4"/>
<circle class="open" cx="340" cy="6952" r="4"/>
<circle class="open" cx="420" cy="6952" r="4"/>
<circle class="open" cx="484" cy="6952" r="4"/>
<circle class="open" cx="140" cy="6984" r="4"/>
<circle class="open" cx="52" cy="7016" r="4"/>
<circle class="open" cx="52" cy="7080" r="4"/>
<circle class="open" cx="484" cy="7080" r="4"/>
<circle class="open" cx="52" cy="7128" r="4"/>
<circle class="open" cx="124" cy="7128" r="4"/>
<circle class="open" cx="220" cy="7128" r="4"/>
<circle class="open" cx="44" cy="8536" r="4"/>
<circle class="open" cx="492" cy="8584" r="4"/>
<circle class="open" cx="484" cy="8792" r="4"/>
</svg>
