<svg font-family="Arial" font-size="14" height="4288" width="1848" xmlns="http://www.w3.org/2000/svg">
<defs>
<marker id="triangle" markerHeight="10" markerUnits="strokeWidth" markerWidth="10" orient="auto" refX="0" refY="5" viewBox="0 0 40 40">
<path d="M 0 0 L 10 5 L 0 10 z"/>
</marker>
</defs>
<style>

     <![CDATA[ 
    line, path {
      stroke: black;
      stroke-width: 2;
      stroke-opacity: 1;
      fill-opacity: 1;
      stroke-linecap: round;
      stroke-linejoin: miter;
    }
     ]]> 
    
</style>
<path d=" M 184 8 L 192 8 M 196 12 A 4 4 0 0 0 192 8 M 196 12 L 196 16 M 184 24 L 192 24 A 4 4 0 0 0 196 20 M 196 16 L 196 20 M 176 48 L 184 32 M 188 32 L 188 64 M 192 32 L 200 48 M 44 60 L 44 64 M 48 56 A 4 4 0 0 0 44 60 M 48 56 L 72 56 M 76 60 L 76 64 M 76 60 A 4 4 0 0 0 72 56 M 176 80 L 184 64 M 192 64 L 200 80 M 44 80 L 44 84 A 4 4 0 0 0 48 88 L 56 88 M 60 88 L 60 176 M 56 88 L 72 88 M 64 88 L 72 88 M 76 80 L 76 84 M 72 88 A 4 4 0 0 0 76 84 M 60 96 L 60 176 M 188 96 L 188 176 M 72 120 L 60 120 M 72 168 L 80 168 M 88 168 L 96 168 M 104 168 L 112 168 M 120 168 L 128 168 M 136 168 L 144 168 M 152 168 L 160 168 M 168 168 L 176 168 M 44 188 L 44 192 M 48 184 A 4 4 0 0 0 44 188 M 48 184 L 56 184 M 60 184 L 60 176 M 56 184 L 72 184 M 64 184 L 72 184 M 76 188 L 76 192 M 76 188 A 4 4 0 0 0 72 184 M 184 200 L 192 200 M 196 204 A 4 4 0 0 0 192 200 M 196 204 L 196 208 M 44 208 L 44 212 A 4 4 0 0 0 48 216 L 72 216 M 76 208 L 76 212 M 72 216 A 4 4 0 0 0 76 212 M 184 216 L 192 216 A 4 4 0 0 0 196 212 M 196 208 L 196 212 M 176 240 L 184 224 M 188 224 L 188 256 M 192 224 L 200 240 M 176 272 L 184 256 M 192 256 L 200 272 M 368 1736 L 376 1736 M 380 1740 A 4 4 0 0 0 376 1736 M 380 1740 L 380 1744 M 368 1752 L 376 1752 A 4 4 0 0 0 380 1748 M 380 1744 L 380 1748 M 124 1772 L 124 1776 M 128 1768 A 4 4 0 0 0 124 1772 M 128 1768 L 232 1768 M 236 1772 L 236 1792 M 236 1772 A 4 4 0 0 0 232 1768 M 360 1776 L 368 1760 M 372 1760 L 372 1792 M 376 1760 L 384 1776 M 236 1776 L 236 1792 M 484 1788 L 484 1792 M 488 1784 A 4 4 0 0 0 484 1788 M 488 1784 L 520 1784 M 524 1788 L 524 1792 M 524 1788 A 4 4 0 0 0 520 1784 M 360 1808 L 368 1792 M 376 1792 L 384 1808 M 124 1808 L 124 1812 A 4 4 0 0 0 128 1816 L 176 1816 M 180 1816 L 180 1920 M 176 1816 L 232 1816 M 184 1816 L 232 1816 M 236 1808 L 236 1812 M 232 1816 A 4 4 0 0 0 236 1812 M 484 1808 L 484 1812 A 4 4 0 0 0 488 1816 L 496 1816 M 500 1816 L 500 1872 M 496 1816 L 520 1816 M 504 1816 L 520 1816 M 524 1808 L 524 1812 M 520 1816 A 4 4 0 0 0 524 1812 M 180 1824 L 180 1920 M 372 1824 L 372 2016 M 500 1824 L 500 1872 M 192 1848 L 180 1848 M 388 1884 L 388 1888 M 392 1880 A 4 4 0 0 0 388 1884 M 392 1880 L 504 1880 M 508 1904 L 528 1904 M 520 1888 L 528 1904 M 388 1904 L 388 1908 A 4 4 0 0 0 392 1912 L 520 1912 M 388 1932 L 388 1936 M 392 1928 A 4 4 0 0 0 388 1932 M 392 1928 L 520 1928 M 524 1936 L 524 1952 L 544 1952 M 536 1936 L 544 1952 M 540 1952 L 540 1984 M 180 1968 L 180 2032 M 192 1976 L 372 1976 M 388 1984 L 388 1988 A 4 4 0 0 0 392 1992 L 536 1992 M 540 1984 L 540 1988 M 536 1992 A 4 4 0 0 0 540 1988 M 500 2000 L 500 2032 M 180 2048 L 180 2304 M 500 2048 L 500 2304 M 372 2064 L 372 2080 M 192 2104 L 180 2104 M 372 2112 L 372 2128 M 372 2140 L 372 2144 M 376 2136 A 4 4 0 0 0 372 2140 M 376 2136 L 472 2136 M 512 2136 L 500 2136 M 512 2136 L 536 2136 M 540 2140 L 540 2160 M 540 2140 A 4 4 0 0 0 536 2136 M 476 2144 L 476 2160 L 496 2160 M 488 2144 L 496 2160 M 540 2144 L 540 2160 M 492 2160 L 492 2176 M 512 2168 L 536 2168 M 540 2160 L 540 2164 M 536 2168 A 4 4 0 0 0 540 2164 M 372 2176 L 372 2180 A 4 4 0 0 0 376 2184 L 488 2184 M 492 2176 L 492 2180 M 488 2184 A 4 4 0 0 0 492 2180 M 372 2192 L 372 2272 M 512 2200 L 500 2200 M 520 2200 L 528 2200 M 540 2208 L 540 2224 M 520 2232 L 528 2232 M 192 2280 L 200 2280 M 208 2280 L 216 2280 M 224 2280 L 232 2280 M 240 2280 L 248 2280 M 256 2280 L 264 2280 M 272 2280 L 280 2280 M 288 2280 L 296 2280 M 304 2280 L 312 2280 M 320 2280 L 328 2280 M 336 2280 L 344 2280 M 352 2280 L 360 2280 M 368 2280 L 376 2280 M 384 2280 L 392 2280 M 400 2280 L 408 2280 M 416 2280 L 424 2280 M 432 2280 L 440 2280 M 448 2280 L 456 2280 M 464 2280 L 472 2280 M 480 2280 L 488 2280 M 372 2288 L 372 2304 M 40 2320 L 372 2320 M 368 2320 L 376 2320 M 384 2320 L 372 2320 M 384 2320 L 500 2320 M 496 2320 L 504 2320 M 512 2320 L 500 2320 M 512 2320 L 600 2320 M 372 2320 L 372 2432 M 500 2320 L 500 2496 M 48 2352 L 88 2352 L 104 2320 M 180 2336 L 180 2496 M 192 2440 L 180 2440 M 372 2448 L 372 2480 M 192 2488 L 200 2488 M 208 2488 L 216 2488 M 224 2488 L 232 2488 M 240 2488 L 248 2488 M 256 2488 L 264 2488 M 272 2488 L 280 2488 M 288 2488 L 296 2488 M 304 2488 L 312 2488 M 320 2488 L 328 2488 M 336 2488 L 344 2488 M 352 2488 L 360 2488 M 368 2488 L 376 2488 M 384 2488 L 392 2488 M 400 2488 L 408 2488 M 416 2488 L 424 2488 M 432 2488 L 440 2488 M 448 2488 L 456 2488 M 464 2488 L 472 2488 M 480 2488 L 488 2488 M 180 2512 L 180 2608 M 372 2512 L 372 2544 M 500 2512 L 500 2608 M 192 2552 L 200 2552 M 208 2552 L 216 2552 M 224 2552 L 232 2552 M 240 2552 L 248 2552 M 256 2552 L 264 2552 M 272 2552 L 280 2552 M 288 2552 L 296 2552 M 304 2552 L 312 2552 M 320 2552 L 328 2552 M 336 2552 L 344 2552 M 352 2552 L 360 2552 M 368 2552 L 376 2552 M 384 2552 L 392 2552 M 400 2552 L 408 2552 M 416 2552 L 424 2552 M 432 2552 L 440 2552 M 448 2552 L 456 2552 M 464 2552 L 472 2552 M 480 2552 L 488 2552 M 372 2560 L 372 2592 M 192 2600 L 500 2600 M 180 2624 L 180 2832 M 372 2624 L 372 2656 M 500 2624 L 500 2688 M 192 2664 L 500 2664 M 372 2672 L 372 2688 M 348 2700 L 348 2704 M 352 2696 A 4 4 0 0 0 348 2700 M 352 2696 L 504 2696 M 508 2720 L 528 2720 M 520 2704 L 528 2720 M 524 2720 L 524 2736 M 348 2736 L 348 2740 A 4 4 0 0 0 352 2744 L 520 2744 M 524 2736 L 524 2740 M 520 2744 A 4 4 0 0 0 524 2740 M 372 2752 L 372 2768 M 500 2752 L 500 2832 M 192 2776 L 500 2776 M 372 2784 L 372 2816 M 192 2824 L 500 2824 M 124 2860 L 124 2864 M 128 2856 A 4 4 0 0 0 124 2860 M 128 2856 L 176 2856 M 184 2856 L 232 2856 M 236 2860 L 236 2880 M 236 2860 A 4 4 0 0 0 232 2856 M 484 2860 L 484 2864 M 488 2856 A 4 4 0 0 0 484 2860 M 488 2856 L 496 2856 M 504 2856 L 520 2856 M 524 2860 L 524 2864 M 524 2860 A 4 4 0 0 0 520 2856 M 236 2864 L 236 2880 M 368 2872 L 376 2872 M 380 2876 A 4 4 0 0 0 376 2872 M 380 2876 L 380 2880 M 368 2888 L 376 2888 A 4 4 0 0 0 380 2884 M 380 2880 L 380 2884 M 484 2880 L 484 2884 A 4 4 0 0 0 488 2888 L 520 2888 M 524 2880 L 524 2884 M 520 2888 A 4 4 0 0 0 524 2884 M 124 2896 L 124 2900 A 4 4 0 0 0 128 2904 L 232 2904 M 236 2896 L 236 2900 M 232 2904 A 4 4 0 0 0 236 2900 M 360 2912 L 368 2896 M 372 2896 L 372 2928 M 376 2896 L 384 2912 M 360 2944 L 368 2928 M 376 2928 L 384 2944 M 540 3520 L 540 3536" fill="none"/>
<path d=" M 688 800 L 712 800 M 664 816 L 688 816 M 116 1536 L 116 1568 M 296 2024 L 488 2024 M 0 2040 L 304 2040 M 480 2040 L 792 2040 M 296 2056 L 488 2056" fill="none" stroke-dasharray="3 3"/>
<line marker-end="url(#triangle)" x1="72" x2="180" y1="120" y2="120"/>
<line marker-end="url(#triangle)" x1="72" x2="68" y1="168" y2="168"/>
<line marker-end="url(#triangle)" x1="32" x2="44" y1="984" y2="984"/>
<line marker-end="url(#triangle)" x1="48" x2="60" y1="1064" y2="1064"/>
<line marker-end="url(#triangle)" x1="32" x2="44" y1="1224" y2="1224"/>
<line marker-end="url(#triangle)" x1="40" x2="52" y1="1240" y2="1240"/>
<line marker-end="url(#triangle)" x1="40" x2="60" y1="1288" y2="1288"/>
<line marker-end="url(#triangle)" x1="40" x2="60" y1="1320" y2="1320"/>
<line marker-end="url(#triangle)" x1="48" x2="60" y1="1368" y2="1368"/>
<line marker-end="url(#triangle)" x1="56" x2="76" y1="1384" y2="1384"/>
<line marker-end="url(#triangle)" x1="56" x2="76" y1="1416" y2="1416"/>
<line marker-end="url(#triangle)" x1="56" x2="68" y1="1432" y2="1432"/>
<line marker-end="url(#triangle)" x1="56" x2="68" y1="1464" y2="1464"/>
<line marker-end="url(#triangle)" x1="56" x2="68" y1="1544" y2="1544"/>
<line marker-end="url(#triangle)" x1="56" x2="68" y1="1560" y2="1560"/>
<line marker-end="url(#triangle)" x1="192" x2="364" y1="1848" y2="1848"/>
<line marker-end="url(#triangle)" x1="192" x2="188" y1="1976" y2="1976"/>
<line marker-end="url(#triangle)" x1="192" x2="492" y1="2104" y2="2104"/>
<line marker-end="url(#triangle)" x1="512" x2="508" y1="2168" y2="2168"/>
<line marker-end="url(#triangle)" x1="192" x2="188" y1="2280" y2="2280"/>
<line marker-end="url(#triangle)" x1="192" x2="492" y1="2440" y2="2440"/>
<line marker-end="url(#triangle)" x1="192" x2="188" y1="2488" y2="2488"/>
<line marker-end="url(#triangle)" x1="192" x2="188" y1="2552" y2="2552"/>
<line marker-end="url(#triangle)" x1="192" x2="188" y1="2600" y2="2600"/>
<line marker-end="url(#triangle)" x1="192" x2="188" y1="2664" y2="2664"/>
<line marker-end="url(#triangle)" x1="192" x2="188" y1="2776" y2="2776"/>
<line marker-end="url(#triangle)" x1="192" x2="188" y1="2824" y2="2824"/>
<text x="178" y="12">
,
</text>
<text x="178" y="28">
`
</text>
<text x="42" y="76">
|Bob|
</text>
<text x="170" y="92">
Alice
</text>
<text x="98" y="108">
hello
</text>
<text x="82" y="156">
Is it ok?
</text>
<text x="170" y="188">
Alice
</text>
<text x="42" y="204">
|Bob|
</text>
<text x="178" y="204">
,
</text>
<text x="178" y="220">
`
</text>
<text x="2" y="300">
```
</text>
<text x="2" y="332">
Unicode
</text>
<text x="2" y="348">
The default txt format uses only plain ASCII characters.
</text>
<text x="458" y="348">
It is possible to use few extended Unicode characters to have a slightly better result.
</text>
<text x="1162" y="348">
You should use the
</text>
<text x="1314" y="348">
-utxt flag in the command line,
</text>
<text x="1570" y="348">
or the utxt format in the ANT task.
</text>
<text x="2" y="380">
```bob
</text>
<text x="178" y="412">
┌─┐
</text>
<text x="178" y="428">
║&quot;
</text>
<text x="194" y="428">
│
</text>
<text x="178" y="444">
└┬┘
</text>
<text x="178" y="460">
┌┼┐
</text>
<text x="42" y="476">
┌───┐
</text>
<text x="186" y="476">
│
</text>
<text x="42" y="492">
│Bob│
</text>
<text x="178" y="492">
┌┴┐
</text>
<text x="42" y="508">
└─┬─┘
</text>
<text x="170" y="508">
Alice
</text>
<text x="58" y="524">
│
</text>
<text x="98" y="524">
hello
</text>
<text x="186" y="524">
│
</text>
<text x="58" y="540">
│──────────────&gt;
</text>
<text x="186" y="540">
│
</text>
<text x="58" y="556">
│
</text>
<text x="186" y="556">
│
</text>
<text x="58" y="572">
│
</text>
<text x="82" y="572">
Is it ok?
</text>
<text x="186" y="572">
│
</text>
<text x="58" y="588">
│&lt;
</text>
<text x="74" y="588">
─
</text>
<text x="90" y="588">
─
</text>
<text x="106" y="588">
─
</text>
<text x="122" y="588">
─
</text>
<text x="138" y="588">
─
</text>
<text x="154" y="588">
─
</text>
<text x="170" y="588">
─
</text>
<text x="186" y="588">
│
</text>
<text x="42" y="604">
┌─┴─┐
</text>
<text x="170" y="604">
Alice
</text>
<text x="42" y="620">
│Bob│
</text>
<text x="178" y="620">
┌─┐
</text>
<text x="42" y="636">
└───┘
</text>
<text x="178" y="636">
║&quot;
</text>
<text x="194" y="636">
│
</text>
<text x="178" y="652">
└┬┘
</text>
<text x="178" y="668">
┌┼┐
</text>
<text x="186" y="684">
│
</text>
<text x="178" y="700">
┌┴┐
</text>
<text x="2" y="732">
```
</text>
<text x="2" y="764">
They are two drawbacks of using utxt:
</text>
<text x="34" y="796">
The result is UTF-8 encoded,
</text>
<text x="266" y="796">
and sometimes this is an issue
</text>
<text x="514" y="796">
(mail gateway,
</text>
<text x="634" y="796">
editors
</text>
<text x="714" y="796">
)
</text>
<text x="34" y="812">
The used font must have the used extended characters
</text>
<text x="458" y="812">
(like Courier,
</text>
<text x="578" y="812">
Courier New
</text>
<text x="690" y="812">
)
</text>
<text x="2" y="844">
Complexe Diagram
</text>
<text x="2" y="860">
You can even try complex example if you wish.
</text>
<text x="2" y="892">
@startuml
</text>
<text x="2" y="908">
&apos;
</text>
<text x="10" y="908">
hide footbox
</text>
<text x="2" y="940">
participant
</text>
<text x="98" y="940">
&quot;
</text>
<text x="106" y="940">
Bob on\nseveral lines&quot;
</text>
<text x="290" y="940">
as Bob
</text>
<text x="2" y="956">
actor Alice
</text>
<text x="2" y="988">
Bob
</text>
<text x="58" y="988">
Alice
</text>
<text x="106" y="988">
:
</text>
<text x="122" y="988">
hello
</text>
<text x="2" y="1004">
note right of Alice
</text>
<text x="18" y="1020">
this is a note
</text>
<text x="2" y="1036">
end note
</text>
<text x="2" y="1068">
Alice
</text>
<text x="74" y="1068">
Bob
</text>
<text x="106" y="1068">
:
</text>
<text x="122" y="1068">
Is it ok\nwith a message that is\non several lines?
</text>
<text x="2" y="1100">
note right
</text>
<text x="18" y="1116">
This other note
</text>
<text x="18" y="1132">
should work
</text>
<text x="18" y="1148">
on several lines
</text>
<text x="2" y="1164">
end note
</text>
<text x="2" y="1196">
==
</text>
<text x="26" y="1196">
This is a separation
</text>
<text x="194" y="1196">
==
</text>
<text x="2" y="1228">
Bob
</text>
<text x="58" y="1228">
Last
</text>
<text x="98" y="1228">
:
</text>
<text x="114" y="1228">
Yes it works!
</text>
<text x="2" y="1244">
Last
</text>
<text x="66" y="1244">
Last
</text>
<text x="106" y="1244">
:
</text>
<text x="122" y="1244">
working in progress
</text>
<text x="2" y="1260">
note left
</text>
<text x="82" y="1260">
:
</text>
<text x="98" y="1260">
this is\nanother note
</text>
<text x="2" y="1292">
Last
</text>
<text x="74" y="1292">
Last
</text>
<text x="114" y="1292">
:
</text>
<text x="130" y="1292">
working in progress
</text>
<text x="2" y="1324">
Last
</text>
<text x="74" y="1324">
Bob
</text>
<text x="106" y="1324">
:
</text>
<text x="122" y="1324">
done
</text>
<text x="2" y="1356">
opt dummy comment
</text>
<text x="18" y="1372">
Bob
</text>
<text x="74" y="1372">
Last
</text>
<text x="114" y="1372">
:
</text>
<text x="130" y="1372">
Error\nOn\nSeveral\nLine
</text>
<text x="18" y="1388">
Last
</text>
<text x="90" y="1388">
Bob
</text>
<text x="122" y="1388">
:
</text>
<text x="138" y="1388">
None
</text>
<text x="2" y="1404">
else
</text>
<text x="18" y="1420">
Last
</text>
<text x="90" y="1420">
Bob
</text>
<text x="122" y="1420">
:
</text>
<text x="138" y="1420">
None
</text>
<text x="18" y="1436">
Last
</text>
<text x="82" y="1436">
Bob
</text>
<text x="114" y="1436">
:
</text>
<text x="130" y="1436">
None
</text>
<text x="2" y="1452">
else other
</text>
<text x="18" y="1468">
Last
</text>
<text x="82" y="1468">
Bob
</text>
<text x="114" y="1468">
:
</text>
<text x="130" y="1468">
None
</text>
<text x="18" y="1484">
note over Alice,
</text>
<text x="154" y="1484">
Last
</text>
<text x="34" y="1500">
This is a long note
</text>
<text x="34" y="1516">
over Alice and Last
</text>
<text x="18" y="1532">
end note
</text>
<text x="18" y="1548">
Last
</text>
<text x="82" y="1548">
Bob
</text>
<text x="130" y="1548">
None
</text>
<text x="18" y="1564">
Last
</text>
<text x="82" y="1564">
Bob
</text>
<text x="130" y="1564">
None
</text>
<text x="2" y="1580">
end
</text>
<text x="2" y="1628">
@enduml
</text>
<text x="2" y="1676">
Example
</text>
<text x="2" y="1708">
```bob
</text>
<text x="362" y="1740">
,
</text>
<text x="362" y="1756">
`
</text>
<text x="122" y="1788">
|Bob on
</text>
<text x="122" y="1804">
|several lines|
</text>
<text x="482" y="1804">
|Last|
</text>
<text x="354" y="1820">
Alice
</text>
<text x="250" y="1836">
hello
</text>
<text x="506" y="1884">
!.
</text>
<text x="386" y="1900">
|this is a note|
</text>
<text x="522" y="1916">
&apos;
</text>
<text x="178" y="1932">
|Is it ok
</text>
<text x="522" y="1932">
!.
</text>
<text x="178" y="1948">
|with a message that is
</text>
<text x="386" y="1948">
|This other note
</text>
<text x="178" y="1964">
|on several lines?
</text>
<text x="386" y="1964">
|should work
</text>
<text x="386" y="1980">
|on several lines
</text>
<text x="314" y="2044">
This is a separation
</text>
<text x="282" y="2092">
Yes it works!
</text>
<text x="474" y="2140">
!.
</text>
<text x="370" y="2156">
|this is
</text>
<text x="554" y="2156">
working in progress
</text>
<text x="370" y="2172">
|another note
</text>
<text x="538" y="2204">
.
</text>
<text x="554" y="2220">
working in progress
</text>
<text x="506" y="2236">
&lt;
</text>
<text x="538" y="2236">
&apos;
</text>
<text x="322" y="2268">
done
</text>
<text x="42" y="2332">
!
</text>
<text x="58" y="2332">
OPT
</text>
<text x="122" y="2332">
dummy comment
</text>
<text x="602" y="2332">
!
</text>
<text x="42" y="2348">
!
</text>
<text x="602" y="2348">
!
</text>
<text x="42" y="2364">
!
</text>
<text x="602" y="2364">
!
</text>
<text x="42" y="2380">
!
</text>
<text x="306" y="2380">
Error
</text>
<text x="602" y="2380">
!
</text>
<text x="42" y="2396">
!
</text>
<text x="306" y="2396">
On
</text>
<text x="602" y="2396">
!
</text>
<text x="42" y="2412">
!
</text>
<text x="306" y="2412">
Several
</text>
<text x="602" y="2412">
!
</text>
<text x="42" y="2428">
!
</text>
<text x="306" y="2428">
Line
</text>
<text x="602" y="2428">
!
</text>
<text x="42" y="2444">
!
</text>
<text x="602" y="2444">
!
</text>
<text x="42" y="2460">
!
</text>
<text x="602" y="2460">
!
</text>
<text x="42" y="2476">
!
</text>
<text x="322" y="2476">
None
</text>
<text x="602" y="2476">
!
</text>
<text x="42" y="2492">
!
</text>
<text x="602" y="2492">
!
</text>
<text x="42" y="2508">
!~~~~~~~~~~~~~~~~~~~~~~~~~~~~~~~~~~~~~~~~~~~~~~~~~~~~~~~~~~~~~~~~~~~~~!
</text>
<text x="42" y="2524">
!
</text>
<text x="602" y="2524">
!
</text>
<text x="42" y="2540">
!
</text>
<text x="322" y="2540">
None
</text>
<text x="602" y="2540">
!
</text>
<text x="42" y="2556">
!
</text>
<text x="602" y="2556">
!
</text>
<text x="42" y="2572">
!
</text>
<text x="602" y="2572">
!
</text>
<text x="42" y="2588">
!
</text>
<text x="322" y="2588">
None
</text>
<text x="602" y="2588">
!
</text>
<text x="42" y="2604">
!
</text>
<text x="602" y="2604">
!
</text>
<text x="42" y="2620">
!~~~~~~~~~~~~~~~~~~~~~~~~~~~~~~~~~~~~~~~~~~~~~~~~~~~~~~~~~~~~~~~~~~~~~!
</text>
<text x="42" y="2636">
!
</text>
<text x="58" y="2636">
[other]
</text>
<text x="602" y="2636">
!
</text>
<text x="42" y="2652">
!
</text>
<text x="322" y="2652">
None
</text>
<text x="602" y="2652">
!
</text>
<text x="42" y="2668">
!
</text>
<text x="602" y="2668">
!
</text>
<text x="42" y="2684">
!
</text>
<text x="602" y="2684">
!
</text>
<text x="42" y="2700">
!
</text>
<text x="506" y="2700">
!.
</text>
<text x="602" y="2700">
!
</text>
<text x="42" y="2716">
!
</text>
<text x="346" y="2716">
|This is a long note|
</text>
<text x="602" y="2716">
!
</text>
<text x="42" y="2732">
!
</text>
<text x="346" y="2732">
|over Alice and Last
</text>
<text x="602" y="2732">
!
</text>
<text x="42" y="2748">
!
</text>
<text x="602" y="2748">
!
</text>
<text x="42" y="2764">
!
</text>
<text x="322" y="2764">
None
</text>
<text x="602" y="2764">
!
</text>
<text x="42" y="2780">
!
</text>
<text x="602" y="2780">
!
</text>
<text x="42" y="2796">
!
</text>
<text x="602" y="2796">
!
</text>
<text x="42" y="2812">
!
</text>
<text x="322" y="2812">
None
</text>
<text x="602" y="2812">
!
</text>
<text x="42" y="2828">
!
</text>
<text x="602" y="2828">
!
</text>
<text x="42" y="2844">
!~~~~~~~~~~~~~~~~~~~~~~~~~~~~~~~~~~~~~~~~~~~~~~~~~~~~~~~~~~~~~~~~~~~~~!
</text>
<text x="178" y="2860">
+
</text>
<text x="354" y="2860">
Alice
</text>
<text x="498" y="2860">
+
</text>
<text x="122" y="2876">
|Bob on
</text>
<text x="362" y="2876">
,
</text>
<text x="482" y="2876">
|Last|
</text>
<text x="122" y="2892">
|several lines|
</text>
<text x="362" y="2892">
`
</text>
<text x="2" y="2956">
```
</text>
<text x="2" y="2988">
Same example using Unicode
</text>
<text x="2" y="3020">
```bob`
</text>
<text x="362" y="3036">
┌─┐
</text>
<text x="362" y="3052">
║&quot;
</text>
<text x="378" y="3052">
│
</text>
<text x="362" y="3068">
└┬┘
</text>
<text x="122" y="3084">
┌─────────────┐
</text>
<text x="362" y="3084">
┌┼┐
</text>
<text x="122" y="3100">
│Bob on
</text>
<text x="234" y="3100">
│
</text>
<text x="370" y="3100">
│
</text>
<text x="482" y="3100">
┌────┐
</text>
<text x="122" y="3116">
│several lines│
</text>
<text x="362" y="3116">
┌┴┐
</text>
<text x="482" y="3116">
│Last│
</text>
<text x="122" y="3132">
└──────┬──────┘
</text>
<text x="354" y="3132">
Alice
</text>
<text x="482" y="3132">
└─┬──┘
</text>
<text x="178" y="3148">
│
</text>
<text x="250" y="3148">
hello
</text>
<text x="370" y="3148">
│
</text>
<text x="498" y="3148">
│
</text>
<text x="178" y="3164">
│──────────────────────&gt;
</text>
<text x="370" y="3164">
│
</text>
<text x="498" y="3164">
│
</text>
<text x="178" y="3180">
│
</text>
<text x="370" y="3180">
│
</text>
<text x="498" y="3180">
│
</text>
<text x="178" y="3196">
│
</text>
<text x="370" y="3196">
│
</text>
<text x="386" y="3196">
╔═════════════╧══╗
</text>
<text x="178" y="3212">
│
</text>
<text x="370" y="3212">
│
</text>
<text x="386" y="3212">
║this is a note
</text>
<text x="514" y="3212">
░║
</text>
<text x="178" y="3228">
│
</text>
<text x="370" y="3228">
│
</text>
<text x="386" y="3228">
╚═════════════╤══╝
</text>
<text x="178" y="3244">
│Is it ok
</text>
<text x="370" y="3244">
│
</text>
<text x="386" y="3244">
╔═════════════╧════╗
</text>
<text x="178" y="3260">
│with a message that is
</text>
<text x="370" y="3260">
│
</text>
<text x="386" y="3260">
║This other note
</text>
<text x="530" y="3260">
░║
</text>
<text x="178" y="3276">
│on several lines?
</text>
<text x="370" y="3276">
│
</text>
<text x="386" y="3276">
║should work
</text>
<text x="538" y="3276">
║
</text>
<text x="178" y="3292">
│&lt;
</text>
<text x="194" y="3292">
──────────────────────│
</text>
<text x="386" y="3292">
║on several lines
</text>
<text x="538" y="3292">
║
</text>
<text x="178" y="3308">
│
</text>
<text x="370" y="3308">
│
</text>
<text x="386" y="3308">
╚═════════════╤════╝
</text>
<text x="178" y="3324">
│
</text>
<text x="370" y="3324">
│
</text>
<text x="498" y="3324">
│
</text>
<text x="178" y="3340">
│
</text>
<text x="298" y="3340">
╔════════╧═════════════╗
</text>
<text x="498" y="3340">
│
</text>
<text x="2" y="3356">
══════════════════════╪══════════════╣
</text>
<text x="314" y="3356">
This is a separation
</text>
<text x="482" y="3356">
╠═╪════════════════════════════════════
</text>
<text x="178" y="3372">
│
</text>
<text x="298" y="3372">
╚════════╤═════════════╝
</text>
<text x="498" y="3372">
│
</text>
<text x="178" y="3388">
│
</text>
<text x="370" y="3388">
│
</text>
<text x="498" y="3388">
│
</text>
<text x="178" y="3404">
│
</text>
<text x="282" y="3404">
Yes it works!
</text>
<text x="498" y="3404">
│
</text>
<text x="178" y="3420">
│──────────────────────────────────────&gt;
</text>
<text x="498" y="3420">
│
</text>
<text x="178" y="3436">
│
</text>
<text x="370" y="3436">
│
</text>
<text x="498" y="3436">
│
</text>
<text x="178" y="3452">
│
</text>
<text x="370" y="3452">
╔══════════════╗│────┐
</text>
<text x="178" y="3468">
│
</text>
<text x="370" y="3468">
║this is
</text>
<text x="482" y="3468">
░║│
</text>
<text x="538" y="3468">
│
</text>
<text x="554" y="3468">
working in progress
</text>
<text x="178" y="3484">
│
</text>
<text x="370" y="3484">
║another note
</text>
<text x="490" y="3484">
║│&lt;
</text>
<text x="514" y="3484">
───┘
</text>
<text x="178" y="3500">
│
</text>
<text x="370" y="3500">
╚══════════════╝│
</text>
<text x="178" y="3516">
│
</text>
<text x="370" y="3516">
│
</text>
<text x="498" y="3516">
│─
</text>
<text x="522" y="3516">
─
</text>
<text x="538" y="3516">
┐
</text>
<text x="178" y="3532">
│
</text>
<text x="370" y="3532">
│
</text>
<text x="498" y="3532">
│
</text>
<text x="554" y="3532">
working in progress
</text>
<text x="178" y="3548">
│
</text>
<text x="370" y="3548">
│
</text>
<text x="498" y="3548">
│&lt;
</text>
<text x="522" y="3548">
─
</text>
<text x="538" y="3548">
┘
</text>
<text x="178" y="3564">
│
</text>
<text x="370" y="3564">
│
</text>
<text x="498" y="3564">
│
</text>
<text x="178" y="3580">
│
</text>
<text x="322" y="3580">
done
</text>
<text x="370" y="3580">
│
</text>
<text x="498" y="3580">
│
</text>
<text x="178" y="3596">
│&lt;
</text>
<text x="194" y="3596">
─
</text>
<text x="210" y="3596">
─
</text>
<text x="226" y="3596">
─
</text>
<text x="242" y="3596">
─
</text>
<text x="258" y="3596">
─
</text>
<text x="274" y="3596">
─
</text>
<text x="290" y="3596">
─
</text>
<text x="306" y="3596">
─
</text>
<text x="322" y="3596">
─
</text>
<text x="338" y="3596">
─
</text>
<text x="354" y="3596">
─
</text>
<text x="370" y="3596">
─
</text>
<text x="386" y="3596">
─
</text>
<text x="402" y="3596">
─
</text>
<text x="418" y="3596">
─
</text>
<text x="434" y="3596">
─
</text>
<text x="450" y="3596">
─
</text>
<text x="466" y="3596">
─
</text>
<text x="482" y="3596">
─
</text>
<text x="498" y="3596">
│
</text>
<text x="178" y="3612">
│
</text>
<text x="370" y="3612">
│
</text>
<text x="498" y="3612">
│
</text>
<text x="42" y="3628">
╔══════╤═════════╪═══════════════════════╪═══════════════╪════════════╗
</text>
<text x="42" y="3644">
║
</text>
<text x="58" y="3644">
OPT
</text>
<text x="98" y="3644">
│
</text>
<text x="122" y="3644">
dummy comment
</text>
<text x="370" y="3644">
│
</text>
<text x="498" y="3644">
│
</text>
<text x="602" y="3644">
║
</text>
<text x="42" y="3660">
╟──────┘
</text>
<text x="178" y="3660">
│
</text>
<text x="370" y="3660">
│
</text>
<text x="498" y="3660">
│
</text>
<text x="602" y="3660">
║
</text>
<text x="42" y="3676">
║
</text>
<text x="178" y="3676">
│
</text>
<text x="370" y="3676">
│
</text>
<text x="498" y="3676">
│
</text>
<text x="602" y="3676">
║
</text>
<text x="42" y="3692">
║
</text>
<text x="178" y="3692">
│
</text>
<text x="306" y="3692">
Error
</text>
<text x="370" y="3692">
│
</text>
<text x="498" y="3692">
│
</text>
<text x="602" y="3692">
║
</text>
<text x="42" y="3708">
║
</text>
<text x="178" y="3708">
│
</text>
<text x="306" y="3708">
On
</text>
<text x="370" y="3708">
│
</text>
<text x="498" y="3708">
│
</text>
<text x="602" y="3708">
║
</text>
<text x="42" y="3724">
║
</text>
<text x="178" y="3724">
│
</text>
<text x="306" y="3724">
Several
</text>
<text x="370" y="3724">
│
</text>
<text x="498" y="3724">
│
</text>
<text x="602" y="3724">
║
</text>
<text x="42" y="3740">
║
</text>
<text x="178" y="3740">
│
</text>
<text x="306" y="3740">
Line
</text>
<text x="370" y="3740">
│
</text>
<text x="498" y="3740">
│
</text>
<text x="602" y="3740">
║
</text>
<text x="42" y="3756">
║
</text>
<text x="178" y="3756">
│──────────────────────────────────────&gt;
</text>
<text x="498" y="3756">
│
</text>
<text x="602" y="3756">
║
</text>
<text x="42" y="3772">
║
</text>
<text x="178" y="3772">
│
</text>
<text x="370" y="3772">
│
</text>
<text x="498" y="3772">
│
</text>
<text x="602" y="3772">
║
</text>
<text x="42" y="3788">
║
</text>
<text x="178" y="3788">
│
</text>
<text x="322" y="3788">
None
</text>
<text x="370" y="3788">
│
</text>
<text x="498" y="3788">
│
</text>
<text x="602" y="3788">
║
</text>
<text x="42" y="3804">
║
</text>
<text x="178" y="3804">
│&lt;
</text>
<text x="194" y="3804">
─
</text>
<text x="210" y="3804">
─
</text>
<text x="226" y="3804">
─
</text>
<text x="242" y="3804">
─
</text>
<text x="258" y="3804">
─
</text>
<text x="274" y="3804">
─
</text>
<text x="290" y="3804">
─
</text>
<text x="306" y="3804">
─
</text>
<text x="322" y="3804">
─
</text>
<text x="338" y="3804">
─
</text>
<text x="354" y="3804">
─
</text>
<text x="370" y="3804">
─
</text>
<text x="386" y="3804">
─
</text>
<text x="402" y="3804">
─
</text>
<text x="418" y="3804">
─
</text>
<text x="434" y="3804">
─
</text>
<text x="450" y="3804">
─
</text>
<text x="466" y="3804">
─
</text>
<text x="482" y="3804">
─
</text>
<text x="498" y="3804">
│
</text>
<text x="602" y="3804">
║
</text>
<text x="42" y="3820">
╠════════════════╪═══════════════════════╪═══════════════╪════════════╣
</text>
<text x="42" y="3836">
║
</text>
<text x="178" y="3836">
│
</text>
<text x="370" y="3836">
│
</text>
<text x="498" y="3836">
│
</text>
<text x="602" y="3836">
║
</text>
<text x="42" y="3852">
║
</text>
<text x="178" y="3852">
│
</text>
<text x="322" y="3852">
None
</text>
<text x="370" y="3852">
│
</text>
<text x="498" y="3852">
│
</text>
<text x="602" y="3852">
║
</text>
<text x="42" y="3868">
║
</text>
<text x="178" y="3868">
│&lt;
</text>
<text x="194" y="3868">
─
</text>
<text x="210" y="3868">
─
</text>
<text x="226" y="3868">
─
</text>
<text x="242" y="3868">
─
</text>
<text x="258" y="3868">
─
</text>
<text x="274" y="3868">
─
</text>
<text x="290" y="3868">
─
</text>
<text x="306" y="3868">
─
</text>
<text x="322" y="3868">
─
</text>
<text x="338" y="3868">
─
</text>
<text x="354" y="3868">
─
</text>
<text x="370" y="3868">
─
</text>
<text x="386" y="3868">
─
</text>
<text x="402" y="3868">
─
</text>
<text x="418" y="3868">
─
</text>
<text x="434" y="3868">
─
</text>
<text x="450" y="3868">
─
</text>
<text x="466" y="3868">
─
</text>
<text x="482" y="3868">
─
</text>
<text x="498" y="3868">
│
</text>
<text x="602" y="3868">
║
</text>
<text x="42" y="3884">
║
</text>
<text x="178" y="3884">
│
</text>
<text x="370" y="3884">
│
</text>
<text x="498" y="3884">
│
</text>
<text x="602" y="3884">
║
</text>
<text x="42" y="3900">
║
</text>
<text x="178" y="3900">
│
</text>
<text x="322" y="3900">
None
</text>
<text x="370" y="3900">
│
</text>
<text x="498" y="3900">
│
</text>
<text x="602" y="3900">
║
</text>
<text x="42" y="3916">
║
</text>
<text x="178" y="3916">
│&lt;
</text>
<text x="194" y="3916">
──────────────────────────────────────│
</text>
<text x="602" y="3916">
║
</text>
<text x="42" y="3932">
╠════════════════╪═══════════════════════╪═══════════════╪════════════╣
</text>
<text x="42" y="3948">
║
</text>
<text x="58" y="3948">
[other]
</text>
<text x="178" y="3948">
│
</text>
<text x="370" y="3948">
│
</text>
<text x="498" y="3948">
│
</text>
<text x="602" y="3948">
║
</text>
<text x="42" y="3964">
║
</text>
<text x="178" y="3964">
│
</text>
<text x="322" y="3964">
None
</text>
<text x="370" y="3964">
│
</text>
<text x="498" y="3964">
│
</text>
<text x="602" y="3964">
║
</text>
<text x="42" y="3980">
║
</text>
<text x="178" y="3980">
│&lt;
</text>
<text x="194" y="3980">
──────────────────────────────────────│
</text>
<text x="602" y="3980">
║
</text>
<text x="42" y="3996">
║
</text>
<text x="178" y="3996">
│
</text>
<text x="370" y="3996">
│
</text>
<text x="498" y="3996">
│
</text>
<text x="602" y="3996">
║
</text>
<text x="42" y="4012">
║
</text>
<text x="178" y="4012">
│
</text>
<text x="346" y="4012">
╔══╧═══════════════╧══╗
</text>
<text x="602" y="4012">
║
</text>
<text x="42" y="4028">
║
</text>
<text x="178" y="4028">
│
</text>
<text x="346" y="4028">
║This is a long note
</text>
<text x="514" y="4028">
░║
</text>
<text x="602" y="4028">
║
</text>
<text x="42" y="4044">
║
</text>
<text x="178" y="4044">
│
</text>
<text x="346" y="4044">
║over Alice and Last
</text>
<text x="522" y="4044">
║
</text>
<text x="602" y="4044">
║
</text>
<text x="42" y="4060">
║
</text>
<text x="178" y="4060">
│
</text>
<text x="346" y="4060">
╚══╤═══════════════╤══╝
</text>
<text x="602" y="4060">
║
</text>
<text x="42" y="4076">
║
</text>
<text x="178" y="4076">
│
</text>
<text x="322" y="4076">
None
</text>
<text x="370" y="4076">
│
</text>
<text x="498" y="4076">
│
</text>
<text x="602" y="4076">
║
</text>
<text x="42" y="4092">
║
</text>
<text x="178" y="4092">
│&lt;
</text>
<text x="194" y="4092">
──────────────────────────────────────│
</text>
<text x="602" y="4092">
║
</text>
<text x="42" y="4108">
║
</text>
<text x="178" y="4108">
│
</text>
<text x="370" y="4108">
│
</text>
<text x="498" y="4108">
│
</text>
<text x="602" y="4108">
║
</text>
<text x="42" y="4124">
║
</text>
<text x="178" y="4124">
│
</text>
<text x="322" y="4124">
None
</text>
<text x="370" y="4124">
│
</text>
<text x="498" y="4124">
│
</text>
<text x="602" y="4124">
║
</text>
<text x="42" y="4140">
║
</text>
<text x="178" y="4140">
│&lt;
</text>
<text x="194" y="4140">
──────────────────────────────────────│
</text>
<text x="602" y="4140">
║
</text>
<text x="42" y="4156">
╚════════════════╪═══════════════════════╪═══════════════╪════════════╝
</text>
<text x="122" y="4172">
┌──────┴──────┐
</text>
<text x="354" y="4172">
Alice
</text>
<text x="482" y="4172">
┌─┴──┐
</text>
<text x="122" y="4188">
│Bob on
</text>
<text x="234" y="4188">
│
</text>
<text x="362" y="4188">
┌─┐
</text>
<text x="482" y="4188">
│Last│
</text>
<text x="122" y="4204">
│several lines│
</text>
<text x="362" y="4204">
║&quot;
</text>
<text x="378" y="4204">
│
</text>
<text x="482" y="4204">
└────┘
</text>
<text x="122" y="4220">
└─────────────┘
</text>
<text x="362" y="4220">
└┬┘
</text>
<text x="362" y="4236">
┌┼┐
</text>
<text x="370" y="4252">
│
</text>
<text x="362" y="4268">
┌┴┐
</text>
</svg>