<svg font-family="Arial" font-size="14" height="7552" width="624" xmlns="http://www.w3.org/2000/svg">
<defs>
<marker id="triangle" markerHeight="10" markerUnits="strokeWidth" markerWidth="10" orient="auto" refX="0" refY="5" viewBox="0 0 40 40">
<path d="M 0 0 L 10 5 L 0 10 z"/>
</marker>
</defs>
<style>

     <![CDATA[ 
    line, path {
      stroke: black;
      stroke-width: 2;
      stroke-opacity: 1;
      fill-opacity: 1;
      stroke-linecap: round;
      stroke-linejoin: miter;
    }
     ]]> 
    
</style>
<path d=" M 4 8 L 4 64 M 4 8 L 56 8 M 8 8 L 56 8 M 60 8 L 60 32 M 60 8 L 56 8 M 92 8 L 92 64 M 92 8 L 136 8 M 96 8 L 136 8 M 140 8 L 140 32 M 140 8 L 136 8 M 172 8 L 172 32 M 172 8 L 216 8 M 176 8 L 216 8 M 220 8 L 220 64 M 220 8 L 216 8 M 252 8 L 252 32 M 252 8 L 296 8 M 256 8 L 296 8 M 300 8 L 300 64 M 300 8 L 296 8 M 4 16 L 4 64 M 60 16 L 60 32 M 92 16 L 92 64 M 140 16 L 140 32 M 172 16 L 172 32 M 220 16 L 220 64 M 252 16 L 252 32 M 300 16 L 300 64 M 60 32 L 60 64 M 140 32 L 140 64 M 140 40 L 168 40 M 144 40 L 168 40 M 172 32 L 172 64 M 172 40 L 168 40 M 232 40 L 248 40 M 252 32 L 252 64 M 252 40 L 248 40 M 60 48 L 60 64 M 140 48 L 140 64 M 172 48 L 172 64 M 252 48 L 252 64 M 4 72 L 4 64 M 4 72 L 56 72 M 8 72 L 56 72 M 60 72 L 60 64 M 60 72 L 56 72 M 92 72 L 92 64 M 92 72 L 136 72 M 96 72 L 136 72 M 140 72 L 140 64 M 140 72 L 136 72 M 172 72 L 172 64 M 172 72 L 192 72 M 176 72 L 192 72 L 216 72 M 200 72 L 216 72 M 220 72 L 220 64 M 220 72 L 216 72 M 252 72 L 252 64 M 252 72 L 296 72 M 256 72 L 296 72 M 300 72 L 300 64 M 300 72 L 296 72 M 116 96 L 116 112 M 4 124 L 4 144 M 8 120 A 4 4 0 0 0 4 124 M 8 120 L 112 120 M 116 120 L 116 112 M 112 120 L 304 120 M 120 120 L 304 120 M 308 124 L 308 144 M 308 124 A 4 4 0 0 0 304 120 M 4 128 L 4 144 M 308 128 L 308 144 M 4 144 L 4 148 A 4 4 0 0 0 8 152 L 304 152 M 308 144 L 308 148 M 304 152 A 4 4 0 0 0 308 148 M 192 208 L 288 208 M 24 224 L 26 220 M 32 216 A 8 8 0 0 0 26 220 M 32 216 L 144 216 M 152 224 L 150 220 A 8 8 0 0 0 144 216 M 192 208 L 208 240 M 288 208 L 304 240 M 16 240 L 24 224 M 152 224 L 160 240 M 344 240 L 424 240 M 16 240 L 14 244 M 16 256 L 14 252 M 14 244 A 8 8 0 0 0 14 252 M 160 240 L 162 244 M 160 256 L 162 252 A 8 8 0 0 0 162 244 M 208 240 L 210 244 M 208 256 L 210 252 A 8 8 0 0 0 210 244 M 304 240 L 306 244 M 304 256 L 306 252 A 8 8 0 0 0 306 244 M 344 240 L 352 256 M 424 240 L 432 256 M 16 256 L 24 272 M 152 272 L 160 256 M 24 272 L 26 276 A 8 8 0 0 0 32 280 L 144 280 M 150 276 L 160 256 M 144 280 A 8 8 0 0 0 150 276 M 192 288 L 208 256 M 208 288 L 192 288 M 208 288 L 288 288 L 304 256 M 336 288 L 352 256 M 352 288 L 336 288 M 352 288 L 416 288 L 432 256 M 32 336 L 176 336 M 32 336 L 48 368 M 40 352 L 184 352 M 176 336 L 192 368 M 48 368 L 50 372 M 48 384 L 50 380 A 8 8 0 0 0 50 372 M 192 368 L 194 372 M 192 384 L 194 380 A 8 8 0 0 0 194 372 M 56 400 L 40 400 M 56 400 L 184 400 M 32 416 L 48 384 M 48 416 L 32 416 M 48 416 L 176 416 L 192 384 M 112 448 L 136 496 M 192 480 L 194 476 M 200 472 A 8 8 0 0 0 194 476 M 200 472 L 216 472 A 8 8 0 0 0 222 468 M 184 496 L 192 480 M 112 504 L 136 504 M 128 528 L 136 512 M 184 512 L 200 544 M 96 544 L 98 540 M 104 536 A 8 8 0 0 0 98 540 M 104 536 L 120 536 M 126 532 L 136 512 M 120 536 A 8 8 0 0 0 126 532 M 200 544 L 224 544 M 88 560 L 96 544 M 112 616 A 4 4 0 0 0 108 620 L 108 624 M 112 616 L 136 616 M 140 620 A 4 4 0 0 0 136 616 M 140 620 L 140 624 M 168 616 A 4 4 0 0 0 164 620 L 164 624 M 168 616 L 192 616 M 196 620 A 4 4 0 0 0 192 616 M 196 620 L 196 624 M 216 616 A 4 4 0 0 0 212 620 L 212 624 M 216 616 L 240 616 M 244 620 A 4 4 0 0 0 240 616 M 244 620 L 244 624 M 272 616 A 4 4 0 0 0 268 620 L 268 624 M 272 616 L 296 616 M 300 620 A 4 4 0 0 0 296 616 M 300 620 L 300 624 M 344 616 A 4 4 0 0 0 340 620 L 340 624 M 344 616 L 368 616 M 372 620 A 4 4 0 0 0 368 616 M 372 620 L 372 624 M 400 616 A 4 4 0 0 0 396 620 L 396 624 M 400 616 L 424 616 M 428 620 A 4 4 0 0 0 424 616 M 428 620 L 428 624 M 108 628 A 4 4 0 0 0 112 632 M 108 624 L 108 628 M 112 632 L 136 632 A 4 4 0 0 0 140 628 M 140 624 L 140 628 M 164 628 A 4 4 0 0 0 168 632 M 164 624 L 164 628 M 168 632 L 192 632 A 4 4 0 0 0 196 628 M 196 624 L 196 628 M 212 628 A 4 4 0 0 0 216 632 M 212 624 L 212 628 M 216 632 L 240 632 A 4 4 0 0 0 244 628 M 244 624 L 244 628 M 268 628 A 4 4 0 0 0 272 632 M 268 624 L 268 628 M 272 632 L 296 632 A 4 4 0 0 0 300 628 M 300 624 L 300 628 M 340 628 A 4 4 0 0 0 344 632 M 340 624 L 340 628 M 344 632 L 368 632 A 4 4 0 0 0 372 628 M 372 624 L 372 628 M 396 628 A 4 4 0 0 0 400 632 M 396 624 L 396 628 M 400 632 L 424 632 A 4 4 0 0 0 428 628 M 428 624 L 428 628 M 228 640 L 228 768 M 108 684 L 108 704 M 112 680 A 4 4 0 0 0 108 684 M 112 680 L 208 680 M 212 684 L 212 704 M 212 684 A 4 4 0 0 0 208 680 M 244 684 L 244 704 M 248 680 A 4 4 0 0 0 244 684 M 248 680 L 336 680 M 340 684 L 340 704 M 340 684 A 4 4 0 0 0 336 680 M 380 684 L 380 704 M 384 680 A 4 4 0 0 0 380 684 M 384 680 L 424 680 M 428 684 L 428 704 M 428 684 A 4 4 0 0 0 424 680 M 108 688 L 108 704 M 212 688 L 212 704 M 244 688 L 244 704 M 340 688 L 340 704 M 380 688 L 380 704 M 428 688 L 428 704 M 108 704 L 108 708 A 4 4 0 0 0 112 712 L 208 712 M 212 704 L 212 708 M 208 712 A 4 4 0 0 0 212 708 M 244 704 L 244 708 A 4 4 0 0 0 248 712 L 336 712 M 340 704 L 340 708 M 336 712 A 4 4 0 0 0 340 708 M 380 704 L 380 708 A 4 4 0 0 0 384 712 L 424 712 M 428 704 L 428 708 M 424 712 A 4 4 0 0 0 428 708 M 140 764 L 140 784 M 144 760 A 4 4 0 0 0 140 764 M 144 760 L 176 760 M 180 764 L 180 784 M 180 764 A 4 4 0 0 0 176 760 M 324 764 L 324 784 M 328 760 A 4 4 0 0 0 324 764 M 328 760 L 400 760 M 404 764 L 404 784 M 404 764 A 4 4 0 0 0 400 760 M 140 768 L 140 784 M 180 768 L 180 784 M 192 776 L 224 776 M 228 768 L 228 772 M 224 776 A 4 4 0 0 0 228 772 M 324 768 L 324 784 M 404 768 L 404 784 M 140 784 L 140 788 A 4 4 0 0 0 144 792 L 176 792 M 180 784 L 180 788 M 176 792 A 4 4 0 0 0 180 788 M 324 784 L 324 788 A 4 4 0 0 0 328 792 L 400 792 M 404 784 L 404 788 M 400 792 A 4 4 0 0 0 404 788 M 108 844 L 108 864 M 112 840 A 4 4 0 0 0 108 844 M 112 840 L 424 840 M 428 844 L 428 864 M 428 844 A 4 4 0 0 0 424 840 M 108 848 L 108 864 M 428 848 L 428 864 M 108 864 L 108 868 A 4 4 0 0 0 112 872 L 424 872 M 428 864 L 428 868 M 424 872 A 4 4 0 0 0 428 868 M 32 928 L 20 928 M 32 928 L 60 928 M 60 912 L 60 928 M 68 912 L 68 1024 M 20 928 L 20 1024 M 40 944 L 28 944 M 40 944 L 60 944 M 28 944 L 28 976 M 60 944 L 60 976 M 40 976 L 28 976 M 40 976 L 60 976 M 80 984 L 68 984 M 80 984 L 536 984 M 540 988 A 4 4 0 0 0 536 984 M 20 1024 L 20 1028 A 4 4 0 0 0 24 1032 L 64 1032 M 68 1024 L 68 1028 M 64 1032 A 4 4 0 0 0 68 1028 M 28 1084 L 28 1104 M 32 1080 A 4 4 0 0 0 28 1084 M 32 1080 L 184 1080 M 188 1084 L 188 1104 M 188 1084 A 4 4 0 0 0 184 1080 M 212 1084 L 212 1136 M 216 1080 A 4 4 0 0 0 212 1084 M 216 1080 L 432 1080 M 436 1084 L 436 1184 M 436 1084 A 4 4 0 0 0 432 1080 M 460 1084 L 460 1120 M 464 1080 A 4 4 0 0 0 460 1084 M 464 1080 L 616 1080 M 620 1084 L 620 1120 M 620 1084 A 4 4 0 0 0 616 1080 M 28 1088 L 28 1104 M 188 1088 L 188 1104 M 212 1088 L 212 1136 M 436 1088 L 436 1184 M 460 1088 L 460 1120 M 620 1088 L 620 1120 M 28 1104 L 28 1108 A 4 4 0 0 0 32 1112 L 184 1112 M 188 1104 L 188 1108 M 184 1112 A 4 4 0 0 0 188 1108 M 224 1112 L 212 1112 M 224 1112 L 436 1112 M 108 1120 L 108 1136 M 292 1132 L 292 1152 M 296 1128 A 4 4 0 0 0 292 1132 M 296 1128 L 336 1128 M 340 1132 L 340 1152 M 340 1132 A 4 4 0 0 0 336 1128 M 460 1120 L 460 1124 A 4 4 0 0 0 464 1128 L 616 1128 M 620 1120 L 620 1124 M 616 1128 A 4 4 0 0 0 620 1124 M 108 1136 L 108 1140 A 4 4 0 0 0 112 1144 L 208 1144 M 212 1136 L 212 1216 M 292 1136 L 292 1152 M 340 1136 L 340 1152 M 548 1136 L 548 1184 M 212 1152 L 212 1216 M 292 1152 L 292 1156 A 4 4 0 0 0 296 1160 L 336 1160 M 340 1152 L 340 1156 M 336 1160 A 4 4 0 0 0 340 1156 M 248 1184 L 250 1180 M 256 1176 A 8 8 0 0 0 250 1180 M 256 1176 L 400 1176 M 400 1184 L 402 1180 A 4 4 0 0 0 400 1176 M 240 1200 L 248 1184 M 392 1200 L 400 1184 M 408 1192 L 432 1192 M 436 1184 L 436 1216 M 432 1192 L 544 1192 M 440 1192 L 544 1192 M 548 1184 L 548 1188 M 544 1192 A 4 4 0 0 0 548 1188 M 238 1204 L 248 1184 M 238 1204 A 4 4 0 0 0 240 1208 L 384 1208 M 390 1204 L 400 1184 M 384 1208 A 8 8 0 0 0 390 1204 M 436 1200 L 436 1216 M 212 1216 L 212 1220 A 4 4 0 0 0 216 1224 L 432 1224 M 436 1216 L 436 1220 M 432 1224 A 4 4 0 0 0 436 1220 M 72 1264 L 70 1260 M 72 1256 A 4 4 0 0 0 70 1260 M 72 1256 L 184 1256 M 192 1264 L 190 1260 A 8 8 0 0 0 184 1256 M 72 1264 L 80 1280 M 144 1272 L 160 1272 M 192 1264 L 200 1280 M 80 1280 L 82 1284 A 8 8 0 0 0 88 1288 L 200 1288 M 200 1280 L 202 1284 M 200 1288 A 4 4 0 0 0 202 1284 M 320 1328 L 322 1324 M 328 1320 A 8 8 0 0 0 322 1324 M 312 1344 L 320 1328 M 304 1360 L 320 1328 M 310 1352 A 8 8 0 0 0 306 1356 M 128 1368 L 184 1368 M 192 1376 L 190 1372 A 8 8 0 0 0 184 1368 M 376 1360 L 384 1376 M 192 1376 L 240 1472 M 384 1376 L 400 1408 M 386 1380 A 8 8 0 0 0 390 1384 M 392 1392 L 400 1408 M 96 1408 L 128 1472 M 400 1408 L 402 1412 A 8 8 0 0 0 408 1416 M 264 1440 L 304 1360 M 256 1456 L 304 1360 M 262 1448 A 8 8 0 0 0 258 1452 M 248 1472 L 256 1456 M 128 1472 L 130 1476 A 8 8 0 0 0 136 1480 L 184 1480 M 184 1504 L 192 1488 M 208 1488 L 288 1648 M 224 1488 L 280 1600 M 240 1488 L 264 1536 M 184 1504 L 182 1508 M 180 1520 L 180 1516 M 182 1508 A 16 16 0 0 0 180 1516 M 180 1520 L 180 1536 L 180 1568 M 176 1552 L 178 1548 A 16 16 0 0 0 180 1540 M 264 1536 L 266 1540 A 8 8 0 0 0 272 1544 L 296 1544 M 168 1568 L 176 1552 M 180 1552 L 180 1568 M 312 1552 L 320 1568 M 180 1568 L 180 1600 M 176 1584 L 178 1580 A 16 16 0 0 0 180 1572 M 320 1568 L 322 1572 A 8 8 0 0 0 328 1576 L 360 1576 M 168 1600 L 176 1584 M 180 1584 L 180 1600 L 180 1632 M 176 1616 L 178 1612 A 16 16 0 0 0 180 1604 M 280 1600 L 282 1604 A 8 8 0 0 0 288 1608 L 296 1608 M 168 1632 L 176 1616 M 180 1616 L 180 1632 L 180 1636 M 176 1648 L 178 1644 A 16 16 0 0 0 180 1636 M 168 1664 L 176 1648 M 288 1648 L 290 1652 A 8 8 0 0 0 296 1656 L 320 1656 M 184 1696 L 216 1760 M 136 1760 L 168 1696 M 36 1792 L 36 1856 M 36 1864 L 36 1856 M 56 2224 L 64 2240 M 68 2224 L 68 2240 M 56 2272 L 64 2256 M 56 2320 L 64 2336 M 68 2320 L 68 2336 M 56 2344 L 64 2344 M 56 2368 L 64 2352 M 56 2400 L 64 2416 M 68 2400 L 68 2416 M 72 2416 L 80 2400 M 56 2424 L 64 2424 M 68 2416 L 68 2448 M 64 2424 L 80 2424 M 64 2416 L 80 2448 M 64 2432 L 80 2400 M 72 2424 L 80 2424 M 56 2448 L 64 2432 M 68 2432 L 68 2448 M 72 2432 L 80 2448 M 68 2464 L 68 2480 M 96 2464 L 112 2496 M 56 2488 L 64 2488 M 68 2480 L 68 2512 M 64 2488 L 80 2488 M 72 2488 L 80 2488 M 96 2496 L 112 2464 M 68 2496 L 68 2512 M 68 2528 L 68 2544 M 124 2528 L 124 2544 M 164 2528 L 164 2544 M 220 2528 L 220 2544 M 68 2552 L 68 2544 M 68 2552 L 88 2552 M 72 2552 L 88 2552 M 104 2552 L 120 2552 M 124 2552 L 124 2544 M 124 2552 L 120 2552 M 164 2544 L 164 2576 M 164 2552 L 184 2552 M 168 2552 L 184 2552 M 200 2552 L 216 2552 M 220 2544 L 220 2576 M 220 2552 L 216 2552 M 252 2552 L 252 2576 M 252 2552 L 272 2552 M 256 2552 L 272 2552 M 288 2552 L 304 2552 M 308 2552 L 308 2576 M 308 2552 L 304 2552 M 164 2560 L 164 2576 M 220 2560 L 220 2576 M 252 2560 L 252 2576 M 308 2560 L 308 2576 M 172 2592 L 172 2608 M 212 2592 L 212 2608 M 236 2592 L 236 2608 M 284 2592 L 284 2608 M 108 2620 L 108 2640 M 112 2616 A 4 4 0 0 0 108 2620 M 112 2616 L 120 2616 M 128 2616 L 136 2616 M 140 2620 L 140 2640 M 140 2620 A 4 4 0 0 0 136 2616 M 172 2608 L 172 2612 A 4 4 0 0 0 176 2616 L 184 2616 M 200 2616 L 208 2616 M 212 2608 L 212 2612 M 208 2616 A 4 4 0 0 0 212 2612 M 236 2608 L 236 2612 A 4 4 0 0 0 240 2616 L 248 2616 M 272 2616 L 280 2616 M 284 2608 L 284 2612 M 280 2616 A 4 4 0 0 0 284 2612 M 108 2624 L 108 2640 M 140 2624 L 140 2640 M 72 2664 A 4 4 0 0 0 68 2668 L 68 2672 M 72 2664 L 80 2664 M 104 2664 L 112 2664 M 116 2668 A 4 4 0 0 0 112 2664 M 116 2668 L 116 2672 M 140 2668 L 140 2688 M 144 2664 A 4 4 0 0 0 140 2668 M 152 2664 A 16 16 0 0 0 144 2664 M 156 2668 L 156 2688 M 156 2668 A 4 4 0 0 0 152 2664 M 68 2676 A 4 4 0 0 0 72 2680 M 68 2672 L 68 2676 M 72 2680 L 80 2680 M 104 2680 L 112 2680 A 4 4 0 0 0 116 2676 M 116 2672 L 116 2676 M 140 2672 L 140 2688 M 156 2672 L 156 2688 M 180 2672 L 180 2688 M 196 2672 L 196 2688 M 180 2688 L 180 2692 A 4 4 0 0 0 184 2696 L 192 2696 M 196 2688 L 196 2692 M 192 2696 A 4 4 0 0 0 196 2692 M 48 2720 L 56 2736 M 108 2720 L 108 2736 M 144 2736 L 152 2720 M 172 2720 L 172 2736 M 56 2736 L 58 2740 M 60 2748 L 60 2768 M 60 2748 A 16 16 0 0 0 58 2740 M 108 2736 L 108 2740 M 104 2752 L 106 2748 A 16 16 0 0 0 108 2740 M 144 2736 L 142 2740 M 140 2752 L 140 2748 M 142 2740 A 16 16 0 0 0 140 2748 M 172 2736 L 172 2740 M 174 2748 L 184 2768 M 172 2740 A 16 16 0 0 0 174 2748 M 60 2752 L 60 2768 M 96 2768 L 104 2752 M 140 2752 L 140 2768 M 176 2752 L 184 2768 M 64 2784 L 72 2800 M 104 2800 L 112 2784 M 72 2800 L 74 2804 M 72 2816 L 74 2812 A 8 8 0 0 0 74 2804 M 104 2800 L 102 2804 M 104 2816 L 102 2812 M 102 2804 A 8 8 0 0 0 102 2812 M 64 2832 L 72 2816 M 104 2816 L 112 2832 M 60 2856 L 60 2880 M 60 2856 L 56 2864 M 100 2856 L 100 2880 M 100 2856 L 112 2880 M 140 2856 L 140 2928 M 140 2856 L 176 2928 M 180 2856 L 180 2928 M 180 2856 L 176 2864 M 48 2880 L 56 2864 M 60 2864 L 60 2880 M 100 2864 L 100 2880 M 104 2864 L 112 2880 M 140 2864 L 140 2928 M 144 2864 L 176 2928 M 180 2864 L 180 2928 M 48 2912 L 56 2928 M 60 2912 L 60 2928 M 92 2912 L 92 2928 M 96 2928 L 104 2912 M 144 2928 L 176 2864 M 56 2928 L 60 2936 L 60 2928 M 92 2928 L 92 2936 L 104 2912 M 140 2928 L 140 2936 L 176 2864 M 176 2928 L 180 2936 L 180 2928 M 56 2960 L 64 2976 M 56 2992 L 64 2976 M 56 3024 L 64 3008 M 56 3024 L 64 3040 M 56 3088 L 64 3072 M 112 3072 L 120 3088 M 48 3104 L 64 3072 M 54 3096 L 72 3096 M 54 3096 A 8 8 0 0 0 50 3100 M 56 3096 L 72 3096 M 104 3096 L 120 3096 M 120 3088 L 136 3120 M 122 3096 L 120 3096 M 126 3100 A 8 8 0 0 0 122 3096 M 40 3120 L 48 3104 M 128 3104 L 136 3120 M 56 3152 L 64 3136 M 88 3136 L 96 3152 M 32 3160 L 48 3160 M 48 3168 L 64 3136 M 50 3160 L 48 3160 M 50 3160 A 16 16 0 0 0 54 3156 M 96 3152 L 112 3184 M 102 3160 L 120 3160 M 98 3156 A 8 8 0 0 0 102 3160 M 104 3160 L 120 3160 M 40 3184 L 48 3168 M 104 3168 L 112 3184 M 184 3200 L 192 3216 M 264 3216 L 272 3200 M 56 3224 L 72 3224 L 96 3224 M 72 3232 L 74 3228 M 80 3224 A 8 8 0 0 0 74 3228 M 80 3224 L 96 3224 M 112 3224 L 128 3224 L 152 3224 M 134 3228 L 144 3248 M 134 3228 A 8 8 0 0 0 128 3224 M 136 3224 L 152 3224 M 176 3224 L 192 3224 L 216 3224 M 192 3216 L 194 3220 A 8 8 0 0 0 200 3224 L 216 3224 M 240 3224 L 256 3224 L 280 3224 M 262 3220 L 272 3200 M 256 3224 A 8 8 0 0 0 262 3220 M 264 3224 L 280 3224 M 64 3248 L 72 3232 M 136 3232 L 144 3248 M 68 3280 L 68 3296 M 100 3280 L 100 3296 M 68 3296 L 68 3328 M 64 3312 L 66 3308 A 16 16 0 0 0 68 3300 M 100 3296 L 100 3328 M 104 3312 L 102 3308 M 100 3300 A 16 16 0 0 0 102 3308 M 56 3328 L 64 3312 M 68 3312 L 68 3328 M 100 3312 L 100 3328 M 104 3312 L 112 3328 M 68 3344 L 68 3360 L 68 3368 L 80 3392 M 68 3368 L 64 3376 M 56 3392 L 64 3376 M 72 3376 L 80 3392 M 56 3408 L 64 3424 M 68 3408 L 68 3424 M 72 3424 L 80 3408 M 68 3424 L 68 3456 M 64 3424 L 80 3456 M 64 3440 L 80 3408 M 56 3456 L 64 3440 M 68 3440 L 68 3456 M 72 3440 L 80 3456 M 56 3488 L 64 3504 M 68 3488 L 68 3504 M 72 3504 L 80 3488 M 48 3512 L 64 3512 M 68 3504 L 68 3536 M 64 3512 L 88 3512 M 64 3504 L 80 3536 M 64 3520 L 80 3488 M 72 3512 L 88 3512 M 56 3536 L 64 3520 M 68 3520 L 68 3536 M 72 3520 L 80 3536 M 56 3552 L 64 3568 M 68 3552 L 68 3568 M 72 3568 L 80 3552 M 48 3576 L 64 3576 M 68 3568 L 68 3600 M 64 3576 L 88 3576 M 64 3568 L 80 3600 M 64 3584 L 80 3552 M 72 3576 L 88 3576 M 56 3600 L 64 3584 M 68 3584 L 68 3600 M 72 3584 L 80 3600 M 68 3616 L 68 3632 M 72 3632 L 80 3616 M 96 3616 L 104 3632 M 108 3616 L 108 3632 M 68 3632 L 68 3664 M 68 3640 L 80 3616 M 108 3632 L 108 3664 M 104 3632 L 108 3640 M 68 3648 L 68 3664 M 108 3648 L 108 3664 M 56 3704 L 64 3704 M 64 3712 L 66 3708 A 4 4 0 0 0 64 3704 M 88 3704 L 96 3704 M 104 3712 L 102 3708 A 8 8 0 0 0 96 3704 M 56 3728 L 64 3712 M 104 3712 L 112 3728 M 64 3760 L 66 3756 M 72 3752 A 8 8 0 0 0 66 3756 M 72 3752 L 80 3752 M 104 3760 L 102 3756 M 104 3752 A 4 4 0 0 0 102 3756 M 104 3752 L 112 3752 M 56 3776 L 64 3760 M 104 3760 L 112 3776 M 56 3824 L 64 3808 M 88 3824 L 96 3808 M 136 3808 L 144 3824 M 176 3808 L 184 3824 M 54 3828 L 64 3808 M 54 3828 A 4 4 0 0 0 56 3832 L 64 3832 M 86 3828 L 96 3808 M 86 3828 A 4 4 0 0 0 88 3832 L 144 3832 M 144 3824 L 146 3828 M 144 3832 A 4 4 0 0 0 146 3828 M 176 3832 L 184 3832 M 184 3824 L 186 3828 M 184 3832 A 4 4 0 0 0 186 3828 M 64 3880 A 16 16 0 0 0 54 3888 M 72 3880 A 16 16 0 0 0 64 3880 M 82 3888 A 16 16 0 0 0 72 3880 M 54 3888 A 16 16 0 0 0 54 3904 M 82 3904 A 16 16 0 0 0 82 3888 M 54 3904 A 16 16 0 0 0 64 3912 A 16 16 0 0 0 72 3912 A 16 16 0 0 0 82 3904 M 64 3960 A 16 16 0 0 0 54 3968 M 64 3960 L 112 3960 M 122 3968 A 16 16 0 0 0 112 3960 M 54 3968 A 16 16 0 0 0 54 3984 M 122 3984 A 16 16 0 0 0 122 3968 M 54 3984 A 16 16 0 0 0 64 3992 L 112 3992 A 16 16 0 0 0 122 3984 M 64 4032 L 128 4032 M 40 4080 L 64 4032 M 56 4080 L 40 4080 M 56 4080 L 104 4080 L 128 4032 M 64 4128 L 128 4128 M 64 4128 L 88 4176 M 128 4128 L 152 4176 M 88 4176 L 152 4176 M 64 4208 L 52 4208 M 64 4208 L 124 4208 M 52 4208 L 52 4224 M 64 4224 L 52 4224 M 64 4224 L 124 4224 M 124 4208 L 124 4224 M 64 4272 L 52 4272 M 64 4272 L 124 4272 M 52 4272 L 52 4304 M 124 4272 L 124 4304 M 64 4304 L 52 4304 M 64 4304 L 124 4304 M 56 4328 A 4 4 0 0 0 52 4332 L 52 4336 M 64 4328 A 16 16 0 0 0 56 4328 M 68 4332 A 4 4 0 0 0 64 4328 M 68 4332 L 68 4336 M 52 4340 A 4 4 0 0 0 56 4344 M 52 4336 L 52 4340 M 56 4344 L 64 4344 A 4 4 0 0 0 68 4340 M 68 4336 L 68 4340 M 64 4384 L 128 4384 M 64 4384 L 72 4400 L 136 4400 M 128 4384 L 136 4400 M 64 4416 L 88 4464 M 40 4464 L 64 4416 M 56 4464 L 40 4464 M 56 4464 L 88 4464 M 64 4480 L 88 4528 M 40 4528 L 64 4480 M 38 4532 L 64 4480 M 38 4532 A 4 4 0 0 0 40 4536 L 88 4536 M 88 4528 L 90 4532 M 88 4536 A 4 4 0 0 0 90 4532 M 64 4576 L 66 4572 M 70 4572 L 96 4624 M 70 4572 A 3 3 0 0 0 66 4572 M 72 4576 L 96 4624 M 40 4624 L 64 4576 M 38 4628 L 64 4576 M 38 4628 A 4 4 0 0 0 40 4632 L 96 4632 M 96 4624 L 98 4628 M 96 4632 A 4 4 0 0 0 98 4628 M 56 4672 L 80 4672 M 48 4688 L 56 4672 M 80 4672 L 88 4688 M 48 4688 L 56 4704 L 80 4704 L 88 4688 M 48 4736 L 96 4736 L 112 4768 M 32 4768 L 48 4736 M 32 4768 L 48 4800 L 96 4800 L 112 4768 M 68 4840 L 68 4896 M 68 4840 L 144 4840 M 72 4840 L 144 4840 M 148 4840 L 148 4896 M 148 4840 L 144 4840 M 68 4848 L 68 4896 M 148 4848 L 148 4896 M 348 4856 L 348 4912 M 348 4856 L 464 4856 M 352 4856 L 464 4856 M 468 4856 L 468 4912 M 468 4856 L 464 4856 M 160 4872 L 148 4872 M 160 4872 L 168 4872 M 172 4872 L 172 4928 M 172 4872 L 168 4872 M 348 4864 L 348 4912 M 468 4864 L 468 4912 M 172 4880 L 172 4928 M 316 4888 L 316 4944 M 68 4904 L 68 4896 M 68 4904 L 144 4904 M 72 4904 L 144 4904 M 148 4904 L 148 4896 M 148 4904 L 144 4904 M 204 4904 L 204 5024 M 204 4904 L 288 4904 M 208 4904 L 288 4904 M 292 4904 L 292 5024 M 292 4904 L 288 4904 M 316 4896 L 316 4944 M 204 4912 L 204 5024 M 292 4912 L 292 5024 M 348 4920 L 348 4912 M 348 4920 L 464 4920 M 352 4920 L 464 4920 M 468 4920 L 468 4912 M 468 4920 L 464 4920 M 68 4936 L 68 4992 M 68 4936 L 144 4936 M 72 4936 L 144 4936 M 148 4936 L 148 4992 M 148 4936 L 144 4936 M 172 4936 L 172 4928 M 68 4944 L 68 4992 M 148 4944 L 148 4992 M 304 4952 L 292 4952 M 304 4952 L 312 4952 M 316 4952 L 316 4944 M 316 4952 L 312 4952 M 160 4968 L 148 4968 M 304 4984 L 292 4984 M 304 4984 L 312 4984 M 316 4984 L 316 5040 M 316 4984 L 312 4984 M 68 5000 L 68 4992 M 68 5000 L 144 5000 M 72 5000 L 144 5000 M 148 5000 L 148 4992 M 148 5000 L 144 5000 M 172 5000 L 172 5056 M 316 4992 L 316 5040 M 172 5008 L 172 5056 M 348 5016 L 348 5072 M 348 5016 L 464 5016 M 352 5016 L 464 5016 M 468 5016 L 468 5072 M 468 5016 L 464 5016 M 68 5032 L 68 5088 M 68 5032 L 144 5032 M 72 5032 L 144 5032 M 148 5032 L 148 5088 M 148 5032 L 144 5032 M 204 5032 L 204 5024 M 204 5032 L 288 5032 M 208 5032 L 288 5032 M 292 5032 L 292 5024 M 292 5032 L 288 5032 M 348 5024 L 348 5072 M 468 5024 L 468 5072 M 68 5040 L 68 5088 M 148 5040 L 148 5088 M 316 5048 L 316 5040 M 160 5064 L 148 5064 M 160 5064 L 168 5064 M 172 5064 L 172 5056 M 172 5064 L 168 5064 M 348 5080 L 348 5072 M 348 5080 L 464 5080 M 352 5080 L 464 5080 M 468 5080 L 468 5072 M 468 5080 L 464 5080 M 68 5096 L 68 5088 M 68 5096 L 144 5096 M 72 5096 L 144 5096 M 148 5096 L 148 5088 M 148 5096 L 144 5096 M 160 5168 L 464 5168 M 160 5168 A 40 40 0 0 0 138 5184 M 486 5184 A 40 40 0 0 0 464 5168 M 138 5184 A 40 40 0 0 0 132 5200 M 492 5200 A 40 40 0 0 0 486 5184 M 132 5200 L 132 5232 M 492 5200 L 492 5232 M 132 5232 A 40 40 0 0 0 138 5248 M 486 5248 A 40 40 0 0 0 492 5232 M 138 5248 A 40 40 0 0 0 160 5264 L 216 5264 M 232 5264 L 464 5264 A 40 40 0 0 0 486 5248 M 224 5272 L 216 5280 M 232 5264 L 224 5272 M 200 5296 L 216 5264 M 216 5280 L 200 5296 M 48 5320 A 4 4 0 0 0 44 5324 L 44 5328 M 48 5320 L 64 5320 L 72 5328 A 16 16 0 0 0 80 5328 L 88 5320 L 128 5320 L 136 5328 A 16 16 0 0 0 144 5328 L 152 5320 L 168 5320 L 176 5328 A 16 16 0 0 0 184 5328 L 192 5320 L 224 5320 M 232 5328 L 230 5324 A 8 8 0 0 0 224 5320 M 40 5336 L 32 5344 M 48 5328 L 40 5336 M 56 5328 L 64 5344 M 104 5344 L 112 5344 M 144 5344 L 152 5344 M 200 5344 L 208 5344 M 232 5328 L 240 5344 M 24 5352 L 16 5360 M 32 5344 L 24 5352 M 68 5344 L 68 5360 M 104 5360 L 112 5360 M 200 5360 L 208 5360 M 240 5344 L 240 5360 M 16 5360 L 24 5376 M 32 5376 L 40 5376 M 48 5368 L 40 5376 M 56 5360 L 48 5368 M 68 5360 L 76 5376 M 120 5376 L 122 5372 M 128 5368 A 8 8 0 0 0 122 5372 M 128 5368 L 160 5368 M 168 5376 L 166 5372 A 8 8 0 0 0 160 5368 M 176 5368 L 200 5368 A 16 16 0 0 0 210 5360 M 232 5376 L 240 5360 M 20 5376 L 20 5392 M 32 5392 L 40 5392 M 48 5384 L 40 5392 M 48 5384 A 16 16 0 0 0 48 5376 M 76 5376 L 76 5392 M 112 5392 L 120 5376 M 160 5384 A 16 16 0 0 0 150 5392 M 160 5384 L 168 5384 M 168 5376 L 176 5392 M 176 5384 L 184 5384 M 194 5392 A 16 16 0 0 0 184 5384 M 208 5376 L 216 5392 M 236 5376 L 236 5392 M 20 5392 L 28 5408 M 116 5392 L 116 5408 M 212 5392 L 212 5408 M 28 5408 L 28 5424 M 48 5424 L 56 5424 M 76 5408 L 76 5440 M 104 5416 L 120 5416 L 128 5424 L 160 5424 M 168 5416 L 160 5424 M 176 5408 L 168 5416 M 184 5424 A 16 16 0 0 0 192 5424 L 200 5416 M 208 5416 A 16 16 0 0 0 200 5416 M 212 5408 L 212 5412 M 208 5416 A 4 4 0 0 0 212 5412 M 236 5408 L 236 5440 M 28 5424 L 36 5440 M 48 5440 L 56 5440 M 168 5432 L 176 5432 M 200 5432 L 208 5432 M 36 5440 L 36 5456 M 76 5440 L 80 5456 M 108 5440 L 108 5472 M 120 5448 L 128 5448 L 136 5456 L 144 5456 M 152 5456 L 160 5456 M 168 5456 L 180 5456 M 184 5456 L 196 5456 M 200 5456 L 216 5456 M 208 5440 L 216 5456 M 228 5456 L 236 5440 M 36 5456 L 40 5472 M 76 5456 L 76 5488 M 156 5456 L 156 5472 M 160 5472 L 172 5472 M 172 5456 L 172 5472 M 180 5456 L 180 5472 M 184 5472 L 196 5472 M 196 5456 L 196 5472 M 228 5456 L 228 5504 M 36 5472 L 36 5504 M 112 5472 L 120 5488 L 128 5488 M 180 5472 L 184 5488 M 272 5480 L 280 5480 L 288 5488 M 328 5480 A 16 16 0 0 0 320 5480 M 332 5484 A 4 4 0 0 0 328 5480 M 332 5484 L 332 5488 M 56 5496 A 16 16 0 0 0 48 5496 M 64 5504 A 16 16 0 0 0 56 5496 M 76 5488 L 84 5504 M 128 5488 L 136 5496 L 152 5496 M 160 5504 A 16 16 0 0 0 152 5496 M 168 5496 A 4 4 0 0 0 164 5500 L 164 5504 M 168 5496 L 176 5496 M 296 5496 L 304 5496 M 328 5496 L 320 5504 M 336 5488 L 328 5496 M 16 5520 L 24 5520 M 32 5512 L 24 5520 M 40 5504 L 32 5512 M 64 5512 L 56 5520 M 64 5512 A 16 16 0 0 0 64 5504 M 84 5504 L 84 5568 M 136 5512 L 144 5512 M 152 5512 L 160 5512 A 4 4 0 0 0 164 5508 M 164 5504 L 164 5508 M 212 5520 L 228 5504 M 224 5512 L 232 5512 L 240 5520 L 256 5520 M 304 5512 L 312 5512 M 8 5528 L 0 5536 M 16 5520 L 8 5528 M 24 5520 L 32 5528 L 40 5528 L 48 5536 M 56 5520 L 48 5528 M 212 5520 L 212 5568 M 224 5536 L 232 5536 L 240 5520 M 248 5536 L 232 5536 M 256 5520 L 264 5528 L 272 5528 M 288 5528 L 280 5536 M 296 5520 L 288 5528 M 8 5544 L 16 5544 L 24 5552 L 32 5552 M 96 5552 L 84 5552 M 96 5552 L 152 5552 L 160 5536 L 168 5552 L 212 5552 M 248 5536 L 256 5544 L 264 5544 M 272 5544 L 264 5552 M 280 5536 L 272 5544 M 32 5560 L 24 5568 M 40 5552 L 32 5560 M 66 5568 A 16 16 0 0 0 66 5552 M 152 5552 L 160 5568 L 168 5552 M 40 5584 A 16 16 0 0 0 48 5584 M 56 5576 L 48 5584 M 64 5568 L 56 5576 M 84 5568 L 84 5572 A 4 4 0 0 0 88 5576 L 208 5576 M 212 5568 L 212 5572 M 208 5576 A 4 4 0 0 0 212 5572 M 88 5600 L 96 5584 M 96 5600 L 104 5584 M 112 5600 L 96 5600 M 120 5600 L 108 5600 M 120 5600 L 136 5600 M 128 5584 L 136 5600 M 160 5600 L 168 5584 M 168 5600 L 176 5584 M 184 5600 L 168 5600 M 192 5600 L 180 5600 M 192 5600 L 208 5600 M 200 5584 L 208 5600 M 108 5600 L 108 5632 M 116 5600 L 116 5632 M 180 5600 L 180 5632 M 188 5600 L 188 5632 M 128 5632 L 116 5632 M 128 5632 L 136 5624 M 144 5624 A 16 16 0 0 0 136 5624 M 154 5632 A 16 16 0 0 0 144 5624 M 200 5632 L 188 5632 M 200 5632 L 208 5624 M 216 5624 A 16 16 0 0 0 208 5624 M 226 5632 A 16 16 0 0 0 216 5624 M 104 5648 L 112 5648 L 120 5640 L 136 5640 M 136 5648 L 152 5648 M 176 5648 L 184 5648 L 192 5640 L 208 5640 M 208 5648 L 224 5648 M 8 5696 L 16 5696 M 112 5696 L 120 5696 M 16 5696 L 24 5704 L 48 5704 M 80 5704 L 104 5704 L 112 5696 M 8 5736 L 32 5736 L 40 5744 L 56 5744 M 80 5744 L 104 5744 L 112 5736 L 136 5736 M 72 5792 L 88 5824 L 90 5828 A 8 8 0 0 0 96 5832 M 4 5880 L 4 5952 M 4 5880 L 184 5880 M 8 5880 L 184 5880 M 188 5880 L 188 5952 M 188 5880 L 184 5880 M 4 5888 L 4 5952 M 188 5888 L 188 5952 M 4 5960 L 4 5952 M 4 5960 L 184 5960 M 8 5960 L 184 5960 M 188 5960 L 188 5952 M 188 5960 L 184 5960 M 112 5992 A 4 4 0 0 0 108 5996 L 108 6000 M 112 5992 L 136 5992 M 140 5996 A 4 4 0 0 0 136 5992 M 140 5996 L 140 6000 M 168 5992 A 4 4 0 0 0 164 5996 L 164 6000 M 168 5992 L 192 5992 M 196 5996 A 4 4 0 0 0 192 5992 M 196 5996 L 196 6000 M 216 5992 A 4 4 0 0 0 212 5996 L 212 6000 M 216 5992 L 240 5992 M 244 5996 A 4 4 0 0 0 240 5992 M 244 5996 L 244 6000 M 272 5992 A 4 4 0 0 0 268 5996 L 268 6000 M 272 5992 L 296 5992 M 300 5996 A 4 4 0 0 0 296 5992 M 300 5996 L 300 6000 M 344 5992 A 4 4 0 0 0 340 5996 L 340 6000 M 344 5992 L 368 5992 M 372 5996 A 4 4 0 0 0 368 5992 M 372 5996 L 372 6000 M 400 5992 A 4 4 0 0 0 396 5996 L 396 6000 M 400 5992 L 424 5992 M 428 5996 A 4 4 0 0 0 424 5992 M 428 5996 L 428 6000 M 108 6004 A 4 4 0 0 0 112 6008 M 108 6000 L 108 6004 M 112 6008 L 136 6008 A 4 4 0 0 0 140 6004 M 140 6000 L 140 6004 M 164 6004 A 4 4 0 0 0 168 6008 M 164 6000 L 164 6004 M 168 6008 L 192 6008 A 4 4 0 0 0 196 6004 M 196 6000 L 196 6004 M 212 6004 A 4 4 0 0 0 216 6008 M 212 6000 L 212 6004 M 216 6008 L 240 6008 A 4 4 0 0 0 244 6004 M 244 6000 L 244 6004 M 268 6004 A 4 4 0 0 0 272 6008 M 268 6000 L 268 6004 M 272 6008 L 296 6008 A 4 4 0 0 0 300 6004 M 300 6000 L 300 6004 M 340 6004 A 4 4 0 0 0 344 6008 M 340 6000 L 340 6004 M 344 6008 L 368 6008 A 4 4 0 0 0 372 6004 M 372 6000 L 372 6004 M 396 6004 A 4 4 0 0 0 400 6008 M 396 6000 L 396 6004 M 400 6008 L 424 6008 A 4 4 0 0 0 428 6004 M 428 6000 L 428 6004 M 228 6016 L 228 6144 M 108 6060 L 108 6080 M 112 6056 A 4 4 0 0 0 108 6060 M 112 6056 L 208 6056 M 212 6060 L 212 6080 M 212 6060 A 4 4 0 0 0 208 6056 M 244 6060 L 244 6080 M 248 6056 A 4 4 0 0 0 244 6060 M 248 6056 L 336 6056 M 340 6060 L 340 6080 M 340 6060 A 4 4 0 0 0 336 6056 M 380 6060 L 380 6080 M 384 6056 A 4 4 0 0 0 380 6060 M 384 6056 L 424 6056 M 428 6060 L 428 6080 M 428 6060 A 4 4 0 0 0 424 6056 M 108 6064 L 108 6080 M 212 6064 L 212 6080 M 244 6064 L 244 6080 M 340 6064 L 340 6080 M 380 6064 L 380 6080 M 428 6064 L 428 6080 M 108 6080 L 108 6084 A 4 4 0 0 0 112 6088 L 208 6088 M 212 6080 L 212 6084 M 208 6088 A 4 4 0 0 0 212 6084 M 244 6080 L 244 6084 A 4 4 0 0 0 248 6088 L 336 6088 M 340 6080 L 340 6084 M 336 6088 A 4 4 0 0 0 340 6084 M 380 6080 L 380 6084 A 4 4 0 0 0 384 6088 L 424 6088 M 428 6080 L 428 6084 M 424 6088 A 4 4 0 0 0 428 6084 M 140 6140 L 140 6160 M 144 6136 A 4 4 0 0 0 140 6140 M 144 6136 L 176 6136 M 180 6140 L 180 6160 M 180 6140 A 4 4 0 0 0 176 6136 M 324 6140 L 324 6160 M 328 6136 A 4 4 0 0 0 324 6140 M 328 6136 L 400 6136 M 404 6140 L 404 6160 M 404 6140 A 4 4 0 0 0 400 6136 M 140 6144 L 140 6160 M 180 6144 L 180 6160 M 192 6152 L 224 6152 M 228 6144 L 228 6148 M 224 6152 A 4 4 0 0 0 228 6148 M 324 6144 L 324 6160 M 404 6144 L 404 6160 M 140 6160 L 140 6164 A 4 4 0 0 0 144 6168 L 176 6168 M 180 6160 L 180 6164 M 176 6168 A 4 4 0 0 0 180 6164 M 324 6160 L 324 6164 A 4 4 0 0 0 328 6168 L 400 6168 M 404 6160 L 404 6164 M 400 6168 A 4 4 0 0 0 404 6164 M 108 6220 L 108 6240 M 112 6216 A 4 4 0 0 0 108 6220 M 112 6216 L 424 6216 M 428 6220 L 428 6240 M 428 6220 A 4 4 0 0 0 424 6216 M 108 6224 L 108 6240 M 428 6224 L 428 6240 M 108 6240 L 108 6244 A 4 4 0 0 0 112 6248 L 424 6248 M 428 6240 L 428 6244 M 424 6248 A 4 4 0 0 0 428 6244 M 32 6288 L 88 6288 M 32 6288 A 40 40 0 0 0 10 6304 M 110 6304 A 40 40 0 0 0 88 6288 M 10 6304 A 40 40 0 0 0 4 6320 M 116 6320 A 40 40 0 0 0 110 6304 M 4 6320 L 4 6352 M 116 6320 L 116 6352 M 4 6352 A 40 40 0 0 0 10 6368 M 110 6368 A 40 40 0 0 0 116 6352 M 10 6368 A 40 40 0 0 0 32 6384 L 88 6384 A 40 40 0 0 0 110 6368 M 32 6416 L 56 6416 M 32 6416 A 40 40 0 0 0 10 6432 M 78 6432 A 40 40 0 0 0 56 6416 M 10 6432 A 40 40 0 0 0 4 6448 M 84 6448 A 40 40 0 0 0 78 6432 M 4 6448 L 4 6464 M 84 6448 L 84 6464 M 4 6464 A 40 40 0 0 0 10 6480 M 78 6480 A 40 40 0 0 0 84 6464 M 10 6480 A 40 40 0 0 0 32 6496 L 56 6496 A 40 40 0 0 0 78 6480 M 76 6520 L 76 6560 M 76 6520 L 96 6560 M 252 6520 L 252 6560 M 252 6520 L 248 6528 M 76 6528 L 76 6560 M 80 6528 L 96 6560 M 252 6528 L 252 6560 M 32 6560 L 76 6560 M 96 6560 L 232 6560 L 248 6528 M 264 6560 L 252 6560 M 264 6560 L 336 6560 M 32 6560 A 40 40 0 0 0 10 6576 M 358 6576 A 40 40 0 0 0 336 6560 M 10 6576 A 40 40 0 0 0 4 6592 M 364 6592 A 40 40 0 0 0 358 6576 M 4 6592 L 4 6656 M 364 6592 L 364 6656 M 4 6656 A 40 40 0 0 0 10 6672 M 358 6672 A 40 40 0 0 0 364 6656 M 10 6672 A 40 40 0 0 0 32 6688 L 88 6688 M 104 6688 L 240 6688 M 256 6688 L 336 6688 A 40 40 0 0 0 358 6672 M 96 6696 L 88 6704 M 104 6688 L 96 6696 M 240 6688 L 272 6720 M 256 6688 L 272 6720 M 72 6720 L 88 6688 M 88 6704 L 72 6720 M 32 6776 L 40 6776 M 44 6780 L 44 6816 M 44 6780 A 4 4 0 0 0 40 6776 M 44 6784 L 44 6816 A 32 32 0 0 0 48 6832 L 56 6840 M 48 6848 L 56 6840 M 48 6848 A 32 32 0 0 0 44 6864 L 44 6896 M 32 6904 L 40 6904 M 44 6896 L 44 6900 M 40 6904 A 4 4 0 0 0 44 6900 M 32 6952 L 40 6952 M 44 6960 A 8 8 0 0 0 40 6952 M 88 6952 A 8 8 0 0 0 84 6960 M 88 6952 L 96 6952 M 44 6960 A 32 32 0 0 0 48 6976 M 80 6976 A 32 32 0 0 0 84 6960 M 48 6976 L 56 6984 M 48 6992 L 56 6984 M 72 6984 L 80 6976 M 72 6984 L 80 6992 M 48 6992 A 32 32 0 0 0 44 7008 M 84 7008 A 32 32 0 0 0 80 6992 M 32 7016 L 40 7016 A 8 8 0 0 0 44 7008 M 84 7008 A 8 8 0 0 0 88 7016 L 96 7016 M 36 7036 L 36 7072 M 40 7032 A 4 4 0 0 0 36 7036 M 40 7032 L 48 7032 M 36 7040 L 36 7072 M 32 7088 A 32 32 0 0 0 36 7072 M 24 7096 L 32 7088 M 24 7096 L 32 7104 M 36 7120 A 32 32 0 0 0 32 7104 M 36 7120 L 36 7152 L 36 7156 A 4 4 0 0 0 40 7160 L 48 7160 M 316 7192 L 316 7232 M 316 7192 L 336 7232 M 156 7212 L 156 7264 M 160 7208 A 4 4 0 0 0 156 7212 M 160 7208 L 316 7208 M 316 7200 L 316 7232 M 320 7200 L 336 7232 M 156 7216 L 156 7264 M 316 7232 L 336 7232 M 332 7232 L 332 7264 M 156 7264 L 156 7268 A 4 4 0 0 0 160 7272 L 328 7272 M 332 7264 L 332 7268 M 328 7272 A 4 4 0 0 0 332 7268 M 24 7304 A 16 16 0 0 0 14 7312 M 32 7304 A 16 16 0 0 0 24 7304 M 42 7312 A 16 16 0 0 0 32 7304 M 42 7328 A 16 16 0 0 0 42 7312 M 24 7336 L 32 7336 A 16 16 0 0 0 42 7328 M 32 7368 A 16 16 0 0 0 22 7376 M 32 7368 L 72 7368 M 32 7400 L 72 7400 M 24 7448 A 16 16 0 0 0 14 7456 M 24 7448 L 48 7448 M 58 7456 A 16 16 0 0 0 48 7448 M 58 7472 A 16 16 0 0 0 58 7456 M 24 7480 L 48 7480 A 16 16 0 0 0 58 7472 M 32 7512 A 16 16 0 0 0 22 7520 M 40 7512 A 16 16 0 0 0 32 7512 M 50 7520 A 16 16 0 0 0 40 7512 M 50 7536 A 16 16 0 0 0 50 7520 M 32 7544 L 40 7544 A 16 16 0 0 0 50 7536" fill="none"/>
<path d=" M 36 1904 L 36 1968 M 8 1976 L 32 1976 M 32 2064 L 272 2064 M 32 2096 L 56 2096 M 56 6672 L 80 6672" fill="none" stroke-dasharray="3 3"/>
<line marker-end="url(#triangle)" x1="60" x2="84" y1="40" y2="40"/>
<line marker-end="url(#triangle)" x1="64" x2="84" y1="40" y2="40"/>
<line marker-end="url(#triangle)" x1="232" x2="228" y1="40" y2="40"/>
<line marker-end="url(#triangle)" x1="196" x2="196" y1="72" y2="112"/>
<line marker-end="url(#triangle)" x1="116" x2="116" y1="96" y2="80"/>
<line marker-end="url(#triangle)" x1="196" x2="196" y1="80" y2="112"/>
<line marker-end="url(#triangle)" x1="112" x2="108" y1="448" y2="440"/>
<line marker-end="url(#triangle)" x1="224" x2="236" y1="464" y2="440"/>
<line marker-end="url(#triangle)" x1="222" x2="236" y1="468" y2="440"/>
<line marker-end="url(#triangle)" x1="112" x2="108" y1="504" y2="504"/>
<line marker-end="url(#triangle)" x1="184" x2="220" y1="504" y2="504"/>
<line marker-end="url(#triangle)" x1="224" x2="236" y1="544" y2="568"/>
<line marker-end="url(#triangle)" x1="88" x2="84" y1="560" y2="568"/>
<line marker-end="url(#triangle)" x1="124" x2="124" y1="640" y2="672"/>
<line marker-end="url(#triangle)" x1="180" x2="180" y1="640" y2="672"/>
<line marker-end="url(#triangle)" x1="284" x2="284" y1="640" y2="672"/>
<line marker-end="url(#triangle)" x1="356" x2="356" y1="640" y2="752"/>
<line marker-end="url(#triangle)" x1="412" x2="412" y1="640" y2="672"/>
<line marker-end="url(#triangle)" x1="164" x2="164" y1="720" y2="752"/>
<line marker-end="url(#triangle)" x1="284" x2="284" y1="720" y2="832"/>
<line marker-end="url(#triangle)" x1="192" x2="188" y1="776" y2="776"/>
<line marker-end="url(#triangle)" x1="164" x2="164" y1="800" y2="832"/>
<line marker-end="url(#triangle)" x1="364" x2="364" y1="800" y2="832"/>
<line marker-end="url(#triangle)" x1="540" x2="540" y1="988" y2="1072"/>
<line marker-end="url(#triangle)" x1="108" x2="108" y1="992" y2="1072"/>
<line marker-end="url(#triangle)" x1="324" x2="324" y1="992" y2="1072"/>
<line marker-end="url(#triangle)" x1="540" x2="540" y1="992" y2="1072"/>
<line marker-end="url(#triangle)" x1="208" x2="284" y1="1144" y2="1144"/>
<line marker-end="url(#triangle)" x1="216" x2="284" y1="1144" y2="1144"/>
<line marker-end="url(#triangle)" x1="408" x2="404" y1="1192" y2="1192"/>
<line marker-end="url(#triangle)" x1="328" x2="348" y1="1320" y2="1320"/>
<line marker-end="url(#triangle)" x1="310" x2="348" y1="1352" y2="1352"/>
<line marker-end="url(#triangle)" x1="312" x2="348" y1="1352" y2="1352"/>
<line marker-end="url(#triangle)" x1="390" x2="420" y1="1384" y2="1384"/>
<line marker-end="url(#triangle)" x1="392" x2="420" y1="1384" y2="1384"/>
<line marker-end="url(#triangle)" x1="408" x2="428" y1="1416" y2="1416"/>
<line marker-end="url(#triangle)" x1="262" x2="356" y1="1448" y2="1448"/>
<line marker-end="url(#triangle)" x1="264" x2="356" y1="1448" y2="1448"/>
<line marker-end="url(#triangle)" x1="168" x2="164" y1="1664" y2="1672"/>
<line marker-end="url(#triangle)" x1="36" x2="36" y1="1792" y2="1776"/>
<line marker-end="url(#triangle)" x1="36" x2="276" y1="1864" y2="1864"/>
<line marker-end="url(#triangle)" x1="40" x2="276" y1="1864" y2="1864"/>
<line fill="none" marker-end="url(#triangle)" stroke-dasharray="3 3" x1="36" x2="36" y1="1904" y2="1888"/>
<line fill="none" marker-end="url(#triangle)" stroke-dasharray="3 3" x1="8" x2="4" y1="1976" y2="1976"/>
<line fill="none" marker-end="url(#triangle)" stroke-dasharray="3 3" x1="36" x2="36" y1="1968" y2="2032"/>
<line fill="none" marker-end="url(#triangle)" stroke-dasharray="3 3" x1="32" x2="284" y1="1976" y2="1976"/>
<line fill="none" marker-end="url(#triangle)" stroke-dasharray="3 3" x1="40" x2="284" y1="1976" y2="1976"/>
<line fill="none" marker-end="url(#triangle)" stroke-dasharray="3 3" x1="36" x2="36" y1="1984" y2="2032"/>
<line marker-end="url(#triangle)" x1="56" x2="52" y1="2224" y2="2216"/>
<line marker-end="url(#triangle)" x1="68" x2="68" y1="2224" y2="2208"/>
<line marker-end="url(#triangle)" x1="72" x2="84" y1="2240" y2="2216"/>
<line marker-end="url(#triangle)" x1="68" x2="68" y1="2240" y2="2288"/>
<line marker-end="url(#triangle)" x1="64" x2="84" y1="2240" y2="2280"/>
<line marker-end="url(#triangle)" x1="64" x2="84" y1="2256" y2="2216"/>
<line marker-end="url(#triangle)" x1="68" x2="68" y1="2256" y2="2288"/>
<line marker-end="url(#triangle)" x1="72" x2="84" y1="2256" y2="2280"/>
<line marker-end="url(#triangle)" x1="56" x2="52" y1="2272" y2="2280"/>
<line marker-end="url(#triangle)" x1="56" x2="52" y1="2320" y2="2312"/>
<line marker-end="url(#triangle)" x1="68" x2="68" y1="2320" y2="2304"/>
<line marker-end="url(#triangle)" x1="72" x2="84" y1="2336" y2="2312"/>
<line marker-end="url(#triangle)" x1="56" x2="52" y1="2344" y2="2344"/>
<line marker-end="url(#triangle)" x1="68" x2="68" y1="2336" y2="2384"/>
<line marker-end="url(#triangle)" x1="64" x2="84" y1="2344" y2="2344"/>
<line marker-end="url(#triangle)" x1="64" x2="84" y1="2336" y2="2376"/>
<line marker-end="url(#triangle)" x1="64" x2="84" y1="2352" y2="2312"/>
<line marker-end="url(#triangle)" x1="72" x2="84" y1="2344" y2="2344"/>
<line marker-end="url(#triangle)" x1="68" x2="68" y1="2352" y2="2384"/>
<line marker-end="url(#triangle)" x1="72" x2="84" y1="2352" y2="2376"/>
<line marker-end="url(#triangle)" x1="56" x2="52" y1="2368" y2="2376"/>
<line marker-end="url(#triangle)" x1="316" x2="340" y1="4888" y2="4888"/>
<line marker-end="url(#triangle)" x1="320" x2="340" y1="4888" y2="4888"/>
<line marker-end="url(#triangle)" x1="172" x2="196" y1="4936" y2="4936"/>
<line marker-end="url(#triangle)" x1="176" x2="196" y1="4936" y2="4936"/>
<line marker-end="url(#triangle)" x1="160" x2="196" y1="4968" y2="4968"/>
<line marker-end="url(#triangle)" x1="172" x2="196" y1="5000" y2="5000"/>
<line marker-end="url(#triangle)" x1="176" x2="196" y1="5000" y2="5000"/>
<line marker-end="url(#triangle)" x1="316" x2="340" y1="5048" y2="5048"/>
<line marker-end="url(#triangle)" x1="320" x2="340" y1="5048" y2="5048"/>
<line marker-end="url(#triangle)" x1="64" x2="84" y1="5784" y2="5784"/>
<line marker-end="url(#triangle)" x1="96" x2="108" y1="5832" y2="5832"/>
<line marker-end="url(#triangle)" x1="124" x2="124" y1="6016" y2="6048"/>
<line marker-end="url(#triangle)" x1="180" x2="180" y1="6016" y2="6048"/>
<line marker-end="url(#triangle)" x1="284" x2="284" y1="6016" y2="6048"/>
<line marker-end="url(#triangle)" x1="356" x2="356" y1="6016" y2="6128"/>
<line marker-end="url(#triangle)" x1="412" x2="412" y1="6016" y2="6048"/>
<line marker-end="url(#triangle)" x1="164" x2="164" y1="6096" y2="6128"/>
<line marker-end="url(#triangle)" x1="284" x2="284" y1="6096" y2="6208"/>
<line marker-end="url(#triangle)" x1="192" x2="188" y1="6152" y2="6152"/>
<line marker-end="url(#triangle)" x1="164" x2="164" y1="6176" y2="6208"/>
<line marker-end="url(#triangle)" x1="364" x2="364" y1="6176" y2="6208"/>
<line marker-end="url(#triangle)" x1="40" x2="52" y1="6568" y2="6568"/>
<line marker-end="url(#triangle)" x1="32" x2="44" y1="6584" y2="6584"/>
<line marker-end="url(#triangle)" x1="24" x2="36" y1="6600" y2="6600"/>
<line marker-end="url(#triangle)" x1="16" x2="28" y1="6616" y2="6616"/>
<line marker-end="url(#triangle)" x1="16" x2="28" y1="6632" y2="6632"/>
<line marker-end="url(#triangle)" x1="32" x2="44" y1="6664" y2="6664"/>
<text x="18" y="44">
Foo
</text>
<text x="106" y="44">
Bar
</text>
<text x="186" y="44">
Baz
</text>
<text x="266" y="44">
Moo
</text>
<text x="18" y="140">
Hello here and there and everywhere
</text>
<text x="34" y="236">
a
</text>
<text x="50" y="236">
==
</text>
<text x="74" y="236">
b
</text>
<text x="50" y="252">
&amp;
</text>
<text x="58" y="252">
&amp;
</text>
<text x="226" y="252">
process
</text>
<text x="34" y="268">
&apos;
</text>
<text x="42" y="268">
string&apos;
</text>
<text x="106" y="268">
ne
</text>
<text x="130" y="268">
&apos;
</text>
<text x="138" y="268">
&apos;
</text>
<text x="362" y="268">
process
</text>
<text x="66" y="380">
another process
</text>
<text x="18" y="444">
User code
</text>
<text x="250" y="444">
OS code
</text>
<text x="18" y="508">
User code
</text>
<text x="146" y="508">
Mode
</text>
<text x="234" y="508">
OS code
</text>
<text x="58" y="588">
User code
</text>
<text x="226" y="588">
OS code
</text>
<text x="34" y="636">
OS API
</text>
<text x="122" y="700">
Filesystem
</text>
<text x="258" y="700">
Scheduler
</text>
<text x="394" y="700">
MMU
</text>
<text x="154" y="780">
IO
</text>
<text x="338" y="780">
Network
</text>
<text x="258" y="860">
HAL
</text>
<text x="90" y="956">
device
</text>
<text x="90" y="972">
loads
</text>
<text x="34" y="988">
ooo
</text>
<text x="34" y="1004">
ooo
</text>
<text x="34" y="1020">
ooo
</text>
<text x="42" y="1100">
Loadable module C
</text>
<text x="258" y="1100">
Loadable module A
</text>
<text x="474" y="1100">
Loadable module B
</text>
<text x="490" y="1116">
(instrumented)
</text>
<text x="306" y="1148">
A.o
</text>
<text x="138" y="1164">
calls
</text>
<text x="258" y="1196">
A.instrumented.o
</text>
<text x="474" y="1212">
calls
</text>
<text x="106" y="1276">
x--x-
</text>
<text x="162" y="1276">
-x
</text>
<text x="362" y="1324">
Base::Class::Derived_A
</text>
<text x="362" y="1356">
Base::Class::Derived_B
</text>
<text x="50" y="1372">
Something
</text>
<text x="434" y="1388">
Base::Class::Derived
</text>
<text x="50" y="1404">
Something::else
</text>
<text x="442" y="1420">
Base::Class::Derived
</text>
<text x="370" y="1452">
Base::Class::Derived_C
</text>
<text x="194" y="1484">
Base::Class
</text>
<text x="306" y="1548">
The::Latest
</text>
<text x="10" y="1580">
With::Some::fantasy
</text>
<text x="370" y="1580">
The::Latest::Greatest
</text>
<text x="74" y="1612">
More::Stuff
</text>
<text x="306" y="1612">
I::Am::Running::Out::Of::Ideas
</text>
<text x="74" y="1644">
More::Stuff
</text>
<text x="330" y="1660">
Last::One
</text>
<text x="58" y="1676">
More::Stuff
</text>
<text x="18" y="1772">
Safety
</text>
<text x="226" y="1804">
*Rust
</text>
<text x="130" y="1820">
*Java
</text>
<text x="50" y="1836">
*Python
</text>
<text x="234" y="1852">
*C++
</text>
<text x="290" y="1868">
Control
</text>
<text x="34" y="2108">
..
</text>
<text x="18" y="2140">
this is a sentence
</text>
<text x="18" y="2156">
separated
</text>
<text x="106" y="2156">
words
</text>
<text x="162" y="2156">
of nill
</text>
<text x="18" y="2188">
TODO:
</text>
<text x="58" y="2284">
 
</text>
<text x="74" y="2284">
 
</text>
<text x="58" y="2380">
 
</text>
<text x="74" y="2380">
 
</text>
<text x="98" y="4876">
NFS
</text>
<text x="378" y="4892">
CacheFS
</text>
<text x="370" y="4908">
/dev/hda5/
</text>
<text x="98" y="4972">
AFS
</text>
<text x="218" y="4972">
FS-Cache
</text>
<text x="370" y="5052">
CacheFiles
</text>
<text x="90" y="5068">
ISOFS
</text>
<text x="370" y="5068">
/var/cache
</text>
<text x="162" y="5212">
Hey!
</text>
<text x="202" y="5212">
That looks like Squidward!
</text>
<text x="82" y="5340">
(`.
</text>
<text x="138" y="5340">
(
</text>
<text x="154" y="5340">
)
</text>
<text x="90" y="5356">
&apos;
</text>
<text x="98" y="5356">
.
</text>
<text x="114" y="5356">
)
</text>
<text x="194" y="5356">
(
</text>
<text x="210" y="5356">
)
</text>
<text x="58" y="5372">
)
</text>
<text x="170" y="5372">
.
</text>
<text x="26" y="5388">
(
</text>
<text x="66" y="5404">
0|
</text>
<text x="146" y="5404">
(
</text>
<text x="162" y="5404">
O|
</text>
<text x="186" y="5404">
O)
</text>
<text x="226" y="5404">
o|
</text>
<text x="98" y="5420">
.
</text>
<text x="178" y="5420">
.
</text>
<text x="42" y="5436">
(
</text>
<text x="58" y="5436">
)
</text>
<text x="90" y="5436">
o
</text>
<text x="178" y="5436">
`
</text>
<text x="194" y="5436">
.
</text>
<text x="210" y="5436">
`
</text>
<text x="114" y="5452">
`
</text>
<text x="130" y="5468">
`.
</text>
<text x="50" y="5484">
o
</text>
<text x="314" y="5484">
.
</text>
<text x="42" y="5500">
.
</text>
<text x="178" y="5500">
&apos;
</text>
<text x="210" y="5500">
O
</text>
<text x="274" y="5500">
`.`
</text>
<text x="306" y="5500">
&apos;
</text>
<text x="130" y="5516">
`
</text>
<text x="146" y="5516">
.
</text>
<text x="282" y="5516">
&apos;
</text>
<text x="298" y="5516">
.
</text>
<text x="314" y="5516">
&apos;
</text>
<text x="66" y="5532">
&apos;
</text>
<text x="74" y="5532">
.
</text>
<text x="90" y="5532">
=&apos;
</text>
<text x="106" y="5532">
=.=&apos;
</text>
<text x="138" y="5532">
=.=&apos;
</text>
<text x="170" y="5532">
=.=&apos;
</text>
<text x="202" y="5532">
=
</text>
<text x="218" y="5532">
.
</text>
<text x="274" y="5532">
&apos;
</text>
<text x="2" y="5548">
`
</text>
<text x="50" y="5548">
`.
</text>
<text x="74" y="5564">
.
</text>
<text x="98" y="5564">
&apos;
</text>
<text x="106" y="5564">
=&apos;
</text>
<text x="130" y="5564">
&apos;
</text>
<text x="138" y="5564">
=&apos;
</text>
<text x="178" y="5564">
&apos;
</text>
<text x="186" y="5564">
=&apos;
</text>
<text x="26" y="5580">
`.
</text>
<text x="98" y="5644">
(
</text>
<text x="154" y="5644">
)
</text>
<text x="170" y="5644">
(
</text>
<text x="226" y="5644">
)
</text>
<text x="2" y="5788">
test测
</text>
<text x="50" y="5788">
试
</text>
<text x="98" y="5788">
测
</text>
<text x="114" y="5788">
试
</text>
<text x="130" y="5788">
test
</text>
<text x="122" y="5836">
测
</text>
<text x="138" y="5836">
试
</text>
<text x="154" y="5836">
test
</text>
<text x="66" y="5916">
中
</text>
<text x="82" y="5916">
文
</text>
<text x="98" y="5916">
处
</text>
<text x="114" y="5916">
理
</text>
<text x="66" y="5932">
12345678
</text>
<text x="34" y="6012">
OS API
</text>
<text x="130" y="6076">
文
</text>
<text x="146" y="6076">
件
</text>
<text x="162" y="6076">
系
</text>
<text x="178" y="6076">
统
</text>
<text x="274" y="6076">
调
</text>
<text x="290" y="6076">
度
</text>
<text x="306" y="6076">
器
</text>
<text x="394" y="6076">
MMU
</text>
<text x="154" y="6156">
IO
</text>
<text x="354" y="6156">
网
</text>
<text x="370" y="6156">
络
</text>
<text x="226" y="6236">
硬
</text>
<text x="242" y="6236">
件
</text>
<text x="258" y="6236">
抽
</text>
<text x="274" y="6236">
象
</text>
<text x="290" y="6236">
层
</text>
<text x="66" y="6572">
create Ascii art
</text>
<text x="58" y="6588">
draw sketches for e-mails
</text>
<text x="50" y="6604">
comment source code of programs
</text>
<text x="42" y="6620">
diagrams for visually handicaped people
</text>
<text x="42" y="6636">
more dialogs
</text>
<text x="2" y="7324">
٩(●
</text>
<text x="34" y="7324">
•
</text>
<text x="50" y="7324">
۶
</text>
<text x="18" y="7340">
`
</text>
<text x="74" y="7372">
.
</text>
<text x="2" y="7388">
o╮(
</text>
<text x="34" y="7388">
ʘ
</text>
<text x="58" y="7388">
ʘ
</text>
<text x="74" y="7388">
)╭o
</text>
<text x="26" y="7404">
`
</text>
<text x="74" y="7404">
&apos;
</text>
<text x="2" y="7468">
७(,⊙–⊙,
</text>
<text x="66" y="7468">
७
</text>
<text x="18" y="7484">
`
</text>
<text x="2" y="7532">
o╮(•ʖ•
</text>
<text x="58" y="7532">
╭o
</text>
<text x="26" y="7548">
`
</text>
</svg>