<svg font-family="Electrolize,Titillium Web, Trebuchet MS, Arial" font-size="14" height="7008" width="624" xmlns="http://www.w3.org/2000/svg">
<defs>
<marker id="triangle" markerHeight="10" markerUnits="strokeWidth" markerWidth="10" orient="auto" refX="0" refY="5" viewBox="0 0 40 40">
<path d="M 0 0 L 10 5 L 0 10 z"/>
</marker>
</defs>
<style>

     <![CDATA[ 
    line, path {
      stroke: black;
      stroke-width: 2;
      stroke-opacity: 1;
      fill-opacity: 1;
      stroke-linecap: round;
      stroke-linejoin: miter;
    }
     ]]> 
    
</style>
<path d=" M 4 8 L 4 64 M 4 8 L 56 8 M 8 8 L 56 8 M 60 8 L 60 32 M 60 8 L 56 8 M 92 8 L 92 64 M 92 8 L 136 8 M 96 8 L 136 8 M 140 8 L 140 32 M 140 8 L 136 8 M 172 8 L 172 32 M 172 8 L 216 8 M 176 8 L 216 8 M 220 8 L 220 64 M 220 8 L 216 8 M 252 8 L 252 32 M 252 8 L 296 8 M 256 8 L 296 8 M 300 8 L 300 64 M 300 8 L 296 8 M 4 16 L 4 64 M 60 16 L 60 32 M 92 16 L 92 64 M 140 16 L 140 32 M 172 16 L 172 32 M 220 16 L 220 64 M 252 16 L 252 32 M 300 16 L 300 64 M 60 32 L 60 64 M 140 32 L 140 64 M 140 40 L 168 40 M 144 40 L 168 40 M 172 32 L 172 64 M 172 40 L 168 40 M 232 40 L 248 40 M 252 32 L 252 64 M 252 40 L 248 40 M 60 48 L 60 64 M 140 48 L 140 64 M 172 48 L 172 64 M 252 48 L 252 64 M 4 72 L 4 64 M 4 72 L 56 72 M 8 72 L 56 72 M 60 72 L 60 64 M 60 72 L 56 72 M 92 72 L 92 64 M 92 72 L 136 72 M 96 72 L 136 72 M 140 72 L 140 64 M 140 72 L 136 72 M 172 72 L 172 64 M 172 72 L 192 72 M 176 72 L 192 72 L 216 72 M 200 72 L 216 72 M 220 72 L 220 64 M 220 72 L 216 72 M 252 72 L 252 64 M 252 72 L 296 72 M 256 72 L 296 72 M 300 72 L 300 64 M 300 72 L 296 72 M 116 96 L 116 112 M 4 124 L 4 144 M 8 120 A 4 4 0 0 0 4 124 M 8 120 L 112 120 M 116 120 L 116 112 M 112 120 L 304 120 M 120 120 L 304 120 M 308 124 L 308 144 M 308 124 A 4 4 0 0 0 304 120 M 4 128 L 4 144 M 308 128 L 308 144 M 4 144 L 4 148 A 4 4 0 0 0 8 152 L 304 152 M 308 144 L 308 148 M 304 152 A 4 4 0 0 0 308 148 M 192 208 L 288 208 M 24 224 L 26 220 M 32 216 A 8 8 0 0 0 26 220 M 32 216 L 144 216 M 152 224 L 150 220 A 8 8 0 0 0 144 216 M 192 208 L 208 240 M 288 208 L 304 240 M 16 240 L 24 224 M 152 224 L 160 240 M 344 240 L 424 240 M 16 240 L 14 244 M 16 256 L 14 252 M 14 244 A 8 8 0 0 0 14 252 M 160 240 L 162 244 M 160 256 L 162 252 A 8 8 0 0 0 162 244 M 208 240 L 210 244 M 208 256 L 210 252 A 8 8 0 0 0 210 244 M 304 240 L 306 244 M 304 256 L 306 252 A 8 8 0 0 0 306 244 M 344 240 L 352 256 M 424 240 L 432 256 M 16 256 L 24 272 M 152 272 L 160 256 M 24 272 L 26 276 A 8 8 0 0 0 32 280 L 144 280 M 150 276 L 160 256 M 144 280 A 8 8 0 0 0 150 276 M 192 288 L 208 256 M 208 288 L 192 288 M 208 288 L 288 288 L 304 256 M 336 288 L 352 256 M 352 288 L 336 288 M 352 288 L 416 288 L 432 256 M 32 336 L 176 336 M 32 336 L 48 368 M 40 352 L 184 352 M 176 336 L 192 368 M 48 368 L 50 372 M 48 384 L 50 380 A 8 8 0 0 0 50 372 M 192 368 L 194 372 M 192 384 L 194 380 A 8 8 0 0 0 194 372 M 56 400 L 40 400 M 56 400 L 184 400 M 32 416 L 48 384 M 48 416 L 32 416 M 48 416 L 176 416 L 192 384 M 112 448 L 136 496 M 192 480 L 194 476 M 200 472 A 8 8 0 0 0 194 476 M 200 472 L 216 472 A 8 8 0 0 0 222 468 M 184 496 L 192 480 M 112 504 L 136 504 M 128 528 L 136 512 M 184 512 L 200 544 M 96 544 L 98 540 M 104 536 A 8 8 0 0 0 98 540 M 104 536 L 120 536 M 126 532 L 136 512 M 120 536 A 8 8 0 0 0 126 532 M 200 544 L 224 544 M 88 560 L 96 544 M 112 616 A 4 4 0 0 0 108 620 L 108 624 M 112 616 L 136 616 M 140 620 A 4 4 0 0 0 136 616 M 140 620 L 140 624 M 168 616 A 4 4 0 0 0 164 620 L 164 624 M 168 616 L 192 616 M 196 620 A 4 4 0 0 0 192 616 M 196 620 L 196 624 M 216 616 A 4 4 0 0 0 212 620 L 212 624 M 216 616 L 240 616 M 244 620 A 4 4 0 0 0 240 616 M 244 620 L 244 624 M 272 616 A 4 4 0 0 0 268 620 L 268 624 M 272 616 L 296 616 M 300 620 A 4 4 0 0 0 296 616 M 300 620 L 300 624 M 344 616 A 4 4 0 0 0 340 620 L 340 624 M 344 616 L 368 616 M 372 620 A 4 4 0 0 0 368 616 M 372 620 L 372 624 M 400 616 A 4 4 0 0 0 396 620 L 396 624 M 400 616 L 424 616 M 428 620 A 4 4 0 0 0 424 616 M 428 620 L 428 624 M 108 628 A 4 4 0 0 0 112 632 M 108 624 L 108 628 M 112 632 L 136 632 A 4 4 0 0 0 140 628 M 140 624 L 140 628 M 164 628 A 4 4 0 0 0 168 632 M 164 624 L 164 628 M 168 632 L 192 632 A 4 4 0 0 0 196 628 M 196 624 L 196 628 M 212 628 A 4 4 0 0 0 216 632 M 212 624 L 212 628 M 216 632 L 240 632 A 4 4 0 0 0 244 628 M 244 624 L 244 628 M 268 628 A 4 4 0 0 0 272 632 M 268 624 L 268 628 M 272 632 L 296 632 A 4 4 0 0 0 300 628 M 300 624 L 300 628 M 340 628 A 4 4 0 0 0 344 632 M 340 624 L 340 628 M 344 632 L 368 632 A 4 4 0 0 0 372 628 M 372 624 L 372 628 M 396 628 A 4 4 0 0 0 400 632 M 396 624 L 396 628 M 400 632 L 424 632 A 4 4 0 0 0 428 628 M 428 624 L 428 628 M 228 640 L 228 768 M 108 684 L 108 704 M 112 680 A 4 4 0 0 0 108 684 M 112 680 L 208 680 M 212 684 L 212 704 M 212 684 A 4 4 0 0 0 208 680 M 244 684 L 244 704 M 248 680 A 4 4 0 0 0 244 684 M 248 680 L 336 680 M 340 684 L 340 704 M 340 684 A 4 4 0 0 0 336 680 M 380 684 L 380 704 M 384 680 A 4 4 0 0 0 380 684 M 384 680 L 424 680 M 428 684 L 428 704 M 428 684 A 4 4 0 0 0 424 680 M 108 688 L 108 704 M 212 688 L 212 704 M 244 688 L 244 704 M 340 688 L 340 704 M 380 688 L 380 704 M 428 688 L 428 704 M 108 704 L 108 708 A 4 4 0 0 0 112 712 L 208 712 M 212 704 L 212 708 M 208 712 A 4 4 0 0 0 212 708 M 244 704 L 244 708 A 4 4 0 0 0 248 712 L 336 712 M 340 704 L 340 708 M 336 712 A 4 4 0 0 0 340 708 M 380 704 L 380 708 A 4 4 0 0 0 384 712 L 424 712 M 428 704 L 428 708 M 424 712 A 4 4 0 0 0 428 708 M 140 764 L 140 784 M 144 760 A 4 4 0 0 0 140 764 M 144 760 L 176 760 M 180 764 L 180 784 M 180 764 A 4 4 0 0 0 176 760 M 324 764 L 324 784 M 328 760 A 4 4 0 0 0 324 764 M 328 760 L 400 760 M 404 764 L 404 784 M 404 764 A 4 4 0 0 0 400 760 M 140 768 L 140 784 M 180 768 L 180 784 M 192 776 L 224 776 M 228 768 L 228 772 M 224 776 A 4 4 0 0 0 228 772 M 324 768 L 324 784 M 404 768 L 404 784 M 140 784 L 140 788 A 4 4 0 0 0 144 792 L 176 792 M 180 784 L 180 788 M 176 792 A 4 4 0 0 0 180 788 M 324 784 L 324 788 A 4 4 0 0 0 328 792 L 400 792 M 404 784 L 404 788 M 400 792 A 4 4 0 0 0 404 788 M 108 844 L 108 864 M 112 840 A 4 4 0 0 0 108 844 M 112 840 L 424 840 M 428 844 L 428 864 M 428 844 A 4 4 0 0 0 424 840 M 108 848 L 108 864 M 428 848 L 428 864 M 108 864 L 108 868 A 4 4 0 0 0 112 872 L 424 872 M 428 864 L 428 868 M 424 872 A 4 4 0 0 0 428 868 M 32 928 L 20 928 M 32 928 L 56 928 M 20 928 L 20 1024 M 40 944 L 28 944 M 40 944 L 60 944 M 68 928 L 68 1024 M 28 944 L 28 976 M 60 944 L 60 976 M 40 976 L 28 976 M 40 976 L 60 976 M 72 984 L 536 984 M 540 988 A 4 4 0 0 0 536 984 M 20 1024 L 20 1028 A 4 4 0 0 0 24 1032 L 64 1032 M 68 1024 L 68 1028 M 64 1032 A 4 4 0 0 0 68 1028 M 28 1084 L 28 1104 M 32 1080 A 4 4 0 0 0 28 1084 M 32 1080 L 184 1080 M 188 1084 L 188 1104 M 188 1084 A 4 4 0 0 0 184 1080 M 212 1084 L 212 1136 M 216 1080 A 4 4 0 0 0 212 1084 M 216 1080 L 432 1080 M 436 1084 L 436 1184 M 436 1084 A 4 4 0 0 0 432 1080 M 460 1084 L 460 1120 M 464 1080 A 4 4 0 0 0 460 1084 M 464 1080 L 616 1080 M 620 1084 L 620 1120 M 620 1084 A 4 4 0 0 0 616 1080 M 28 1088 L 28 1104 M 188 1088 L 188 1104 M 212 1088 L 212 1136 M 436 1088 L 436 1184 M 460 1088 L 460 1120 M 620 1088 L 620 1120 M 28 1104 L 28 1108 A 4 4 0 0 0 32 1112 L 184 1112 M 188 1104 L 188 1108 M 184 1112 A 4 4 0 0 0 188 1108 M 216 1112 L 432 1112 M 108 1120 L 108 1136 M 292 1132 L 292 1152 M 296 1128 A 4 4 0 0 0 292 1132 M 296 1128 L 336 1128 M 340 1132 L 340 1152 M 340 1132 A 4 4 0 0 0 336 1128 M 460 1120 L 460 1124 A 4 4 0 0 0 464 1128 L 616 1128 M 620 1120 L 620 1124 M 616 1128 A 4 4 0 0 0 620 1124 M 108 1136 L 108 1140 A 4 4 0 0 0 112 1144 L 208 1144 M 212 1136 L 212 1216 M 292 1136 L 292 1152 M 340 1136 L 340 1152 M 548 1136 L 548 1184 M 212 1152 L 212 1216 M 292 1152 L 292 1156 A 4 4 0 0 0 296 1160 L 336 1160 M 340 1152 L 340 1156 M 336 1160 A 4 4 0 0 0 340 1156 M 248 1184 L 250 1180 M 256 1176 A 8 8 0 0 0 250 1180 M 256 1176 L 400 1176 M 400 1184 L 402 1180 A 4 4 0 0 0 400 1176 M 240 1200 L 248 1184 M 392 1200 L 400 1184 M 408 1192 L 432 1192 M 436 1184 L 436 1216 M 432 1192 L 544 1192 M 440 1192 L 544 1192 M 548 1184 L 548 1188 M 544 1192 A 4 4 0 0 0 548 1188 M 238 1204 L 248 1184 M 238 1204 A 4 4 0 0 0 240 1208 L 384 1208 M 390 1204 L 400 1184 M 384 1208 A 8 8 0 0 0 390 1204 M 436 1200 L 436 1216 M 212 1216 L 212 1220 A 4 4 0 0 0 216 1224 L 432 1224 M 436 1216 L 436 1220 M 432 1224 A 4 4 0 0 0 436 1220 M 72 1264 L 70 1260 M 72 1256 A 4 4 0 0 0 70 1260 M 72 1256 L 184 1256 M 192 1264 L 190 1260 A 8 8 0 0 0 184 1256 M 72 1264 L 80 1280 M 144 1272 L 160 1272 M 192 1264 L 200 1280 M 80 1280 L 82 1284 A 8 8 0 0 0 88 1288 L 200 1288 M 200 1280 L 202 1284 M 200 1288 A 4 4 0 0 0 202 1284 M 320 1328 L 322 1324 M 328 1320 A 8 8 0 0 0 322 1324 M 312 1344 L 320 1328 M 304 1360 L 320 1328 M 310 1352 A 8 8 0 0 0 306 1356 M 128 1368 L 184 1368 M 192 1376 L 190 1372 A 8 8 0 0 0 184 1368 M 376 1360 L 384 1376 M 192 1376 L 240 1472 M 384 1376 L 400 1408 M 386 1380 A 8 8 0 0 0 390 1384 M 392 1392 L 400 1408 M 96 1408 L 128 1472 M 400 1408 L 402 1412 A 8 8 0 0 0 408 1416 M 264 1440 L 304 1360 M 256 1456 L 304 1360 M 262 1448 A 8 8 0 0 0 258 1452 M 248 1472 L 256 1456 M 128 1472 L 130 1476 A 8 8 0 0 0 136 1480 L 184 1480 M 184 1504 L 192 1488 M 208 1488 L 288 1648 M 224 1488 L 280 1600 M 240 1488 L 264 1536 M 184 1504 L 182 1508 M 180 1520 L 180 1516 M 182 1508 A 16 16 0 0 0 180 1516 M 180 1520 L 180 1536 L 180 1568 M 176 1552 L 178 1548 A 16 16 0 0 0 180 1540 M 264 1536 L 266 1540 A 8 8 0 0 0 272 1544 L 296 1544 M 168 1568 L 176 1552 M 180 1552 L 180 1568 M 312 1552 L 320 1568 M 180 1568 L 180 1600 M 176 1584 L 178 1580 A 16 16 0 0 0 180 1572 M 320 1568 L 322 1572 A 8 8 0 0 0 328 1576 L 360 1576 M 168 1600 L 176 1584 M 180 1584 L 180 1600 L 180 1632 M 176 1616 L 178 1612 A 16 16 0 0 0 180 1604 M 280 1600 L 282 1604 A 8 8 0 0 0 288 1608 L 296 1608 M 168 1632 L 176 1616 M 180 1616 L 180 1632 L 180 1636 M 176 1648 L 178 1644 A 16 16 0 0 0 180 1636 M 168 1664 L 176 1648 M 288 1648 L 290 1652 A 8 8 0 0 0 296 1656 L 320 1656 M 184 1696 L 216 1760 M 136 1760 L 168 1696 M 36 1792 L 36 1856 M 36 1864 L 36 1856 M 56 2224 L 64 2240 M 68 2224 L 68 2240 M 56 2272 L 64 2256 M 56 2320 L 64 2336 M 68 2320 L 68 2336 M 56 2344 L 64 2344 M 56 2368 L 64 2352 M 56 2400 L 64 2416 M 68 2400 L 68 2416 M 72 2416 L 80 2400 M 56 2424 L 64 2424 M 68 2416 L 68 2448 M 64 2424 L 80 2424 M 64 2416 L 80 2448 M 64 2432 L 80 2400 M 72 2424 L 80 2424 M 56 2448 L 64 2432 M 68 2432 L 68 2448 M 72 2432 L 80 2448 M 68 2464 L 68 2480 M 96 2464 L 112 2496 M 56 2488 L 64 2488 M 68 2480 L 68 2512 M 64 2488 L 80 2488 M 72 2488 L 80 2488 M 96 2496 L 112 2464 M 68 2496 L 68 2512 M 68 2528 L 68 2544 M 124 2528 L 124 2544 M 164 2528 L 164 2544 M 220 2528 L 220 2544 M 68 2552 L 68 2544 M 68 2552 L 88 2552 M 72 2552 L 88 2552 M 104 2552 L 120 2552 M 124 2552 L 124 2544 M 124 2552 L 120 2552 M 164 2544 L 164 2576 M 164 2552 L 184 2552 M 168 2552 L 184 2552 M 200 2552 L 216 2552 M 220 2544 L 220 2576 M 220 2552 L 216 2552 M 252 2552 L 252 2576 M 252 2552 L 272 2552 M 256 2552 L 272 2552 M 288 2552 L 304 2552 M 308 2552 L 308 2576 M 308 2552 L 304 2552 M 164 2560 L 164 2576 M 220 2560 L 220 2576 M 252 2560 L 252 2576 M 308 2560 L 308 2576 M 172 2592 L 172 2608 M 212 2592 L 212 2608 M 236 2592 L 236 2608 M 284 2592 L 284 2608 M 108 2620 L 108 2640 M 112 2616 A 4 4 0 0 0 108 2620 M 112 2616 L 120 2616 M 128 2616 L 136 2616 M 140 2620 L 140 2640 M 140 2620 A 4 4 0 0 0 136 2616 M 172 2608 L 172 2612 A 4 4 0 0 0 176 2616 L 184 2616 M 200 2616 L 208 2616 M 212 2608 L 212 2612 M 208 2616 A 4 4 0 0 0 212 2612 M 236 2608 L 236 2612 A 4 4 0 0 0 240 2616 L 248 2616 M 272 2616 L 280 2616 M 284 2608 L 284 2612 M 280 2616 A 4 4 0 0 0 284 2612 M 108 2624 L 108 2640 M 140 2624 L 140 2640 M 72 2664 A 4 4 0 0 0 68 2668 L 68 2672 M 72 2664 L 80 2664 M 104 2664 L 112 2664 M 116 2668 A 4 4 0 0 0 112 2664 M 116 2668 L 116 2672 M 140 2668 L 140 2688 M 144 2664 A 4 4 0 0 0 140 2668 M 152 2664 A 16 16 0 0 0 144 2664 M 156 2668 L 156 2688 M 156 2668 A 4 4 0 0 0 152 2664 M 68 2676 A 4 4 0 0 0 72 2680 M 68 2672 L 68 2676 M 72 2680 L 80 2680 M 104 2680 L 112 2680 A 4 4 0 0 0 116 2676 M 116 2672 L 116 2676 M 140 2672 L 140 2688 M 156 2672 L 156 2688 M 180 2672 L 180 2688 M 196 2672 L 196 2688 M 180 2688 L 180 2692 A 4 4 0 0 0 184 2696 L 192 2696 M 196 2688 L 196 2692 M 192 2696 A 4 4 0 0 0 196 2692 M 48 2720 L 56 2736 M 108 2720 L 108 2736 M 144 2736 L 152 2720 M 172 2720 L 172 2736 M 56 2736 L 58 2740 M 60 2748 L 60 2768 M 60 2748 A 16 16 0 0 0 58 2740 M 108 2736 L 108 2740 M 104 2752 L 106 2748 A 16 16 0 0 0 108 2740 M 144 2736 L 142 2740 M 140 2752 L 140 2748 M 142 2740 A 16 16 0 0 0 140 2748 M 172 2736 L 172 2740 M 174 2748 L 184 2768 M 172 2740 A 16 16 0 0 0 174 2748 M 60 2752 L 60 2768 M 96 2768 L 104 2752 M 140 2752 L 140 2768 M 176 2752 L 184 2768 M 64 2784 L 72 2800 M 104 2800 L 112 2784 M 72 2800 L 74 2804 M 72 2816 L 74 2812 A 8 8 0 0 0 74 2804 M 104 2800 L 102 2804 M 104 2816 L 102 2812 M 102 2804 A 8 8 0 0 0 102 2812 M 64 2832 L 72 2816 M 104 2816 L 112 2832 M 60 2856 L 60 2880 M 60 2856 L 56 2864 M 100 2856 L 100 2880 M 100 2856 L 112 2880 M 140 2856 L 140 2928 M 140 2856 L 176 2928 M 180 2856 L 180 2928 M 180 2856 L 176 2864 M 48 2880 L 56 2864 M 60 2864 L 60 2880 M 100 2864 L 100 2880 M 104 2864 L 112 2880 M 140 2864 L 140 2928 M 144 2864 L 176 2928 M 180 2864 L 180 2928 M 48 2912 L 56 2928 M 60 2912 L 60 2928 M 92 2912 L 92 2928 M 96 2928 L 104 2912 M 144 2928 L 176 2864 M 56 2928 L 60 2936 L 60 2928 M 92 2928 L 92 2936 L 104 2912 M 140 2928 L 140 2936 L 176 2864 M 176 2928 L 180 2936 L 180 2928 M 56 2960 L 64 2976 M 56 2992 L 64 2976 M 56 3024 L 64 3008 M 56 3024 L 64 3040 M 56 3088 L 64 3072 M 112 3072 L 120 3088 M 48 3104 L 64 3072 M 54 3096 L 72 3096 M 54 3096 A 8 8 0 0 0 50 3100 M 56 3096 L 72 3096 M 104 3096 L 120 3096 M 120 3088 L 136 3120 M 122 3096 L 120 3096 M 126 3100 A 8 8 0 0 0 122 3096 M 40 3120 L 48 3104 M 128 3104 L 136 3120 M 56 3152 L 64 3136 M 88 3136 L 96 3152 M 32 3160 L 48 3160 M 48 3168 L 64 3136 M 50 3160 L 48 3160 M 50 3160 A 16 16 0 0 0 54 3156 M 96 3152 L 112 3184 M 102 3160 L 120 3160 M 98 3156 A 8 8 0 0 0 102 3160 M 104 3160 L 120 3160 M 40 3184 L 48 3168 M 104 3168 L 112 3184 M 184 3200 L 192 3216 M 264 3216 L 272 3200 M 56 3224 L 72 3224 L 96 3224 M 72 3232 L 74 3228 M 80 3224 A 8 8 0 0 0 74 3228 M 80 3224 L 96 3224 M 112 3224 L 128 3224 L 152 3224 M 134 3228 L 144 3248 M 134 3228 A 8 8 0 0 0 128 3224 M 136 3224 L 152 3224 M 176 3224 L 192 3224 L 216 3224 M 192 3216 L 194 3220 A 8 8 0 0 0 200 3224 L 216 3224 M 240 3224 L 256 3224 L 280 3224 M 262 3220 L 272 3200 M 256 3224 A 8 8 0 0 0 262 3220 M 264 3224 L 280 3224 M 64 3248 L 72 3232 M 136 3232 L 144 3248 M 68 3280 L 68 3296 M 100 3280 L 100 3296 M 68 3296 L 68 3328 M 64 3312 L 66 3308 A 16 16 0 0 0 68 3300 M 100 3296 L 100 3328 M 104 3312 L 102 3308 M 100 3300 A 16 16 0 0 0 102 3308 M 56 3328 L 64 3312 M 68 3312 L 68 3328 M 100 3312 L 100 3328 M 104 3312 L 112 3328 M 68 3344 L 68 3360 L 68 3368 L 80 3392 M 68 3368 L 64 3376 M 56 3392 L 64 3376 M 72 3376 L 80 3392 M 56 3408 L 64 3424 M 68 3408 L 68 3424 M 72 3424 L 80 3408 M 68 3424 L 68 3456 M 64 3424 L 80 3456 M 64 3440 L 80 3408 M 56 3456 L 64 3440 M 68 3440 L 68 3456 M 72 3440 L 80 3456 M 56 3488 L 64 3504 M 68 3488 L 68 3504 M 72 3504 L 80 3488 M 48 3512 L 64 3512 M 68 3504 L 68 3536 M 64 3512 L 88 3512 M 64 3504 L 80 3536 M 64 3520 L 80 3488 M 72 3512 L 88 3512 M 56 3536 L 64 3520 M 68 3520 L 68 3536 M 72 3520 L 80 3536 M 56 3552 L 64 3568 M 68 3552 L 68 3568 M 72 3568 L 80 3552 M 48 3576 L 64 3576 M 68 3568 L 68 3600 M 64 3576 L 88 3576 M 64 3568 L 80 3600 M 64 3584 L 80 3552 M 72 3576 L 88 3576 M 56 3600 L 64 3584 M 68 3584 L 68 3600 M 72 3584 L 80 3600 M 68 3616 L 68 3632 M 72 3632 L 80 3616 M 96 3616 L 104 3632 M 108 3616 L 108 3632 M 68 3632 L 68 3664 M 68 3640 L 80 3616 M 108 3632 L 108 3664 M 104 3632 L 108 3640 M 68 3648 L 68 3664 M 108 3648 L 108 3664 M 56 3704 L 64 3704 M 64 3712 L 66 3708 A 4 4 0 0 0 64 3704 M 88 3704 L 96 3704 M 104 3712 L 102 3708 A 8 8 0 0 0 96 3704 M 56 3728 L 64 3712 M 104 3712 L 112 3728 M 64 3760 L 66 3756 M 72 3752 A 8 8 0 0 0 66 3756 M 72 3752 L 80 3752 M 104 3760 L 102 3756 M 104 3752 A 4 4 0 0 0 102 3756 M 104 3752 L 112 3752 M 56 3776 L 64 3760 M 104 3760 L 112 3776 M 56 3824 L 64 3808 M 88 3824 L 96 3808 M 136 3808 L 144 3824 M 176 3808 L 184 3824 M 54 3828 L 64 3808 M 54 3828 A 4 4 0 0 0 56 3832 L 64 3832 M 86 3828 L 96 3808 M 86 3828 A 4 4 0 0 0 88 3832 L 144 3832 M 144 3824 L 146 3828 M 144 3832 A 4 4 0 0 0 146 3828 M 176 3832 L 184 3832 M 184 3824 L 186 3828 M 184 3832 A 4 4 0 0 0 186 3828 M 64 3880 A 16 16 0 0 0 54 3888 M 72 3880 A 16 16 0 0 0 64 3880 M 82 3888 A 16 16 0 0 0 72 3880 M 54 3888 A 16 16 0 0 0 54 3904 M 82 3904 A 16 16 0 0 0 82 3888 M 54 3904 A 16 16 0 0 0 64 3912 A 16 16 0 0 0 72 3912 A 16 16 0 0 0 82 3904 M 64 3960 A 16 16 0 0 0 54 3968 M 64 3960 L 112 3960 M 122 3968 A 16 16 0 0 0 112 3960 M 54 3968 A 16 16 0 0 0 54 3984 M 122 3984 A 16 16 0 0 0 122 3968 M 54 3984 A 16 16 0 0 0 64 3992 L 112 3992 A 16 16 0 0 0 122 3984 M 64 4032 L 128 4032 M 40 4080 L 64 4032 M 56 4080 L 40 4080 M 56 4080 L 104 4080 L 128 4032 M 64 4128 L 128 4128 M 64 4128 L 88 4176 M 128 4128 L 152 4176 M 88 4176 L 152 4176 M 64 4208 L 52 4208 M 64 4208 L 124 4208 M 52 4208 L 52 4224 M 64 4224 L 52 4224 M 64 4224 L 124 4224 M 124 4208 L 124 4224 M 64 4272 L 52 4272 M 64 4272 L 124 4272 M 52 4272 L 52 4304 M 124 4272 L 124 4304 M 64 4304 L 52 4304 M 64 4304 L 124 4304 M 56 4328 A 4 4 0 0 0 52 4332 L 52 4336 M 64 4328 A 16 16 0 0 0 56 4328 M 68 4332 A 4 4 0 0 0 64 4328 M 68 4332 L 68 4336 M 52 4340 A 4 4 0 0 0 56 4344 M 52 4336 L 52 4340 M 56 4344 L 64 4344 A 4 4 0 0 0 68 4340 M 68 4336 L 68 4340 M 64 4384 L 128 4384 M 64 4384 L 72 4400 L 136 4400 M 128 4384 L 136 4400 M 64 4416 L 88 4464 M 40 4464 L 64 4416 M 56 4464 L 40 4464 M 56 4464 L 88 4464 M 64 4480 L 88 4528 M 40 4528 L 64 4480 M 38 4532 L 64 4480 M 38 4532 A 4 4 0 0 0 40 4536 L 88 4536 M 88 4528 L 90 4532 M 88 4536 A 4 4 0 0 0 90 4532 M 64 4576 L 66 4572 M 70 4572 L 96 4624 M 70 4572 A 3 3 0 0 0 66 4572 M 72 4576 L 96 4624 M 40 4624 L 64 4576 M 38 4628 L 64 4576 M 38 4628 A 4 4 0 0 0 40 4632 L 96 4632 M 96 4624 L 98 4628 M 96 4632 A 4 4 0 0 0 98 4628 M 56 4672 L 80 4672 M 48 4688 L 56 4672 M 80 4672 L 88 4688 M 48 4688 L 56 4704 L 80 4704 L 88 4688 M 48 4736 L 96 4736 L 112 4768 M 32 4768 L 48 4736 M 32 4768 L 48 4800 L 96 4800 L 112 4768 M 68 4840 L 68 4896 M 68 4840 L 144 4840 M 72 4840 L 144 4840 M 148 4840 L 148 4896 M 148 4840 L 144 4840 M 68 4848 L 68 4896 M 148 4848 L 148 4896 M 348 4856 L 348 4912 M 348 4856 L 464 4856 M 352 4856 L 464 4856 M 468 4856 L 468 4912 M 468 4856 L 464 4856 M 152 4872 L 168 4872 M 172 4872 L 172 4928 M 172 4872 L 168 4872 M 348 4864 L 348 4912 M 468 4864 L 468 4912 M 172 4880 L 172 4928 M 316 4888 L 316 4944 M 68 4904 L 68 4896 M 68 4904 L 144 4904 M 72 4904 L 144 4904 M 148 4904 L 148 4896 M 148 4904 L 144 4904 M 204 4904 L 204 5024 M 204 4904 L 288 4904 M 208 4904 L 288 4904 M 292 4904 L 292 5024 M 292 4904 L 288 4904 M 316 4896 L 316 4944 M 204 4912 L 204 5024 M 292 4912 L 292 5024 M 348 4920 L 348 4912 M 348 4920 L 464 4920 M 352 4920 L 464 4920 M 468 4920 L 468 4912 M 468 4920 L 464 4920 M 68 4936 L 68 4992 M 68 4936 L 144 4936 M 72 4936 L 144 4936 M 148 4936 L 148 4992 M 148 4936 L 144 4936 M 172 4936 L 172 4928 M 68 4944 L 68 4992 M 148 4944 L 148 4992 M 296 4952 L 312 4952 M 316 4952 L 316 4944 M 316 4952 L 312 4952 M 296 4984 L 312 4984 M 316 4984 L 316 5040 M 316 4984 L 312 4984 M 68 5000 L 68 4992 M 68 5000 L 144 5000 M 72 5000 L 144 5000 M 148 5000 L 148 4992 M 148 5000 L 144 5000 M 172 5000 L 172 5056 M 316 4992 L 316 5040 M 172 5008 L 172 5056 M 348 5016 L 348 5072 M 348 5016 L 464 5016 M 352 5016 L 464 5016 M 468 5016 L 468 5072 M 468 5016 L 464 5016 M 68 5032 L 68 5088 M 68 5032 L 144 5032 M 72 5032 L 144 5032 M 148 5032 L 148 5088 M 148 5032 L 144 5032 M 204 5032 L 204 5024 M 204 5032 L 288 5032 M 208 5032 L 288 5032 M 292 5032 L 292 5024 M 292 5032 L 288 5032 M 348 5024 L 348 5072 M 468 5024 L 468 5072 M 68 5040 L 68 5088 M 148 5040 L 148 5088 M 316 5048 L 316 5040 M 152 5064 L 168 5064 M 172 5064 L 172 5056 M 172 5064 L 168 5064 M 348 5080 L 348 5072 M 348 5080 L 464 5080 M 352 5080 L 464 5080 M 468 5080 L 468 5072 M 468 5080 L 464 5080 M 68 5096 L 68 5088 M 68 5096 L 144 5096 M 72 5096 L 144 5096 M 148 5096 L 148 5088 M 148 5096 L 144 5096 M 48 5144 A 4 4 0 0 0 44 5148 L 44 5152 M 48 5144 L 64 5144 L 72 5152 A 16 16 0 0 0 80 5152 L 88 5144 L 128 5144 L 136 5152 A 16 16 0 0 0 144 5152 L 152 5144 L 168 5144 L 176 5152 A 16 16 0 0 0 184 5152 L 192 5144 L 224 5144 M 232 5152 L 230 5148 A 8 8 0 0 0 224 5144 M 40 5160 L 32 5168 M 48 5152 L 40 5160 M 56 5152 L 64 5168 M 88 5152 L 104 5168 L 112 5168 M 144 5168 L 152 5168 M 200 5168 L 208 5168 M 232 5152 L 240 5168 M 24 5176 L 16 5184 M 32 5168 L 16 5184 M 68 5168 L 68 5184 M 96 5168 L 80 5184 M 104 5184 L 112 5184 M 200 5184 L 208 5184 M 240 5168 L 240 5184 M 16 5184 L 24 5200 M 32 5200 L 40 5200 M 48 5192 L 40 5200 M 56 5184 L 48 5192 M 68 5184 L 76 5200 M 120 5200 L 122 5196 M 128 5192 A 8 8 0 0 0 122 5196 M 128 5192 L 160 5192 M 168 5200 L 166 5196 A 8 8 0 0 0 160 5192 M 176 5192 L 200 5192 A 16 16 0 0 0 210 5184 M 232 5200 L 240 5184 M 20 5200 L 20 5216 M 32 5216 L 40 5216 M 48 5208 L 40 5216 M 48 5208 A 16 16 0 0 0 48 5200 M 76 5200 L 76 5216 M 112 5216 L 120 5200 M 160 5208 A 16 16 0 0 0 150 5216 M 160 5208 L 168 5208 M 168 5200 L 176 5216 M 176 5208 L 184 5208 M 194 5216 A 16 16 0 0 0 184 5208 M 208 5200 L 216 5216 M 236 5200 L 236 5216 M 20 5216 L 28 5232 M 116 5216 L 116 5232 M 212 5216 L 212 5232 M 28 5232 L 28 5248 M 48 5248 L 56 5248 M 76 5232 L 76 5264 M 104 5240 L 120 5240 L 128 5248 L 160 5248 M 168 5240 L 160 5248 M 176 5232 L 168 5240 M 184 5248 A 16 16 0 0 0 192 5248 L 200 5240 M 208 5240 A 16 16 0 0 0 200 5240 M 212 5232 L 212 5236 M 208 5240 A 4 4 0 0 0 212 5236 M 236 5232 L 236 5264 M 28 5248 L 36 5264 M 48 5264 L 56 5264 M 168 5256 L 176 5256 M 200 5256 L 208 5256 M 36 5264 L 36 5280 M 76 5264 L 80 5280 M 108 5264 L 108 5296 M 120 5272 L 128 5272 L 136 5280 L 144 5280 M 152 5280 L 160 5280 M 168 5280 L 180 5280 M 184 5280 L 196 5280 M 200 5280 L 216 5280 M 208 5264 L 216 5280 M 228 5280 L 236 5264 M 36 5280 L 40 5296 M 76 5280 L 76 5312 M 128 5280 L 136 5288 M 156 5280 L 156 5296 M 160 5296 L 172 5296 M 172 5280 L 172 5296 M 180 5280 L 180 5296 M 184 5296 L 196 5296 M 196 5280 L 196 5296 M 228 5280 L 228 5328 M 36 5296 L 36 5328 M 112 5296 L 120 5312 L 128 5312 M 180 5296 L 184 5312 M 272 5304 L 280 5304 L 304 5328 M 328 5304 A 16 16 0 0 0 320 5304 M 332 5308 A 4 4 0 0 0 328 5304 M 332 5308 L 332 5312 M 56 5320 A 16 16 0 0 0 48 5320 M 64 5328 A 16 16 0 0 0 56 5320 M 76 5312 L 84 5328 M 128 5312 L 136 5320 L 152 5320 M 160 5328 A 16 16 0 0 0 152 5320 M 168 5320 A 4 4 0 0 0 164 5324 L 164 5328 M 168 5320 L 176 5320 M 272 5312 L 280 5320 M 296 5320 L 304 5320 M 312 5312 L 296 5328 M 328 5320 L 320 5328 M 336 5312 L 328 5320 M 16 5344 L 24 5344 M 32 5336 L 24 5344 M 40 5328 L 24 5344 M 64 5336 L 56 5344 M 64 5336 A 16 16 0 0 0 64 5328 M 84 5328 L 84 5392 M 136 5336 L 144 5336 M 152 5336 L 160 5336 A 4 4 0 0 0 164 5332 M 164 5328 L 164 5332 M 212 5344 L 228 5328 M 224 5336 L 232 5336 L 240 5344 L 256 5344 M 304 5336 L 312 5336 M 320 5328 L 304 5344 M 8 5352 L 0 5360 M 16 5344 L 8 5352 M 24 5344 L 32 5352 L 40 5352 L 64 5376 M 212 5344 L 212 5392 M 224 5360 L 232 5360 L 240 5344 M 248 5360 L 232 5360 M 256 5344 L 264 5352 L 272 5352 M 288 5352 L 280 5360 M 296 5344 L 280 5360 M 8 5368 L 16 5368 L 24 5376 L 32 5376 M 96 5376 L 84 5376 M 96 5376 L 152 5376 L 160 5360 L 168 5376 L 212 5376 M 248 5360 L 256 5368 L 264 5368 M 272 5368 L 264 5376 M 280 5360 L 264 5376 M 32 5384 L 24 5392 M 40 5376 L 32 5384 M 152 5376 L 160 5392 L 168 5376 M 24 5392 L 32 5400 M 40 5408 A 16 16 0 0 0 48 5408 M 84 5392 L 84 5396 A 4 4 0 0 0 88 5400 L 208 5400 M 212 5392 L 212 5396 M 208 5400 A 4 4 0 0 0 212 5396 M 88 5424 L 96 5408 M 96 5424 L 104 5408 M 112 5424 L 96 5424 M 120 5424 L 108 5424 M 120 5424 L 136 5424 M 128 5408 L 136 5424 M 160 5424 L 168 5408 M 168 5424 L 176 5408 M 184 5424 L 168 5424 M 192 5424 L 180 5424 M 192 5424 L 208 5424 M 200 5408 L 208 5424 M 108 5424 L 108 5456 M 116 5424 L 116 5456 M 180 5424 L 180 5456 M 188 5424 L 188 5456 M 128 5456 L 116 5456 M 128 5456 L 136 5448 M 144 5448 A 16 16 0 0 0 136 5448 M 154 5456 A 16 16 0 0 0 144 5448 M 200 5456 L 188 5456 M 200 5456 L 208 5448 M 216 5448 A 16 16 0 0 0 208 5448 M 226 5456 A 16 16 0 0 0 216 5448 M 104 5472 L 112 5472 L 120 5464 L 136 5464 M 136 5472 L 152 5472 M 176 5472 L 184 5472 L 192 5464 L 208 5464 M 208 5472 L 224 5472 M 8 5520 L 16 5520 M 112 5520 L 120 5520 M 16 5520 L 24 5528 L 48 5528 M 80 5528 L 104 5528 L 112 5520 M 8 5560 L 32 5560 L 40 5568 L 56 5568 M 80 5568 L 104 5568 L 112 5560 L 136 5560 M 72 5616 L 88 5648 L 90 5652 A 8 8 0 0 0 96 5656 M 4 5704 L 4 5776 M 4 5704 L 184 5704 M 8 5704 L 184 5704 M 188 5704 L 188 5776 M 188 5704 L 184 5704 M 4 5712 L 4 5776 M 188 5712 L 188 5776 M 4 5784 L 4 5776 M 4 5784 L 184 5784 M 8 5784 L 184 5784 M 188 5784 L 188 5776 M 188 5784 L 184 5784 M 112 5816 A 4 4 0 0 0 108 5820 L 108 5824 M 112 5816 L 136 5816 M 140 5820 A 4 4 0 0 0 136 5816 M 140 5820 L 140 5824 M 168 5816 A 4 4 0 0 0 164 5820 L 164 5824 M 168 5816 L 192 5816 M 196 5820 A 4 4 0 0 0 192 5816 M 196 5820 L 196 5824 M 216 5816 A 4 4 0 0 0 212 5820 L 212 5824 M 216 5816 L 240 5816 M 244 5820 A 4 4 0 0 0 240 5816 M 244 5820 L 244 5824 M 272 5816 A 4 4 0 0 0 268 5820 L 268 5824 M 272 5816 L 296 5816 M 300 5820 A 4 4 0 0 0 296 5816 M 300 5820 L 300 5824 M 344 5816 A 4 4 0 0 0 340 5820 L 340 5824 M 344 5816 L 368 5816 M 372 5820 A 4 4 0 0 0 368 5816 M 372 5820 L 372 5824 M 400 5816 A 4 4 0 0 0 396 5820 L 396 5824 M 400 5816 L 424 5816 M 428 5820 A 4 4 0 0 0 424 5816 M 428 5820 L 428 5824 M 108 5828 A 4 4 0 0 0 112 5832 M 108 5824 L 108 5828 M 112 5832 L 136 5832 A 4 4 0 0 0 140 5828 M 140 5824 L 140 5828 M 164 5828 A 4 4 0 0 0 168 5832 M 164 5824 L 164 5828 M 168 5832 L 192 5832 A 4 4 0 0 0 196 5828 M 196 5824 L 196 5828 M 212 5828 A 4 4 0 0 0 216 5832 M 212 5824 L 212 5828 M 216 5832 L 240 5832 A 4 4 0 0 0 244 5828 M 244 5824 L 244 5828 M 268 5828 A 4 4 0 0 0 272 5832 M 268 5824 L 268 5828 M 272 5832 L 296 5832 A 4 4 0 0 0 300 5828 M 300 5824 L 300 5828 M 340 5828 A 4 4 0 0 0 344 5832 M 340 5824 L 340 5828 M 344 5832 L 368 5832 A 4 4 0 0 0 372 5828 M 372 5824 L 372 5828 M 396 5828 A 4 4 0 0 0 400 5832 M 396 5824 L 396 5828 M 400 5832 L 424 5832 A 4 4 0 0 0 428 5828 M 428 5824 L 428 5828 M 228 5840 L 228 5968 M 108 5884 L 108 5904 M 112 5880 A 4 4 0 0 0 108 5884 M 112 5880 L 208 5880 M 212 5884 L 212 5904 M 212 5884 A 4 4 0 0 0 208 5880 M 244 5884 L 244 5904 M 248 5880 A 4 4 0 0 0 244 5884 M 248 5880 L 336 5880 M 340 5884 L 340 5904 M 340 5884 A 4 4 0 0 0 336 5880 M 380 5884 L 380 5904 M 384 5880 A 4 4 0 0 0 380 5884 M 384 5880 L 424 5880 M 428 5884 L 428 5904 M 428 5884 A 4 4 0 0 0 424 5880 M 108 5888 L 108 5904 M 212 5888 L 212 5904 M 244 5888 L 244 5904 M 340 5888 L 340 5904 M 380 5888 L 380 5904 M 428 5888 L 428 5904 M 108 5904 L 108 5908 A 4 4 0 0 0 112 5912 L 208 5912 M 212 5904 L 212 5908 M 208 5912 A 4 4 0 0 0 212 5908 M 244 5904 L 244 5908 A 4 4 0 0 0 248 5912 L 336 5912 M 340 5904 L 340 5908 M 336 5912 A 4 4 0 0 0 340 5908 M 380 5904 L 380 5908 A 4 4 0 0 0 384 5912 L 424 5912 M 428 5904 L 428 5908 M 424 5912 A 4 4 0 0 0 428 5908 M 140 5964 L 140 5984 M 144 5960 A 4 4 0 0 0 140 5964 M 144 5960 L 176 5960 M 180 5964 L 180 5984 M 180 5964 A 4 4 0 0 0 176 5960 M 324 5964 L 324 5984 M 328 5960 A 4 4 0 0 0 324 5964 M 328 5960 L 400 5960 M 404 5964 L 404 5984 M 404 5964 A 4 4 0 0 0 400 5960 M 140 5968 L 140 5984 M 180 5968 L 180 5984 M 192 5976 L 224 5976 M 228 5968 L 228 5972 M 224 5976 A 4 4 0 0 0 228 5972 M 324 5968 L 324 5984 M 404 5968 L 404 5984 M 140 5984 L 140 5988 A 4 4 0 0 0 144 5992 L 176 5992 M 180 5984 L 180 5988 M 176 5992 A 4 4 0 0 0 180 5988 M 324 5984 L 324 5988 A 4 4 0 0 0 328 5992 L 400 5992 M 404 5984 L 404 5988 M 400 5992 A 4 4 0 0 0 404 5988 M 108 6044 L 108 6064 M 112 6040 A 4 4 0 0 0 108 6044 M 112 6040 L 424 6040 M 428 6044 L 428 6064 M 428 6044 A 4 4 0 0 0 424 6040 M 108 6048 L 108 6064 M 428 6048 L 428 6064 M 108 6064 L 108 6068 A 4 4 0 0 0 112 6072 L 424 6072 M 428 6064 L 428 6068 M 424 6072 A 4 4 0 0 0 428 6068 M 32 6112 L 88 6112 M 32 6112 A 40 40 0 0 0 10 6128 M 110 6128 A 40 40 0 0 0 88 6112 M 10 6128 A 40 40 0 0 0 4 6144 M 116 6144 A 40 40 0 0 0 110 6128 M 4 6144 L 4 6176 M 116 6144 L 116 6176 M 4 6176 A 40 40 0 0 0 10 6192 M 110 6192 A 40 40 0 0 0 116 6176 M 10 6192 A 40 40 0 0 0 32 6208 L 88 6208 A 40 40 0 0 0 110 6192 M 32 6240 L 56 6240 M 32 6240 A 40 40 0 0 0 10 6256 M 78 6256 A 40 40 0 0 0 56 6240 M 10 6256 A 40 40 0 0 0 4 6272 M 84 6272 A 40 40 0 0 0 78 6256 M 4 6272 L 4 6288 M 84 6272 L 84 6288 M 4 6288 A 40 40 0 0 0 10 6304 M 78 6304 A 40 40 0 0 0 84 6288 M 10 6304 A 40 40 0 0 0 32 6320 L 56 6320 A 40 40 0 0 0 78 6304 M 76 6344 L 76 6384 M 76 6344 L 96 6384 M 252 6344 L 252 6384 M 252 6344 L 248 6352 M 76 6352 L 76 6384 M 80 6352 L 96 6384 M 252 6352 L 252 6384 M 32 6384 L 76 6384 M 96 6384 L 232 6384 L 248 6352 M 264 6384 L 252 6384 M 264 6384 L 336 6384 M 32 6384 A 40 40 0 0 0 10 6400 M 358 6400 A 40 40 0 0 0 336 6384 M 10 6400 A 40 40 0 0 0 4 6416 M 364 6416 A 40 40 0 0 0 358 6400 M 4 6416 L 4 6480 M 364 6416 L 364 6480 M 4 6480 A 40 40 0 0 0 10 6496 M 358 6496 A 40 40 0 0 0 364 6480 M 10 6496 A 40 40 0 0 0 32 6512 L 88 6512 M 104 6512 L 240 6512 M 256 6512 L 336 6512 A 40 40 0 0 0 358 6496 M 96 6520 L 88 6528 M 104 6512 L 96 6520 M 240 6512 L 272 6544 M 256 6512 L 272 6544 M 72 6544 L 88 6512 M 88 6528 L 72 6544 M 32 6600 L 40 6600 M 44 6604 L 44 6640 M 44 6604 A 4 4 0 0 0 40 6600 M 44 6608 L 44 6640 M 44 6688 L 44 6720 M 32 6728 L 40 6728 M 44 6720 L 44 6724 M 40 6728 A 4 4 0 0 0 44 6724 M 32 6776 L 40 6776 M 32 6840 L 40 6840 M 36 6860 L 36 6896 M 40 6856 A 4 4 0 0 0 36 6860 M 40 6856 L 48 6856 M 36 6864 L 36 6896 M 36 6944 L 36 6976 L 36 6980 A 4 4 0 0 0 40 6984 L 48 6984" fill="none"/>
<path d=" M 36 1904 L 36 1968 M 8 1976 L 32 1976 M 32 2064 L 272 2064 M 32 2096 L 56 2096 M 56 6496 L 80 6496" fill="none" stroke-dasharray="3 3"/>
<line marker-end="url(#triangle)" x1="60" x2="84" y1="40" y2="40"/>
<line marker-end="url(#triangle)" x1="64" x2="84" y1="40" y2="40"/>
<line marker-end="url(#triangle)" x1="232" x2="228" y1="40" y2="40"/>
<line marker-end="url(#triangle)" x1="196" x2="196" y1="72" y2="112"/>
<line marker-end="url(#triangle)" x1="116" x2="116" y1="96" y2="80"/>
<line marker-end="url(#triangle)" x1="196" x2="196" y1="80" y2="112"/>
<line marker-end="url(#triangle)" x1="112" x2="108" y1="448" y2="440"/>
<line marker-end="url(#triangle)" x1="224" x2="236" y1="464" y2="440"/>
<line marker-end="url(#triangle)" x1="222" x2="236" y1="468" y2="440"/>
<line marker-end="url(#triangle)" x1="112" x2="108" y1="504" y2="504"/>
<line marker-end="url(#triangle)" x1="184" x2="220" y1="504" y2="504"/>
<line marker-end="url(#triangle)" x1="224" x2="236" y1="544" y2="568"/>
<line marker-end="url(#triangle)" x1="88" x2="84" y1="560" y2="568"/>
<line marker-end="url(#triangle)" x1="124" x2="124" y1="640" y2="672"/>
<line marker-end="url(#triangle)" x1="180" x2="180" y1="640" y2="672"/>
<line marker-end="url(#triangle)" x1="284" x2="284" y1="640" y2="672"/>
<line marker-end="url(#triangle)" x1="356" x2="356" y1="640" y2="752"/>
<line marker-end="url(#triangle)" x1="412" x2="412" y1="640" y2="672"/>
<line marker-end="url(#triangle)" x1="164" x2="164" y1="720" y2="752"/>
<line marker-end="url(#triangle)" x1="284" x2="284" y1="720" y2="832"/>
<line marker-end="url(#triangle)" x1="192" x2="188" y1="776" y2="776"/>
<line marker-end="url(#triangle)" x1="164" x2="164" y1="800" y2="832"/>
<line marker-end="url(#triangle)" x1="364" x2="364" y1="800" y2="832"/>
<line marker-end="url(#triangle)" x1="540" x2="540" y1="988" y2="1072"/>
<line marker-end="url(#triangle)" x1="108" x2="108" y1="992" y2="1072"/>
<line marker-end="url(#triangle)" x1="324" x2="324" y1="992" y2="1072"/>
<line marker-end="url(#triangle)" x1="540" x2="540" y1="992" y2="1072"/>
<line marker-end="url(#triangle)" x1="208" x2="284" y1="1144" y2="1144"/>
<line marker-end="url(#triangle)" x1="216" x2="284" y1="1144" y2="1144"/>
<line marker-end="url(#triangle)" x1="408" x2="404" y1="1192" y2="1192"/>
<line marker-end="url(#triangle)" x1="328" x2="348" y1="1320" y2="1320"/>
<line marker-end="url(#triangle)" x1="310" x2="348" y1="1352" y2="1352"/>
<line marker-end="url(#triangle)" x1="312" x2="348" y1="1352" y2="1352"/>
<line marker-end="url(#triangle)" x1="390" x2="420" y1="1384" y2="1384"/>
<line marker-end="url(#triangle)" x1="392" x2="420" y1="1384" y2="1384"/>
<line marker-end="url(#triangle)" x1="408" x2="428" y1="1416" y2="1416"/>
<line marker-end="url(#triangle)" x1="262" x2="356" y1="1448" y2="1448"/>
<line marker-end="url(#triangle)" x1="264" x2="356" y1="1448" y2="1448"/>
<line marker-end="url(#triangle)" x1="168" x2="164" y1="1664" y2="1672"/>
<line marker-end="url(#triangle)" x1="36" x2="36" y1="1792" y2="1776"/>
<line marker-end="url(#triangle)" x1="36" x2="276" y1="1864" y2="1864"/>
<line marker-end="url(#triangle)" x1="40" x2="276" y1="1864" y2="1864"/>
<line fill="none" marker-end="url(#triangle)" stroke-dasharray="3 3" x1="36" x2="36" y1="1904" y2="1888"/>
<line fill="none" marker-end="url(#triangle)" stroke-dasharray="3 3" x1="8" x2="4" y1="1976" y2="1976"/>
<line fill="none" marker-end="url(#triangle)" stroke-dasharray="3 3" x1="36" x2="36" y1="1968" y2="2032"/>
<line fill="none" marker-end="url(#triangle)" stroke-dasharray="3 3" x1="32" x2="284" y1="1976" y2="1976"/>
<line fill="none" marker-end="url(#triangle)" stroke-dasharray="3 3" x1="40" x2="284" y1="1976" y2="1976"/>
<line fill="none" marker-end="url(#triangle)" stroke-dasharray="3 3" x1="36" x2="36" y1="1984" y2="2032"/>
<line marker-end="url(#triangle)" x1="56" x2="52" y1="2224" y2="2216"/>
<line marker-end="url(#triangle)" x1="68" x2="68" y1="2224" y2="2208"/>
<line marker-end="url(#triangle)" x1="72" x2="84" y1="2240" y2="2216"/>
<line marker-end="url(#triangle)" x1="68" x2="68" y1="2240" y2="2288"/>
<line marker-end="url(#triangle)" x1="64" x2="84" y1="2240" y2="2280"/>
<line marker-end="url(#triangle)" x1="64" x2="84" y1="2256" y2="2216"/>
<line marker-end="url(#triangle)" x1="68" x2="68" y1="2256" y2="2288"/>
<line marker-end="url(#triangle)" x1="72" x2="84" y1="2256" y2="2280"/>
<line marker-end="url(#triangle)" x1="56" x2="52" y1="2272" y2="2280"/>
<line marker-end="url(#triangle)" x1="56" x2="52" y1="2320" y2="2312"/>
<line marker-end="url(#triangle)" x1="68" x2="68" y1="2320" y2="2304"/>
<line marker-end="url(#triangle)" x1="72" x2="84" y1="2336" y2="2312"/>
<line marker-end="url(#triangle)" x1="56" x2="52" y1="2344" y2="2344"/>
<line marker-end="url(#triangle)" x1="68" x2="68" y1="2336" y2="2384"/>
<line marker-end="url(#triangle)" x1="64" x2="84" y1="2344" y2="2344"/>
<line marker-end="url(#triangle)" x1="64" x2="84" y1="2336" y2="2376"/>
<line marker-end="url(#triangle)" x1="64" x2="84" y1="2352" y2="2312"/>
<line marker-end="url(#triangle)" x1="72" x2="84" y1="2344" y2="2344"/>
<line marker-end="url(#triangle)" x1="68" x2="68" y1="2352" y2="2384"/>
<line marker-end="url(#triangle)" x1="72" x2="84" y1="2352" y2="2376"/>
<line marker-end="url(#triangle)" x1="56" x2="52" y1="2368" y2="2376"/>
<line marker-end="url(#triangle)" x1="316" x2="340" y1="4888" y2="4888"/>
<line marker-end="url(#triangle)" x1="320" x2="340" y1="4888" y2="4888"/>
<line marker-end="url(#triangle)" x1="172" x2="196" y1="4936" y2="4936"/>
<line marker-end="url(#triangle)" x1="176" x2="196" y1="4936" y2="4936"/>
<line marker-end="url(#triangle)" x1="152" x2="196" y1="4968" y2="4968"/>
<line marker-end="url(#triangle)" x1="172" x2="196" y1="5000" y2="5000"/>
<line marker-end="url(#triangle)" x1="176" x2="196" y1="5000" y2="5000"/>
<line marker-end="url(#triangle)" x1="316" x2="340" y1="5048" y2="5048"/>
<line marker-end="url(#triangle)" x1="320" x2="340" y1="5048" y2="5048"/>
<line marker-end="url(#triangle)" x1="64" x2="84" y1="5608" y2="5608"/>
<line marker-end="url(#triangle)" x1="96" x2="108" y1="5656" y2="5656"/>
<line marker-end="url(#triangle)" x1="124" x2="124" y1="5840" y2="5872"/>
<line marker-end="url(#triangle)" x1="180" x2="180" y1="5840" y2="5872"/>
<line marker-end="url(#triangle)" x1="284" x2="284" y1="5840" y2="5872"/>
<line marker-end="url(#triangle)" x1="356" x2="356" y1="5840" y2="5952"/>
<line marker-end="url(#triangle)" x1="412" x2="412" y1="5840" y2="5872"/>
<line marker-end="url(#triangle)" x1="164" x2="164" y1="5920" y2="5952"/>
<line marker-end="url(#triangle)" x1="284" x2="284" y1="5920" y2="6032"/>
<line marker-end="url(#triangle)" x1="192" x2="188" y1="5976" y2="5976"/>
<line marker-end="url(#triangle)" x1="164" x2="164" y1="6000" y2="6032"/>
<line marker-end="url(#triangle)" x1="364" x2="364" y1="6000" y2="6032"/>
<line marker-end="url(#triangle)" x1="40" x2="52" y1="6392" y2="6392"/>
<line marker-end="url(#triangle)" x1="32" x2="44" y1="6408" y2="6408"/>
<line marker-end="url(#triangle)" x1="24" x2="36" y1="6424" y2="6424"/>
<line marker-end="url(#triangle)" x1="16" x2="28" y1="6440" y2="6440"/>
<line marker-end="url(#triangle)" x1="16" x2="28" y1="6456" y2="6456"/>
<line marker-end="url(#triangle)" x1="32" x2="44" y1="6488" y2="6488"/>
<text x="18" y="44">
Foo
</text>
<text x="106" y="44">
Bar
</text>
<text x="186" y="44">
Baz
</text>
<text x="266" y="44">
Moo
</text>
<text x="18" y="140">
Hello here and there and everywhere
</text>
<text x="34" y="236">
a
</text>
<text x="50" y="236">
==
</text>
<text x="74" y="236">
b
</text>
<text x="50" y="252">
&amp;
</text>
<text x="58" y="252">
&amp;
</text>
<text x="226" y="252">
process
</text>
<text x="34" y="268">
&apos;
</text>
<text x="42" y="268">
string&apos;
</text>
<text x="106" y="268">
ne
</text>
<text x="130" y="268">
&apos;
</text>
<text x="138" y="268">
&apos;
</text>
<text x="362" y="268">
process
</text>
<text x="66" y="380">
another process
</text>
<text x="18" y="444">
User code
</text>
<text x="250" y="444">
OS code
</text>
<text x="18" y="508">
User code
</text>
<text x="146" y="508">
Mode
</text>
<text x="234" y="508">
OS code
</text>
<text x="58" y="588">
User code
</text>
<text x="226" y="588">
OS code
</text>
<text x="34" y="636">
OS API
</text>
<text x="122" y="700">
Filesystem
</text>
<text x="258" y="700">
Scheduler
</text>
<text x="394" y="700">
MMU
</text>
<text x="154" y="780">
IO
</text>
<text x="338" y="780">
Network
</text>
<text x="258" y="860">
HAL
</text>
<text x="58" y="924">
[]
</text>
<text x="90" y="956">
device
</text>
<text x="90" y="972">
loads
</text>
<text x="34" y="988">
ooo
</text>
<text x="34" y="1004">
ooo
</text>
<text x="34" y="1020">
ooo
</text>
<text x="42" y="1100">
Loadable module C
</text>
<text x="258" y="1100">
Loadable module A
</text>
<text x="474" y="1100">
Loadable module B
</text>
<text x="490" y="1116">
(instrumented)
</text>
<text x="306" y="1148">
A.o
</text>
<text x="138" y="1164">
calls
</text>
<text x="258" y="1196">
A.instrumented.o
</text>
<text x="474" y="1212">
calls
</text>
<text x="106" y="1276">
x--x-
</text>
<text x="162" y="1276">
-x
</text>
<text x="362" y="1324">
Base::Class::Derived_A
</text>
<text x="362" y="1356">
Base::Class::Derived_B
</text>
<text x="50" y="1372">
Something
</text>
<text x="434" y="1388">
Base::Class::Derived
</text>
<text x="50" y="1404">
Something::else
</text>
<text x="442" y="1420">
Base::Class::Derived
</text>
<text x="370" y="1452">
Base::Class::Derived_C
</text>
<text x="194" y="1484">
Base::Class
</text>
<text x="306" y="1548">
The::Latest
</text>
<text x="10" y="1580">
With::Some::fantasy
</text>
<text x="370" y="1580">
The::Latest::Greatest
</text>
<text x="74" y="1612">
More::Stuff
</text>
<text x="306" y="1612">
I::Am::Running::Out::Of::Ideas
</text>
<text x="74" y="1644">
More::Stuff
</text>
<text x="330" y="1660">
Last::One
</text>
<text x="58" y="1676">
More::Stuff
</text>
<text x="18" y="1772">
Safety
</text>
<text x="226" y="1804">
*Rust
</text>
<text x="130" y="1820">
*Java
</text>
<text x="50" y="1836">
*Python
</text>
<text x="234" y="1852">
*C++
</text>
<text x="290" y="1868">
Control
</text>
<text x="34" y="2108">
..
</text>
<text x="18" y="2140">
this is a sentence
</text>
<text x="18" y="2156">
separated
</text>
<text x="106" y="2156">
words
</text>
<text x="162" y="2156">
of nill
</text>
<text x="18" y="2188">
TODO:
</text>
<text x="58" y="2284">
 
</text>
<text x="74" y="2284">
 
</text>
<text x="58" y="2380">
 
</text>
<text x="74" y="2380">
 
</text>
<text x="98" y="4876">
NFS
</text>
<text x="378" y="4892">
CacheFS
</text>
<text x="370" y="4908">
/dev/hda5/
</text>
<text x="98" y="4972">
AFS
</text>
<text x="218" y="4972">
FS-Cache
</text>
<text x="370" y="5052">
CacheFiles
</text>
<text x="90" y="5068">
ISOFS
</text>
<text x="370" y="5068">
/var/cache
</text>
<text x="82" y="5164">
(
</text>
<text x="98" y="5164">
.
</text>
<text x="138" y="5164">
(
</text>
<text x="154" y="5164">
)
</text>
<text x="98" y="5180">
.
</text>
<text x="114" y="5180">
)
</text>
<text x="194" y="5180">
(
</text>
<text x="210" y="5180">
)
</text>
<text x="58" y="5196">
)
</text>
<text x="170" y="5196">
.
</text>
<text x="26" y="5212">
(
</text>
<text x="66" y="5228">
0|
</text>
<text x="146" y="5228">
(
</text>
<text x="162" y="5228">
O|
</text>
<text x="186" y="5228">
O)
</text>
<text x="226" y="5228">
o|
</text>
<text x="98" y="5244">
.
</text>
<text x="178" y="5244">
.
</text>
<text x="42" y="5260">
(
</text>
<text x="58" y="5260">
)
</text>
<text x="90" y="5260">
o
</text>
<text x="178" y="5260">
`
</text>
<text x="194" y="5260">
.
</text>
<text x="210" y="5260">
`
</text>
<text x="114" y="5276">
`
</text>
<text x="138" y="5292">
.
</text>
<text x="50" y="5308">
o
</text>
<text x="314" y="5308">
.
</text>
<text x="42" y="5324">
.
</text>
<text x="178" y="5324">
&apos;
</text>
<text x="210" y="5324">
O
</text>
<text x="282" y="5324">
.
</text>
<text x="130" y="5340">
`
</text>
<text x="146" y="5340">
.
</text>
<text x="282" y="5340">
&apos;
</text>
<text x="298" y="5340">
.
</text>
<text x="50" y="5356">
`
</text>
<text x="66" y="5356">
&apos;
</text>
<text x="74" y="5356">
.
</text>
<text x="90" y="5356">
=&apos;
</text>
<text x="106" y="5356">
=.=&apos;
</text>
<text x="138" y="5356">
=.=&apos;
</text>
<text x="170" y="5356">
=.=&apos;
</text>
<text x="202" y="5356">
=
</text>
<text x="218" y="5356">
.
</text>
<text x="274" y="5356">
&apos;
</text>
<text x="2" y="5372">
`
</text>
<text x="58" y="5372">
.
</text>
<text x="66" y="5388">
).
</text>
<text x="98" y="5388">
&apos;
</text>
<text x="106" y="5388">
=&apos;
</text>
<text x="130" y="5388">
&apos;
</text>
<text x="138" y="5388">
=&apos;
</text>
<text x="178" y="5388">
&apos;
</text>
<text x="186" y="5388">
=&apos;
</text>
<text x="34" y="5404">
.
</text>
<text x="50" y="5404">
.`
</text>
<text x="98" y="5468">
(
</text>
<text x="154" y="5468">
)
</text>
<text x="170" y="5468">
(
</text>
<text x="226" y="5468">
)
</text>
<text x="2" y="5612">
test测试
</text>
<text x="98" y="5612">
测试test
</text>
<text x="122" y="5660">
测试test
</text>
<text x="66" y="5740">
中文处理
</text>
<text x="66" y="5756">
12345678
</text>
<text x="34" y="5836">
OS API
</text>
<text x="130" y="5900">
文件系统
</text>
<text x="274" y="5900">
调度器
</text>
<text x="394" y="5900">
MMU
</text>
<text x="154" y="5980">
IO
</text>
<text x="354" y="5980">
网络
</text>
<text x="226" y="6060">
硬件抽象层
</text>
<text x="66" y="6396">
create Ascii art
</text>
<text x="58" y="6412">
draw sketches for e-mails
</text>
<text x="50" y="6428">
comment source code of programs
</text>
<text x="42" y="6444">
diagrams for visually handicaped people
</text>
<text x="42" y="6460">
more dialogs
</text>
<text x="42" y="6652">
(
</text>
<text x="50" y="6668">
&gt;
</text>
<text x="42" y="6684">
(
</text>
<text x="42" y="6780">
.
</text>
<text x="42" y="6796">
(
</text>
<text x="50" y="6812">
&gt;
</text>
<text x="42" y="6828">
(
</text>
<text x="42" y="6844">
&apos;
</text>
<text x="34" y="6908">
)
</text>
<text x="26" y="6924">
&lt;
</text>
<text x="34" y="6940">
)
</text>
</svg>