<svg font-family="Arial" font-size="14" height="9328" width="912" xmlns="http://www.w3.org/2000/svg">
<defs>
<marker id="triangle" markerHeight="10" markerUnits="strokeWidth" markerWidth="10" orient="auto" refX="0" refY="5" viewBox="0 0 40 40">
<path d="M 0 0 L 10 5 L 0 10 z"/>
</marker>
</defs>
<style>

     <![CDATA[ 
    line, path {
      stroke: black;
      stroke-width: 2;
      stroke-opacity: 1;
      fill-opacity: 1;
      stroke-linecap: round;
      stroke-linejoin: miter;
    }
     ]]> 
    
</style>
<path d=" M 48 16 L 56 0 M 16 72 A 16 16 0 0 0 6 80 M 16 72 L 48 72 M 58 80 A 16 16 0 0 0 48 72 M 6 80 A 16 16 0 0 0 6 96 M 58 96 A 16 16 0 0 0 58 80 M 6 96 A 16 16 0 0 0 16 104 L 48 104 A 16 16 0 0 0 58 96 M 16 152 L 48 152 M 58 160 A 16 16 0 0 0 48 152 M 6 160 A 16 16 0 0 0 6 176 M 58 176 A 16 16 0 0 0 58 160 M 6 176 A 16 16 0 0 0 16 184 L 48 184 A 16 16 0 0 0 58 176 M 48 232 A 16 16 0 0 0 38 240 M 48 232 L 80 232 M 90 240 A 16 16 0 0 0 80 232 M 38 240 A 16 16 0 0 0 38 256 M 90 256 A 16 16 0 0 0 90 240 M 38 256 A 16 16 0 0 0 48 264 L 80 264 A 16 16 0 0 0 90 256 M 32 312 A 16 16 0 0 0 22 320 M 32 312 L 64 312 M 74 320 A 16 16 0 0 0 64 312 M 22 320 A 16 16 0 0 0 22 336 M 74 336 A 16 16 0 0 0 74 320 M 22 336 A 16 16 0 0 0 32 344 L 64 344 A 16 16 0 0 0 74 336 M 48 392 L 80 392 M 48 424 L 88 424 A 16 16 0 0 0 98 416 M 16 456 A 16 16 0 0 0 6 464 M 16 456 L 32 456 M 42 464 A 16 16 0 0 0 32 456 M 6 464 A 16 16 0 0 0 6 480 M 24 480 L 32 480 M 42 480 A 16 16 0 0 0 42 464 M 6 480 A 16 16 0 0 0 16 488 L 32 488 A 16 16 0 0 0 42 480 M 16 536 A 16 16 0 0 0 6 544 M 16 536 L 32 536 M 42 544 A 16 16 0 0 0 32 536 M 6 544 A 16 16 0 0 0 6 560 M 24 560 L 32 560 M 42 560 A 16 16 0 0 0 42 544 M 6 560 A 16 16 0 0 0 16 568 L 32 568 A 16 16 0 0 0 42 560 M 16 616 A 16 16 0 0 0 6 624 M 16 616 L 40 616 M 50 624 A 16 16 0 0 0 40 616 M 6 624 A 16 16 0 0 0 6 640 M 32 640 L 40 640 M 50 640 A 16 16 0 0 0 50 624 M 6 640 A 16 16 0 0 0 16 648 L 40 648 A 16 16 0 0 0 50 640 M 32 696 A 16 16 0 0 0 22 704 M 40 696 A 16 16 0 0 0 32 696 M 50 704 A 16 16 0 0 0 40 696 M 22 704 A 16 16 0 0 0 22 720 M 32 720 L 40 720 M 50 720 A 16 16 0 0 0 50 704 M 22 720 A 16 16 0 0 0 32 728 L 40 728 A 16 16 0 0 0 50 720 M 12 780 L 12 800 M 16 776 A 4 4 0 0 0 12 780 M 16 776 L 40 776 M 44 780 L 44 800 M 44 780 A 4 4 0 0 0 40 776 M 12 784 L 12 800 M 44 784 L 44 800 M 12 800 L 12 804 A 4 4 0 0 0 16 808 L 40 808 M 44 800 L 44 804 M 40 808 A 4 4 0 0 0 44 804 M 24 840 A 16 16 0 0 0 14 848 M 24 840 L 40 840 M 50 848 A 16 16 0 0 0 40 840 M 14 848 A 16 16 0 0 0 14 864 M 50 864 A 16 16 0 0 0 50 848 M 14 864 A 16 16 0 0 0 24 872 L 40 872 A 16 16 0 0 0 50 864 M 16 920 A 16 16 0 0 0 6 928 M 24 920 A 16 16 0 0 0 16 920 M 34 928 A 16 16 0 0 0 24 920 M 6 928 A 16 16 0 0 0 6 944 M 16 944 L 24 944 M 34 944 A 16 16 0 0 0 34 928 M 6 944 A 16 16 0 0 0 16 952 L 24 952 A 16 16 0 0 0 34 944 M 24 984 A 16 16 0 0 0 14 992 M 32 984 A 16 16 0 0 0 24 984 M 42 992 A 16 16 0 0 0 32 984 M 14 992 A 16 16 0 0 0 14 1008 M 24 1008 L 32 1008 M 42 1008 A 16 16 0 0 0 42 992 M 14 1008 A 16 16 0 0 0 24 1016 L 32 1016 A 16 16 0 0 0 42 1008 M 40 1064 A 16 16 0 0 0 30 1072 M 48 1064 A 16 16 0 0 0 40 1064 M 58 1072 A 16 16 0 0 0 48 1064 M 8 1072 L 16 1088 L 24 1088 M 30 1072 A 16 16 0 0 0 30 1088 M 58 1088 A 16 16 0 0 0 58 1072 M 64 1088 L 72 1088 L 80 1072 M 30 1088 A 16 16 0 0 0 40 1096 L 48 1096 A 16 16 0 0 0 58 1088 M 152 1128 A 16 16 0 0 0 142 1136 M 152 1128 L 168 1128 M 178 1136 A 16 16 0 0 0 168 1128 M 240 1128 A 16 16 0 0 0 230 1136 M 240 1128 L 264 1128 M 274 1136 A 16 16 0 0 0 264 1128 M 40 1136 L 48 1152 L 56 1152 M 88 1152 L 96 1152 L 104 1136 M 142 1136 A 16 16 0 0 0 142 1152 M 160 1152 L 168 1152 M 178 1152 A 16 16 0 0 0 178 1136 M 230 1136 A 16 16 0 0 0 230 1152 M 274 1152 A 16 16 0 0 0 274 1136 M 142 1152 A 16 16 0 0 0 152 1160 L 168 1160 A 16 16 0 0 0 178 1152 M 230 1152 A 16 16 0 0 0 240 1160 L 264 1160 A 16 16 0 0 0 274 1152 M 24 1224 A 16 16 0 0 0 14 1232 M 24 1224 L 40 1224 M 50 1232 A 16 16 0 0 0 40 1224 M 14 1232 A 16 16 0 0 0 14 1248 M 50 1248 A 16 16 0 0 0 50 1232 M 72 1240 L 80 1240 M 14 1248 A 16 16 0 0 0 24 1256 L 40 1256 A 16 16 0 0 0 50 1248 M 16 1288 L 56 1288 M 66 1296 A 16 16 0 0 0 56 1288 M 6 1296 A 16 16 0 0 0 6 1312 M 66 1312 A 16 16 0 0 0 66 1296 M 80 1304 L 88 1304 M 6 1312 A 16 16 0 0 0 16 1320 L 56 1320 A 16 16 0 0 0 66 1312 M 16 1368 A 16 16 0 0 0 6 1376 M 16 1368 L 48 1368 M 58 1376 A 16 16 0 0 0 48 1368 M 6 1376 A 16 16 0 0 0 6 1392 M 58 1392 A 16 16 0 0 0 58 1376 M 6 1392 A 16 16 0 0 0 16 1400 L 48 1400 A 16 16 0 0 0 58 1392 M 24 1432 A 16 16 0 0 0 14 1440 M 24 1432 L 40 1432 M 50 1440 A 16 16 0 0 0 40 1432 M 136 1432 A 16 16 0 0 0 126 1440 M 136 1432 L 152 1432 M 162 1440 A 16 16 0 0 0 152 1432 M 14 1440 A 16 16 0 0 0 14 1456 M 50 1456 A 16 16 0 0 0 50 1440 M 126 1440 A 16 16 0 0 0 126 1456 M 162 1456 A 16 16 0 0 0 162 1440 M 14 1456 A 16 16 0 0 0 24 1464 L 40 1464 A 16 16 0 0 0 50 1456 M 126 1456 A 16 16 0 0 0 136 1464 L 152 1464 A 16 16 0 0 0 162 1456 M 16 1528 A 16 16 0 0 0 6 1536 M 16 1528 L 48 1528 M 58 1536 A 16 16 0 0 0 48 1528 M 6 1536 A 16 16 0 0 0 6 1552 M 58 1552 A 16 16 0 0 0 58 1536 M 6 1552 A 16 16 0 0 0 16 1560 L 48 1560 A 16 16 0 0 0 58 1552 M 128 1608 A 16 16 0 0 0 118 1616 M 128 1608 L 152 1608 M 162 1616 A 16 16 0 0 0 152 1608 M 118 1616 A 16 16 0 0 0 118 1632 M 162 1632 A 16 16 0 0 0 162 1616 M 118 1632 A 16 16 0 0 0 128 1640 L 152 1640 A 16 16 0 0 0 162 1632 M 16 1688 A 16 16 0 0 0 6 1696 M 16 1688 L 48 1688 M 56 1688 A 16 16 0 0 0 46 1696 M 56 1688 L 88 1688 M 96 1688 A 16 16 0 0 0 86 1696 M 96 1688 L 128 1688 M 136 1688 A 16 16 0 0 0 126 1696 M 136 1688 L 152 1688 M 162 1696 A 16 16 0 0 0 152 1688 M 160 1688 L 192 1688 M 202 1696 A 16 16 0 0 0 192 1688 M 200 1688 L 232 1688 M 242 1696 A 16 16 0 0 0 232 1688 M 6 1696 A 16 16 0 0 0 6 1712 M 46 1696 A 16 16 0 0 0 46 1712 M 86 1696 A 16 16 0 0 0 86 1712 M 126 1696 A 16 16 0 0 0 126 1712 M 202 1712 A 16 16 0 0 0 202 1696 M 242 1712 A 16 16 0 0 0 242 1696 M 6 1712 A 16 16 0 0 0 16 1720 L 40 1720 A 8 8 0 0 0 44 1712 M 46 1712 A 16 16 0 0 0 56 1720 L 80 1720 A 8 8 0 0 0 84 1712 M 86 1712 A 16 16 0 0 0 96 1720 L 120 1720 A 8 8 0 0 0 124 1712 M 126 1712 A 16 16 0 0 0 136 1720 L 160 1720 M 176 1720 L 192 1720 A 16 16 0 0 0 202 1712 M 208 1720 L 232 1720 A 16 16 0 0 0 242 1712 M 16 1768 A 16 16 0 0 0 6 1776 M 24 1768 A 16 16 0 0 0 16 1768 M 34 1776 A 16 16 0 0 0 24 1768 M 200 1768 A 16 16 0 0 0 190 1776 M 208 1768 A 16 16 0 0 0 200 1768 M 218 1776 A 16 16 0 0 0 208 1768 M 6 1776 A 16 16 0 0 0 6 1792 M 34 1792 A 16 16 0 0 0 34 1776 M 190 1776 A 16 16 0 0 0 190 1792 M 218 1792 A 16 16 0 0 0 218 1776 M 6 1792 A 16 16 0 0 0 16 1800 L 24 1800 A 16 16 0 0 0 34 1792 M 190 1792 A 16 16 0 0 0 200 1800 L 208 1800 A 16 16 0 0 0 218 1792 M 24 1832 A 16 16 0 0 0 14 1840 M 24 1832 L 40 1832 M 50 1840 A 16 16 0 0 0 40 1832 M 14 1840 A 16 16 0 0 0 14 1856 M 50 1856 A 16 16 0 0 0 50 1840 M 14 1856 A 16 16 0 0 0 24 1864 L 40 1864 A 16 16 0 0 0 50 1856 M 16 1912 A 16 16 0 0 0 6 1920 M 16 1912 L 40 1912 M 50 1920 A 16 16 0 0 0 40 1912 M 6 1920 A 16 16 0 0 0 6 1936 M 50 1936 A 16 16 0 0 0 50 1920 M 6 1936 A 16 16 0 0 0 16 1944 L 40 1944 A 16 16 0 0 0 50 1936 M 24 1992 A 16 16 0 0 0 14 2000 M 24 1992 L 56 1992 M 66 2000 A 16 16 0 0 0 56 1992 M 14 2000 A 16 16 0 0 0 14 2016 M 66 2016 A 16 16 0 0 0 66 2000 M 14 2016 A 16 16 0 0 0 24 2024 L 56 2024 A 16 16 0 0 0 66 2016 M 16 2056 A 16 16 0 0 0 6 2064 M 16 2056 L 40 2056 M 50 2064 A 16 16 0 0 0 40 2056 M 6 2064 A 16 16 0 0 0 6 2080 M 50 2080 A 16 16 0 0 0 50 2064 M 6 2080 A 16 16 0 0 0 16 2088 L 40 2088 A 16 16 0 0 0 50 2080 M 24 2120 A 16 16 0 0 0 14 2128 M 24 2120 L 48 2120 M 58 2128 A 16 16 0 0 0 48 2120 M 14 2128 A 16 16 0 0 0 14 2144 M 58 2144 A 16 16 0 0 0 58 2128 M 14 2144 A 16 16 0 0 0 24 2152 L 48 2152 A 16 16 0 0 0 58 2144 M 16 2200 L 56 2200 M 66 2208 A 16 16 0 0 0 56 2200 M 6 2208 A 16 16 0 0 0 6 2224 M 66 2224 A 16 16 0 0 0 66 2208 M 6 2224 A 16 16 0 0 0 16 2232 L 56 2232 A 16 16 0 0 0 66 2224 M 16 2280 A 16 16 0 0 0 6 2288 M 16 2280 L 48 2280 M 58 2288 A 16 16 0 0 0 48 2280 M 6 2288 A 16 16 0 0 0 6 2304 M 58 2304 A 16 16 0 0 0 58 2288 M 6 2304 A 16 16 0 0 0 16 2312 L 48 2312 A 16 16 0 0 0 58 2304 M 16 2360 A 16 16 0 0 0 6 2368 M 16 2360 L 40 2360 M 50 2368 A 16 16 0 0 0 40 2360 M 6 2368 A 16 16 0 0 0 6 2384 M 32 2384 L 40 2384 M 50 2384 A 16 16 0 0 0 50 2368 M 6 2384 A 16 16 0 0 0 16 2392 L 40 2392 A 16 16 0 0 0 50 2384 M 16 2456 L 48 2456 M 80 2456 A 16 16 0 0 0 70 2464 M 80 2456 L 192 2456 M 196 2464 A 8 8 0 0 0 192 2456 M 72 2480 L 88 2480 M 160 2480 L 192 2480 M 16 2488 L 48 2488 M 80 2536 A 16 16 0 0 0 70 2544 M 80 2536 L 192 2536 M 196 2544 A 8 8 0 0 0 192 2536 M 72 2560 L 88 2560 M 160 2560 L 192 2560 M 16 2600 A 16 16 0 0 0 6 2608 M 16 2600 L 56 2600 M 66 2608 A 16 16 0 0 0 56 2600 M 6 2608 A 16 16 0 0 0 6 2624 M 66 2624 A 16 16 0 0 0 66 2608 M 6 2624 A 16 16 0 0 0 16 2632 L 56 2632 A 16 16 0 0 0 66 2624 M 16 2728 A 16 16 0 0 0 6 2736 M 16 2728 L 56 2728 M 66 2736 A 16 16 0 0 0 56 2728 M 6 2736 A 16 16 0 0 0 6 2752 M 66 2752 A 16 16 0 0 0 66 2736 M 6 2752 A 16 16 0 0 0 16 2760 L 56 2760 A 16 16 0 0 0 66 2752 M 16 2792 A 16 16 0 0 0 6 2800 M 16 2792 L 48 2792 M 58 2800 A 16 16 0 0 0 48 2792 M 6 2800 A 16 16 0 0 0 6 2816 M 58 2816 A 16 16 0 0 0 58 2800 M 6 2816 A 16 16 0 0 0 16 2824 L 48 2824 A 16 16 0 0 0 58 2816 M 48 2872 L 80 2872 M 48 2904 L 80 2904 M 64 2952 A 16 16 0 0 0 54 2960 M 72 2952 A 16 16 0 0 0 64 2952 M 82 2960 A 16 16 0 0 0 72 2952 M 54 2960 A 16 16 0 0 0 54 2976 M 64 2976 L 72 2976 M 82 2976 A 16 16 0 0 0 82 2960 M 54 2976 A 16 16 0 0 0 64 2984 L 72 2984 A 16 16 0 0 0 82 2976 M 128 3032 A 16 16 0 0 0 118 3040 M 136 3032 A 16 16 0 0 0 128 3032 M 146 3040 A 16 16 0 0 0 136 3032 M 118 3040 A 16 16 0 0 0 118 3056 M 146 3056 A 16 16 0 0 0 146 3040 M 118 3056 A 16 16 0 0 0 128 3064 L 136 3064 A 16 16 0 0 0 146 3056 M 152 3112 L 184 3112 M 152 3144 L 184 3144 M 32 3192 A 16 16 0 0 0 22 3200 M 32 3192 L 48 3192 M 58 3200 A 16 16 0 0 0 48 3192 M 112 3192 A 16 16 0 0 0 102 3200 M 112 3192 L 128 3192 M 138 3200 A 16 16 0 0 0 128 3192 M 22 3200 A 16 16 0 0 0 22 3216 M 58 3216 A 16 16 0 0 0 58 3200 M 102 3200 A 16 16 0 0 0 102 3216 M 112 3216 L 120 3216 M 138 3216 A 16 16 0 0 0 138 3200 M 22 3216 A 16 16 0 0 0 32 3224 L 48 3224 A 16 16 0 0 0 58 3216 M 102 3216 A 16 16 0 0 0 112 3224 L 128 3224 A 16 16 0 0 0 138 3216 M 88 3272 A 16 16 0 0 0 78 3280 M 88 3272 L 104 3272 M 114 3280 A 16 16 0 0 0 104 3272 M 78 3280 A 16 16 0 0 0 78 3296 M 88 3288 L 96 3288 M 114 3296 A 16 16 0 0 0 114 3280 M 78 3296 A 16 16 0 0 0 88 3304 L 104 3304 A 16 16 0 0 0 114 3296 M 168 3352 A 16 16 0 0 0 158 3360 M 168 3352 L 184 3352 M 194 3360 A 16 16 0 0 0 184 3352 M 158 3360 A 16 16 0 0 0 158 3376 M 194 3376 A 16 16 0 0 0 194 3360 M 158 3376 A 16 16 0 0 0 168 3384 L 184 3384 A 16 16 0 0 0 194 3376 M 96 3432 A 16 16 0 0 0 86 3440 M 104 3432 A 16 16 0 0 0 96 3432 M 114 3440 A 16 16 0 0 0 104 3432 M 86 3440 A 16 16 0 0 0 86 3456 M 96 3448 L 104 3448 M 114 3456 A 16 16 0 0 0 114 3440 M 86 3456 A 16 16 0 0 0 96 3464 L 104 3464 A 16 16 0 0 0 114 3456 M 160 3496 A 16 16 0 0 0 150 3504 M 168 3496 A 16 16 0 0 0 160 3496 M 150 3504 A 16 16 0 0 0 150 3520 A 16 16 0 0 0 160 3528 L 168 3528 M 64 3560 L 88 3560 M 98 3568 A 16 16 0 0 0 88 3560 M 54 3568 A 16 16 0 0 0 54 3584 M 98 3584 A 16 16 0 0 0 98 3568 M 54 3584 A 16 16 0 0 0 64 3592 L 88 3592 A 16 16 0 0 0 98 3584 M 96 3640 L 120 3640 M 96 3672 L 120 3672 M 224 3720 A 16 16 0 0 0 214 3728 M 232 3720 A 16 16 0 0 0 224 3720 M 242 3728 A 16 16 0 0 0 232 3720 M 214 3728 A 16 16 0 0 0 214 3744 M 228 3728 L 228 3744 M 242 3744 A 16 16 0 0 0 242 3728 M 214 3744 A 16 16 0 0 0 224 3752 L 232 3752 A 16 16 0 0 0 242 3744 M 144 3800 A 16 16 0 0 0 134 3808 M 152 3800 A 16 16 0 0 0 144 3800 M 162 3808 A 16 16 0 0 0 152 3800 M 134 3808 A 16 16 0 0 0 134 3824 M 162 3824 A 16 16 0 0 0 162 3808 M 134 3824 A 16 16 0 0 0 144 3832 L 152 3832 A 16 16 0 0 0 162 3824 M 16 3880 A 16 16 0 0 0 6 3888 M 16 3880 L 32 3880 M 42 3888 A 16 16 0 0 0 32 3880 M 176 3880 A 16 16 0 0 0 166 3888 M 176 3880 L 192 3880 M 202 3888 A 16 16 0 0 0 192 3880 M 6 3888 A 16 16 0 0 0 6 3904 M 24 3904 L 32 3904 M 42 3904 A 16 16 0 0 0 42 3888 M 166 3888 A 16 16 0 0 0 166 3904 M 176 3904 L 184 3904 M 202 3904 A 16 16 0 0 0 202 3888 M 6 3904 A 16 16 0 0 0 16 3912 L 32 3912 A 16 16 0 0 0 42 3904 M 166 3904 A 16 16 0 0 0 176 3912 L 192 3912 A 16 16 0 0 0 202 3904 M 104 3976 A 16 16 0 0 0 94 3984 M 104 3976 L 120 3976 M 130 3984 A 16 16 0 0 0 120 3976 M 94 3984 A 16 16 0 0 0 94 4000 M 130 4000 A 16 16 0 0 0 130 3984 M 94 4000 A 16 16 0 0 0 104 4008 L 120 4008 A 16 16 0 0 0 130 4000 M 224 4056 A 16 16 0 0 0 214 4064 M 232 4056 A 16 16 0 0 0 224 4056 M 242 4064 A 16 16 0 0 0 232 4056 M 200 4064 L 208 4080 M 214 4064 A 16 16 0 0 0 214 4080 M 242 4080 A 16 16 0 0 0 242 4064 M 248 4080 L 256 4064 M 214 4080 A 16 16 0 0 0 224 4088 L 232 4088 A 16 16 0 0 0 242 4080 M 144 4136 A 16 16 0 0 0 134 4144 M 152 4136 A 16 16 0 0 0 144 4136 M 162 4144 A 16 16 0 0 0 152 4136 M 134 4144 A 16 16 0 0 0 134 4160 M 162 4160 A 16 16 0 0 0 162 4144 M 134 4160 A 16 16 0 0 0 144 4168 L 152 4168 A 16 16 0 0 0 162 4160 M 240 4216 A 16 16 0 0 0 230 4224 M 240 4216 L 280 4216 M 290 4224 A 16 16 0 0 0 280 4216 M 230 4224 A 16 16 0 0 0 230 4240 M 248 4232 L 256 4232 M 290 4240 A 16 16 0 0 0 290 4224 M 230 4240 A 16 16 0 0 0 240 4248 L 280 4248 A 16 16 0 0 0 290 4240 M 288 4296 A 16 16 0 0 0 278 4304 M 288 4296 L 304 4296 M 314 4304 A 16 16 0 0 0 304 4296 M 264 4320 L 272 4304 M 278 4304 A 16 16 0 0 0 278 4320 M 304 4320 L 312 4304 M 314 4320 A 16 16 0 0 0 314 4304 M 278 4320 A 16 16 0 0 0 288 4328 L 304 4328 A 16 16 0 0 0 314 4320 M 160 4376 A 16 16 0 0 0 150 4384 M 160 4376 L 176 4376 M 186 4384 A 16 16 0 0 0 176 4376 M 150 4384 A 16 16 0 0 0 150 4400 M 186 4400 A 16 16 0 0 0 186 4384 M 150 4400 A 16 16 0 0 0 160 4408 L 176 4408 A 16 16 0 0 0 186 4400 M 128 4456 A 16 16 0 0 0 118 4464 M 136 4456 A 16 16 0 0 0 128 4456 M 146 4464 A 16 16 0 0 0 136 4456 M 118 4464 A 16 16 0 0 0 118 4480 M 128 4480 L 136 4480 M 146 4480 A 16 16 0 0 0 146 4464 M 118 4480 A 16 16 0 0 0 128 4488 L 136 4488 A 16 16 0 0 0 146 4480 M 112 4536 A 16 16 0 0 0 102 4544 M 112 4536 L 136 4536 M 146 4544 A 16 16 0 0 0 136 4536 M 102 4544 A 16 16 0 0 0 102 4560 M 146 4560 A 16 16 0 0 0 146 4544 M 102 4560 A 16 16 0 0 0 112 4568 L 136 4568 A 16 16 0 0 0 146 4560 M 120 4600 A 16 16 0 0 0 110 4608 M 120 4600 L 144 4600 M 154 4608 A 16 16 0 0 0 144 4600 M 110 4608 A 16 16 0 0 0 110 4624 M 154 4624 A 16 16 0 0 0 154 4608 M 110 4624 A 16 16 0 0 0 120 4632 L 144 4632 A 16 16 0 0 0 154 4624 M 104 4680 A 16 16 0 0 0 94 4688 M 104 4680 L 128 4680 M 138 4688 A 16 16 0 0 0 128 4680 M 94 4688 A 16 16 0 0 0 94 4704 M 138 4704 A 16 16 0 0 0 138 4688 M 94 4704 A 16 16 0 0 0 104 4712 L 128 4712 A 16 16 0 0 0 138 4704 M 32 4760 A 16 16 0 0 0 24 4760 M 16 4776 L 24 4776 M 24 4784 L 32 4784 M 32 4776 L 40 4776 M 24 4792 L 32 4792 M 172 4832 L 172 4848 M 188 4832 L 188 4848 M 112 4888 A 16 16 0 0 0 102 4896 M 120 4888 A 16 16 0 0 0 112 4888 M 130 4896 A 16 16 0 0 0 120 4888 M 168 4888 A 16 16 0 0 0 158 4896 M 176 4888 A 16 16 0 0 0 168 4888 M 186 4896 A 16 16 0 0 0 176 4888 M 224 4888 A 16 16 0 0 0 214 4896 M 232 4888 A 16 16 0 0 0 224 4888 M 242 4896 A 16 16 0 0 0 232 4888 M 280 4888 A 16 16 0 0 0 270 4896 M 288 4888 A 16 16 0 0 0 280 4888 M 298 4896 A 16 16 0 0 0 288 4888 M 102 4896 A 16 16 0 0 0 102 4912 M 104 4904 L 112 4904 M 112 4912 L 120 4912 M 120 4904 L 128 4904 M 130 4912 A 16 16 0 0 0 130 4896 M 158 4896 A 16 16 0 0 0 158 4912 M 160 4904 L 168 4904 M 168 4912 L 176 4912 M 176 4904 L 184 4904 M 186 4912 A 16 16 0 0 0 186 4896 M 214 4896 A 16 16 0 0 0 214 4912 M 216 4904 L 224 4904 M 224 4912 L 232 4912 M 232 4904 L 240 4904 M 242 4912 A 16 16 0 0 0 242 4896 M 270 4896 A 16 16 0 0 0 270 4912 M 272 4904 L 280 4904 M 280 4912 L 288 4912 M 288 4904 L 296 4904 M 298 4912 A 16 16 0 0 0 298 4896 M 102 4912 A 16 16 0 0 0 112 4920 L 120 4920 A 16 16 0 0 0 130 4912 M 158 4912 A 16 16 0 0 0 168 4920 L 176 4920 A 16 16 0 0 0 186 4912 M 214 4912 A 16 16 0 0 0 224 4920 L 232 4920 A 16 16 0 0 0 242 4912 M 270 4912 A 16 16 0 0 0 280 4920 L 288 4920 A 16 16 0 0 0 298 4912 M 104 4968 A 16 16 0 0 0 94 4976 M 104 4968 L 120 4968 M 130 4976 A 16 16 0 0 0 120 4968 M 160 4968 A 16 16 0 0 0 150 4976 M 160 4968 L 176 4968 M 186 4976 A 16 16 0 0 0 176 4968 M 256 4968 A 16 16 0 0 0 246 4976 M 256 4968 L 272 4968 M 282 4976 A 16 16 0 0 0 272 4968 M 94 4976 A 16 16 0 0 0 94 4992 M 112 4992 L 120 4992 M 130 4992 A 16 16 0 0 0 130 4976 M 150 4976 A 16 16 0 0 0 150 4992 M 168 4992 L 176 4992 M 186 4992 A 16 16 0 0 0 186 4976 M 216 4984 L 224 4984 M 246 4976 A 16 16 0 0 0 246 4992 M 264 4992 L 272 4992 M 282 4992 A 16 16 0 0 0 282 4976 M 94 4992 A 16 16 0 0 0 104 5000 L 120 5000 A 16 16 0 0 0 130 4992 M 150 4992 A 16 16 0 0 0 160 5000 L 176 5000 A 16 16 0 0 0 186 4992 M 246 4992 A 16 16 0 0 0 256 5000 L 272 5000 A 16 16 0 0 0 282 4992 M 64 5032 A 16 16 0 0 0 54 5040 M 72 5032 A 16 16 0 0 0 64 5032 M 82 5040 A 16 16 0 0 0 72 5032 M 54 5040 A 16 16 0 0 0 54 5056 M 82 5056 A 16 16 0 0 0 82 5040 M 54 5056 A 16 16 0 0 0 64 5064 L 72 5064 A 16 16 0 0 0 82 5056 M 96 5096 A 16 16 0 0 0 86 5104 M 96 5096 L 112 5096 M 122 5104 A 16 16 0 0 0 112 5096 M 86 5104 A 16 16 0 0 0 86 5120 M 88 5112 L 96 5112 M 122 5120 A 16 16 0 0 0 122 5104 M 86 5120 A 16 16 0 0 0 96 5128 L 112 5128 A 16 16 0 0 0 122 5120 M 88 5160 A 16 16 0 0 0 78 5168 M 96 5160 A 16 16 0 0 0 88 5160 M 106 5168 A 16 16 0 0 0 96 5160 M 78 5168 A 16 16 0 0 0 78 5184 M 106 5184 A 16 16 0 0 0 106 5168 M 78 5184 A 16 16 0 0 0 88 5192 L 96 5192 A 16 16 0 0 0 106 5184 M 80 5224 A 16 16 0 0 0 70 5232 M 80 5224 L 104 5224 M 114 5232 A 16 16 0 0 0 104 5224 M 56 5232 L 64 5248 M 70 5232 A 16 16 0 0 0 70 5248 M 114 5248 A 16 16 0 0 0 114 5232 M 120 5248 L 128 5232 M 70 5248 A 16 16 0 0 0 80 5256 L 104 5256 A 16 16 0 0 0 114 5248 M 80 5304 A 16 16 0 0 0 70 5312 M 88 5304 A 16 16 0 0 0 80 5304 M 98 5312 A 16 16 0 0 0 88 5304 M 70 5312 A 16 16 0 0 0 70 5328 M 88 5320 L 96 5320 M 98 5328 A 16 16 0 0 0 98 5312 M 70 5328 A 16 16 0 0 0 80 5336 L 88 5336 A 16 16 0 0 0 98 5328 M 88 5384 A 16 16 0 0 0 78 5392 M 96 5384 A 16 16 0 0 0 88 5384 M 106 5392 A 16 16 0 0 0 96 5384 M 78 5392 A 16 16 0 0 0 78 5408 M 80 5400 L 88 5400 M 96 5408 A 16 16 0 0 0 88 5400 M 96 5400 L 104 5400 M 106 5408 A 16 16 0 0 0 106 5392 M 78 5408 A 16 16 0 0 0 88 5416 L 96 5416 A 16 16 0 0 0 106 5408 M 48 5464 A 16 16 0 0 0 38 5472 M 48 5464 L 64 5464 M 74 5472 A 16 16 0 0 0 64 5464 M 38 5472 A 16 16 0 0 0 38 5488 M 74 5488 A 16 16 0 0 0 74 5472 M 38 5488 A 16 16 0 0 0 48 5496 L 64 5496 A 16 16 0 0 0 74 5488 M 64 5544 A 16 16 0 0 0 54 5552 M 64 5544 L 80 5544 M 90 5552 A 16 16 0 0 0 80 5544 M 54 5552 A 16 16 0 0 0 54 5568 M 90 5568 A 16 16 0 0 0 90 5552 M 54 5568 A 16 16 0 0 0 64 5576 L 80 5576 A 16 16 0 0 0 90 5568 M 116 5676 L 116 5680 M 120 5672 A 4 4 0 0 0 116 5676 M 120 5672 L 160 5672 M 164 5676 L 164 5696 M 164 5676 A 4 4 0 0 0 160 5672 M 164 5680 L 164 5696 M 116 5696 L 116 5700 A 4 4 0 0 0 120 5704 L 160 5704 M 164 5696 L 164 5700 M 160 5704 A 4 4 0 0 0 164 5700 M 128 5736 L 136 5736 M 160 5736 L 168 5736 M 40 5880 A 16 16 0 0 0 30 5888 M 48 5880 A 16 16 0 0 0 40 5880 M 58 5888 A 16 16 0 0 0 48 5880 M 30 5888 A 16 16 0 0 0 30 5904 M 58 5904 A 16 16 0 0 0 58 5888 M 30 5904 A 16 16 0 0 0 40 5912 L 48 5912 A 16 16 0 0 0 58 5904 M 144 5944 A 16 16 0 0 0 134 5952 M 152 5944 A 16 16 0 0 0 144 5944 M 162 5952 A 16 16 0 0 0 152 5944 M 134 5952 A 16 16 0 0 0 134 5968 M 144 5968 L 152 5968 M 162 5968 A 16 16 0 0 0 162 5952 M 134 5968 A 16 16 0 0 0 144 5976 L 152 5976 A 16 16 0 0 0 162 5968 M 168 6024 A 16 16 0 0 0 158 6032 M 176 6024 A 16 16 0 0 0 168 6024 M 186 6032 A 16 16 0 0 0 176 6024 M 158 6032 A 16 16 0 0 0 158 6048 M 186 6048 A 16 16 0 0 0 186 6032 M 158 6048 A 16 16 0 0 0 168 6056 L 176 6056 A 16 16 0 0 0 186 6048 M 60 6140 L 60 6160 M 64 6136 A 4 4 0 0 0 60 6140 M 64 6136 L 88 6136 M 98 6144 A 16 16 0 0 0 88 6136 M 54 6144 A 16 16 0 0 0 54 6160 M 60 6144 L 60 6160 M 72 6160 L 80 6160 M 92 6144 L 92 6160 M 98 6160 A 16 16 0 0 0 98 6144 M 54 6160 A 16 16 0 0 0 64 6168 L 88 6168 A 16 16 0 0 0 98 6160 M 64 6232 A 16 16 0 0 0 54 6240 M 72 6232 A 16 16 0 0 0 64 6232 M 82 6240 A 16 16 0 0 0 72 6232 M 40 6240 L 48 6256 M 54 6240 A 16 16 0 0 0 54 6256 M 82 6256 A 16 16 0 0 0 82 6240 M 88 6256 L 96 6240 M 54 6256 A 16 16 0 0 0 64 6264 L 72 6264 A 16 16 0 0 0 82 6256 M 176 6312 A 16 16 0 0 0 166 6320 M 184 6312 A 16 16 0 0 0 176 6312 M 194 6320 A 16 16 0 0 0 184 6312 M 166 6320 A 16 16 0 0 0 166 6336 M 194 6336 A 16 16 0 0 0 194 6320 M 166 6336 A 16 16 0 0 0 176 6344 L 184 6344 A 16 16 0 0 0 194 6336 M 80 6392 L 88 6392 M 232 6392 L 240 6392 M 312 6392 L 320 6392 M 128 6440 A 16 16 0 0 0 118 6448 M 136 6440 A 16 16 0 0 0 128 6440 M 146 6448 A 16 16 0 0 0 136 6440 M 118 6448 A 16 16 0 0 0 118 6464 M 146 6464 A 16 16 0 0 0 146 6448 M 118 6464 A 16 16 0 0 0 128 6472 L 136 6472 A 16 16 0 0 0 146 6464 M 88 6632 A 16 16 0 0 0 78 6640 M 88 6632 L 160 6632 M 170 6640 A 16 16 0 0 0 160 6632 M 78 6640 A 16 16 0 0 0 78 6656 M 170 6656 A 16 16 0 0 0 170 6640 M 78 6656 A 16 16 0 0 0 88 6664 L 160 6664 A 16 16 0 0 0 170 6656 M 48 6824 A 16 16 0 0 0 38 6832 M 48 6824 L 72 6824 M 82 6832 A 16 16 0 0 0 72 6824 M 38 6832 A 16 16 0 0 0 38 6848 M 82 6848 A 16 16 0 0 0 82 6832 M 38 6848 A 16 16 0 0 0 48 6856 L 72 6856 A 16 16 0 0 0 82 6848 M 56 7256 L 96 7256 M 0 7280 L 8 7264 M 16 7280 L 24 7264 L 32 7280 M 72 7280 L 80 7280 M 120 7280 L 128 7264 L 136 7280 M 144 7264 L 152 7280 M 56 7288 L 96 7288 M 56 7320 A 16 16 0 0 0 46 7328 M 56 7320 L 80 7320 M 90 7328 A 16 16 0 0 0 80 7320 M 0 7344 L 8 7328 M 16 7344 L 24 7328 L 32 7344 M 46 7328 A 16 16 0 0 0 46 7344 M 90 7344 A 16 16 0 0 0 90 7328 M 104 7344 L 112 7328 L 120 7344 M 128 7328 L 136 7344 M 46 7344 A 16 16 0 0 0 56 7352 L 80 7352 A 4 4 0 0 0 84 7348 M 84 7344 L 84 7348 M 16 7384 A 16 16 0 0 0 6 7392 M 16 7384 L 56 7384 M 66 7392 A 16 16 0 0 0 56 7384 M 6 7392 A 16 16 0 0 0 6 7408 M 66 7408 A 16 16 0 0 0 66 7392 M 6 7408 A 16 16 0 0 0 16 7416 L 56 7416 A 16 16 0 0 0 66 7408 M 24 7464 A 16 16 0 0 0 14 7472 M 32 7464 A 16 16 0 0 0 24 7464 M 42 7472 A 16 16 0 0 0 32 7464 M 14 7472 A 16 16 0 0 0 14 7488 M 42 7488 A 16 16 0 0 0 42 7472 M 14 7488 A 16 16 0 0 0 24 7496 L 32 7496 A 16 16 0 0 0 42 7488 M 16 7544 A 16 16 0 0 0 6 7552 M 16 7544 L 40 7544 M 50 7552 A 16 16 0 0 0 40 7544 M 6 7552 A 16 16 0 0 0 6 7568 M 50 7568 A 16 16 0 0 0 50 7552 M 6 7568 A 16 16 0 0 0 16 7576 L 40 7576 A 16 16 0 0 0 50 7568 M 16 7624 A 16 16 0 0 0 6 7632 M 24 7624 A 16 16 0 0 0 16 7624 M 34 7632 A 16 16 0 0 0 24 7624 M 6 7632 A 16 16 0 0 0 6 7648 M 16 7648 L 24 7648 M 34 7648 A 16 16 0 0 0 34 7632 M 6 7648 A 16 16 0 0 0 16 7656 L 24 7656 A 16 16 0 0 0 34 7648 M 16 7704 A 16 16 0 0 0 6 7712 M 16 7704 L 40 7704 M 50 7712 A 16 16 0 0 0 40 7704 M 6 7712 A 16 16 0 0 0 6 7728 M 50 7728 A 16 16 0 0 0 50 7712 M 6 7728 A 16 16 0 0 0 16 7736 L 40 7736 A 16 16 0 0 0 50 7728 M 16 7784 A 16 16 0 0 0 6 7792 M 16 7784 L 48 7784 M 58 7792 A 16 16 0 0 0 48 7784 M 6 7792 A 16 16 0 0 0 6 7808 M 58 7808 A 16 16 0 0 0 58 7792 M 6 7808 A 16 16 0 0 0 16 7816 L 48 7816 A 16 16 0 0 0 58 7808 M 0 7856 L 8 7840 M 64 7840 L 72 7856 M 32 7896 L 96 7896 M 8 7904 L 16 7920 L 24 7920 M 104 7920 L 112 7920 L 120 7904 M 24 7920 L 32 7928 L 96 7928 L 104 7920 M 32 7992 A 16 16 0 0 0 22 8000 M 32 7992 L 72 7992 M 22 8000 A 16 16 0 0 0 22 8016 A 16 16 0 0 0 32 8024 L 72 8024 M 24 8072 A 16 16 0 0 0 14 8080 M 24 8072 L 48 8072 M 58 8080 A 16 16 0 0 0 48 8072 M 14 8080 A 16 16 0 0 0 14 8096 M 58 8096 A 16 16 0 0 0 58 8080 M 14 8096 A 16 16 0 0 0 24 8104 L 48 8104 A 16 16 0 0 0 58 8096 M 32 8136 A 16 16 0 0 0 22 8144 M 40 8136 A 16 16 0 0 0 32 8136 M 50 8144 A 16 16 0 0 0 40 8136 M 22 8144 A 16 16 0 0 0 22 8160 M 50 8160 A 16 16 0 0 0 50 8144 M 22 8160 A 16 16 0 0 0 32 8168 L 40 8168 A 16 16 0 0 0 50 8160 M 16 8184 A 16 16 0 0 0 6 8192 M 24 8184 A 16 16 0 0 0 16 8184 M 34 8192 A 16 16 0 0 0 24 8184 M 6 8192 A 16 16 0 0 0 6 8208 M 16 8208 L 24 8208 M 34 8208 A 16 16 0 0 0 34 8192 M 6 8208 A 16 16 0 0 0 16 8216 L 24 8216 A 16 16 0 0 0 34 8208 M 16 8248 A 16 16 0 0 0 6 8256 M 16 8248 L 40 8248 M 50 8256 A 16 16 0 0 0 40 8248 M 6 8256 A 16 16 0 0 0 6 8272 M 50 8272 A 16 16 0 0 0 50 8256 M 6 8272 A 16 16 0 0 0 16 8280 L 40 8280 A 16 16 0 0 0 50 8272 M 16 8312 A 16 16 0 0 0 6 8320 M 16 8312 L 56 8312 M 66 8320 A 16 16 0 0 0 56 8312 M 6 8320 A 16 16 0 0 0 6 8336 M 66 8336 A 16 16 0 0 0 66 8320 M 6 8336 A 16 16 0 0 0 16 8344 L 56 8344 A 16 16 0 0 0 66 8336 M 16 8376 A 16 16 0 0 0 6 8384 M 24 8376 A 16 16 0 0 0 16 8376 M 34 8384 A 16 16 0 0 0 24 8376 M 6 8384 A 16 16 0 0 0 6 8400 M 34 8400 A 16 16 0 0 0 34 8384 M 6 8400 A 16 16 0 0 0 16 8408 L 24 8408 A 16 16 0 0 0 34 8400 M 16 8424 L 24 8424 M 34 8432 A 16 16 0 0 0 24 8424 M 6 8432 A 16 16 0 0 0 6 8448 M 34 8448 A 16 16 0 0 0 34 8432 M 6 8448 A 16 16 0 0 0 16 8456 L 24 8456 A 16 16 0 0 0 34 8448 M 16 8488 A 16 16 0 0 0 6 8496 M 16 8488 L 56 8488 M 66 8496 A 16 16 0 0 0 56 8488 M 6 8496 A 16 16 0 0 0 6 8512 M 32 8512 L 40 8512 M 66 8512 A 16 16 0 0 0 66 8496 M 6 8512 A 16 16 0 0 0 16 8520 L 56 8520 A 16 16 0 0 0 66 8512 M 16 8568 A 16 16 0 0 0 6 8576 M 24 8568 A 16 16 0 0 0 16 8568 M 34 8576 A 16 16 0 0 0 24 8568 M 6 8576 A 16 16 0 0 0 6 8592 M 16 8592 L 24 8592 M 34 8592 A 16 16 0 0 0 34 8576 M 6 8592 A 16 16 0 0 0 16 8600 L 24 8600 A 16 16 0 0 0 34 8592 M 16 8632 A 16 16 0 0 0 6 8640 M 24 8632 A 16 16 0 0 0 16 8632 M 34 8640 A 16 16 0 0 0 24 8632 M 6 8640 A 16 16 0 0 0 6 8656 M 16 8656 L 24 8656 M 34 8656 A 16 16 0 0 0 34 8640 M 6 8656 A 16 16 0 0 0 16 8664 L 24 8664 A 16 16 0 0 0 34 8656 M 16 8760 A 16 16 0 0 0 6 8768 M 24 8760 A 16 16 0 0 0 16 8760 M 34 8768 A 16 16 0 0 0 24 8760 M 6 8768 A 16 16 0 0 0 6 8784 M 34 8784 A 16 16 0 0 0 34 8768 M 6 8784 A 16 16 0 0 0 16 8792 L 24 8792 A 16 16 0 0 0 34 8784 M 24 8824 A 16 16 0 0 0 14 8832 M 32 8824 A 16 16 0 0 0 24 8824 M 42 8832 A 16 16 0 0 0 32 8824 M 14 8832 A 16 16 0 0 0 14 8848 M 42 8848 A 16 16 0 0 0 42 8832 M 14 8848 A 16 16 0 0 0 24 8856 L 32 8856 A 16 16 0 0 0 42 8848 M 24 8904 A 16 16 0 0 0 14 8912 M 32 8904 A 16 16 0 0 0 24 8904 M 42 8912 A 16 16 0 0 0 32 8904 M 14 8912 A 16 16 0 0 0 14 8928 M 16 8920 L 24 8920 M 42 8928 A 16 16 0 0 0 42 8912 M 14 8928 A 16 16 0 0 0 24 8936 L 32 8936 A 16 16 0 0 0 42 8928 M 24 8968 A 16 16 0 0 0 14 8976 M 32 8968 A 16 16 0 0 0 24 8968 M 42 8976 A 16 16 0 0 0 32 8968 M 14 8976 A 16 16 0 0 0 14 8992 M 42 8992 A 16 16 0 0 0 42 8976 M 14 8992 A 16 16 0 0 0 24 9000 L 32 9000 A 16 16 0 0 0 42 8992 M 24 9048 A 16 16 0 0 0 14 9056 M 32 9048 A 16 16 0 0 0 24 9048 M 42 9056 A 16 16 0 0 0 32 9048 M 14 9056 A 16 16 0 0 0 14 9072 M 16 9064 L 32 9064 M 42 9072 A 16 16 0 0 0 42 9056 M 14 9072 A 16 16 0 0 0 24 9080 L 32 9080 A 16 16 0 0 0 42 9072 M 16 9192 A 16 16 0 0 0 6 9200 M 24 9192 A 16 16 0 0 0 16 9192 M 34 9200 A 16 16 0 0 0 24 9192 M 6 9200 A 16 16 0 0 0 6 9216 M 34 9216 A 16 16 0 0 0 34 9200 M 6 9216 A 16 16 0 0 0 16 9224 L 24 9224 A 16 16 0 0 0 34 9216 M 16 9256 L 32 9256 M 16 9288 L 32 9288" fill="none"/>
<path d="" fill="none" stroke-dasharray="3 3"/>
<line fill="none" marker-end="url(#triangle)" stroke-dasharray="3 3" x1="96" x2="124" y1="1304" y2="1304"/>
<line marker-end="url(#triangle)" x1="160" x2="172" y1="6392" y2="6392"/>
<line marker-end="url(#triangle)" x1="232" x2="228" y1="6392" y2="6392"/>
<text x="2" y="12">
https:
</text>
<text x="58" y="12">
/raw.githubusercontent.com/MartinMinkov/ASCII-Copypasta/master/ASCIICopypasta/app/src/main/assets/memes.txt
</text>
<text x="2" y="44">
4chan_memes
</text>
<text x="18" y="92">
°
</text>
<text x="34" y="92">
ʖ
</text>
<text x="50" y="92">
°
</text>
<text x="2" y="124">
reddit_memes
</text>
<text x="10" y="156">
,
</text>
<text x="18" y="172">
↑
</text>
<text x="34" y="172">
ʖ
</text>
<text x="50" y="172">
↑
</text>
<text x="2" y="220">
twitch_memes
</text>
<text x="2" y="252">
─=≡Σ
</text>
<text x="50" y="252">
°
</text>
<text x="66" y="252">
ʖ
</text>
<text x="82" y="252">
°
</text>
<text x="2" y="300">
twitch_memes
</text>
<text x="2" y="332">
█▄
</text>
<text x="34" y="332">
°
</text>
<text x="50" y="332">
ʖ
</text>
<text x="66" y="332">
°
</text>
<text x="82" y="332">
▄█
</text>
<text x="106" y="332">
yeah i work out
</text>
<text x="42" y="396">
,
</text>
<text x="82" y="396">
.
</text>
<text x="2" y="412">
･｡ﾟ[$(
</text>
<text x="58" y="412">
°
</text>
<text x="74" y="412">
ʖ
</text>
<text x="90" y="412">
°)$]｡ﾟ.*
</text>
<text x="42" y="428">
`
</text>
<text x="10" y="476">
⌐■
</text>
<text x="34" y="476">
■
</text>
<text x="10" y="556">
⌐■
</text>
<text x="34" y="556">
■
</text>
<text x="58" y="556">
♪♬
</text>
<text x="10" y="636">
˚ㄥ
</text>
<text x="42" y="636">
˚
</text>
<text x="2" y="716">
凸
</text>
<text x="26" y="716">
•
</text>
<text x="42" y="716">
•
</text>
<text x="58" y="716">
凸
</text>
<text x="2" y="796">
┌
</text>
<text x="18" y="796">
•ʖ•
</text>
<text x="50" y="796">
┐
</text>
<text x="2" y="860">
໒
</text>
<text x="18" y="860">
•
</text>
<text x="34" y="860">
ʖ•
</text>
<text x="58" y="860">
७
</text>
<text x="10" y="940">
✖
</text>
<text x="26" y="940">
✖
</text>
<text x="2" y="1004">
⊂
</text>
<text x="18" y="1004">
◣
</text>
<text x="34" y="1004">
◢
</text>
<text x="50" y="1004">
つ
</text>
<text x="2" y="1052">
reddit_memes
</text>
<text x="2" y="1084">
¯
</text>
<text x="42" y="1084">
ツ
</text>
<text x="82" y="1084">
¯
</text>
<text x="2" y="1148">
Meh
</text>
<text x="34" y="1148">
¯
</text>
<text x="58" y="1148">
(ツ)
</text>
<text x="106" y="1148">
¯
</text>
<text x="122" y="1148">
ヽ
</text>
<text x="146" y="1148">
。
</text>
<text x="170" y="1148">
°
</text>
<text x="186" y="1148">
ノ
</text>
<text x="210" y="1148">
ヾ
</text>
<text x="234" y="1148">
ｏ･ω･
</text>
<text x="282" y="1148">
ﾉ
</text>
<text x="2" y="1212">
twitch_memes
</text>
<text x="2" y="1244">
╰
</text>
<text x="18" y="1244">
⇀︿⇀
</text>
<text x="58" y="1244">
つ
</text>
<text x="82" y="1244">
]═──
</text>
<text x="2" y="1276">
twitch_memes
</text>
<text x="10" y="1292">
,
</text>
<text x="10" y="1308">
∩
</text>
<text x="26" y="1308">
°ʖ
</text>
<text x="58" y="1308">
°
</text>
<text x="74" y="1308">
⊃
</text>
<text x="90" y="1308">
(
</text>
<text x="2" y="1356">
dota_memes
</text>
<text x="18" y="1388">
°╭ʖ╮°
</text>
<text x="74" y="1388">
DAY TUCKER NIGHT FUCKER
</text>
<text x="2" y="1452">
୧
</text>
<text x="18" y="1452">
ಠ益ಠ
</text>
<text x="58" y="1452">
୨ RIOT ୧
</text>
<text x="130" y="1452">
ಠ益ಠ
</text>
<text x="170" y="1452">
୨
</text>
<text x="2" y="1516">
twitch_memes
</text>
<text x="10" y="1548">
つಠ益ಠ
</text>
<text x="66" y="1548">
つ
</text>
<text x="90" y="1548">
─=≡ΣO))
</text>
<text x="154" y="1548">
HADOUKEN
</text>
<text x="2" y="1596">
reddit_memes
</text>
<text x="2" y="1628">
Y u do dis!?
</text>
<text x="106" y="1628">
ლ
</text>
<text x="122" y="1628">
ಠ益ಠლ
</text>
<text x="2" y="1676">
hearthstone_memes
</text>
<text x="10" y="1708">
º_لº
</text>
<text x="50" y="1708">
º_لº
</text>
<text x="90" y="1708">
º_لº
</text>
<text x="130" y="1708">
º_لº)º_لº
</text>
<text x="210" y="1708">
º_لº
</text>
<text x="258" y="1708">
EVERYONE GET IN HERE!
</text>
<text x="162" y="1724">
&apos;
</text>
<text x="170" y="1724">
`
</text>
<text x="202" y="1724">
`
</text>
<text x="2" y="1756">
hearthstone_memes
</text>
<text x="10" y="1788">
ʘلʘ
</text>
<text x="50" y="1788">
MY EYES ARE OPEN
</text>
<text x="194" y="1788">
ʘلʘ
</text>
<text x="2" y="1820">
dota_memes
</text>
<text x="2" y="1852">
ง
</text>
<text x="18" y="1852">
╭ರ_•
</text>
<text x="58" y="1852">
ง
</text>
<text x="2" y="1900">
twitch_memes
</text>
<text x="10" y="1932">
º_ل º
</text>
<text x="2" y="1980">
hearthstone_memes
</text>
<text x="26" y="2012">
°
</text>
<text x="42" y="2012">
◯
</text>
<text x="58" y="2012">
°
</text>
<text x="98" y="2012">
Clown
</text>
<text x="18" y="2076">
•
</text>
<text x="34" y="2076">
∀•
</text>
<text x="58" y="2076">
–Ψ
</text>
<text x="82" y="2076">
&quot;
</text>
<text x="90" y="2076">
I&apos;
</text>
<text x="106" y="2076">
d Fork His Repo&quot;
</text>
<text x="2" y="2108">
twitch_memes
</text>
<text x="2" y="2140">
└
</text>
<text x="26" y="2140">
°
</text>
<text x="42" y="2140">
ʖ°
</text>
<text x="66" y="2140">
┐
</text>
<text x="2" y="2188">
hearthstone_memes
</text>
<text x="10" y="2204">
,
</text>
<text x="10" y="2220">
ง
</text>
<text x="26" y="2220">
°
</text>
<text x="42" y="2220">
ʖ
</text>
<text x="58" y="2220">
°
</text>
<text x="74" y="2220">
ง
</text>
<text x="2" y="2268">
twitch_memes
</text>
<text x="18" y="2300">
°
</text>
<text x="34" y="2300">
ʖ
</text>
<text x="50" y="2300">
°
</text>
<text x="2" y="2348">
dota_memes
</text>
<text x="10" y="2380">
ง
</text>
<text x="26" y="2380">
•
</text>
<text x="42" y="2380">
•
</text>
<text x="58" y="2380">
ง
</text>
<text x="2" y="2444">
dota_memes
</text>
<text x="10" y="2460">
.
</text>
<text x="50" y="2460">
.
</text>
<text x="2" y="2476">
ʕ
</text>
<text x="18" y="2476">
•ᴥ
</text>
<text x="42" y="2476">
•
</text>
<text x="58" y="2476">
ʔ(
</text>
<text x="90" y="2476">
_FISSURE_
</text>
<text x="194" y="2476">
()
</text>
<text x="10" y="2492">
`
</text>
<text x="50" y="2492">
&apos;
</text>
<text x="66" y="2556">
(
</text>
<text x="90" y="2556">
_FISSURE_
</text>
<text x="194" y="2556">
()
</text>
<text x="2" y="2588">
dota_memes
</text>
<text x="10" y="2620">
∩
</text>
<text x="26" y="2620">
°
</text>
<text x="42" y="2620">
ʖ
</text>
<text x="58" y="2620">
°
</text>
<text x="74" y="2620">
⊃━☆ﾟ.
</text>
<text x="122" y="2620">
*
</text>
<text x="138" y="2620">
･
</text>
<text x="154" y="2620">
｡ﾟ.
</text>
<text x="186" y="2620">
*
</text>
<text x="202" y="2620">
322
</text>
<text x="234" y="2620">
☆ﾟ.
</text>
<text x="266" y="2620">
*
</text>
<text x="282" y="2620">
･
</text>
<text x="298" y="2620">
｡ﾟ.
</text>
<text x="330" y="2620">
*
</text>
<text x="2" y="2668">
hearthstone_memes
</text>
<text x="2" y="2684">
◥█◤
</text>
<text x="34" y="2684">
TOTEMIC MIGHT
</text>
<text x="146" y="2684">
◥█◤
</text>
<text x="2" y="2716">
LoL_memes
</text>
<text x="10" y="2748">
∩
</text>
<text x="26" y="2748">
°
</text>
<text x="42" y="2748">
ʖ
</text>
<text x="58" y="2748">
°
</text>
<text x="74" y="2748">
⊃━☆ﾟ.
</text>
<text x="2" y="2780">
LoL_memes
</text>
<text x="18" y="2812">
°
</text>
<text x="34" y="2812">
ʖ
</text>
<text x="50" y="2812">
°
</text>
<text x="42" y="2876">
.
</text>
<text x="82" y="2876">
.
</text>
<text x="2" y="2892">
╭∩╮（︶︿︶）╭∩╮
</text>
<text x="146" y="2892">
I don&apos;
</text>
<text x="194" y="2892">
t CARE?
</text>
<text x="42" y="2908">
`
</text>
<text x="82" y="2908">
&apos;
</text>
<text x="2" y="2972">
FU
</text>
<text x="26" y="2972">
┌∩┐
</text>
<text x="58" y="2972">
◣
</text>
<text x="74" y="2972">
◢
</text>
<text x="90" y="2972">
┌∩┐
</text>
<text x="2" y="3052">
Seriously,
</text>
<text x="90" y="3052">
FU
</text>
<text x="122" y="3052">
ಠ_ಠ
</text>
<text x="154" y="3052">
┌∩┐
</text>
<text x="146" y="3116">
.
</text>
<text x="186" y="3116">
.
</text>
<text x="2" y="3132">
I don’t care
</text>
<text x="106" y="3132">
╭∩╮（︶︿︶）╭∩╮
</text>
<text x="146" y="3148">
`
</text>
<text x="186" y="3148">
&apos;
</text>
<text x="2" y="3212">
ヘ
</text>
<text x="34" y="3212">
^o^
</text>
<text x="66" y="3212">
ノ＼
</text>
<text x="106" y="3212">
^
</text>
<text x="122" y="3212">
^
</text>
<text x="154" y="3212">
Gimme Five
</text>
<text x="2" y="3292">
Punch!
</text>
<text x="58" y="3292">
O=
</text>
<text x="82" y="3292">
‘
</text>
<text x="98" y="3292">
‘Q
</text>
<text x="2" y="3372">
Flex,
</text>
<text x="50" y="3372">
Don’t Mess ヽ
</text>
<text x="162" y="3372">
⇀‸↼‶
</text>
<text x="202" y="3372">
ノ
</text>
<text x="2" y="3452">
Peace Yo!
</text>
<text x="90" y="3452">
‾
</text>
<text x="106" y="3452">
‾
</text>
<text x="122" y="3452">
☮
</text>
<text x="170" y="3500">
.
</text>
<text x="2" y="3516">
Right Back At Ya!
</text>
<text x="154" y="3516">
☞ﾟ∀ﾟ)☞
</text>
<text x="170" y="3532">
&apos;
</text>
<text x="58" y="3564">
,
</text>
<text x="2" y="3580">
Gimme
</text>
<text x="58" y="3580">
つº_º
</text>
<text x="106" y="3580">
つ
</text>
<text x="90" y="3644">
.
</text>
<text x="122" y="3644">
.
</text>
<text x="2" y="3660">
So Sorry
</text>
<text x="74" y="3660">
（ﾉ´д｀）
</text>
<text x="90" y="3676">
`
</text>
<text x="122" y="3676">
&apos;
</text>
<text x="2" y="3740">
The Finger And The Ass
</text>
<text x="186" y="3740">
┌∩┐
</text>
<text x="218" y="3740">
‿
</text>
<text x="234" y="3740">
‿
</text>
<text x="250" y="3740">
┌∩┐
</text>
<text x="2" y="3820">
Oh Yeah?
</text>
<text x="74" y="3820">
FU
</text>
<text x="98" y="3820">
╭∩╮
</text>
<text x="138" y="3820">
òÓ,
</text>
<text x="178" y="3820">
╭∩╮
</text>
<text x="18" y="3900">
•
</text>
<text x="34" y="3900">
•
</text>
<text x="50" y="3900">
O*¯`·.¸.·´¯`°Q
</text>
<text x="170" y="3900">
•
</text>
<text x="186" y="3900">
•
</text>
<text x="2" y="3964">
reddit_memes
</text>
<text x="2" y="3996">
Table Flip
</text>
<text x="98" y="3996">
╯°□°
</text>
<text x="138" y="3996">
╯︵
</text>
<text x="170" y="3996">
┻━┻
</text>
<text x="2" y="4044">
reddit_memes
</text>
<text x="2" y="4076">
Flip All Dem Tablez
</text>
<text x="162" y="4076">
┻━┻︵
</text>
<text x="218" y="4076">
°□°
</text>
<text x="258" y="4076">
︵┻━┻
</text>
<text x="2" y="4124">
reddit_memes
</text>
<text x="2" y="4156">
Epic Table Flip
</text>
<text x="138" y="4156">
˚Õ˚
</text>
<text x="170" y="4156">
ر
</text>
<text x="186" y="4156">
~~~~╚╩╩╝
</text>
<text x="2" y="4204">
reddit_memes
</text>
<text x="2" y="4236">
Ok.
</text>
<text x="34" y="4236">
I Put Table Back
</text>
<text x="170" y="4236">
┬──┬
</text>
<text x="210" y="4236">
ノ
</text>
<text x="234" y="4236">
゜
</text>
<text x="258" y="4236">
゜ノ
</text>
<text x="2" y="4284">
reddit_memes
</text>
<text x="2" y="4316">
Put More Tables Back
</text>
<text x="170" y="4316">
┏━┓┏━┓┏━┓
</text>
<text x="250" y="4316">
︵
</text>
<text x="282" y="4316">
^.^
</text>
<text x="2" y="4396">
Wot?
</text>
<text x="42" y="4396">
I’m Confused
</text>
<text x="162" y="4396">
•ὤ•
</text>
<text x="194" y="4396">
？
</text>
<text x="2" y="4476">
Crazy Bastard
</text>
<text x="122" y="4476">
⊙
</text>
<text x="138" y="4476">
◎
</text>
<text x="2" y="4556">
Crazy Bitch
</text>
<text x="106" y="4556">
⊙﹏⊙✿
</text>
<text x="2" y="4620">
I Can’t Even
</text>
<text x="114" y="4620">
｡☉౪⊙｡
</text>
<text x="2" y="4668">
dota_memes
</text>
<text x="2" y="4700">
HEY IXMIKE
</text>
<text x="106" y="4700">
°
</text>
<text x="122" y="4700">
ʖ°
</text>
<text x="146" y="4700">
╭∩╮
</text>
<text x="18" y="4764">
.
</text>
<text x="34" y="4764">
.
</text>
<text x="2" y="4780">
d[
</text>
<text x="42" y="4780">
]b
</text>
<text x="18" y="4796">
`
</text>
<text x="34" y="4796">
&apos;
</text>
<text x="2" y="4844">
Boom Box
</text>
<text x="74" y="4844">
♫♪.ılılıll|●
</text>
<text x="178" y="4844">
=
</text>
<text x="194" y="4844">
●|llılılı.♫♪
</text>
<text x="2" y="4908">
Party Time
</text>
<text x="90" y="4908">
┏
</text>
<text x="138" y="4908">
┛┗
</text>
<text x="194" y="4908">
┓┗
</text>
<text x="250" y="4908">
┛┏
</text>
<text x="306" y="4908">
┓
</text>
<text x="2" y="4988">
Sunglasses
</text>
<text x="106" y="4988">
•
</text>
<text x="122" y="4988">
•
</text>
<text x="162" y="4988">
•
</text>
<text x="178" y="4988">
•
</text>
<text x="194" y="4988">
&gt;
</text>
<text x="202" y="4988">
⌐■
</text>
<text x="226" y="4988">
■
</text>
<text x="250" y="4988">
⌐■
</text>
<text x="274" y="4988">
■
</text>
<text x="2" y="5052">
Help ٩
</text>
<text x="58" y="5052">
๏๏
</text>
<text x="90" y="5052">
۶
</text>
<text x="2" y="5116">
Fuck Off t
</text>
<text x="98" y="5116">
.-t
</text>
<text x="2" y="5180">
Facepalm
</text>
<text x="90" y="5180">
&gt;
</text>
<text x="98" y="5180">
ლ
</text>
<text x="2" y="5244">
Happy
</text>
<text x="74" y="5244">
סּںסּ`
</text>
<text x="2" y="5324">
Pirate
</text>
<text x="58" y="5324">
✌
</text>
<text x="74" y="5324">
◕‿
</text>
<text x="106" y="5324">
✌
</text>
<text x="2" y="5404">
Sleeping
</text>
<text x="114" y="5404">
Zzz…
</text>
<text x="2" y="5484">
Sad
</text>
<text x="42" y="5484">
╥﹏╥
</text>
<text x="2" y="5564">
Rage t
</text>
<text x="58" y="5564">
ಠ益ಠ
</text>
<text x="98" y="5564">
t
</text>
<text x="2" y="5628">
Sunny Day
</text>
<text x="82" y="5628">
☁☼
</text>
<text x="106" y="5628">
▅▒░✿
</text>
<text x="146" y="5628">
✿░▒▅
</text>
<text x="186" y="5628">
☼☁
</text>
<text x="2" y="5692">
Smug Bastard
</text>
<text x="106" y="5692">
•|龴◡龴
</text>
<text x="170" y="5692">
•
</text>
<text x="2" y="5740">
Sparkling Heart
</text>
<text x="138" y="5740">
`ღ´
</text>
<text x="2" y="5788">
Love Note 웃❤유
</text>
<text x="2" y="5836">
\m/
</text>
<text x="2" y="5900">
\m/
</text>
<text x="34" y="5900">
&gt;
</text>
<text x="42" y="5900">
.&lt;
</text>
<text x="66" y="5900">
\m/
</text>
<text x="2" y="5964">
Love in my eyes
</text>
<text x="138" y="5964">
♥
</text>
<text x="154" y="5964">
♥
</text>
<text x="2" y="6044">
Stars in my Eyes
</text>
<text x="138" y="6044">
✌⊂
</text>
<text x="162" y="6044">
✰‿✰
</text>
<text x="194" y="6044">
つ✌
</text>
<text x="2" y="6076">
twitch_memes
</text>
<text x="2" y="6092">
Fuckin Man Tears ಥ_ಥ
</text>
<text x="2" y="6156">
Atish
</text>
<text x="66" y="6156">
–
</text>
<text x="82" y="6156">
–
</text>
<text x="2" y="6252">
Yay!
</text>
<text x="58" y="6252">
ˆ˚ˆ
</text>
<text x="2" y="6332">
OMG!
</text>
<text x="42" y="6332">
Insane Happy Ｏ
</text>
<text x="170" y="6332">
≧▽≦
</text>
<text x="202" y="6332">
Ｏ
</text>
<text x="2" y="6396">
Love You
</text>
<text x="74" y="6396">
»
</text>
<text x="90" y="6396">
(¯`·.·´¯)
</text>
<text x="186" y="6396">
NAME
</text>
<text x="242" y="6396">
(¯`·.·´¯)
</text>
<text x="322" y="6396">
«
</text>
<text x="338" y="6396">
OMG,
</text>
<text x="2" y="6460">
Yes!
</text>
<text x="42" y="6460">
Success.
</text>
<text x="122" y="6460">
•ᴗ•
</text>
<text x="154" y="6460">
و
</text>
<text x="2" y="6556">
Airplane
</text>
<text x="74" y="6556">
✈
</text>
<text x="2" y="6604">
Weather
</text>
<text x="66" y="6604">
☼
</text>
<text x="82" y="6604">
☀
</text>
<text x="98" y="6604">
☁
</text>
<text x="114" y="6604">
☂
</text>
<text x="130" y="6604">
☃
</text>
<text x="146" y="6604">
☄
</text>
<text x="162" y="6604">
☾
</text>
<text x="178" y="6604">
☽
</text>
<text x="194" y="6604">
❄
</text>
<text x="210" y="6604">
☇
</text>
<text x="226" y="6604">
☈
</text>
<text x="242" y="6604">
⊙
</text>
<text x="258" y="6604">
☉
</text>
<text x="274" y="6604">
℃
</text>
<text x="290" y="6604">
℉
</text>
<text x="306" y="6604">
°
</text>
<text x="322" y="6604">
❅
</text>
<text x="338" y="6604">
✺
</text>
<text x="354" y="6604">
ϟ
</text>
<text x="2" y="6652">
Band Aid
</text>
<text x="90" y="6652">
:::[
</text>
<text x="130" y="6652">
]:::
</text>
<text x="2" y="6716">
Fish Swimming
</text>
<text x="114" y="6716">
¸.·´¯`·.´¯`·.¸¸.·´¯`·.¸&gt;
</text>
<text x="306" y="6716">
&lt;
</text>
<text x="314" y="6716">
(((º&gt;
</text>
<text x="2" y="6764">
Polar Bear ˁ˚ᴥ˚ˀ
</text>
<text x="2" y="6844">
Cat
</text>
<text x="42" y="6844">
^˚ᴥ˚^
</text>
<text x="2" y="6908">
Musical
</text>
<text x="66" y="6908">
¸¸♬·¯·♩¸¸♪·¯·♫¸
</text>
<text x="2" y="6956">
Happy Birthday To You¸¸♬·¯·♩¸¸♪·¯·♫¸
</text>
<text x="2" y="7004">
▂▃▅▇█▓▒░۩۞۩
</text>
<text x="98" y="7004">
۩۞۩░▒▓█▇▅▃▂
</text>
<text x="2" y="7052">
Play Cards
</text>
<text x="90" y="7052">
[♥]]]
</text>
<text x="138" y="7052">
[♦]]]
</text>
<text x="186" y="7052">
[♣]]]
</text>
<text x="234" y="7052">
[♠]]]
</text>
<text x="2" y="7100">
Play Chess
</text>
<text x="90" y="7100">
♚
</text>
<text x="106" y="7100">
♛
</text>
<text x="122" y="7100">
♜
</text>
<text x="138" y="7100">
♝
</text>
<text x="154" y="7100">
♞
</text>
<text x="170" y="7100">
♟
</text>
<text x="186" y="7100">
♔
</text>
<text x="202" y="7100">
♕
</text>
<text x="218" y="7100">
♖
</text>
<text x="234" y="7100">
♗
</text>
<text x="250" y="7100">
♘
</text>
<text x="266" y="7100">
♙
</text>
<text x="2" y="7148">
웃웃웃웃웃
</text>
<text x="90" y="7148">
vs 웃웃웃웃웃
</text>
<text x="2" y="7180">
♋
</text>
<text x="18" y="7180">
♂
</text>
<text x="34" y="7180">
♀
</text>
<text x="50" y="7180">
☿
</text>
<text x="66" y="7180">
웃
</text>
<text x="90" y="7180">
유
</text>
<text x="2" y="7228">
♪
</text>
<text x="18" y="7228">
♫
</text>
<text x="34" y="7228">
♩
</text>
<text x="50" y="7228">
♬
</text>
<text x="66" y="7228">
♭
</text>
<text x="82" y="7228">
♮
</text>
<text x="50" y="7260">
.
</text>
<text x="98" y="7260">
.
</text>
<text x="10" y="7276">
╲
</text>
<text x="34" y="7276">
╭[
</text>
<text x="58" y="7276">
•
</text>
<text x="90" y="7276">
•
</text>
<text x="106" y="7276">
]╮
</text>
<text x="138" y="7276">
╱
</text>
<text x="50" y="7292">
`
</text>
<text x="98" y="7292">
&apos;
</text>
<text x="10" y="7340">
╲
</text>
<text x="34" y="7340">
╭
</text>
<text x="50" y="7340">
.☉ʖ☉.
</text>
<text x="98" y="7340">
╮
</text>
<text x="122" y="7340">
╱
</text>
<text x="18" y="7404">
°╭╮ʖ
</text>
<text x="58" y="7404">
°
</text>
<text x="2" y="7484">
ԅ
</text>
<text x="18" y="7484">
☉Д☉
</text>
<text x="50" y="7484">
╮
</text>
<text x="10" y="7564">
つ•ᴥ•
</text>
<text x="58" y="7564">
つ*:･ﾟ✧
</text>
<text x="10" y="7644">
⊙
</text>
<text x="26" y="7644">
⊙
</text>
<text x="10" y="7724">
=ಠلಠ=
</text>
<text x="10" y="7804">
つ°ヮ°
</text>
<text x="66" y="7804">
つ
</text>
<text x="98" y="7804">
└⋃┘
</text>
<text x="18" y="7852">
•
</text>
<text x="34" y="7852">
﹏
</text>
<text x="58" y="7852">
•
</text>
<text x="26" y="7900">
.
</text>
<text x="98" y="7900">
.
</text>
<text x="2" y="7916">
¯
</text>
<text x="26" y="7916">
[
</text>
<text x="42" y="7916">
՞
</text>
<text x="58" y="7916">
︿
</text>
<text x="82" y="7916">
՞
</text>
<text x="98" y="7916">
]
</text>
<text x="122" y="7916">
¯
</text>
<text x="2" y="7980">
Koala?
</text>
<text x="74" y="7996">
.
</text>
<text x="2" y="8012">
o╮
</text>
<text x="34" y="8012">
ʘ
</text>
<text x="58" y="8012">
ʘ
</text>
<text x="74" y="8012">
)╭o
</text>
<text x="74" y="8028">
&apos;
</text>
<text x="2" y="8092">
७
</text>
<text x="18" y="8092">
,⊙–⊙,
</text>
<text x="66" y="8092">
७
</text>
<text x="2" y="8156">
o╮
</text>
<text x="26" y="8156">
•ʖ•
</text>
<text x="58" y="8156">
╭o
</text>
<text x="10" y="8204">
⇎
</text>
<text x="26" y="8204">
⇎
</text>
<text x="10" y="8268">
句_句
</text>
<text x="10" y="8332">
१|˚–˚|५
</text>
<text x="10" y="8396">
ộ_ộ
</text>
<text x="10" y="8428">
,
</text>
<text x="10" y="8444">
δﺡό
</text>
<text x="10" y="8508">
⊂•⊃
</text>
<text x="42" y="8508">
⊂•⊃
</text>
<text x="10" y="8588">
❂
</text>
<text x="26" y="8588">
❂
</text>
<text x="10" y="8652">
❐
</text>
<text x="26" y="8652">
❑
</text>
<text x="2" y="8716">
•●
</text>
<text x="2" y="8844">
٩
</text>
<text x="18" y="8844">
๏๏
</text>
<text x="50" y="8844">
۶
</text>
<text x="2" y="8924">
٩
</text>
<text x="26" y="8924">
•
</text>
<text x="58" y="8924">
۶
</text>
<text x="2" y="8988">
٩
</text>
<text x="18" y="8988">
●
</text>
<text x="34" y="8988">
•
</text>
<text x="50" y="8988">
۶
</text>
<text x="2" y="9068">
٩
</text>
<text x="50" y="9068">
۶
</text>
<text x="2" y="9116">
๏๏
</text>
<text x="26" y="9116">
 
</text>
<text x="42" y="9116">
๏๏
</text>
<text x="2" y="9164">
๏๏
</text>
<text x="10" y="9212">
O.o
</text>
<text x="10" y="9260">
.
</text>
<text x="34" y="9260">
.
</text>
<text x="2" y="9276">
[¬º-°]¬
</text>
<text x="10" y="9292">
`
</text>
<text x="34" y="9292">
&apos;
</text>
</svg>