<svg font-family="arial" font-size="14" height="6976" width="1032" xmlns="http://www.w3.org/2000/svg">
<defs>
<marker id="triangle" markerHeight="10" markerUnits="strokeWidth" markerWidth="10" orient="auto" refX="0" refY="5" viewBox="0 0 40 40">
<path d="M 0 0 L 10 5 L 0 10 z"/>
</marker>
</defs>
<style>

    line, path {
      stroke: black;
      stroke-width: 2;
      stroke-opacity: 1;
      fill-opacity: 1;
      stroke-linecap: round;
      stroke-linejoin: miter;
    }
    
</style>
<path d=" M 24 288 L 32 288 M 24 336 L 32 336 M 32 384 L 40 384 M 32 576 L 40 576 M 24 624 L 32 624 M 8 656 L 16 672 L 24 672 M 56 672 L 64 672 L 72 656 M 40 704 L 48 720 L 56 720 M 88 720 L 96 720 L 104 704 M 160 720 L 168 720 M 72 856 L 80 856 M 104 904 L 112 904 M 64 2304 L 72 2304 M 112 2448 L 120 2448 M 88 2488 L 96 2488 M 96 2584 L 104 2584 M 228 2768 L 228 2784 M 24 2880 L 32 2880 M 176 2880 L 184 2880 M 208 2960 L 216 2976 M 256 2976 L 264 2960 M 256 3064 L 264 3064 M 272 3120 L 280 3104 M 312 3120 L 320 3104 M 128 3216 L 136 3216 M 16 3400 L 24 3400 M 24 3408 L 32 3408 M 32 3400 L 40 3400 M 104 3496 L 112 3496 M 112 3504 L 120 3504 M 120 3496 L 128 3496 M 160 3496 L 168 3496 M 168 3504 L 176 3504 M 176 3496 L 184 3496 M 224 3496 L 232 3496 M 232 3504 L 240 3504 M 240 3496 L 248 3496 M 280 3496 L 288 3496 M 288 3504 L 296 3504 M 296 3496 L 304 3496 M 112 3552 L 120 3552 M 168 3552 L 176 3552 M 216 3544 L 224 3544 M 264 3552 L 272 3552 M 88 3640 L 96 3640 M 56 3728 L 64 3744 M 120 3744 L 128 3728 M 88 3784 L 96 3784 M 80 3832 L 88 3832 M 96 3832 L 104 3832 M 164 4016 L 164 4032 M 128 4072 L 136 4072 M 160 4072 L 168 4072 M 144 4272 L 152 4272 M 60 4400 L 60 4416 M 88 4416 L 96 4416 M 124 4400 L 124 4416 M 100 4448 L 100 4464 M 112 4464 L 100 4464 M 148 4448 L 148 4464 M 40 4496 L 48 4512 M 88 4512 L 96 4496 M 80 4600 L 88 4600 M 216 4600 L 224 4600 M 296 4600 L 304 4600 M 72 4704 L 80 4704 M 56 4984 L 64 4984 M 80 4992 L 88 4992 M 56 5080 L 64 5080 M 72 5088 L 80 5088 M 88 5088 L 96 5088 M 0 5520 L 8 5504 M 16 5520 L 24 5504 L 32 5520 M 72 5520 L 80 5520 M 120 5520 L 128 5504 L 136 5520 M 0 5568 L 8 5552 M 16 5568 L 24 5552 L 32 5568 M 104 5568 L 112 5552 L 120 5568 M 16 5760 L 24 5760 M 0 5904 L 8 5888 M 8 5936 L 16 5952 L 24 5952 M 104 5952 L 112 5952 L 120 5936 M 8 6144 L 16 6144 M 24 6384 L 32 6384 M 8 6432 L 16 6432 M 8 6480 L 16 6480" fill="none"/>
<path d="" fill="none" stroke-dasharray="3 3"/>
<line fill="none" marker-end="url(#triangle)" stroke-dasharray="3 3" x1="120" x2="148" y1="904" y2="904"/>
<line marker-end="url(#triangle)" x1="160" x2="172" y1="4600" y2="4600"/>
<line marker-end="url(#triangle)" x1="216" x2="212" y1="4600" y2="4600"/>
<text x="2" y="44">
( ͡° ͜ʖ ͡°)
</text>
<text x="2" y="92">
( ͡↑ ͜ʖ ͡↑)
</text>
<text x="2" y="140">
─=≡Σ( ͡° ͜ʖ ͡°)
</text>
<text x="2" y="188">
█▄( ͡° ͜ʖ ͡°)▄█
</text>
<text x="106" y="188">
yeah i work out
</text>
<text x="2" y="236">
･｡ﾟ[̅$̅(̅ ͡°
</text>
<text x="66" y="236">
 ͜ʖ ͡°̅)̅$̅]
</text>
<text x="122" y="236">
｡ﾟ.*
</text>
<text x="2" y="284">
(⌐■
</text>
<text x="34" y="284">
■)
</text>
<text x="2" y="332">
(⌐■
</text>
<text x="34" y="332">
■)
</text>
<text x="58" y="332">
♪♬
</text>
<text x="2" y="380">
(˚ㄥ
</text>
<text x="42" y="380">
˚)
</text>
<text x="2" y="428">
凸(
</text>
<text x="34" y="428">
•̀_•́ )凸
</text>
<text x="2" y="476">
┌[
</text>
<text x="26" y="476">
• ͜ ʖ
</text>
<text x="66" y="476">
•
</text>
<text x="82" y="476">
]┐
</text>
<text x="2" y="524">
໒(
</text>
<text x="26" y="524">
• ͜ʖ
</text>
<text x="58" y="524">
•
</text>
<text x="74" y="524">
)७
</text>
<text x="2" y="572">
(
</text>
<text x="18" y="572">
✖
</text>
<text x="50" y="572">
✖
</text>
<text x="66" y="572">
)
</text>
<text x="2" y="620">
⊂(◣
</text>
<text x="34" y="620">
◢)つ
</text>
<text x="2" y="668">
¯
</text>
<text x="26" y="668">
(ツ)
</text>
<text x="74" y="668">
¯
</text>
<text x="2" y="716">
Meh
</text>
<text x="34" y="716">
¯
</text>
<text x="58" y="716">
(ツ)
</text>
<text x="106" y="716">
¯
</text>
<text x="122" y="716">
ヽ(。
</text>
<text x="170" y="716">
°)ノ
</text>
<text x="210" y="716">
ヾ(ｏ･ω･)ﾉ
</text>
<text x="2" y="764">
ツ
</text>
<text x="2" y="812">
【ツ】
</text>
<text x="2" y="860">
╰(⇀︿⇀)つ
</text>
<text x="82" y="860">
]═──
</text>
<text x="2" y="908">
(∩ ͡ °
</text>
<text x="50" y="908">
ʖ ͡ °)
</text>
<text x="98" y="908">
⊃
</text>
<text x="114" y="908">
(
</text>
<text x="2" y="940">
dota_memes
</text>
<text x="2" y="956">
( ͡°╭͜ʖ╮͡°
</text>
<text x="66" y="956">
)
</text>
<text x="82" y="956">
DAY TUCKER NIGHT FUCKER
</text>
<text x="274" y="956">
( ͡°╭͜ʖ╮͡°
</text>
<text x="338" y="956">
)
</text>
<text x="2" y="1004">
ಠ益ಠ
</text>
<text x="2" y="1052">
୧(ಠ益ಠ)୨ RIOT ୧(ಠ益ಠ)୨
</text>
<text x="2" y="1100">
୧(ಠ益ಠ)୨ MRGLRLRLR ୧(ಠ益ಠ)୨
</text>
<text x="2" y="1148">
(つಠ益ಠ)つ
</text>
<text x="90" y="1148">
─=≡ΣO))
</text>
<text x="154" y="1148">
HADOUKEN
</text>
<text x="2" y="1196">
Y u do dis!?
</text>
<text x="106" y="1196">
ლ(ಠ益ಠლ)
</text>
<text x="2" y="1228">
hearthstone_memes
</text>
<text x="2" y="1244">
(º_لº(º_لº(º_لº(º_لº)º_لº)º_لº)
</text>
<text x="258" y="1244">
EVERYONE GET IN HERE!
</text>
<text x="434" y="1244">
(º_لº(º_لº(º_لº(º_لº)º_لº)º_لº)
</text>
<text x="2" y="1276">
hearthstone_memes
</text>
<text x="2" y="1292">
(ʘ̚ل͜ʘ̚)
</text>
<text x="50" y="1292">
MY EYES ARE OPEN
</text>
<text x="186" y="1292">
(ʘ̚ل͜ʘ̚)
</text>
<text x="2" y="1324">
dota_memes
</text>
<text x="2" y="1340">
ง╭ರ_•́)ง We politely ask for this game to be started for alas we will stir up a ruckus
</text>
<text x="690" y="1340">
(ง╭ರ_•́)ง
</text>
<text x="2" y="1388">
(º_لº(º_لº(º_لº(º_لº)º_لº)º_لº)You either die a DONG,
</text>
<text x="434" y="1388">
or live long enough to become the DONGER(º_لº(º_لº(º_لº(º_لº)º_لº)º_لº)
</text>
<text x="2" y="1436">
&lt;
</text>
<text x="10" y="1436">
MESSAGE DONGERED&gt;
</text>
<text x="2" y="1484">
(
</text>
<text x="18" y="1484">
ººººº_لººººº
</text>
<text x="122" y="1484">
)
</text>
<text x="138" y="1484">
I AM SUPER DONG
</text>
<text x="266" y="1484">
(
</text>
<text x="282" y="1484">
ººººº_لººººº
</text>
<text x="386" y="1484">
)
</text>
<text x="2" y="1516">
hearthstone_memes
</text>
<text x="10" y="1532">
( ͡° ͜◯ ͡°) ﻿Ｃ
</text>
<text x="98" y="1532">
ＬＯＷＮ
</text>
<text x="170" y="1532">
ＦＩＥＳＴＡ
</text>
<text x="274" y="1532">
( ͡° ͜◯ ͡°)
</text>
<text x="2" y="1580">
(
</text>
<text x="18" y="1580">
•
</text>
<text x="34" y="1580">
∀•)–Ψ
</text>
<text x="82" y="1580">
&quot;
</text>
<text x="90" y="1580">
I&apos;
</text>
<text x="106" y="1580">
d Fork His Repo&quot;
</text>
<text x="2" y="1628">
└(
</text>
<text x="26" y="1628">
° ͜ʖ͡°
</text>
<text x="58" y="1628">
)┐Born too late to explore the Earth,
</text>
<text x="362" y="1628">
born too soon to explore the Galaxy.
</text>
<text x="658" y="1628">
Born just in time to post DANK MEMEs
</text>
<text x="954" y="1628">
└(
</text>
<text x="978" y="1628">
° ͜ʖ͡°
</text>
<text x="1010" y="1628">
)┐
</text>
<text x="2" y="1660">
hearthstone_memes
</text>
<text x="2" y="1676">
└(
</text>
<text x="26" y="1676">
° ͜ʖ͡°
</text>
<text x="58" y="1676">
)┐Born too late to explore the Earth,
</text>
<text x="362" y="1676">
born too soon to explore the Galaxy.
</text>
<text x="658" y="1676">
Born just in time to T U C K F R U M P└(
</text>
<text x="986" y="1676">
° ͜ʖ͡°
</text>
<text x="1018" y="1676">
)┐
</text>
<text x="2" y="1708">
hearthstone_memes
</text>
<text x="2" y="1724">
(ง ͠° ͟ʖ ͡°)ง This is our chat mods
</text>
<text x="266" y="1724">
(ง ͠° ͟ʖ ͡°)ง
</text>
<text x="354" y="1724">
(ง
</text>
<text x="378" y="1724">
•̀_•́)ง Yeah beat it!
</text>
<text x="538" y="1724">
(ง
</text>
<text x="562" y="1724">
•̀_•́)ง
</text>
<text x="2" y="1756">
hearthstone_memes
</text>
<text x="2" y="1772">
(
</text>
<text x="18" y="1772">
ง ͠° ͟ʖ ͡°)ง RNG,
</text>
<text x="138" y="1772">
ATTEND ME
</text>
<text x="218" y="1772">
(ง ͠° ͟ʖ ͡°)ง
</text>
<text x="306" y="1772">
(
</text>
<text x="322" y="1772">
° ͜ʖ͡°
</text>
<text x="354" y="1772">
)╭∩╮
</text>
<text x="394" y="1772">
NEVER,
</text>
<text x="450" y="1772">
KRIPP
</text>
<text x="498" y="1772">
(
</text>
<text x="514" y="1772">
° ͜ʖ͡°
</text>
<text x="546" y="1772">
)╭∩╮
</text>
<text x="2" y="1804">
hearthstone_memes
</text>
<text x="2" y="1820">
(
</text>
<text x="18" y="1820">
ง ͠° ͟ʖ ͡°)ง LETHAL,
</text>
<text x="162" y="1820">
ATTEND ME
</text>
<text x="242" y="1820">
(ง ͠° ͟ʖ ͡°)ง
</text>
<text x="330" y="1820">
(
</text>
<text x="346" y="1820">
° ͜ʖ͡°
</text>
<text x="378" y="1820">
)╭∩╮
</text>
<text x="418" y="1820">
NEVER,
</text>
<text x="474" y="1820">
FORSEN
</text>
<text x="530" y="1820">
(
</text>
<text x="546" y="1820">
° ͜ʖ͡°
</text>
<text x="578" y="1820">
)╭∩╮
</text>
<text x="2" y="1868">
( ͡° ͜ʖ ͡°)
</text>
<text x="74" y="1868">
Every 60 seconds in Africa,
</text>
<text x="298" y="1868">
a minute passes.
</text>
<text x="434" y="1868">
Together we can stop this.
</text>
<text x="650" y="1868">
Please spread the word
</text>
<text x="834" y="1868">
( ͡° ͜ʖ ͡°)
</text>
<text x="2" y="1900">
dota_memes
</text>
<text x="2" y="1916">
(ง
</text>
<text x="26" y="1916">
•̀_•́)ง SECRET GIVE ME MY ENERGY BACK
</text>
<text x="314" y="1916">
(ง
</text>
<text x="338" y="1916">
•̀_•́)ง
</text>
<text x="2" y="1964">
First you boil some pasta,
</text>
<text x="218" y="1964">
preferably Fagottini
</text>
<text x="386" y="1964">
( ͡° ͜ʖ ͡°)ﾉ
</text>
<text x="466" y="1964">
~~~~~Then you sauté the Pepperoni
</text>
<text x="738" y="1964">
( ͡° ͜ʖ ͡°)⊃━
</text>
<text x="826" y="1964">
(o o o)
</text>
<text x="2" y="1996">
dota_memes
</text>
<text x="2" y="2012">
ʕ ͡•ᴥ ͡•
</text>
<text x="58" y="2012">
ʔ(_̅_̅_̅F
</text>
<text x="106" y="2012">
ISSURE_̅_̅_̅_̅_̅(
</text>
<text x="202" y="2012">
)
</text>
<text x="2" y="2044">
dota_memes
</text>
<text x="2" y="2060">
(∩ ͡° ͜ʖ ͡°)⊃━☆ﾟ.
</text>
<text x="122" y="2060">
*
</text>
<text x="138" y="2060">
･
</text>
<text x="154" y="2060">
｡ﾟ.
</text>
<text x="186" y="2060">
*
</text>
<text x="202" y="2060">
322
</text>
<text x="234" y="2060">
☆ﾟ.
</text>
<text x="266" y="2060">
*
</text>
<text x="282" y="2060">
･
</text>
<text x="298" y="2060">
｡ﾟ.
</text>
<text x="330" y="2060">
*
</text>
<text x="2" y="2092">
hearthstone_memes
</text>
<text x="2" y="2108">
◥█̆◤
</text>
<text x="34" y="2108">
TOTEMIC MIGHT
</text>
<text x="146" y="2108">
◥█̆◤
</text>
<text x="2" y="2140">
LoL_memes
</text>
<text x="2" y="2156">
(∩ ͡° ͜ʖ ͡°)⊃━☆ﾟ.
</text>
<text x="122" y="2156">
･
</text>
<text x="138" y="2156">
｡ﾟMy dick is small,
</text>
<text x="298" y="2156">
my butthole is leaky,
</text>
<text x="474" y="2156">
I use this chant,
</text>
<text x="618" y="2156">
to summon Sneaky
</text>
<text x="2" y="2188">
LoL_memes
</text>
<text x="2" y="2204">
( ͡° ͜ʖ ͡°)
</text>
<text x="74" y="2204">
Welcome to the league of Draven!
</text>
<text x="338" y="2204">
( ͡° ͜ʖ ͡°)
</text>
<text x="2" y="2252">
╭∩╮（︶︿︶）╭∩╮
</text>
<text x="146" y="2252">
I don&apos;
</text>
<text x="194" y="2252">
t CARE?
</text>
<text x="2" y="2300">
FU
</text>
<text x="26" y="2300">
┌∩┐(◣
</text>
<text x="74" y="2300">
◢)┌∩┐
</text>
<text x="2" y="2348">
Seriously,
</text>
<text x="90" y="2348">
FU
</text>
<text x="114" y="2348">
(ಠ_ಠ)┌∩┐
</text>
<text x="2" y="2396">
I don’t care
</text>
<text x="106" y="2396">
╭∩╮（︶︿︶）╭∩╮
</text>
<text x="2" y="2444">
ヘ(
</text>
<text x="34" y="2444">
^o^)ノ＼(^
</text>
<text x="122" y="2444">
^
</text>
<text x="138" y="2444">
)
</text>
<text x="154" y="2444">
Gimme Five
</text>
<text x="2" y="2492">
Punch!
</text>
<text x="58" y="2492">
O=(‘
</text>
<text x="98" y="2492">
‘Q)
</text>
<text x="2" y="2540">
Flex,
</text>
<text x="50" y="2540">
Don’t Mess ヽ(⇀‸↼‶)ノ
</text>
<text x="2" y="2588">
Peace Yo!
</text>
<text x="82" y="2588">
(‾
</text>
<text x="106" y="2588">
‾)☮
</text>
<text x="2" y="2636">
Right Back At Ya!
</text>
<text x="146" y="2636">
(☞ﾟ∀ﾟ)☞
</text>
<text x="2" y="2684">
Gimme
</text>
<text x="50" y="2684">
(
</text>
<text x="66" y="2684">
つ
</text>
<text x="90" y="2684">
º_º
</text>
<text x="122" y="2684">
)つ
</text>
<text x="2" y="2732">
So Sorry
</text>
<text x="74" y="2732">
（ﾉ´д｀）
</text>
<text x="2" y="2780">
The Finger And The Ass
</text>
<text x="186" y="2780">
┌∩┐(‿
</text>
<text x="234" y="2780">
‿)┌∩┐
</text>
<text x="2" y="2828">
Oh Yeah?
</text>
<text x="74" y="2828">
FU
</text>
<text x="98" y="2828">
╭∩╮
</text>
<text x="130" y="2828">
(òÓ,)
</text>
<text x="178" y="2828">
╭∩╮
</text>
<text x="2" y="2876">
(
</text>
<text x="18" y="2876">
•
</text>
<text x="34" y="2876">
•)O*¯`·.¸.·´¯`°Q(•
</text>
<text x="186" y="2876">
•
</text>
<text x="202" y="2876">
)
</text>
<text x="2" y="2924">
Table Flip
</text>
<text x="90" y="2924">
(╯°□°）╯︵
</text>
<text x="178" y="2924">
┻━┻
</text>
<text x="2" y="2972">
Flip All Dem Tablez
</text>
<text x="162" y="2972">
┻━┻︵
</text>
<text x="218" y="2972">
(°□°)
</text>
<text x="274" y="2972">
︵
</text>
<text x="298" y="2972">
┻━┻
</text>
<text x="2" y="3020">
Epic Table Flip
</text>
<text x="130" y="3020">
(˚Õ˚)ر
</text>
<text x="186" y="3020">
~~~~╚╩╩╝
</text>
<text x="2" y="3068">
Ok.
</text>
<text x="34" y="3068">
I Put Table Back
</text>
<text x="170" y="3068">
┬──┬
</text>
<text x="210" y="3068">
ノ(
</text>
<text x="242" y="3068">
゜
</text>
<text x="266" y="3068">
゜ノ)
</text>
<text x="2" y="3116">
Put More Tables Back
</text>
<text x="170" y="3116">
┏━┓┏━┓┏━┓
</text>
<text x="250" y="3116">
︵
</text>
<text x="282" y="3116">
(^.^
</text>
<text x="322" y="3116">
)
</text>
<text x="2" y="3164">
Wot?
</text>
<text x="42" y="3164">
I’m Confused
</text>
<text x="146" y="3164">
(
</text>
<text x="162" y="3164">
•᷄ὤ•᷅)？
</text>
<text x="2" y="3212">
Crazy Bastard
</text>
<text x="114" y="3212">
(⊙
</text>
<text x="138" y="3212">
◎)
</text>
<text x="2" y="3260">
Crazy Bitch
</text>
<text x="98" y="3260">
(⊙﹏⊙✿)
</text>
<text x="2" y="3308">
I Can’t Even
</text>
<text x="106" y="3308">
(｡☉౪
</text>
<text x="146" y="3308">
⊙｡)
</text>
<text x="2" y="3340">
dota_memes
</text>
<text x="2" y="3356">
HEY IXMIKE
</text>
<text x="90" y="3356">
(
</text>
<text x="106" y="3356">
° ͜ʖ͡°
</text>
<text x="138" y="3356">
)╭∩╮
</text>
<text x="2" y="3404">
d[
</text>
<text x="42" y="3404">
]b
</text>
<text x="2" y="3452">
Boom Box
</text>
<text x="74" y="3452">
♫♪.ılılıll|̅●̅|̅=̅|̅●̅|
</text>
<text x="210" y="3452">
llılılı.♫♪
</text>
<text x="2" y="3500">
Party Time
</text>
<text x="90" y="3500">
┏(
</text>
<text x="130" y="3500">
)┛┗(
</text>
<text x="194" y="3500">
)┓┗(
</text>
<text x="250" y="3500">
)┛┏(
</text>
<text x="306" y="3500">
)┓
</text>
<text x="2" y="3548">
Sunglasses
</text>
<text x="90" y="3548">
(
</text>
<text x="106" y="3548">
•
</text>
<text x="122" y="3548">
•)
</text>
<text x="146" y="3548">
(
</text>
<text x="162" y="3548">
•
</text>
<text x="178" y="3548">
•)&gt;
</text>
<text x="202" y="3548">
⌐■
</text>
<text x="226" y="3548">
■
</text>
<text x="242" y="3548">
(⌐■
</text>
<text x="274" y="3548">
■)
</text>
<text x="2" y="3596">
Help ٩(͡๏͡๏
</text>
<text x="74" y="3596">
)۶
</text>
<text x="2" y="3644">
Fuck Off t(
</text>
<text x="98" y="3644">
.-t)
</text>
<text x="2" y="3692">
Facepalm
</text>
<text x="74" y="3692">
(&gt;
</text>
<text x="90" y="3692">
ლ)
</text>
<text x="2" y="3740">
Happy ۜ 
</text>
<text x="66" y="3740">
(סּںסּَ`
</text>
<text x="114" y="3740">
)
</text>
<text x="2" y="3788">
Pirate
</text>
<text x="58" y="3788">
✌(◕‿
</text>
<text x="98" y="3788">
)✌
</text>
<text x="2" y="3836">
Sleeping
</text>
<text x="74" y="3836">
(
</text>
<text x="90" y="3836">
.
</text>
<text x="106" y="3836">
)Zzz…
</text>
<text x="2" y="3884">
Sad
</text>
<text x="34" y="3884">
(╥﹏╥)
</text>
<text x="2" y="3932">
Rage t(ಠ益ಠ)t
</text>
<text x="2" y="3980">
Sunny Day
</text>
<text x="82" y="3980">
☁☼
</text>
<text x="106" y="3980">
▅▒░✿͜ ✿░▒▅
</text>
<text x="186" y="3980">
☼☁
</text>
<text x="2" y="4028">
Smug Bastard
</text>
<text x="106" y="4028">
•|龴◡龴
</text>
<text x="170" y="4028">
•
</text>
<text x="2" y="4076">
Sparkling Heart
</text>
<text x="138" y="4076">
`ღ´
</text>
<text x="2" y="4124">
Love Note 웃❤유
</text>
<text x="2" y="4172">
\m/
</text>
<text x="2" y="4220">
\m/(&gt;
</text>
<text x="42" y="4220">
.&lt;
</text>
<text x="58" y="4220">
)\m/
</text>
<text x="2" y="4268">
Love in my eyes
</text>
<text x="130" y="4268">
(♥
</text>
<text x="154" y="4268">
♥)
</text>
<text x="2" y="4316">
Stars in my Eyes
</text>
<text x="138" y="4316">
✌⊂(✰‿✰)つ✌
</text>
<text x="2" y="4364">
Fuckin Man Tears ಥ_ಥ
</text>
<text x="2" y="4412">
Atish
</text>
<text x="50" y="4412">
(
</text>
<text x="74" y="4412">
–
</text>
<text x="106" y="4412">
–
</text>
<text x="130" y="4412">
)
</text>
<text x="2" y="4460">
Shit,
</text>
<text x="50" y="4460">
Hide!
</text>
<text x="114" y="4460">
・)
</text>
<text x="154" y="4460">
･ω･｀)
</text>
<text x="2" y="4508">
Yay!
</text>
<text x="50" y="4508">
(ˆ˚ˆ)
</text>
<text x="2" y="4556">
OMG!
</text>
<text x="42" y="4556">
Insane Happy Ｏ(≧▽≦)Ｏ
</text>
<text x="2" y="4604">
Love You
</text>
<text x="74" y="4604">
»
</text>
<text x="90" y="4604">
(¯`·.·´¯)
</text>
<text x="178" y="4604">
NAME
</text>
<text x="226" y="4604">
(¯`·.·´¯)
</text>
<text x="306" y="4604">
«
</text>
<text x="322" y="4604">
OMG,
</text>
<text x="2" y="4652">
Yes!
</text>
<text x="42" y="4652">
Success.
</text>
<text x="114" y="4652">
(•̀ᴗ•́)و
</text>
<text x="2" y="4700">
Coffee c[
</text>
<text x="82" y="4700">
]
</text>
<text x="2" y="4748">
Airplane
</text>
<text x="74" y="4748">
✈
</text>
<text x="2" y="4796">
Weather
</text>
<text x="66" y="4796">
☼
</text>
<text x="82" y="4796">
☀
</text>
<text x="98" y="4796">
☁
</text>
<text x="114" y="4796">
☂
</text>
<text x="130" y="4796">
☃
</text>
<text x="146" y="4796">
☄
</text>
<text x="162" y="4796">
☾
</text>
<text x="178" y="4796">
☽
</text>
<text x="194" y="4796">
❄
</text>
<text x="210" y="4796">
☇
</text>
<text x="226" y="4796">
☈
</text>
<text x="242" y="4796">
⊙
</text>
<text x="258" y="4796">
☉
</text>
<text x="274" y="4796">
℃
</text>
<text x="290" y="4796">
℉
</text>
<text x="306" y="4796">
°
</text>
<text x="322" y="4796">
❅
</text>
<text x="338" y="4796">
✺
</text>
<text x="354" y="4796">
ϟ
</text>
<text x="2" y="4844">
Band Aid
</text>
<text x="74" y="4844">
( ̅:̅:̅:̅[̅ ̅]̅:̅:̅:̅ 
</text>
<text x="170" y="4844">
)
</text>
<text x="2" y="4892">
Fish Swimming
</text>
<text x="114" y="4892">
¸.·´¯`·.´¯`·.¸¸.·´¯`·.¸&gt;
</text>
<text x="306" y="4892">
&lt;
</text>
<text x="314" y="4892">
(((º&gt;
</text>
<text x="2" y="4940">
Polar Bear ˁ˚ᴥ˚ˀ
</text>
<text x="2" y="4988">
Mouse
</text>
<text x="50" y="4988">
—
</text>
<text x="66" y="4988">
{,
</text>
<text x="90" y="4988">
,”&gt;
</text>
<text x="2" y="5036">
Cat
</text>
<text x="34" y="5036">
^˚ᴥ˚^
</text>
<text x="2" y="5084">
Snail
</text>
<text x="50" y="5084">
‘
</text>
<text x="66" y="5084">
‘
</text>
<text x="82" y="5084">
@
</text>
<text x="2" y="5132">
Musical
</text>
<text x="66" y="5132">
¸¸♬·¯·♩¸¸♪·¯·♫¸
</text>
<text x="2" y="5180">
Happy Birthday To You¸¸♬·¯·♩¸¸♪·¯·♫¸
</text>
<text x="2" y="5228">
▂▃▅▇█▓▒░۩۞۩
</text>
<text x="98" y="5228">
۩۞۩░▒▓█▇▅▃▂
</text>
<text x="2" y="5276">
Play Cards
</text>
<text x="90" y="5276">
[♥]]]
</text>
<text x="138" y="5276">
[♦]]]
</text>
<text x="186" y="5276">
[♣]]]
</text>
<text x="234" y="5276">
[♠]]]
</text>
<text x="2" y="5324">
Play Chess
</text>
<text x="90" y="5324">
♚
</text>
<text x="106" y="5324">
♛
</text>
<text x="122" y="5324">
♜
</text>
<text x="138" y="5324">
♝
</text>
<text x="154" y="5324">
♞
</text>
<text x="170" y="5324">
♟
</text>
<text x="186" y="5324">
♔
</text>
<text x="202" y="5324">
♕
</text>
<text x="218" y="5324">
♖
</text>
<text x="234" y="5324">
♗
</text>
<text x="250" y="5324">
♘
</text>
<text x="266" y="5324">
♙
</text>
<text x="2" y="5372">
웃웃웃vs웃웃웃
</text>
<text x="2" y="5420">
♋
</text>
<text x="18" y="5420">
♂
</text>
<text x="34" y="5420">
♀
</text>
<text x="50" y="5420">
☿
</text>
<text x="66" y="5420">
웃
</text>
<text x="90" y="5420">
유
</text>
<text x="2" y="5468">
♪
</text>
<text x="18" y="5468">
♫
</text>
<text x="34" y="5468">
♩
</text>
<text x="50" y="5468">
♬
</text>
<text x="66" y="5468">
♭
</text>
<text x="82" y="5468">
♮
</text>
<text x="10" y="5516">
╲
</text>
<text x="34" y="5516">
╭[
</text>
<text x="58" y="5516">
•
</text>
<text x="90" y="5516">
•
</text>
<text x="106" y="5516">
]╮
</text>
<text x="138" y="5516">
╱﻿\
</text>
<text x="10" y="5564">
╲
</text>
<text x="34" y="5564">
╭(.☉ʖ̫☉.)╮
</text>
<text x="122" y="5564">
╱﻿\
</text>
<text x="2" y="5612">
(
</text>
<text x="26" y="5612">
 ͡°╭╮ʖ
</text>
<text x="82" y="5612">
 ͡°)
</text>
<text x="2" y="5660">
ԅ(☉Д☉)╮
</text>
<text x="2" y="5708">
(つ•̀ᴥ•́)つ*:･ﾟ✧
</text>
<text x="2" y="5756">
(⊙
</text>
<text x="26" y="5756">
⊙)
</text>
<text x="2" y="5804">
(=ಠ
</text>
<text x="34" y="5804">
ل͟ ಠ=)
</text>
<text x="2" y="5852">
(つ°ヮ°)つ
</text>
<text x="98" y="5852">
└⋃┘
</text>
<text x="18" y="5900">
•́ ﹏
</text>
<text x="58" y="5900">
•̀\
</text>
<text x="2" y="5948">
¯
</text>
<text x="26" y="5948">
╏
</text>
<text x="42" y="5948">
՞
</text>
<text x="58" y="5948">
︿
</text>
<text x="82" y="5948">
՞
</text>
<text x="98" y="5948">
╏
</text>
<text x="122" y="5948">
¯
</text>
<text x="2" y="5996">
o͡╮(
</text>
<text x="34" y="5996">
ʘ̆ ۝ 
</text>
<text x="58" y="5996">
ʘ̆ )╭o
</text>
<text x="2" y="6044">
७(
</text>
<text x="26" y="6044">
,
</text>
<text x="42" y="6044">
⊙
</text>
<text x="58" y="6044">
–
</text>
<text x="74" y="6044">
⊙
</text>
<text x="90" y="6044">
,
</text>
<text x="106" y="6044">
)७
</text>
<text x="2" y="6092">
o͡╮(
</text>
<text x="34" y="6092">
•
</text>
<text x="50" y="6092">
ʖ̯ •
</text>
<text x="82" y="6092">
)╭o
</text>
<text x="2" y="6140">
⇎
</text>
<text x="18" y="6140">
⇎
</text>
<text x="2" y="6188">
句_句
</text>
<text x="2" y="6236">
१|˚–˚|५
</text>
<text x="2" y="6284">
ộ_ộ
</text>
<text x="2" y="6332">
δﺡό
</text>
<text x="2" y="6380">
⊂•⊃
</text>
<text x="34" y="6380">
⊂•⊃
</text>
<text x="2" y="6428">
❂
</text>
<text x="18" y="6428">
❂
</text>
<text x="2" y="6476">
❐
</text>
<text x="18" y="6476">
❑
</text>
<text x="2" y="6524">
(•̪●)
</text>
<text x="2" y="6572">
(॔)
</text>
<text x="2" y="6620">
٩(͡๏͡๏
</text>
<text x="34" y="6620">
)۶
</text>
<text x="2" y="6668">
٩(-̃•̃)
</text>
<text x="50" y="6668">
۶
</text>
<text x="2" y="6716">
٩(̾●̃ ̾•̾)
</text>
<text x="50" y="6716">
۶
</text>
<text x="2" y="6764">
٩(-̃- ̃)۶
</text>
<text x="2" y="6812">
๏͡๏
</text>
<text x="26" y="6812">
  ̃๏̃๏
</text>
<text x="2" y="6860">
๏̃๏
</text>
<text x="2" y="6908">
[O.o]
</text>
<text x="2" y="6956">
[¬º-°]¬
</text>
</svg>