<svg font-family="arial" font-size="14" height="1040" width="632" xmlns="http://www.w3.org/2000/svg">
<defs>
<marker id="triangle" markerHeight="10" markerUnits="strokeWidth" markerWidth="10" orient="auto" refX="0" refY="5" viewBox="0 0 40 40">
<path d="M 0 0 L 10 5 L 0 10 z"/>
</marker>
</defs>
<style>

    line, path {
      stroke: black;
      stroke-width: 2;
      stroke-opacity: 1;
      fill-opacity: 1;
      stroke-linecap: round;
      stroke-linejoin: miter;
    }
    
</style>
<path d=" M 428 32 L 428 64 M 432 64 L 464 128 M 236 112 L 236 144 M 380 112 L 380 192 M 400 112 L 416 144 M 464 128 L 480 128 M 496 112 L 512 144 M 144 144 L 160 112 M 320 144 L 336 112 M 480 128 L 488 144 M 612 128 L 612 192 M 492 144 L 492 176 M 516 144 L 516 192 M 100 192 L 100 224 M 384 192 L 416 256 M 496 208 L 504 208 L 512 192 M 360 208 L 368 224 L 376 224 M 436 208 L 436 256 M 480 224 L 488 224 L 496 208 M 376 224 L 384 240 L 392 240 M 456 240 L 488 176 M 472 240 L 480 224 M 504 240 L 512 224 M 392 240 L 400 256 M 452 240 L 452 256 M 468 240 L 468 256 M 488 256 L 496 240 M 580 272 L 580 304 M 612 272 L 612 352 M 168 288 L 184 320 M 324 288 L 324 384 M 412 288 L 412 304 M 500 288 L 500 368 M 64 320 L 80 288 M 68 368 L 68 544 M 196 368 L 196 400 M 612 384 L 612 400 M 492 400 L 492 432 M 596 416 L 612 400 M 568 432 L 592 384 M 596 416 L 596 496 M 332 432 L 332 448 M 564 432 L 564 480 M 224 448 L 240 480 M 136 480 L 152 448 M 468 480 L 468 512 M 528 496 L 552 496 L 560 480 M 236 528 L 236 560 M 556 544 L 556 608 M 612 544 L 612 672 M 448 576 L 488 576 L 528 496 M 440 592 L 448 576 M 68 592 L 68 720 M 436 592 L 436 608 M 228 608 L 228 640 M 396 672 L 396 720 M 548 672 L 548 688 M 212 688 L 212 720 M 552 688 L 560 704 M 592 704 L 608 672 M 72 720 L 104 784 M 144 768 L 152 752 M 196 752 L 196 768 M 240 752 L 248 768 M 128 784 L 136 768 M 352 800 L 392 720 M 212 800 L 212 816 M 348 800 L 348 880 M 216 816 L 224 832 M 28 832 L 28 864 M 84 832 L 84 912 M 168 832 L 176 848 L 192 848 M 228 832 L 228 864 M 192 848 L 200 864 L 216 864 M 244 928 L 244 944 M 304 960 L 344 880 M 328 960 L 536 544 M 244 992 L 244 1008" fill="none"/>
<path d="" fill="none" stroke-dasharray="3 3"/>
<line marker-end="url(#triangle)" x1="252" x2="252" y1="768" y2="880"/>
<text x="178" y="12">
Colossal Typewriter
</text>
<text x="218" y="28">
by John McCarthy and Roland
</text>
<text x="250" y="44">
Silver for the PDP-1
</text>
<text x="458" y="44">
Photon typesetter
</text>
<text x="258" y="60">
?
</text>
<text x="458" y="60">
editors by Michael
</text>
<text x="258" y="76">
?
</text>
<text x="458" y="76">
Barnett
</text>
<text x="522" y="76">
&amp;
</text>
<text x="538" y="76">
Kalon
</text>
<text x="106" y="92">
Expensive Typewriter
</text>
<text x="330" y="92">
CREATE/EDIT
</text>
<text x="466" y="92">
Kelley for
</text>
<text x="594" y="92">
TECO
</text>
<text x="90" y="108">
for PDP-1 by Steve Piner
</text>
<text x="338" y="108">
for CTSS
</text>
<text x="466" y="108">
IBM 704
</text>
<text x="562" y="108">
for PDP-1
</text>
<text x="530" y="124">
by Dan Murphy
</text>
<text x="18" y="156">
*
</text>
<text x="34" y="156">
Expensive Typewriter
</text>
<text x="210" y="156">
editors
</text>
<text x="314" y="156">
EDITS
</text>
<text x="394" y="156">
MEMO/MODIFY
</text>
<text x="546" y="156">
VEDIT
</text>
<text x="34" y="172">
for PDP-1,
</text>
<text x="122" y="172">
improved
</text>
<text x="218" y="172">
for
</text>
<text x="298" y="172">
by Arthur
</text>
<text x="394" y="172">
by Leslie
</text>
<text x="530" y="172">
by Victor
</text>
<text x="34" y="188">
by Peter Deutsch
</text>
<text x="210" y="188">
PDP-4,
</text>
<text x="314" y="188">
Samuel
</text>
<text x="410" y="188">
Lowry
</text>
<text x="538" y="188">
Yngve
</text>
<text x="202" y="204">
PDP-5/8
</text>
<text x="306" y="204">
for CTSS
</text>
<text x="402" y="204">
for CTSS
</text>
<text x="530" y="204">
for
</text>
<text x="594" y="204">
PDP-6
</text>
<text x="330" y="220">
?
</text>
<text x="522" y="220">
CTSS
</text>
<text x="570" y="220">
TECO by
</text>
<text x="90" y="236">
QED
</text>
<text x="330" y="236">
?
</text>
<text x="546" y="236">
Greenblatt,
</text>
<text x="34" y="252">
for Berkeley SDS-940
</text>
<text x="330" y="252">
?
</text>
<text x="554" y="252">
Holloway,
</text>
<text x="58" y="268">
by Deutsch and
</text>
<text x="314" y="268">
LINED
</text>
<text x="386" y="268">
TYPSET for CTSS
</text>
<text x="546" y="268">
and Nelson
</text>
<text x="58" y="284">
Butler Lampson
</text>
<text x="298" y="284">
for PDP-6
</text>
<text x="386" y="284">
by Jerry Saltzer
</text>
<text x="554" y="284">
?
</text>
<text x="546" y="300">
?
</text>
<text x="378" y="316">
PDP-7/9 editor
</text>
<text x="538" y="316">
?
</text>
<text x="562" y="316">
DEC
</text>
<text x="50" y="332">
QED,
</text>
<text x="162" y="332">
*
</text>
<text x="178" y="332">
QED
</text>
<text x="530" y="332">
?
</text>
<text x="554" y="332">
TECO
</text>
<text x="18" y="348">
as published
</text>
<text x="162" y="348">
for CTSS
</text>
<text x="370" y="348">
????????????????
</text>
<text x="506" y="348">
???
</text>
<text x="34" y="364">
in CACM
</text>
<text x="130" y="364">
by Ken Thompson
</text>
<text x="354" y="364">
??
</text>
<text x="602" y="364">
ITS
</text>
<text x="346" y="380">
?
</text>
<text x="402" y="380">
ED
</text>
<text x="426" y="380">
(and EDL,
</text>
<text x="506" y="380">
EDA,
</text>
<text x="546" y="380">
EDB)
</text>
<text x="594" y="380">
TECO
</text>
<text x="306" y="396">
STOPGAP
</text>
<text x="458" y="396">
for CTSS
</text>
<text x="186" y="412">
QED
</text>
<text x="298" y="412">
for PDP-10
</text>
<text x="162" y="428">
for Multics
</text>
<text x="282" y="428">
by Bill Weiher
</text>
<text x="130" y="444">
by Ken Thompson
</text>
<text x="482" y="444">
edit
</text>
<text x="322" y="460">
SOS
</text>
<text x="442" y="460">
for Multics
</text>
<text x="298" y="476">
for PDP-10
</text>
<text x="410" y="476">
by Charles Garman
</text>
<text x="122" y="492">
qedx
</text>
<text x="234" y="492">
QED
</text>
<text x="314" y="492">
by Steve
</text>
<text x="90" y="508">
for Multics
</text>
<text x="218" y="508">
for GCOS
</text>
<text x="330" y="508">
Savitzky
</text>
<text x="570" y="508">
EMACS
</text>
<text x="194" y="524">
by Dennis Ritchie
</text>
<text x="346" y="524">
?
</text>
<text x="450" y="524">
edm
</text>
<text x="554" y="524">
in TECO
</text>
<text x="346" y="540">
?
</text>
<text x="410" y="540">
for Multics
</text>
<text x="530" y="540">
by RMS et al.
</text>
<text x="50" y="556">
QUIDS
</text>
<text x="346" y="556">
?
</text>
<text x="2" y="572">
by George Coulouris
</text>
<text x="210" y="572">
*
</text>
<text x="226" y="572">
ed
</text>
<text x="346" y="572">
?
</text>
<text x="50" y="588">
et al.
</text>
<text x="194" y="588">
for PDP-7 Unix
</text>
<text x="346" y="588">
?
</text>
<text x="186" y="604">
by Ken Thompson
</text>
<text x="346" y="604">
?
</text>
<text x="346" y="620">
?
</text>
<text x="394" y="620">
ZED/DOC
</text>
<text x="538" y="620">
Multics
</text>
<text x="346" y="636">
?
</text>
<text x="378" y="636">
by Vaughan
</text>
<text x="546" y="636">
EMACS
</text>
<text x="218" y="652">
ed
</text>
<text x="346" y="652">
?
</text>
<text x="386" y="652">
Pratt
</text>
<text x="514" y="652">
by Bernard
</text>
<text x="194" y="668">
for Unix
</text>
<text x="346" y="668">
?
</text>
<text x="378" y="668">
in TECO
</text>
<text x="514" y="668">
Greenberg
</text>
<text x="162" y="684">
(various versions)
</text>
<text x="346" y="684">
?
</text>
<text x="346" y="700">
?
</text>
<text x="338" y="716">
?
</text>
<text x="546" y="716">
GNU Emacs
</text>
<text x="202" y="732">
ed
</text>
<text x="330" y="732">
?
</text>
<text x="162" y="748">
for Unix v6
</text>
<text x="322" y="748">
?
</text>
<text x="314" y="764">
?
</text>
<text x="162" y="780">
other eds
</text>
<text x="306" y="780">
?
</text>
<text x="106" y="796">
em
</text>
<text x="170" y="796">
(UCLA?)
</text>
<text x="298" y="796">
?
</text>
<text x="2" y="812">
Unix ed with additions
</text>
<text x="290" y="812">
?
</text>
<text x="10" y="828">
from George Coulouris
</text>
<text x="282" y="828">
?
</text>
<text x="274" y="844">
?
</text>
<text x="266" y="860">
?
</text>
<text x="2" y="876">
other
</text>
<text x="218" y="876">
ex
</text>
<text x="242" y="876">
(
</text>
<text x="258" y="876">
1)
</text>
<text x="10" y="892">
em
</text>
<text x="138" y="892">
Unix ed with additions
</text>
<text x="2" y="908">
variants
</text>
<text x="138" y="908">
by Bill Joy and Charles
</text>
<text x="74" y="924">
DED
</text>
<text x="226" y="924">
Haley
</text>
<text x="26" y="940">
by Richard Bornat,
</text>
<text x="26" y="956">
Harold Thimbleby
</text>
<text x="226" y="956">
ex
</text>
<text x="250" y="956">
(v2)
</text>
<text x="162" y="972">
Unix ed with additions
</text>
<text x="210" y="988">
by Bill Joy
</text>
<text x="234" y="1020">
ex/vi
</text>
<text x="282" y="1020">
(v3)
</text>
<text x="170" y="1036">
extended by Mark Horton
</text>
</svg>